<?xml version="1.0" encoding="utf-8"?>
<!-- Svg Vector Icons : http://www.onlinewebfonts.com/icon -->
<!DOCTYPE svg PUBLIC "-//W3C//DTD SVG 1.1//EN" "http://www.w3.org/Graphics/SVG/1.1/DTD/svg11.dtd">
<svg version="1.1" xmlns="http://www.w3.org/2000/svg" xmlns:xlink="http://www.w3.org/1999/xlink" x="0px" y="0px" viewBox="0 0 1000 1000" enable-background="new 0 0 1000 1000" xml:space="preserve">
<metadata> Svg Vector Icons : http://www.onlinewebfonts.com/icon </metadata>
<g><path d="M500,10c135.3,0,257.8,54.8,346.5,143.5C935.2,242.2,990,364.7,990,500c0,135.3-54.8,257.8-143.5,346.5C757.8,935.1,635.3,990,500,990c-135.3,0-257.8-54.9-346.5-143.5C64.8,757.8,10,635.3,10,500c0-135.3,54.8-257.8,143.5-346.5C242.2,64.8,364.7,10,500,10L500,10z M185.2,371.1C236,283.9,314,235.7,394.6,223.6l38.7,174c-33.4,21.8-55.5,59.5-55.5,102.4c0,61.7,45.7,112.6,105.1,121l13,58.4l135.5-49.6l-32.2-58.6c14.4-20,22.9-44.7,22.9-71.2c0-67.5-54.7-122.2-122.2-122.2c-2.3,0-4.5,0.1-6.8,0.2l-85.7-156c146.8-14.9,298.1,88.7,307.7,294.2c49.8,0,84.4,0,134.2,0C837.4,112.5,295.5,20.7,185.2,371.1L185.2,371.1z M542.7,544.3c0.7-0.6,1.3-1.3,2-2l0.1-0.2l0.9-0.9h0l0.8-1l0.2-0.2l0.8-1l0.1-0.2l0.8-1l0.1-0.1l0.8-1.1l0.1-0.1l0.1-0.1l0.8-1.1l0.8-1.1l0,0l0.8-1.2l0,0l0.8-1.2v-0.1l0.7-1.2c1.2-2,2.3-4.2,3.2-6.4l0.1-0.2c0.5-1.3,1-2.6,1.5-3.9l0.1-0.3c0.4-1.3,0.8-2.6,1.2-4l0-0.2l0.3-1.1l0.1-0.5l0.2-1l0.1-0.4l0.2-1.1l0.1-0.4l0.2-1.2l0-0.2l0.2-1.2l0-0.3l0.2-1.2l0-0.4l0.1-1.1l0-0.4c0.1-0.9,0.1-1.9,0.2-2.8c0.1-0.8,0.1-1.6,0.1-2.5c0-22.7-12.3-42.5-30.6-53.2l-0.8-0.4l-0.1,0l-0.4-0.2l-0.9-0.5l-0.4-0.2l-0.1-0.1l-0.4-0.2l-0.4-0.2l-0.4-0.2h0l-0.8-0.4l-0.5-0.2l-0.8-0.4l-0.1,0l-0.5-0.2l-0.4-0.2l-0.4-0.2l-0.5-0.2l-0.4-0.2l0,0l-0.2-0.1l-0.8-0.3l-0.4-0.2h-0.1l-0.1-0.1l-0.8-0.3l-0.4-0.1l-0.1,0l-0.5-0.2l-0.5-0.2l-0.4-0.1h0l-0.2-0.1l-0.8-0.2l-0.4-0.1h-0.1l-0.5-0.2l-0.4-0.1l-0.4-0.1h-0.1l-1.5-0.4h0l-1.3-0.3l-0.1,0h0h-0.1l-1.4-0.3l0,0l-1.5-0.2h-0.1l-1.5-0.2l0,0l-1.5-0.2l0,0l-1.5-0.1h-0.1h0l-0.5,0l-0.5,0h-0.5l0,0l-0.5,0l-0.5,0h-0.5l0,0h-0.5h-0.5H500h-1.4h-0.2H498l-1,0l-0.2,0l-0.8,0l-0.8,0H495c-0.9,0.1-1.8,0.2-2.7,0.3l-0.1,0h-0.1l-1.4,0.2h-0.1c-1,0.2-2,0.4-2.9,0.6h-0.1c-1,0.2-1.9,0.4-2.9,0.7h-0.1l-0.1,0l-1,0.3h-0.1l-0.6,0.2l-0.3,0l-0.9,0.3h0l-0.9,0.3l-0.5,0.2l-0.4,0.1l-0.9,0.3l-0.1,0l-0.2,0l-1.1,0.4l-0.2,0.1l-0.3,0.1l-0.9,0.4l-0.3,0.1l-0.6,0.3l-0.3,0.1l-0.5,0.2l-0.9,0.4l-0.1,0l-0.5,0.3l-0.2,0.1l-0.8,0.4l0,0l-0.8,0.4l-0.1,0l-0.7,0.4l-0.8,0.4l-0.5,0.3l-0.3,0.2l-0.6,0.4l-0.2,0.1l-0.8,0.5l-0.6,0.4l-0.2,0.1l-0.7,0.5l-0.1,0l-0.8,0.5l0,0l-0.7,0.5L464,450l-0.8,0.6l-0.1,0l-0.7,0.5l-0.2,0.1l-0.6,0.4l-0.8,0.6l-0.1,0.2l-0.6,0.4l-0.2,0.2l-0.5,0.4l-0.7,0.6l-0.7,0.6l-0.7,0.6l0,0l-0.7,0.6l-0.6,0.7l-0.7,0.7c-0.4,0.4-0.8,0.9-1.3,1.3l-0.6,0.7l-0.6,0.6l-0.1,0.1l-0.5,0.6l-0.1,0.1l-0.6,0.7l0,0l-0.5,0.7l0,0l-0.5,0.8l-0.1,0l-0.5,0.7l-0.1,0.1l-0.5,0.6l-0.5,0.8l-0.1,0.2l-0.4,0.6c-6.4,9.7-10.1,21.3-10.1,33.8c0,22.2,11.7,41.6,29.3,52.4l0.8,0.5l0.1,0.1l0.4,0.3v0l0.4,0.2l0.4,0.3l0.4,0.3l0.4,0.2l0.5,0.3l0.5,0.2l0.4,0.3l0.4,0.2l0.5,0.3l0.5,0.2l0.5,0.2l0.5,0.2l0.5,0.2l0.5,0.2l0.9,0.4l0.1,0.1l0.5,0.2l0.5,0.2l0,0l0.5,0.2l0.5,0.2l0.4,0.1l0.1,0.1l0.5,0.2l0.5,0.2l0.4,0.1l0.1,0l0.5,0.2l0.5,0.2l0.5,0.2l0.5,0.2l0.5,0.2l0.4,0.1l0.1,0l0.5,0.1l0.5,0.1l0.1,0.1l0.4,0.1l1,0.3l0.1,0l0.4,0.1l1,0.2l0,0l0.5,0.1l1,0.2l0,0c0.9,0.2,1.8,0.3,2.7,0.4l0.4,0h0.2l1.1,0.2h0.3h0l1.3,0.1l0.2,0.1h0.3l1.1,0.1h0.1l1.4,0.1h0.1h0.1h0.2h1.4h1.6h0l1.5-0.1h0.1l1.5-0.1h0.1l0.6-0.1l1-0.1l1.4-0.2h0.2l1.3-0.2l0.3-0.1l0.3,0l1.1-0.2l0,0l1.5-0.3l0.3-0.1l1.1-0.2l0.6-0.2l0.9-0.2l0.7-0.2l0.7-0.2l0.8-0.2l0.7-0.2l0.6-0.2l0.9-0.3l0.2,0l1-0.3l0.2-0.1l0.7-0.2l0.8-0.3l0.6-0.3l0.7-0.3l0.7-0.3l0.7-0.3l0.6-0.3l0.7-0.3l0.7-0.3l0.5-0.3l0.9-0.4l0.4-0.2l0.8-0.4l0.5-0.3l0.7-0.3l0.7-0.4l0.5-0.3l0.7-0.4l0.7-0.4l0.6-0.3l0.6-0.4l0.6-0.4l0.7-0.5l0.4-0.3l0.8-0.5l0.4-0.4l0.7-0.5l0.6-0.5l0.6-0.4l0.4-0.3l0.8-0.7l0-0.1l1-0.9l0.1-0.1L542.7,544.3L542.7,544.3L542.7,544.3z M785.3,214.7c-73-73-173.9-118.1-285.3-118.1c-111.4,0-212.2,45.1-285.3,118.1c-73,73-118.1,173.9-118.1,285.3c0,111.4,45.2,212.2,118.1,285.2c73.1,73,173.9,118.2,285.3,118.2c111.4,0,212.2-45.2,285.3-118.2c73-73,118.2-173.8,118.2-285.2C903.4,388.6,858.2,287.7,785.3,214.7z"/></g>
</svg>