<?xml version="1.0" encoding="UTF-8" standalone="no"?>
<svg
   xmlns:dc="http://purl.org/dc/elements/1.1/"
   xmlns:cc="http://creativecommons.org/ns#"
   xmlns:rdf="http://www.w3.org/1999/02/22-rdf-syntax-ns#"
   xmlns:svg="http://www.w3.org/2000/svg"
   xmlns="http://www.w3.org/2000/svg"
   viewBox="0 0 1440 697.33331"
   height="697.33331"
   width="1440"
   id="svg120"
   version="1.1">
  <metadata
     id="metadata126">
    <rdf:RDF>
      <cc:Work
         rdf:about="">
        <dc:format>image/svg+xml</dc:format>
        <dc:type
           rdf:resource="http://purl.org/dc/dcmitype/StillImage" />
        <dc:title></dc:title>
      </cc:Work>
    </rdf:RDF>
  </metadata>
  <defs
     id="defs124" />
  <g
     id="g128">
    <path
       id="path364"
       d="m 320.7441,567.75169 c -0.50108,-0.50107 -5.30039,-1.03812 -10.66514,-1.19346 -9.04424,-0.26185 -26.93369,-3.42016 -45.12174,-7.96605 -4.17275,-1.04292 -11.37275,-4.298 -16,-7.23351 -4.62726,-2.93549 -9.02631,-5.34296 -9.77568,-5.34993 -0.74938,-0.007 -6.32823,-3.2424 -12.39746,-7.18987 -10.47781,-6.81482 -11.30584,-7.11633 -16.4003,-5.97168 -7.20588,1.61906 -54.90777,0.40815 -58.44244,-1.48354 -1.77897,-0.95208 -6.27564,-1.15754 -12.66398,-0.57864 -8.66403,0.78512 -10.60851,0.53121 -15.51412,-2.02572 -3.0847,-1.60784 -7.20874,-2.75551 -9.16451,-2.55036 -2.12458,0.22286 -5.08531,-0.82999 -7.3553,-2.61556 -2.08964,-1.64372 -5.20186,-3.27554 -6.91604,-3.62627 -1.714179,-0.35073 -4.628999,-0.95221 -6.477379,-1.33663 -1.84839,-0.38441 -4.51197,-0.0828 -5.91909,0.67027 -1.56268,0.83632 -2.85836,0.88384 -3.32914,0.12213 -0.42391,-0.6859 -2.48822,-1.19826 -4.58734,-1.13858 -6.48799,0.18446 -16.11785,-4.50144 -17.03275,-8.28819 -0.44295,-1.83333 -1.35915,-4.03882 -2.03601,-4.90108 -0.67685,-0.86226 -1.06971,-2.36226 -0.873,-3.33333 0.1967,-0.97108 -0.0813,-3.42789 -0.61777,-5.45961 -0.56352,-2.1341 -0.34498,-4.87202 0.51751,-6.4836 0.82112,-1.53426 1.67921,-6.77195 1.90687,-11.63931 0.22766,-4.86735 0.49803,-8.84973 0.60082,-8.84973 0.9974,0 1.2667,-44.05242 0.29552,-48.34115 -0.84964,-3.752 -0.83065,-5.95529 0.056,-6.50331 1.92801,-1.19157 -0.12547,-28.27655 -2.4921,-32.87031 -1.05259,-2.04314 -2.05977,-7.44427 -2.23819,-12.00252 -0.17842,-4.55826 -0.8115,-9.07587 -1.40684,-10.03915 -2.70537,-4.37739 0.72583,-38.49464 4.59934,-45.73235 0.68758,-1.28477 1.25014,-3.77537 1.25014,-5.53469 0,-4.35122 1.38739,-5.40734 3.44507,-2.62249 1.31776,1.78347 2.07487,1.95177 3.30888,0.73557 2.15167,-2.12061 0.57709,-5.92754 -2.03681,-4.92449 -3.19688,1.22676 -2.53109,-3.50548 1.28286,-9.11821 1.83333,-2.698 3.33333,-5.3163 3.33333,-5.81846 0,-2.22538 33.186669,-34.97808 38.410759,-37.90848 1.97409,-1.10733 6.92668,-4.4931 11.00577,-7.52393 8.25962,-6.13703 22.63924,-13.70228 32.1828,-16.93169 3.4463,-1.16619 8.53741,-3.33774 11.31359,-4.82568 2.77618,-1.48794 5.68871,-2.70535 6.47228,-2.70535 0.78359,0 7.97454,-2.14588 15.9799,-4.76863 14.60097,-4.78363 46.73996,-12.84493 57.96824,-14.53994 3.3,-0.49817 7.8,-1.42331 10,-2.05585 2.2,-0.63254 8.2,-2.11381 13.33333,-3.2917 9.5116,-2.18253 19.64989,-4.67286 29.48803,-7.24332 3.01841,-0.78864 7.06841,-1.43389 9,-1.43389 2.80898,0 3.51197,-0.63455 3.51197,-3.17007 0,-4.40008 1.79263,-5.44497 14,-8.16029 5.86667,-1.30495 16.06667,-3.69067 22.66667,-5.30162 6.6,-1.61094 14.1,-3.04458 16.66666,-3.18585 2.56667,-0.14128 12.46667,-1.1253 22,-2.18673 15.41906,-1.71673 17.50107,-1.70679 18.85214,0.09 1.34944,1.7946 1.76272,1.77593 3.70604,-0.1674 1.41194,-1.41194 5.36345,-2.42817 11.14786,-2.86694 25.8932,-1.96412 28.63658,-2.01745 27.7228,-0.53894 -1.30601,2.11318 0.64864,1.84973 2.42418,-0.32673 1.0154,-1.2447 7.7616,-2.28873 21.48032,-3.32426 11,-0.83031 29.3,-2.44441 40.66666,-3.5869 11.36667,-1.14248 23.06667,-2.28551 26,-2.54006 2.93334,-0.25455 6.83334,-0.80104 8.66667,-1.21442 1.83333,-0.41338 8.73333,-1.04148 15.33333,-1.39578 6.6,-0.3543 21.9,-1.56719 34,-2.6953 36.35359,-3.38934 84.1878,-6.52763 101.33334,-6.64823 12.55748,-0.0883 86.33297,2.07467 93.33333,2.7364 13.87341,1.31145 18.05523,1.56755 38,2.32723 11,0.41897 22.7,1.0469 26,1.39538 3.3,0.34848 7.99907,0.64007 10.44237,0.64796 3.09534,0.01 4.1447,0.49602 3.46066,1.60281 -0.65148,1.05412 -0.41112,1.23581 0.7145,0.54014 1.8398,-1.13707 38.39561,1.28839 51.38251,3.4092 4.4,0.71854 9.9538,1.26952 12.3418,1.22442 2.3881,-0.0451 5.6873,0.63804 7.3318,1.51811 1.6444,0.88007 4.4906,1.711 6.3248,1.8465 1.8342,0.13551 7.8349,1.00361 13.3349,1.92912 5.5,0.9255 11.5,1.60703 13.3333,1.5145 3.3496,-0.16906 21.5979,3.35082 25.3334,4.88649 1.1,0.45223 2.59998,0.88816 3.33328,0.96874 0.7333,0.0806 3.4333,0.83121 6,1.66805 2.5667,0.83684 10.6667,2.4305 18,3.54147 7.3334,1.11098 15.4334,2.33759 18,2.7258 2.5667,0.38822 6.7667,0.92137 9.3334,1.18478 18.7434,1.92362 32.2105,3.89378 37.3333,5.46163 3.3,1.00998 9.45,2.58907 13.6667,3.50908 4.2166,0.92002 7.6678,2.02728 7.6693,2.46058 0,0.4333 1.94,0.92455 4.308,1.09165 2.3679,0.1671 7.2221,1.8171 10.787,3.66667 3.565,1.84956 7.6042,3.36284 8.976,3.36284 1.3719,0 5.3665,1.13212 8.877,2.51582 3.5105,1.38371 6.6827,2.43817 7.0493,2.34325 0.7838,-0.2029 5.2299,1.11206 29.0361,8.58754 16.2794,5.11194 17.6407,5.7865 16.931,8.38948 -0.6781,2.48699 -0.5611,2.5736 0.9639,0.71355 2.2338,-2.72456 4.9777,-1.82167 4.1447,1.36381 -0.8533,3.26302 2.2492,5.10351 3.8328,2.27375 1.6732,-2.98984 7.5041,-2.73856 12.9086,0.55631 2.466,1.50344 4.7983,2.41892 5.1828,2.0344 0.3845,-0.38452 2.3346,0.46542 4.3335,1.88876 1.9989,1.42333 4.0183,2.20386 4.4877,1.7345 0.4693,-0.46936 3.7016,0.38172 7.1828,1.89128 3.4812,1.50956 7.9795,3.39844 9.9961,4.19752 2.1254,0.84215 3.6667,2.47327 3.6667,3.88038 0,1.97885 0.8437,2.32902 4.5646,1.89462 3.35,-0.39109 6.9866,0.72996 13.6667,4.21312 13.6545,7.11976 32.3367,15.52191 34.5129,15.52191 1.0574,0 3.0725,1.15 4.478,2.55556 1.4056,1.40554 2.8776,2.23349 3.2713,1.83986 1.1466,-1.14661 7.6883,0.89843 6.9087,2.15979 -0.3887,0.62904 0.3303,1.06145 1.5979,0.96092 1.2676,-0.10053 2.8985,1.15571 3.6241,2.79165 0.7257,1.63595 2.1133,3.27908 3.0836,3.6514 0.9702,0.37231 1.3975,0.0839 0.9494,-0.64112 -0.448,-0.72493 -0.5289,-1.31806 -0.1798,-1.31806 0.8655,0 10.9358,4.34506 19.6686,8.48642 8.3767,3.97251 22.2701,17.54403 26.3673,25.75644 1.53,3.06691 3.3443,5.92379 4.0318,6.34863 0.6873,0.42483 1.6713,2.69168 2.1865,5.03744 0.5152,2.34576 2.1288,6.55193 3.5856,9.34705 2.3065,4.42509 2.4297,5.61128 0.9531,9.17617 -1.3872,3.34915 -1.3756,4.29202 0.064,5.18163 1.1858,0.73293 1.7482,4.06189 1.7252,10.21019 -0.056,14.71121 -2.0112,23.20244 -7.1819,31.18242 -1.1667,1.80048 -2.4927,5.60964 -2.9465,8.4648 -0.4539,2.85515 -2.11,6.55871 -3.6803,8.23014 -1.5703,1.67141 -4.2151,5.97461 -5.8775,9.56266 -3.8936,8.40391 -9.529,14.75448 -18.6953,21.06752 -4.0395,2.78212 -7.3445,5.83448 -7.3445,6.78303 0,1.97621 -8.4385,10.0841 -15.7125,15.09704 -2.7149,1.87096 -5.6938,4.11244 -6.6197,4.98106 -0.926,0.86863 -2.8801,1.95907 -4.3424,2.42319 -1.4624,0.46412 -2.6589,1.32443 -2.6589,1.9118 0,1.20509 -29.4578,16.08569 -31.8434,16.08569 -0.8472,0 -4.7389,1.70688 -8.6484,3.79308 -6.5597,3.50046 -12.281,5.19415 -20.8768,6.18024 -1.8527,0.21255 -7.1512,1.3555 -11.7744,2.5399 -4.6231,1.1844 -10.8647,2.15345 -13.87,2.15345 -3.0054,0 -7.3069,0.56664 -9.559,1.25919 -2.2521,0.69256 -9.4947,1.85338 -16.0947,2.57961 -6.6,0.72624 -13.8,1.62628 -16,2.00009 -2.2,0.37382 -8.2,1.30036 -13.3333,2.05902 -5.1333,0.75864 -11.4294,1.99196 -13.9912,2.74072 -2.5618,0.74876 -6.7618,1.37454 -9.3333,1.39065 -5.0237,0.0315 -15.0539,4.01353 -16.6615,6.61473 -0.5399,0.87359 -0.3139,2.25607 0.5022,3.07216 0.8161,0.81611 1.4838,2.14816 1.4838,2.96012 0,2.16533 -6.7842,9.99037 -8.6615,9.99037 -0.8844,0 -4.4291,1.5 -7.8771,3.33334 -3.4481,1.83333 -6.9487,3.33333 -7.7793,3.33333 -0.8306,0 -2.7489,1.14249 -4.2628,2.53887 -1.514,1.39637 -4.8526,3.16369 -7.4193,3.92737 -2.5667,0.76369 -8.7133,2.93069 -13.6593,4.81557 -4.9459,1.88488 -12.812,4.83026 -17.4801,6.54528 -4.6681,1.71503 -9.1032,3.4988 -9.8558,3.96395 -0.7527,0.46515 -9.3087,1.18019 -19.0135,1.58897 -15.6497,0.65922 -17.9397,0.47666 -20.2502,-1.61429 -2.021,-1.82897 -2.5082,-1.91752 -2.1731,-0.39497 0.6389,2.90284 -6.2225,3.2508 -13.0073,0.65965 -3.74358,-1.42969 -7.34908,-1.87827 -10.43848,-1.29871 -4.7379,0.88886 -8.536,-0.23948 -27.4556,-8.15662 -10.2699,-4.29756 -20.1446,-7.54159 -20.8398,-6.8463 -1.1941,1.19403 -8.7406,-7.1225 -9.7065,-10.69677 l -0.9994,-3.69867 -16.5605,-0.25086 c -9.1082,-0.13798 -17.46044,-0.34436 -18.56044,-0.45864 -2.35608,-0.2448 -27.85603,1.05344 -39.33333,2.0025 -4.4,0.36384 -17.3,0.98026 -28.66667,1.3698 -11.36667,0.38956 -22.46667,0.99363 -24.66667,1.34239 -2.2,0.34876 -13.3,0.97203 -24.66666,1.38505 -29.2332,1.06223 -36.38803,1.50095 -38.66667,2.37096 -1.92393,0.73458 -39.43139,2.3053 -70.04911,2.93348 -8.09368,0.16606 -16.49368,0.69095 -18.66666,1.16642 -12.84968,2.81164 -173.99758,5.28261 -187.9509,2.88197 -13.20025,-2.27109 -25.31322,0.72305 -26.79404,6.62307 -0.75892,3.02377 -3.92056,4.58062 -9.37338,4.61566 -1.55875,0.0107 -6.35875,1.5813 -10.66667,3.49174 -7.76172,3.4421 -18.26028,5.74425 -29.83257,6.54172 -3.3,0.22741 -6.9,0.71366 -8,1.08056 -2.18006,0.72714 -3.75374,1.15584 -18.66667,5.08512 -19.68036,5.1854 -39.54055,7.83408 -41.79993,5.57468 z m 32.97128,-17.62118 c 0.85945,-0.71328 10.24749,-2.88132 20.8623,-4.81788 18.09635,-3.30148 29.24915,-6.71301 29.28439,-8.95782 0.0271,-1.72236 -6.03869,-2.56344 -13.51017,-1.87334 -8.04232,0.74283 -11.2862,-0.44704 -10.044,-3.68417 0.49257,-1.28361 0.12706,-2.13456 -0.91683,-2.13456 -2.65327,0 -3.64304,1.57093 -2.13477,3.38828 1.86946,2.25256 -1.81944,3.55184 -5.79402,2.04071 -1.68222,-0.63959 -3.92701,-0.77275 -4.98842,-0.29594 -1.0614,0.47683 -11.09655,0.68671 -22.30032,0.46642 -15.40056,-0.30282 -20.13632,-0.79078 -19.41072,-2 0.61042,-1.0173 0.16102,-0.95198 -1.2347,0.17942 -1.76706,1.43246 -4.06236,1.4891 -11.7854,0.29082 -5.27501,-0.81844 -10.14049,-1.82772 -10.81216,-2.24284 -0.67168,-0.41512 -2.37076,0.28553 -3.77572,1.55701 -2.24922,2.03552 -3.2619,2.11372 -8.4741,0.6544 -6.1908,-1.73332 -20.0747,-0.80865 -28.63023,1.90676 -3.09413,0.98204 -3.93825,4.72163 -1.06579,4.72163 0.97572,0 4.72572,1.5016 8.33334,3.3369 7.56556,3.84882 23.71612,7.02828 46.5593,9.16587 16.36788,1.53165 37.00422,0.65017 39.83802,-1.70167 z m 698.82872,-14.72976 c 11.7639,-3.61396 13.4202,-3.82329 12.967,-1.6389 -0.2015,0.97117 0.2583,1.37972 1.0217,0.90786 0.7635,-0.47184 1.0615,-1.38633 0.6624,-2.03221 -0.3992,-0.64587 0.4826,-1.82099 1.9594,-2.61137 2.6288,-1.40688 18.1273,-7.01714 26.0562,-9.432 2.2,-0.67004 5.5439,-2.6546 7.4308,-4.41014 1.887,-1.75553 4.737,-3.60641 6.3334,-4.11308 3.1612,-1.00333 3.2582,-1.27768 2.0481,-5.79481 -0.7591,-2.83369 -0.9882,-2.89913 -3.1863,-0.90988 -3.0872,2.79379 -17.1655,5.68968 -27.2927,5.61405 -4.4,-0.0328 -11.4173,0.65663 -15.5941,1.53219 -4.1768,0.87556 -9.5768,1.85316 -12,2.17245 -8.0199,1.05668 -36.721,1.01915 -38.4514,-0.0503 -1.1105,-0.68631 -1.37,-0.51683 -0.7485,0.48877 0.6783,1.09756 -1.4629,1.57068 -7.4607,1.64855 -9.31423,0.12093 -20.81433,-0.1351 -27.32833,-0.60836 -2.3373,-0.16982 -3.92,0.22461 -3.5172,0.87649 0.4133,0.66861 -4.3744,1.00453 -10.9836,0.77065 -8.0919,-0.28633 -11.8773,0.0684 -12.2368,1.14695 -0.7896,2.36897 8.7385,7.7572 16.9872,9.60637 4.0334,0.90418 9.7334,2.56202 12.6667,3.6841 2.9333,1.12206 9.5017,2.5728 14.5965,3.22385 5.09473,0.65104 9.71493,1.63529 10.26713,2.18723 0.5522,0.55193 8.9838,0.9147 18.7369,0.80616 13.9518,-0.15528 19.723,-0.80874 27.0662,-3.06463 z m -557.40379,-4.18522 c -0.42929,-0.69463 -1.34887,-0.91171 -2.04349,-0.4824 -0.69463,0.42929 -0.91171,1.34886 -0.4824,2.04349 0.42929,0.69463 1.34886,0.91171 2.04349,0.4824 0.69463,-0.42929 0.91171,-1.34887 0.4824,-2.04349 z M 207.0262,530.66274 c -0.42212,-1.1 -1.37674,-2 -2.12141,-2 -0.78041,0 -0.65083,0.84721 0.30591,2 0.91292,1.1 1.86756,2 2.12141,2 0.25385,0 0.11627,-0.9 -0.30591,-2 z m 350.85116,0.66667 c 0.45323,-0.73334 -0.076,-1.33334 -1.17596,-1.33334 -1.1,0 -2.37081,0.6 -2.82404,1.33334 -0.45322,0.73333 0.076,1.33333 1.17596,1.33333 1.1,0 2.37082,-0.6 2.82404,-1.33333 z m -340,-2.66667 c 0.45323,-0.73333 0.18864,-1.33333 -0.58797,-1.33333 -0.77661,0 -1.41203,0.6 -1.41203,1.33333 0,0.73333 0.26459,1.33333 0.58798,1.33333 0.32338,0 0.9588,-0.6 1.41202,-1.33333 z m 282.53296,-2.883 c -0.45458,-0.73553 -1.54153,-0.60648 -2.65166,0.31485 -2.53426,2.10324 -2.37144,2.44667 0.77037,1.62507 1.45843,-0.38139 2.305,-1.25435 1.88129,-1.93992 z m 47.67358,-4.92443 c 24.61801,-0.0837 59.09254,-1.06604 76.61008,-2.18285 17.51753,-1.1168 36.7125,-1.93635 42.65552,-1.82121 5.943,0.11506 11.4479,-0.18772 12.2331,-0.673 0.78522,-0.4853 12.72276,-1.18883 26.52788,-1.56342 21.86155,-0.59318 40.88698,-1.58553 75.10022,-3.91714 4.76666,-0.32484 14.96666,-0.97117 22.66666,-1.43628 7.7,-0.46511 16.4,-1.17163 19.33334,-1.57004 2.93333,-0.39841 14.93333,-1.01591 26.66666,-1.37223 11.73334,-0.3563 32.43334,-1.10924 46,-1.67317 34.12381,-1.41845 72.56961,-2.79211 98.66671,-3.52532 22.81213,-0.64092 23.32583,-0.64636 33.49803,-0.35524 3.3905,0.0971 12.3905,-0.77977 20,-1.94848 7.6094,-1.16869 20.1353,-2.72172 27.8353,-3.45116 27.0203,-2.55973 40.798,-4.78775 67.3334,-10.88867 20.0073,-4.6 54.123,-9.84826 80.1498,-12.33004 12.6442,-1.20568 24.9531,-4.18072 44.2819,-10.70284 16.2975,-5.49926 29.56,-11.98033 29.5659,-14.44814 0,-0.55 1.1726,-1 2.6028,-1 1.4302,0 3.0802,-0.79631 3.6666,-1.76958 0.5865,-0.97328 6.159,-5.62328 12.3833,-10.33333 6.2244,-4.71007 13.6344,-10.75376 16.4667,-13.43043 2.8323,-2.67666 5.6959,-5.37666 6.3636,-6 4.6677,-4.35787 14.5194,-15.6783 14.5194,-16.68405 0,-0.67509 1.112,-2.4211 2.4712,-3.88001 3.9281,-4.21631 14.8621,-27.08648 14.8621,-31.08639 0,-1.99945 0.6872,-6.36441 1.5271,-9.69992 2.84,-11.27878 -1.6036,-32.96629 -9.0352,-44.09762 -4.7987,-7.18743 -32.6432,-28.29743 -38.4489,-29.14952 -0.9234,-0.13553 -5.5019,-2.11153 -10.1744,-4.39112 -7.2937,-3.55836 -11.9074,-5.04177 -11.8542,-3.81136 0.01,0.18333 0.8673,3.14361 1.9097,6.57839 2.3514,7.74809 0.7733,9.59694 -8.4204,9.86558 -10.8103,0.31587 -28.3936,3.08143 -30.4518,4.78956 -1.4271,1.18447 -8.63,1.61724 -25.5201,1.53335 -24.9372,-0.12387 -25.3337,-0.15784 -50.1985,-4.30071 -18.5094,-3.08394 -22,-3.98334 -22,-5.6686 0,-0.69049 -1.125,-0.62265 -2.579,0.15552 -3.038,1.62587 -4.4898,1.77798 -3.6296,0.38024 0.3385,-0.55 -1.5761,-1.16038 -4.2546,-1.35642 -2.6786,-0.19603 -5.0589,-0.91232 -5.2896,-1.59176 -0.2307,-0.67944 -1.1701,-0.94728 -2.0876,-0.5952 -0.9176,0.35208 -3.4288,-0.27792 -5.5806,-1.40002 -2.1518,-1.12209 -4.5349,-2.04386 -5.2959,-2.04838 -2.7786,-0.0165 -24.1491,-9.50158 -31.2831,-13.88464 -4.0333,-2.47808 -10.3333,-6.1572 -14,-8.17584 -3.6666,-2.01863 -8.7666,-5.30047 -11.3333,-7.29298 -2.5667,-1.99249 -6.6167,-4.62033 -9,-5.83965 -2.3833,-1.21931 -4.3333,-3.10151 -4.3333,-4.18268 0,-1.08117 -0.9664,-1.96576 -2.1476,-1.96576 -2.9947,0 -27.5524,-25.42098 -31.9307,-33.05313 -1.9814,-3.45411 -5.3513,-8.13643 -7.4884,-10.40515 -2.1372,-2.26872 -4.3473,-5.86872 -4.9113,-8 -0.8959,-3.3854 -1.8572,-4.01603 -7.6071,-4.99075 -3.6199,-0.61364 -10.2239,-2.26364 -14.6756,-3.66667 -4.45173,-1.40303 -9.44123,-2.55096 -11.08773,-2.55096 -1.6465,0 -4.0686,-0.57529 -5.3824,-1.27841 -2.3056,-1.23392 -7.812,-2.00547 -24.7693,-3.47064 -4.4,-0.38018 -9.5,-1.24295 -11.3333,-1.91727 -5.4568,-2.00708 -22.736,-5.18102 -36.6561,-6.73321 -13.84579,-1.54389 -17.65705,-1.83587 -38.67724,-2.96308 -7.33333,-0.39325 -16.93333,-1.32924 -21.33333,-2.07998 -4.4,-0.75074 -19.97362,-1.74927 -34.60804,-2.21895 -14.63443,-0.46969 -27.15706,-1.19329 -27.8281,-1.60801 -1.5981,-0.98769 -10.43948,-1.3135 -43.68929,-1.60997 -22.9226,-0.20438 -27.97016,-0.60304 -30.55448,-2.41316 -1.70265,-1.19258 -2.63897,-1.42929 -2.08072,-0.52602 0.78173,1.26487 -2.04496,1.58546 -12.29959,1.39496 -7.32302,-0.13605 -13.97421,0.16031 -14.7804,0.65856 -0.8062,0.49826 -4.92186,0.8551 -9.14593,0.79298 -8.73779,-0.12851 -29.61323,1.1042 -31.80103,1.87788 -0.79984,0.28284 -2.2675,0.0116 -3.26149,-0.60268 -0.99399,-0.61431 -2.73957,-0.62548 -3.87909,-0.0248 -1.13951,0.60067 -8.07184,1.41315 -15.40518,1.8055 -7.33333,0.39236 -17.43316,1.36365 -22.44405,2.15843 -5.01091,0.79478 -9.52225,1.19072 -10.02523,0.87987 -0.50298,-0.31086 -7.50316,-0.0253 -15.55594,0.63455 -8.05279,0.65985 -18.84144,1.52932 -23.97478,1.93215 -5.13333,0.40283 -12.33333,1.54885 -16,2.5467 -3.66666,0.99785 -12.96666,2.20085 -20.66666,2.67333 -7.7,0.47248 -15.8,1.1224 -18,1.44427 -2.2,0.32187 -10.6,0.95194 -18.66667,1.40016 -18.59079,1.03298 -40.08153,2.67848 -51.66667,3.95599 -6.65173,0.7335 -9,0.57598 -9,-0.60371 0,-0.94275 -0.68225,-1.17037 -1.66666,-0.55603 -0.91667,0.57206 -2.56667,1.17537 -3.66667,1.34068 -3.80192,0.57136 -24.68069,3.41441 -28.66667,3.90352 -2.2,0.26996 -7.73436,0.77236 -12.29857,1.11643 -4.56421,0.34408 -9.56109,1.30128 -11.10419,2.12712 -1.54309,0.82584 -3.58985,1.20058 -4.54836,0.83277 -2.59418,-0.99549 -7.41861,2.91049 -9.39213,7.6041 -1.54467,3.67369 -2.67543,4.31824 -10.19704,5.81245 -4.65284,0.92431 -11.45971,2.31885 -15.12637,3.09897 -3.66667,0.7801 -9.36934,1.86105 -12.67259,2.40209 -3.30325,0.54104 -6.77391,1.45836 -7.71257,2.03848 -1.67327,1.03415 -15.56172,3.44121 -23.77012,4.11971 -2.2854,0.18892 -4.80992,0.74806 -5.61004,1.24257 -1.602,0.99009 -19.30044,5.13519 -34.90135,8.17414 -5.5,1.07136 -13.3,2.8968 -17.33333,4.05655 -4.03334,1.15973 -9.73334,2.76373 -12.66667,3.56444 -2.93333,0.80072 -5.63333,1.87412 -6,2.38535 -0.64004,0.89237 -4.88669,1.87946 -14.4796,3.36561 -2.46379,0.38169 -6.66716,1.81 -9.34084,3.174 -2.67367,1.36401 -7.55785,3.19147 -10.85372,4.06101 -3.29588,0.86955 -7.49251,2.55226 -9.32584,3.73936 -1.83333,1.18711 -5.79297,3.47334 -8.79919,5.08052 -11.92473,6.37519 -26.72799,16.7407 -30.25765,21.18695 -2.04793,2.57975 -4.6351,4.69044 -5.74926,4.69044 -2.79098,0 -19.700469,17.45172 -21.784529,22.48309 -0.93295,2.25234 -2.57128,4.82135 -3.64073,5.70892 -2.88628,2.3954 -5.65445,8.32872 -6.56245,14.06599 -0.44178,2.79144 -1.03814,5.45872 -1.32524,5.92729 -1.28425,2.09601 -4.76239,21.29417 -5.28075,29.14804 -0.31461,4.76667 0.0365,11.96667 0.78023,16 3.23929,17.56691 8.16037,66.4037 6.90724,68.54745 -1.02916,1.7606 -1.69582,12.12481 -1.42278,22.11921 0.33128,12.12654 0.24378,13.22295 -1.61458,20.22995 -1.41525,5.33628 -1.33985,6.88832 0.52562,10.81952 1.82682,3.84973 2.72992,4.48404 5.60241,3.93493 3.8851,-0.74268 9.95499,3.96504 9.95499,7.72095 0,1.64167 5.07843,4.25149 18.999999,9.76423 20.90604,8.27847 30.09936,9.94885 55.66667,10.11437 7.7,0.0499 20.6,0.23556 28.66667,0.41269 14.07865,0.30916 30.2729,0.15633 56,-0.52845 6.6,-0.17567 13.8,-0.25603 16,-0.17858 8.14701,0.28684 43.26666,1.6596 62,2.42346 38.95521,1.58841 63.08308,2.09108 112.93384,2.35282 36.31693,0.1907 51.37418,0.70792 52.46824,1.80235 0.96261,0.96293 2.87156,1.1514 5.12274,0.50577 1.9736,-0.56602 23.73038,-1.09766 48.34838,-1.18144 z M 143.19021,439.2521 c -4.04862,-1.17832 -8.64618,-7.12074 -8.64618,-11.17533 0,-1.19599 -0.83105,-3.5034 -1.84677,-5.1276 -2.62977,-4.20513 -3.69951,-14.37472 -4.22638,-40.17858 -0.30312,-14.84551 0.17936,-26.82203 1.41109,-35.02726 2.05688,-13.70198 2.55606,-15.08058 5.46053,-15.08058 1.08594,0 4.20053,-1.09319 6.92131,-2.4293 5.69939,-2.79882 6.23574,-2.73534 22.28022,2.63714 7.855,2.63024 13.20065,5.29436 15.47595,7.71276 1.91178,2.03202 4.91178,4.08798 6.66666,4.56881 3.68708,1.01023 9.19072,8.98649 9.19072,13.31983 0,3.61282 -10.31213,13.70878 -18.45193,18.06513 -8.21648,4.3974 -17.66075,6.60404 -25.22553,5.89391 -8.83182,-0.82907 -11.48715,2.64781 -11.18051,14.63973 0.0834,3.26137 -0.28305,3.62499 -2.85651,2.83437 l -2.95218,-0.90694 2.84108,3.16561 c 1.57924,1.75963 3.24558,5.98873 3.75181,9.52194 1.02631,7.16302 5.08867,17.16626 7.92838,19.523 1.62309,1.34706 1.61166,2.1142 -0.0821,5.50948 -1.08229,2.16948 -2.07384,3.89042 -2.20347,3.82427 -0.12962,-0.0661 -2.04489,-0.64681 -4.25616,-1.29039 z m 36.68715,-66.4467 c 0,-0.65488 -0.9,-1.53604 -2,-1.95816 -1.21828,-0.46749 -2,-0.003 -2,1.19068 0,1.07699 0.9,1.95816 2,1.95816 1.1,0 2,-0.53581 2,-1.19068 z m -20,-2.14265 c 0.91292,-1.1 2.74043,-2 4.06114,-2 2.29986,0 14.29184,-8.25531 16.17916,-11.13779 1.7996,-2.74849 -1.6283,-5.89085 -9.7321,-8.92148 -4.54229,-1.69871 -9.51485,-3.2518 -11.05012,-3.45133 -6.68434,-0.86875 -12.23884,-2.2485 -13.68651,-3.39979 -1.13159,-0.89991 -1.34984,-0.4316 -0.79235,1.70024 0.48975,1.87281 -0.008,3.51049 -1.36862,4.50561 -4.89297,3.57783 -3.35786,21.64662 2.02292,23.81044 3.78136,1.52064 12.76027,0.82946 14.36648,-1.1059 z m 1110.13224,40.61358 c -2.1272,-0.63646 -6.1421,-2.98489 -8.9218,-5.21873 -2.7797,-2.23384 -5.545,-4.06152 -6.145,-4.06152 -0.6001,0 -4.1272,-2.85 -7.838,-6.33333 -7.7152,-7.24222 -12.2136,-15.74564 -12.7646,-24.12902 -0.3387,-5.15234 0.1052,-6.19242 3.9986,-9.37006 3.2873,-2.683 4.5665,-4.96871 5.1294,-9.1655 0.8847,-6.59565 -2.2397,-14.39357 -6.2809,-15.6762 -1.4537,-0.46141 -2.6432,-1.37686 -2.6432,-2.03434 0,-0.65748 -2.0968,-2.62023 -4.6596,-4.36168 -2.5627,-1.74144 -4.2127,-3.6933 -3.6666,-4.33744 0.5461,-0.64415 -0.2071,-0.29096 -1.6738,0.78486 -4.2004,3.08103 -4.6837,4.39806 -2.7163,7.40079 2.5455,3.88483 5.1446,18.41248 3.3984,18.99456 -2.3756,0.79185 -1.4416,5.22541 1.249,5.92901 2.199,0.57504 2.6007,1.87839 2.6164,8.48884 0.011,4.29523 0.3353,13.04956 0.7224,19.45407 0.6911,11.43332 0.6459,11.65909 -2.4922,12.44671 -4.1643,1.04517 -8.5968,-1.3949 -9.3184,-5.12975 -0.3147,-1.62884 -1.609,-8.36152 -2.8763,-14.96152 -1.2673,-6.6 -3.1133,-13.61311 -4.1021,-15.58469 -0.9889,-1.97158 -1.8093,-4.97158 -1.8232,-6.66667 -0.014,-1.69508 -0.3889,-6.07012 -0.8334,-9.72229 -0.832,-6.83484 1.6386,-24.69302 3.4161,-24.69302 0.549,0 1.6817,-1.5 2.517,-3.33333 1.2963,-2.84519 2.4079,-3.33333 7.5902,-3.33333 6.3485,0 13.3926,2.31864 16.7053,5.49873 1.0709,1.02805 3.6293,2.94636 5.6854,4.26291 2.0561,1.31656 4.0955,3.40877 4.532,4.64938 0.4366,1.2406 1.8602,3.45564 3.1637,4.92231 3.0811,3.4668 6.5219,13.48103 6.5466,19.05312 0.023,5.23201 -4.3423,14.31751 -7.9671,16.58119 -2.5293,1.5796 -2.5089,1.75694 0.863,7.51065 4.1371,7.05951 10.9284,13.26475 17.9657,16.41547 2.8368,1.27005 5.1578,2.80481 5.1578,3.41057 0,0.60575 1.8305,3.10548 4.0677,5.55496 l 4.0678,4.45359 -3.5535,1.84355 c -3.9748,2.06212 -3.784,2.05256 -9.1165,0.45715 z m -18.1322,-46.61358 c 0,-0.73334 -0.2646,-1.33334 -0.5879,-1.33334 -0.3234,0 -0.9588,0.6 -1.4121,1.33334 -0.4532,0.73333 -0.1886,1.33333 0.588,1.33333 0.7766,0 1.412,-0.6 1.412,-1.33333 z m -36,-25.33334 c 0,-0.73333 -0.2646,-1.33333 -0.5879,-1.33333 -0.3234,0 -0.9588,0.6 -1.4121,1.33333 -0.4532,0.73334 -0.1886,1.33334 0.588,1.33334 0.7766,0 1.412,-0.6 1.412,-1.33334 z m 35.3334,0 c 0.4532,-0.73333 0.1886,-1.33333 -0.588,-1.33333 -0.7766,0 -1.412,0.6 -1.412,1.33333 0,0.73334 0.2646,1.33334 0.5879,1.33334 0.3234,0 0.9588,-0.6 1.4121,-1.33334 z m -35.3334,-9.8104 c 0,-1.69405 -0.6158,-0.93764 -2.5596,3.14374 -1.4968,3.14302 -1.4691,3.18557 0.4861,0.74516 1.1404,-1.4235 2.0735,-3.1735 2.0735,-3.8889 z m -318.04569,77.75995 c -2.41521,-2.66877 -2.54892,-4.46379 -1.45496,-19.53253 0.16968,-2.33732 -0.12493,-3.98179 -0.65464,-3.65439 -1.79483,1.10925 -4.52852,-10.61351 -5.77455,-24.76263 -0.22602,-2.56666 -0.859,-8.9881 -1.4066,-14.26986 -0.98937,-9.54266 -0.96917,-9.6297 3.20364,-13.80251 l 4.1993,-4.19928 10.96673,0.94813 c 6.03174,0.52148 13.36674,1.99419 16.30004,3.27268 2.9334,1.27848 6.3834,2.69412 7.6667,3.14584 1.2833,0.45172 2.3333,1.3751 2.3333,2.05195 0,0.67684 1.4924,1.6052 3.3165,2.06301 1.8241,0.45782 4.274,2.29383 5.4444,4.08003 2.851,4.35112 5.8687,14.63441 4.7795,16.28681 -1.7737,2.691 -15.3789,11.17316 -17.4248,10.86359 -1.1636,-0.17605 -3.5032,0.44411 -5.1993,1.37813 -1.696,0.93403 -4.696,1.59339 -6.6666,1.46524 -1.9707,-0.12813 -5.4326,-0.16941 -7.6932,-0.0917 l -4.11013,0.14131 1.17914,7.66666 c 2.19959,14.30146 3.30669,24.99447 2.74739,26.53528 -0.5259,1.44859 -4.61302,3.07303 -7.83289,3.11319 -0.80301,0.0107 -2.56654,-1.20451 -3.91897,-2.69892 z m 28.06196,-50.84423 c 2.1524,-1.2254 4.0963,-2.77653 4.3198,-3.44697 0.6984,-2.09516 -6.2183,-7.99403 -10.3718,-8.84559 -2.1804,-0.44702 -5.7654,-1.18102 -7.9668,-1.63113 -4.3775,-0.89504 -10.66417,2.23581 -10.66417,5.31092 0,4.84356 4.31958,10.15739 9.36027,11.51469 2.8566,0.76922 5.6147,2.07966 6.1292,2.91211 0.6399,1.03529 1.6218,0.70787 3.1077,-1.03624 1.1948,-1.40237 3.9334,-3.55237 6.0858,-4.77779 z m 11.0115,-9.35532 c -0.2903,-0.87084 -1.2407,-1.82097 -2.112,-2.11141 -0.9744,-0.32477 -1.2724,0.28479 -0.7741,1.58333 0.9301,2.42362 3.686,2.9279 2.8861,0.52808 z m -24.0859,-15.25258 c -0.345,-0.34496 -2.242,-0.22192 -4.2155,0.27341 -3.79663,0.95288 -3.1795,2.63484 1.2736,3.47115 2.4121,0.453 4.492,-2.19442 2.9419,-3.74456 z m 45.3225,71.5559 c -3.2517,-2.85502 -4.5473,-5.16002 -4.6842,-8.33333 -0.1041,-2.41265 -0.7845,-6.42081 -1.512,-8.90703 -0.883,-3.01781 -0.8639,-7.89294 0.058,-14.66666 1.1292,-8.3001 2.0673,-10.84439 5.1561,-13.98283 l 3.7758,-3.83653 1.6104,3.00902 c 0.8857,1.65496 1.8472,8.43086 2.1366,15.05754 0.2894,6.62668 0.8764,12.39864 1.3043,12.82658 2.0876,2.0876 8.7052,-8.64945 12.0262,-19.51252 3.4979,-11.44134 4.0135,-13.82097 4.3613,-20.12537 0.1462,-2.64961 0.7811,-3.02557 4.5035,-2.66667 l 4.3334,0.41782 v 15.33333 c 0,15.04975 -0.092,15.51849 -5,25.34515 -2.75,5.50649 -5,10.75141 -5,11.65536 0,0.90396 -1.2,2.39297 -2.6667,3.30892 -1.4667,0.91594 -2.6667,2.50489 -2.6667,3.53097 0,2.85469 -4.1867,5.40337 -8.9536,5.45053 -2.8905,0.0285 -5.7511,-1.2432 -8.7819,-3.90428 z m 11.8389,-1.17118 c -2.8471,-0.55563 -4.0047,0.45334 -2.7848,2.42724 0.6596,1.0672 1.5084,0.99816 3.0078,-0.24463 1.8821,-1.55992 1.86,-1.77611 -0.223,-2.18261 z m -7.4366,-8.21547 c 0,-0.73333 -0.5646,-1.33333 -1.2547,-1.33333 -0.69,0 -1.6254,0.6 -2.0787,1.33333 -0.4532,0.73333 0.1114,1.33333 1.2547,1.33333 1.1433,0 2.0787,-0.6 2.0787,-1.33333 z m 9.3129,-6.33333 c -0.048,-2.37036 -2.3288,-4.59236 -3.225,-3.14235 -0.5016,0.81163 -0.5412,2.07568 -0.088,2.80901 0.9612,1.55523 3.3428,1.79486 3.313,0.33334 z m -15.0966,-11.33334 c -0.3698,-0.91666 -0.6725,-0.16666 -0.6725,1.66667 0,1.83333 0.3027,2.58333 0.6725,1.66667 0.3699,-0.91667 0.3699,-2.41667 0,-3.33334 z m 63.81633,25.72303 c -9.0971,-1.24087 -10.5392,-8.64201 -6.6356,-34.05636 1.1264,-7.33333 2.2357,-15.23613 2.4652,-17.56179 0.2295,-2.32564 1.722,-6.43982 3.3167,-9.14262 l 2.8995,-4.91419 3.4531,3.45311 c 4.1478,4.14778 4.6245,11.49782 2.0713,31.93198 -0.9002,7.20491 -1.2937,13.65491 -0.8744,14.33334 0.4193,0.67842 4.8604,1.2335 9.8692,1.2335 11.019,0 16.1377,2.88914 13.5813,7.66571 -1.5085,2.81872 -6.3935,5.23084 -7.7818,3.84255 -0.4043,-0.40438 -2.4767,0.16536 -4.6053,1.26608 -2.1286,1.10072 -4.4021,1.67249 -5.0524,1.27061 -0.6503,-0.40188 -2.5826,-0.25104 -4.2942,0.3352 -1.7115,0.58624 -5.4972,0.74053 -8.4126,0.34288 z m 154.3785,-0.14887 c -3.7131,-1.39434 -6.4175,-5.63181 -8.4505,-13.24082 -0.8817,-3.3 -2.4241,-7.8 -3.4276,-10 -1.0035,-2.2 -2.457,-6.55 -3.2301,-9.66667 -1.2961,-5.22495 -1.7456,-5.66667 -5.7661,-5.66667 -6.304,0 -8.635,2.32735 -12.0535,12.03459 -4.6169,13.11021 -10.7617,22.26171 -15.672,23.34019 -8.9394,1.96342 -9.156,-5.85434 -0.6847,-24.70811 3.4597,-7.7 6.982,-15.2 7.8272,-16.66667 0.8452,-1.46666 2.365,-4.46666 3.3773,-6.66666 1.0122,-2.2 2.4018,-5.04186 3.088,-6.31524 0.6862,-1.27339 1.2476,-3.1107 1.2476,-4.0829 0,-3.69873 5.5854,-13.11441 8.3965,-14.15433 4.8581,-1.79725 8.66,1.09867 12.8165,9.76251 2.1435,4.46781 4.1051,9.32329 4.3592,10.78996 0.3144,1.81533 1.5636,2.70874 3.9128,2.79848 1.8979,0.0725 4.1403,0.55792 4.9829,1.07869 2.5053,1.54833 1.7433,4.98389 -1.2807,5.77469 -2.5285,0.66124 -2.727,1.38171 -1.9643,7.13098 0.4666,3.51748 1.7323,8.51104 2.8127,11.0968 2.3374,5.59428 2.6396,12.02838 0.5029,10.70781 -0.908,-0.56112 -1.2798,0.0404 -0.9818,1.58797 0.2639,1.37019 1.2435,2.49124 2.1768,2.49124 0.9334,0 2.266,0.9 2.9613,2 1.6284,2.57584 1.6755,8 0.07,8 -0.6795,0 -1.4295,0.82611 -1.6666,1.83578 -0.3062,1.30394 -1.2777,1.51786 -3.3534,0.73838 z m -103.5106,-1.83633 c -1.5797,-1.19732 -2.2811,-3.14271 -2,-5.5472 0.3362,-2.87667 1.3638,-3.94272 4.6042,-4.77639 4.2998,-1.10624 12.4953,-8.40168 12.4953,-11.12297 0,-0.84471 -2.3678,-2.24524 -5.2618,-3.11231 -7.6883,-2.30346 -10.7382,-6.88676 -10.7382,-16.13692 0,-6.96241 0.4292,-8.06325 5.1285,-13.15352 5.6046,-6.0709 7.442,-6.60778 11.9082,-3.47958 4.4094,3.08849 3.9878,9.77724 -0.9121,14.47168 -2.1315,2.04206 -4.3815,3.63056 -5,3.52997 -0.6185,-0.10053 -1.3096,0.98935 -1.5357,2.42208 -0.4096,2.59572 3.76,5.06948 7.3787,4.37773 0.8988,-0.17182 3.3704,0.58542 5.4924,1.68275 3.0929,1.5994 3.7297,2.6674 3.2103,5.38433 -0.494,2.58418 -0.094,3.38919 1.6821,3.38919 1.945,0 2.1967,0.82067 1.5235,4.96873 -1.0497,6.46879 -4.4462,10.87567 -10.9515,14.20927 -2.8917,1.48188 -5.4577,3.17305 -5.7022,3.75816 -0.7255,1.73652 -8.6926,1.12781 -11.3217,-0.865 z m -705.90057,-6.72565 c -2.38333,-1.0359 -4.33333,-2.4434 -4.33333,-3.1278 0,-0.68439 -1.55074,-2.26043 -3.44608,-3.50231 -3.03063,-1.98575 -3.7138,-2.02361 -5.66667,-0.31413 -1.22132,1.0691 -4.02059,2.81114 -6.22059,3.87121 -12.21528,5.88588 -20.95764,0.0591 -32.11872,-21.40704 -0.51509,-0.99068 -0.33026,-2.19068 0.41072,-2.66667 0.74098,-0.476 1.76286,-4.24556 2.27083,-8.37681 1.29763,-10.55343 8.90869,-19.82196 16.27725,-19.82196 3.98372,0 12.49326,3.39973 12.49326,4.99131 0,0.92145 0.82653,1.67536 1.83674,1.67536 1.0102,0 2.58367,0.9 3.49659,2 2.45444,2.95742 5.23481,2.43273 6.63584,-1.25227 0.68008,-1.78875 2.54031,-3.95003 4.13384,-4.80287 2.47587,-1.32504 3.3922,-1.05572 6.29947,1.85156 3.11702,3.11703 3.2801,3.82683 1.9459,8.46952 -3.53917,12.31547 -4.04737,15.09604 -2.88985,15.81143 0.66448,0.41067 1.20813,2.51127 1.20813,4.66799 0,5.78762 2.6537,4.83108 8.54503,-3.08014 8.0092,-10.75522 10.50729,-17.34726 9.45987,-24.96293 -1.08835,-7.91327 1.0116,-9.82051 4.12436,-3.74589 1.23356,2.40732 2.88365,4.78932 3.66688,5.29333 2.14749,1.38196 1.9533,17.05339 -0.28266,22.81049 -1.08092,2.78314 -3.85233,6.71707 -6.15869,8.74208 -2.30637,2.02503 -3.96825,4.3573 -3.69307,5.18284 0.27518,0.82554 -0.73613,2.16271 -2.24736,2.9715 -1.51124,0.80878 -2.74769,2.3494 -2.74769,3.4236 0,2.41192 -4.73481,7.30517 -7,7.23424 -0.91667,-0.0287 -3.61667,-0.89975 -6,-1.93564 z m -24.18457,-15.42512 c 1.45206,-0.77712 4.86262,-1.56508 7.57901,-1.75103 5.38216,-0.36841 5.18723,0.31096 3.39608,-11.83603 -0.59089,-4.00721 -0.31236,-5 1.40276,-5 1.17703,0 2.14005,-0.885 2.14005,-1.96666 0,-1.44715 -0.99532,-1.7676 -3.76786,-1.2131 -3.01376,0.60275 -4.2059,0.0851 -5.95642,-2.58657 -2.52786,-3.858 -6.39618,-3.56657 -11.27572,0.84947 -2.44972,2.21702 -3,4.1239 -3,10.39581 0,12.91396 2.74762,16.71229 9.4821,13.10811 z m -6.14876,-34.58706 c 0.45322,-0.73333 -0.11134,-1.33333 -1.25464,-1.33333 -1.14328,0 -2.0787,0.6 -2.0787,1.33333 0,0.73334 0.56459,1.33334 1.25464,1.33334 0.69006,0 1.62547,-0.6 2.0787,-1.33334 z m -121.46996,48.95275 c -1.5418,-0.89068 -4.6918,-3.23068 -7,-5.2 -3.71039,-3.16567 -4.19671,-4.38464 -4.19671,-10.5192 0,-5.37605 0.90079,-8.40259 4,-13.43944 2.2,-3.57547 4,-7.02184 4,-7.65863 0,-3.01402 5.34053,-2.27388 8.67029,1.20164 l 3.54464,3.69982 -2.33856,6.58437 c -3.0724,8.65052 -2.08872,11.44547 3.35971,9.54613 4.59497,-1.60181 15.40187,-16.24845 14.23412,-19.29156 -0.69289,-1.80565 -3.05275,-2.41601 -7.63364,-1.97438 -4.91972,0.47428 -4.3426,-14.65794 0.64367,-16.87711 6.24365,-2.77877 15.51977,2.73444 15.51977,9.22411 0,2.17908 0.86364,4.16661 2,4.60266 4.05863,1.55746 0.60685,14.58694 -6.2002,23.40399 -2.08989,2.707 -3.7998,5.46401 -3.7998,6.12668 0,1.82411 -4.33551,5.31897 -7.23376,5.83117 -1.41191,0.24952 -4.04952,1.80367 -5.86137,3.45367 -3.64702,3.32124 -7.46015,3.74009 -11.70816,1.28608 z m 15.14597,-13.72119 c -1.31225,-1.31224 -3.67601,0.70226 -3.67601,3.13284 0,2.03531 0.17537,2.03166 2.25397,-0.0469 1.23968,-1.23969 1.8796,-2.62835 1.42204,-3.08591 z M 292.31487,391.74 c -0.47929,-1.32581 -1.9738,-4.00321 -3.32115,-5.94975 -2.59956,-3.75568 -3.24469,-12.47246 -1.16632,-15.75898 0.79519,-1.25743 0.73622,-2.27774 -0.16381,-2.83398 -0.96207,-0.59458 -0.99844,-2.7817 -0.11507,-6.9233 0.71018,-3.32979 0.82978,-6.80082 0.26576,-7.71339 -0.56401,-0.91259 -0.52433,-2.61293 0.0881,-3.77855 0.61249,-1.16562 1.4386,-3.1693 1.83578,-4.45264 0.94122,-3.04116 4.62943,-2.92146 8.80584,0.28578 3.11434,2.39162 3.36174,3.46278 3.76559,16.30368 0.23775,7.55913 0.68889,16.14388 1.00256,19.07721 1.52333,14.24619 1.83275,13.28989 -4.44701,13.74392 -4.49927,0.32531 -5.85988,-0.0901 -6.5503,-2 z m 341.98171,-1.6734 c -3.52042,-0.68497 -6.60822,-2.81585 -10.88738,-7.51333 -5.12154,-5.62224 -6.10088,-7.63194 -6.86848,-14.09487 -0.53658,-4.51789 -0.33342,-8.58745 0.50712,-10.15801 0.7713,-1.4412 1.08796,-2.93476 0.70368,-3.31904 -0.84722,-0.84722 3.68996,-14.9856 6.63944,-20.68928 1.16811,-2.25886 3.3304,-4.48996 4.80511,-4.95802 1.47471,-0.46805 2.68129,-1.61426 2.68129,-2.54713 0,-2.15236 6.35332,-5.11635 8.43326,-3.93433 0.8617,0.4897 4.14492,2.96058 7.29601,5.49084 5.15395,4.13848 5.50169,4.76686 3.46297,6.25761 -1.28696,0.94105 -1.83889,2.34872 -1.27724,3.25751 0.76563,1.23882 1.42136,1.24158 2.90259,0.012 1.05244,-0.87344 2.32824,-1.17336 2.83512,-0.66648 1.46255,1.46254 0.5708,12.53234 -1.29177,16.0356 -2.20136,4.14072 -16.77894,15.42308 -19.92732,15.42308 -3.14407,0 -3.26882,5.0953 -0.18004,7.35388 2.75212,2.0124 8.2929,0.64968 13.26697,-3.26294 4.20169,-3.30504 6.23608,-3.46072 8.56432,-0.65534 1.453,1.75074 1.34949,2.83618 -0.61903,6.49149 -2.16924,4.02805 -12.9186,12.94569 -15.17149,12.58624 -0.52856,-0.0843 -3.17237,-0.5836 -5.87513,-1.10948 z m 8.20054,-43.98287 c 1.95842,-3.65933 1.70907,-6.75432 -0.54416,-6.75432 -2.12757,0 -6.0756,4.95811 -6.0756,7.63002 0,2.66686 5.08375,1.99436 6.61976,-0.8757 z m 120.5838,40.99474 c -1.68694,-3.2622 -1.8531,-4.8036 -0.71438,-6.62698 1.18946,-1.90465 0.99377,-2.6383 -0.98647,-3.69809 -1.35867,-0.72715 -3.11092,-2.995 -3.89388,-5.03969 -1.47496,-3.85183 -4.51681,-20.74532 -4.07671,-22.64072 0.13754,-0.5923 -0.2177,-3.32691 -0.78941,-6.07691 -0.9716,-4.67347 -1.35633,-4.99947 -5.89109,-4.99179 -2.66839,0.004 -6.5702,0.90452 -8.6707,2 -5.39068,2.81144 -6.95689,2.51951 -10.09013,-1.8807 -3.49883,-4.91366 -3.45543,-6.57207 0.29457,-11.25824 2.64976,-3.31128 4.1064,-3.86004 11.37867,-4.28676 9.54005,-0.55978 10.90264,-1.1245 10.90264,-4.51855 0,-1.34493 0.96757,-2.81661 2.15016,-3.27041 1.57599,-0.60478 1.77223,-1.2805 0.73488,-2.53042 -1.75275,-2.11194 -1.80039,-18.35691 -0.06,-20.45399 1.58483,-1.9096 6.50827,-0.76242 6.50827,1.51645 0,0.92467 0.9206,2.44525 2.04577,3.37907 1.53424,1.2733 1.99037,4.0878 1.82417,11.2557 -0.24972,10.77049 1.4938,15.36332 5.84363,15.39339 4.27587,0.0296 6.51133,1.84205 5.50533,4.46364 -0.7782,2.02797 -0.48138,2.09316 2.775,0.60945 3.38008,-1.54007 3.9329,-1.34079 7.56874,2.72843 2.15728,2.41441 3.68533,5.09218 3.39568,5.95062 -0.59563,1.7652 -8.8692,2.22703 -15.11118,0.8435 -3.62158,-0.80272 -4.44142,-0.43195 -6.4087,2.8984 -1.24074,2.10038 -3.12195,3.81888 -4.1805,3.81888 -3.5931,0 -1.84933,5.48689 2.21914,6.98265 2.35649,0.86636 3.85625,6.52024 3.85625,14.53748 0,2.85273 1.01827,8.84931 2.26281,13.32571 2.18219,7.84889 2.17311,8.2045 -0.25484,9.97986 -3.83613,2.80506 -5.73114,2.24384 -8.13774,-2.40998 z m -24.53689,-55.67036 c 0,-1.57315 -2.60047,-3.256 -3.55556,-2.30092 -0.95508,0.95509 0.72777,3.55556 2.30092,3.55556 0.69005,0 1.25464,-0.56459 1.25464,-1.25464 z m 31.57748,-1.66203 c -0.42563,-1.06364 -0.74157,-0.74771 -0.80555,0.80556 -0.0579,1.40555 0.25724,2.19305 0.7003,1.75 0.44305,-0.44307 0.49041,-1.59307 0.1052,-2.55556 z m -496.611,56.96433 c -6.87331,-5.7835 -10.89299,-24.46672 -10.94007,-50.8487 -0.0375,-20.98378 2.44883,-26.20801 11.40315,-23.96062 3.60008,0.90356 3.32385,-1.18489 3.92475,29.67483 0.34842,17.89408 1.3047,25.05804 3.88265,29.08683 2.17068,3.3923 3.3688,11.33333 1.70995,11.33333 -0.69187,0 -0.94207,1.20785 -0.55602,2.68412 0.45846,1.75312 -0.1509,3.14053 -1.75684,4 -3.29133,1.76147 -3.20769,1.78296 -7.66757,-1.96979 z m 1.03352,-59.381 c 0,-1.8273 -4.38656,-2.81344 -5.87848,-1.32152 -1.0212,1.0212 -0.89617,1.76407 0.43539,2.58702 2.01246,1.24377 5.44309,0.44617 5.44309,-1.2655 z m 147.79543,59 c -5.02506,-5.46717 -6.40287,-10.28189 -7.15419,-25 -1.07764,-21.11078 -1.43327,-19.0257 3.37009,-19.75876 4.35648,-0.66484 9.00855,5.09032 9.55967,11.82646 0.62061,7.58546 4.14575,7.74397 7.77503,0.34962 8.44388,-17.20373 11.81026,-19.70218 20.0156,-14.85518 2.07518,1.22585 4.76968,4.4389 5.98776,7.14014 2.18957,4.85559 2.17402,4.95515 -1.36935,8.77119 -3.15947,3.4026 -3.30204,3.91653 -1.20351,4.33819 1.3093,0.26308 3.0933,-0.49643 3.96444,-1.6878 1.37978,-1.88695 1.68322,-1.66958 2.35447,1.68665 1.13237,5.66191 4.09585,6.01715 9.36225,1.12228 2.52446,-2.34637 6.34308,-5.56972 8.48583,-7.16301 3.85631,-2.86744 3.95153,-2.87199 9.36861,-0.44668 5.92374,2.65213 7.53884,4.87608 10.36786,14.27617 2.1352,7.09476 1.38652,12.65725 -2.13219,15.84164 -2.26957,2.05393 -2.75068,2.06619 -5.68321,0.14472 -1.76206,-1.15455 -3.62567,-3.78027 -4.14135,-5.83493 -2.32476,-9.26258 -6.17951,-9.18239 -14.05657,0.29237 -4.9149,5.91177 -6.76226,7.2236 -10.21482,7.25361 -4.9044,0.0427 -10.77209,-5.89788 -12.02797,-12.17725 -0.42257,-2.11287 -1.29081,-4.16451 -1.92943,-4.5592 -0.63861,-0.39468 -1.16112,-2.15239 -1.16112,-3.906 0,-3.7912 -3.02889,-5.80341 -7.46044,-4.95627 -2.66622,0.50968 -3.20622,1.40719 -3.20622,5.32883 0,6.17269 -5.3746,17.38119 -10.54242,21.98572 -2.25564,2.00979 -4.2941,3.65416 -4.52992,3.65416 -0.23581,0 -1.94532,-1.65 -3.7989,-3.66667 z m 22.87124,-38.33333 c 0,-1.1 -0.23582,-2 -0.52402,-2 -0.28821,0 -0.86937,0.9 -1.29149,2 -0.42211,1.1 -0.18629,2 0.52401,2 0.71032,0 1.2915,-0.9 1.2915,-2 z m 104.33333,39.76744 c -2.12524,-1.48249 -3,-3.43159 -3,-6.68439 0,-2.52544 -0.63835,-5.78445 -1.41855,-7.24228 -0.90784,-1.6963 -1.31924,-13.5455 -1.14269,-32.91233 0.30428,-33.38133 0.35529,-34.66532 1.84795,-46.51506 1.19937,-9.5215 3.1237,-11.06018 8.78801,-7.02684 3.65743,2.60432 3.84065,3.22932 4.00803,13.67128 0.0964,6.0182 0.23041,13.64218 0.29768,16.94218 0.22612,11.09352 -0.74903,27.30111 -1.87988,31.24503 -1.6334,5.69657 -0.5219,5.7348 5.13053,0.17642 12.04691,-11.84648 22.97899,-12.8246 32.26315,-2.88665 2.57898,2.7606 3.19726,4.78429 3.07685,10.07073 -0.19879,8.72722 -1.29456,10.46755 -10.99972,17.47024 -4.51577,3.25832 -9.44849,6.97423 -10.96161,8.25756 -1.51311,1.28334 -3.56148,2.33334 -4.55192,2.33334 -0.99046,0 -4.03976,1.2 -6.77626,2.66666 -5.90084,3.16267 -10.57201,3.30079 -14.68157,0.43411 z m 26.15721,-17.31299 c -1.00241,-1.20784 -2.04186,-1.43646 -2.8512,-0.62713 -1.77946,1.77947 0.0256,4.21755 2.43739,3.29207 1.56312,-0.59983 1.65211,-1.17288 0.41381,-2.66494 z m 3.65366,-10.85148 c 3.31956,-3.15169 5.79276,-6.45169 5.49601,-7.33333 -0.69317,-2.05937 -7.50236,-1.26464 -9.92544,1.15845 -1.01553,1.01552 -2.64369,2.30964 -3.61816,2.87583 -2.43833,1.41672 -8.76328,10.98379 -8.76328,13.25529 0,2.68584 9.29133,-2.81694 16.81087,-9.95624 z m -28.81087,-4.26964 c 0,-0.73333 -0.63541,-1.33333 -1.41203,-1.33333 -0.77661,0 -1.0412,0.6 -0.58797,1.33333 0.45323,0.73334 1.08864,1.33334 1.41203,1.33334 0.32338,0 0.58797,-0.6 0.58797,-1.33334 z m 36,-9.33333 c 0,-0.73333 -0.6,-1.33333 -1.33333,-1.33333 -0.73334,0 -1.33334,0.6 -1.33334,1.33333 0,0.73333 0.6,1.33333 1.33334,1.33333 0.73333,0 1.33333,-0.6 1.33333,-1.33333 z m -34.66667,-43.5974 c 0,-1.95842 -3.61461,-3.89909 -4.88889,-2.62482 -0.42563,0.42564 -0.45696,1.59976 -0.0696,2.60917 0.91248,2.37785 4.95851,2.39064 4.95851,0.0156 z m 124.27927,81.71176 c -2.19833,-2.50377 -4.6996,-6.68128 -5.55837,-9.28336 -2.11264,-6.40139 -0.84551,-26.75809 1.9292,-30.99284 1.97557,-3.01509 2.31332,-3.08652 5.87804,-1.24313 3.71685,1.92206 5.47186,6.22257 5.47186,13.40838 0,3.96619 2.96159,6.50167 5.09839,4.36487 0.86256,-0.86256 1.56828,-2.58612 1.56828,-3.83016 0,-2.32088 8.88696,-11.02349 10.45869,-10.24175 7.64748,3.80371 9.35612,5.88139 10.92796,13.2882 0.89578,4.22112 1.60127,8.14142 1.56774,8.71176 -0.0335,0.57035 0.54109,1.76243 1.27693,2.64906 3.02305,3.64256 -3.03445,16.38794 -7.78871,16.38794 -1.74433,0 -9.77594,-10.02318 -9.77594,-12.20005 0,-0.62331 0.9,-1.13328 2,-1.13328 1.1,0 2,-0.6 2,-1.33333 0,-1.73402 -0.17176,-1.70842 -5.12848,0.76432 -2.31267,1.1537 -4.20486,2.68889 -4.20486,3.41152 0,2.10801 -8.28706,11.82416 -10.08502,11.82416 -0.90131,0 -3.43738,-2.04854 -5.63571,-4.55231 z m 13.05407,-8.30392 c 0,-2.82443 -0.34031,-3.05547 -2.66667,-1.81044 -4.02485,2.15404 -3.30785,7.34067 0.79703,5.76548 1.02829,-0.3946 1.86964,-2.17437 1.86964,-3.95504 z m 151.56061,1.85868 c -0.85833,-0.54865 -4.04199,-0.64081 -7.07479,-0.20481 -7.66462,1.10189 -11.15249,-1.02403 -11.15249,-6.79764 0,-6.01214 3.70551,-8.21604 10.52996,-6.2629 2.64185,0.75611 8.10337,1.79194 12.13671,2.30184 11.059,1.39811 18.46064,6.718 14.63293,10.51735 -1.64044,1.62829 -16.67279,1.97995 -19.07232,0.44616 z m 205.77279,127.66421 c 2.2656,-2.72991 -1.1516,-2.76044 -4.7452,-0.0424 -2.5374,1.91919 -2.5325,1.95843 0.2486,2 1.5602,0.0233 3.5837,-0.8576 4.4966,-1.9576 z M 73.210701,423.25072 c 0,-0.69006 -0.9,-1.25464 -2,-1.25464 -2.06188,0 -2.64894,1.57328 -1.14736,3.07486 1.06524,1.06524 3.14736,-0.13892 3.14736,-1.82022 z M 1214.183,287.85719 c -0.4431,-0.44305 -1.5931,-0.49041 -2.5556,-0.1052 -1.0636,0.42563 -0.7477,0.74157 0.8056,0.80555 1.4055,0.0579 2.193,-0.25724 1.75,-0.7003 z m 19.0278,0.34555 c 0,-0.25302 -1.2873,-1.60302 -2.8607,-3 -2.8454,-2.52638 -2.8523,-2.52391 -1.2864,0.46001 1.2997,2.47679 4.1471,4.22075 4.1471,2.53999 z m -11.3569,-7.6623 c -0.4237,-2.19985 -0.055,-2.58877 1.7432,-1.8412 1.2542,0.5213 2.8803,0.95607 3.6137,0.96616 2.5574,0.0352 21.3838,-1.71602 28,-2.60458 3.6666,-0.49243 7.1333,-0.77788 7.7037,-0.63434 0.5704,0.14355 1.3701,-0.60668 1.777,-1.66717 0.407,-1.06051 1.578,-1.60659 2.6023,-1.21353 1.0243,0.39305 4.4246,-0.50572 7.5563,-1.99728 4.3395,-2.06679 7.5178,-2.57346 13.3607,-2.1299 8.2519,0.62646 9.4405,-0.50938 5.7564,-5.50101 -1.443,-1.95517 -2.2908,-2.21331 -3.4661,-1.05544 -1.175,1.15759 -2.9815,0.66809 -7.3809,-2 -3.2038,-1.943 -5.8441,-4.3562 -5.8673,-5.36265 -0.03,-1.28067 -0.5424,-1.43212 -1.7088,-0.50458 -2.1418,1.70318 -5.5997,1.12188 -9.8353,-1.65337 -1.8495,-1.21187 -4.4871,-2.41992 -5.8614,-2.68457 -1.3742,-0.26466 -8.3796,-3.34402 -15.5676,-6.84303 -13.0108,-6.33349 -16.9814,-8.01109 -28.4024,-12.00025 -3.3,-1.15264 -6.9,-2.85484 -8,-3.78268 -1.1,-0.92783 -2.6904,-1.43511 -3.5343,-1.12728 -0.8439,0.30781 -4.7062,-0.97048 -8.5829,-2.84066 -3.8767,-1.87018 -7.9288,-3.40033 -9.0048,-3.40033 -3.9635,0 -25.4394,-7.09163 -24.7676,-8.17861 0.3822,-0.6183 -0.2311,-0.76888 -1.3627,-0.33464 -1.1316,0.43424 -4.9128,-0.17348 -8.4026,-1.35049 -3.4898,-1.177 -9.7947,-3.08163 -14.0109,-4.2325 -4.2161,-1.15085 -8.4161,-2.83358 -9.3333,-3.73938 -2.423,-2.39306 -6.5879,-3.93367 -9.8035,-3.6264 -1.5415,0.14729 -6.0415,-0.99267 -10,-2.53324 -3.9586,-1.54059 -9.5974,-3.06387 -12.5307,-3.38507 -2.9333,-0.32121 -6.8333,-1.14327 -8.6667,-1.8268 -1.8333,-0.68353 -5.0078,-1.60914 -7.0545,-2.05691 -2.0467,-0.44778 -3.4548,-1.24655 -3.1292,-1.77505 0.3256,-0.5285 -3.0999,-0.98658 -7.6122,-1.01796 -4.5122,-0.0314 -12.2541,-0.55128 -17.2041,-1.15533 -8.6585,-1.05661 -9,-0.98962 -9,1.76557 0,1.57511 0.9,3.2092 2,3.63131 1.1,0.42211 2,1.68618 2,2.80905 0,1.7946 5.3879,8.77736 13.1222,17.00645 7.2865,7.75268 29.2091,25.97932 31.3373,26.05419 0.8473,0.0299 3.6179,1.8298 6.1568,4 2.539,2.1702 5.3323,3.94581 6.2074,3.94581 1.6245,0 12.6353,5.38008 13.843,6.76392 0.3667,0.42016 1.7257,1.15479 3.02,1.63251 1.2943,0.4777 2.9865,2.53394 3.7604,4.5694 1.2356,3.2497 1.564,3.42057 2.6938,1.40173 1.1782,-2.10535 2.0974,-1.91907 10.9062,2.21036 5.2908,2.4802 11.3034,5.16736 13.3615,5.97144 2.058,0.80409 3.3982,2.01797 2.9782,2.69752 -0.42,0.67953 -0.075,1.66123 0.7671,2.18152 0.8418,0.52029 2.0961,-0.0645 2.7873,-1.29964 0.8395,-1.49997 2.1534,-1.96104 3.9572,-1.38856 1.4852,0.4714 3.9907,1.01811 5.5677,1.21491 1.577,0.19678 6.4673,1.01253 10.8673,1.81273 12.1234,2.20485 32.8324,5.46044 37.3333,5.86903 2.2,0.19972 4.075,1.11313 4.1667,2.0298 0.2474,2.4746 0.4383,3 1.0901,3 0.3245,0 0.3484,-1.25504 0.053,-2.78898 z m 103.3569,-10.54436 c 0,-0.73333 -0.6354,-1.33333 -1.4121,-1.33333 -0.7766,0 -1.0412,0.6 -0.5879,1.33333 0.4532,0.73334 1.0886,1.33334 1.412,1.33334 0.3234,0 0.588,-0.6 0.588,-1.33334 z m -192,-6.66666 c 0,-0.73334 -1.05,-1.32415 -2.3334,-1.31292 -1.994,0.0175 -2.0425,0.20834 -0.3333,1.31292 2.5163,1.62614 2.6667,1.62614 2.6667,0 z M 225.2107,209.99609 c 0,-0.73334 -0.6,-1.33334 -1.33334,-1.33334 -0.73333,0 -1.33333,0.6 -1.33333,1.33334 0,0.73333 0.6,1.33333 1.33333,1.33333 0.73334,0 1.33334,-0.6 1.33334,-1.33333 z m 42.66666,-12.58798 c 0,-0.32338 -0.6,-0.9588 -1.33333,-1.41202 -0.73333,-0.45323 -1.33333,-0.18864 -1.33333,0.58797 0,0.77661 0.6,1.41203 1.33333,1.41203 0.73333,0 1.33333,-0.26459 1.33333,-0.58798 z m 161.33334,-35.1898 c 0,-0.61111 -0.9,-1.11111 -2,-1.11111 -1.1,0 -2,0.5 -2,1.11111 0,0.61111 0.9,1.11111 2,1.11111 1.1,0 2,-0.5 2,-1.11111 z m 441.33333,-13.55556 c 0,-0.73333 -0.63541,-1.33333 -1.41203,-1.33333 -0.77661,0 -1.0412,0.6 -0.58797,1.33333 0.45323,0.73334 1.08864,1.33334 1.41203,1.33334 0.32338,0 0.58797,-0.6 0.58797,-1.33334 z"
       style="fill:#000000;stroke-width:1.33333" />
  </g>
</svg>
