<?xml version="1.0" encoding="UTF-8" standalone="no"?>
<svg
   xmlns:dc="http://purl.org/dc/elements/1.1/"
   xmlns:cc="http://creativecommons.org/ns#"
   xmlns:rdf="http://www.w3.org/1999/02/22-rdf-syntax-ns#"
   xmlns:svg="http://www.w3.org/2000/svg"
   xmlns="http://www.w3.org/2000/svg"
   viewBox="0 0 1325.3333 841.33331"
   height="841.33331"
   width="1325.3333"
   id="svg132"
   version="1.1">
  <metadata
     id="metadata138">
    <rdf:RDF>
      <cc:Work
         rdf:about="">
        <dc:format>image/svg+xml</dc:format>
        <dc:type
           rdf:resource="http://purl.org/dc/dcmitype/StillImage" />
        <dc:title></dc:title>
      </cc:Work>
    </rdf:RDF>
  </metadata>
  <defs
     id="defs136" />
  <g
     id="g140">
    <path
       id="path308"
       d="m 958.39704,671.47193 c 0,-0.87066 -1.19971,-1.1751 -2.8894,-0.73325 -1.58918,0.41559 -6.05254,-0.35615 -9.91856,-1.71495 -5.4879,-1.92884 -9.25638,-4.76469 -17.1868,-12.93341 -5.58671,-5.75459 -11.0267,-12.08954 -12.08887,-14.0777 -2.89149,-5.41222 -5.91637,-21.41282 -5.91637,-31.29566 v -8.73616 l -10.33333,0.96238 c -5.68334,0.5293 -11.23334,1.41741 -12.33334,1.97356 -1.78734,0.90366 -8.98257,1.56465 -20.66666,1.89854 -2.2,0.0629 -4.36704,0.62251 -4.81564,1.24363 -0.76806,1.06343 -4.39104,1.45821 -27.18436,2.96219 -8.82272,0.58214 -17.64486,0.61977 -26.66667,0.11373 -2.2,-0.12347 -4.6,0.17668 -5.33333,0.66684 -0.73334,0.49016 -4.51531,0.38257 -8.4044,-0.23908 -3.88908,-0.62164 -7.78908,-0.90101 -8.66667,-0.62081 -0.87757,0.2802 -9.3956,0.9038 -18.92893,1.3858 -9.53333,0.48198 -19.43333,1.10085 -22,1.37522 -7.58207,0.81055 -41.60433,2.39192 -46.66667,2.1691 -2.56666,-0.11294 -12.16666,-0.12614 -21.33333,-0.0292 -51.04206,0.53965 -83.67092,0.2874 -96.90902,-0.74919 -17.01864,-1.33263 -17.60698,-0.86893 -9.9552,7.84596 4.16401,4.74253 4.25656,5.07945 2.06157,7.50489 -1.26399,1.39668 -4.75047,3.20266 -7.74775,4.01326 -5.33142,1.44186 -16.14138,5.4167 -21.4496,7.88702 -5.89818,2.74491 -25.95762,9.2828 -28.48125,9.2828 -1.48209,0 -3.05544,0.58369 -3.49636,1.29711 -0.89244,1.44398 -8.7594,3.78601 -15.25973,4.54285 -2.32967,0.27125 -5.59299,1.76823 -7.25181,3.32661 -3.47428,3.26392 -7.26624,3.68895 -8.3238,0.93298 -0.64815,-1.68903 -4.58588,-2.81446 -14.19062,-4.05574 -4.83077,-0.6243 -16.15073,-4.83029 -18.43474,-6.84952 -1.15775,-1.02353 -2.7895,-1.86096 -3.62611,-1.86096 -1.83537,0 -10.77437,-4.87058 -13.70723,-7.46863 -1.15774,-1.02559 -2.65774,-1.87428 -3.33333,-1.88599 -0.67559,-0.012 -3.0946,-1.66172 -5.37557,-3.66667 -2.28098,-2.00496 -6.64575,-5.74537 -9.69951,-8.31204 -7.84536,-6.59398 -14.41368,-16.89289 -14.68473,-23.02517 -0.15036,-3.40171 0.4271,-5.27429 1.78749,-5.79632 2.8256,-1.08429 11.10015,4.35348 13.40404,8.80872 1.80469,3.48989 5.8094,7.94609 12.45161,13.85541 2.78652,2.47906 2.83702,2.46591 4.18939,-1.09112 1.39453,-3.6679 7.94013,-13.07472 9.63017,-13.8397 0.51218,-0.23184 0.26587,-1.88184 -0.54736,-3.66667 -1.32353,-2.90484 -3.48332,-3.96189 -6.85756,-3.35625 -0.62718,0.11253 -1.82718,-0.35146 -2.66666,-1.03118 -0.83948,-0.6797 -3.92632,-1.55946 -6.85966,-1.95502 -2.93333,-0.39556 -7.73333,-1.63416 -10.66666,-2.75243 -2.93334,-1.11827 -6.54222,-2.05956 -8.01975,-2.09175 -1.47752,-0.0321 -4.92535,-1.25852 -7.66183,-2.72518 -2.73649,-1.46667 -6.0276,-2.67571 -7.3136,-2.68675 -2.55702,-0.022 -10.68921,-2.70539 -13.33314,-4.39964 -0.91391,-0.58564 -2.88047,-1.29952 -4.37012,-1.5864 -1.48965,-0.28688 -8.54191,-2.65161 -15.67168,-5.25497 -7.12976,-2.60336 -15.96321,-5.33988 -19.62988,-6.08118 -3.66667,-0.74128 -8.46667,-1.72304 -10.66667,-2.18168 -2.2,-0.45865 -4.72372,-1.40504 -5.60826,-2.1031 -0.88454,-0.69806 -2.15055,-0.93404 -2.81334,-0.5244 -1.93194,1.194 -43.93421,-12.36175 -56.91173,-18.36762 -19.18897,-8.88045 -21.91354,-10.26236 -22.68072,-11.50366 -0.45845,-0.74179 -3.08452,-2.49707 -5.83573,-3.90063 -4.80229,-2.44996 -13.43849,-8.81757 -19.86392,-14.64602 -1.67587,-1.52018 -3.50861,-2.76395 -4.07277,-2.76395 -1.53338,0 -10.88019,-8.83185 -10.88019,-10.28075 0,-0.68992 -1.42372,-2.59193 -3.16384,-4.22668 -1.74011,-1.63474 -4.20169,-5.48934 -5.4702,-8.56576 -1.26851,-3.07641 -2.8278,-6.60813 -3.46509,-7.84828 -2.12811,-4.1412 -2.85839,-22.93548 -1.38894,-35.7452 1.37528,-11.98877 5.28858,-25.42465 9.9305,-34.09529 6.43365,-12.01742 19.83278,-27.4201 33.55408,-38.57137 23.5491,-19.13832 28.15054,-22.61601 36.38533,-27.49952 4.92332,-2.91968 12.55149,-7.63043 16.95149,-10.46832 7.91277,-5.10353 26.03305,-14.69883 27.75808,-14.69883 0.49087,0 9.44611,-3.5465 19.90053,-7.88113 30.13323,-12.49387 51.33857,-18.84768 91.22719,-27.33464 8.92053,-1.89798 17.69693,-3.45089 19.50312,-3.45089 1.80618,0 7.40757,-0.8724 12.44752,-1.93867 13.41422,-2.83794 66.20849,-11.08005 77.83022,-12.15065 5.5,-0.50665 15.7,-1.16887 22.66667,-1.47157 6.96666,-0.30271 17.46666,-0.86946 23.33333,-1.25944 5.86667,-0.38999 38.26667,-0.9519 72,-1.24868 33.73333,-0.29679 64.93333,-1.15468 69.33333,-1.90644 4.4,-0.75175 14.3,-1.69322 22,-2.09215 7.7,-0.39892 21.5,-1.17687 30.66667,-1.72875 16.20875,-0.97585 33.98233,-0.29297 62.66666,2.40772 7.7,0.72498 21.22827,1.63862 30.06281,2.03032 30.16722,1.33756 41.74978,2.77022 81.27052,10.05248 4.4,0.81078 11.3,1.75536 15.33333,2.0991 4.03334,0.34373 8.53334,1.12404 10,1.73402 1.46667,0.61 6.56667,2.12771 11.33334,3.37272 4.76666,1.245 12.56666,3.37359 17.33333,4.73019 4.76663,1.3566 13.16663,3.74734 18.66663,5.31278 5.5,1.56543 12.7,3.39944 16,4.07559 9.8982,2.02804 11.0974,2.30271 17.3386,3.97156 7.3993,1.97849 33.0283,10.34649 36.6615,11.97015 15.2398,6.8106 32.0031,15.37616 34,17.37305 0.3666,0.36667 3.0219,1.86667 5.9005,3.33333 5.2955,2.69806 14.7151,10.98802 35.2243,31 6.2003,6.05 11.5099,11 11.7991,11 1.9854,0 16.4094,18.31271 16.4094,20.83343 0,0.47344 1.35,2.22188 3,3.88544 13.642,13.75412 12.9952,12.62246 17.5892,30.77494 6.4302,25.40832 9.3998,40.54119 8.9952,45.83952 -0.14,1.83334 -0.2283,5.38219 -0.1963,7.88635 0.032,2.50417 -0.4188,4.90417 -1.002,5.33333 -0.5832,0.42918 -3.3469,4.27874 -6.1416,8.55458 -4.6359,7.09288 -9.5091,12.46076 -20.4415,22.51645 -4.4149,4.06089 -12.2555,7.70929 -16.5677,7.70929 -1.5677,0 -4.633,1.5 -6.8118,3.33333 -2.1788,1.83334 -4.8154,3.33334 -5.8591,3.33334 -1.0438,0 -1.8977,0.53322 -1.8977,1.18494 0,0.65172 -2.1,1.57891 -4.6667,2.06042 -2.5667,0.4815 -4.6667,1.44829 -4.6667,2.14838 0,0.70011 -0.6052,1.27292 -1.3448,1.27292 -0.7397,0 -3.8297,1.8 -6.8668,4 -3.037,2.2 -6.0446,4 -6.6837,4 -0.639,0 -3.5002,1.54748 -6.3583,3.43886 -2.8581,1.89137 -6.7718,3.61178 -8.6972,3.82314 -1.9254,0.21135 -4.8628,1.66387 -6.5276,3.22782 -1.6647,1.56393 -4.0357,2.84352 -5.2689,2.84352 -2.5421,0 -16.8872,4.61112 -22.9193,7.36724 -4.1566,1.89917 -10.7229,3.76414 -13.7509,3.9056 -4.1812,0.1953 -9.0372,11.25866 -5.8157,13.2497 1.3825,0.85438 -0.6989,18.90311 -2.5866,22.43028 -0.771,1.44071 -1.589,6.31571 -1.8177,10.83332 -0.2288,4.51762 -0.9289,9.47772 -1.5558,11.02246 -3.2442,7.99297 -15.7453,17.369 -25.0598,18.79524 -2.2441,0.34362 -5.2802,1.69215 -6.7469,2.99671 -1.4667,1.30458 -5.4051,3.94474 -8.752,5.86704 -4.7851,2.74831 -6.4325,3.14788 -7.7103,1.87008 -1.2778,-1.2778 -1.7974,-0.96596 -2.4317,1.45948 -0.5743,2.1961 -1.5226,2.89723 -3.2928,2.43434 -1.4527,-0.3799 -3.0222,0.26822 -3.7758,1.55917 -0.7093,1.21513 -1.30789,1.81107 -1.33018,1.32429 -0.0223,-0.48677 -3.19055,0.31506 -7.04055,1.78186 -10.67211,4.06592 -15.52152,5.03669 -25.33333,5.07137 -5.7568,0.0204 -9,-0.50469 -9,-1.45703 z m 16.87649,-13.73344 c 1.58207,-0.28368 5.03207,-1.29525 7.66667,-2.24793 6.14476,-2.22199 6.19442,-4.91125 0.3244,-17.56772 -2.45618,-5.2958 -5.22896,-11.57873 -6.16176,-13.96206 -2.14778,-5.48767 -5.37247,-5.73984 -5.37247,-0.42014 0,2.15227 -0.64529,5.60227 -1.43397,7.66667 -0.7887,2.06441 -2.04412,7.05347 -2.78986,11.0868 -0.74574,4.03333 -1.8419,7.93333 -2.43593,8.66666 -1.0334,1.27576 -1.81837,5.38403 -1.49377,7.818 0.0844,0.63323 2.10353,0.77427 4.48686,0.31343 2.38334,-0.46085 5.62775,-1.07001 7.20983,-1.35371 z m -15.54316,-0.25598 c 0,-0.34828 -1.2,-1.92128 -2.66667,-3.49556 -3.14156,-3.37208 -3.67604,-13.19528 -0.84574,-15.54421 1.00149,-0.83118 2.59164,-5.14307 3.53364,-9.58199 1.4651,-6.90391 1.43077,-8.35273 -0.23751,-10.02101 -1.71144,-1.71144 -2.75639,-1.58282 -8.53365,1.05049 -3.62087,1.65041 -7.5719,3.08159 -8.78006,3.18037 -3.7705,0.30834 -14.46014,5.15632 -14.45757,6.55684 0.0204,11.17935 16.84708,28.04111 28.32089,28.38001 2.01667,0.0596 3.66667,-0.17665 3.66667,-0.52494 z m 47.57203,-11.45625 c 3.5134,-1.27048 4.428,-2.3383 4.428,-5.17007 0,-1.96289 -0.9145,-4.32787 -2.0323,-5.25549 -1.1177,-0.92763 -1.7146,-2.00412 -1.3265,-2.39222 0.6913,-0.69137 -5.027,-7.07921 -13.64123,-15.23842 -2.38333,-2.25743 -4.33333,-4.84383 -4.33333,-5.74754 0,-0.9037 -0.97716,-2.01808 -2.17146,-2.47637 -3.96602,-1.52191 -2.06949,4.524 8.64148,27.54796 2.64395,5.68333 5.07724,10.33333 5.40724,10.33333 0.33,0 2.5927,-0.72053 5.0281,-1.60118 z m -538.97612,-7.39882 c -0.47206,-2.75 -2.29924,-8.70233 -4.06043,-13.22741 -3.39209,-8.71548 -4.06727,-14.41387 -1.8688,-15.77259 0.73333,-0.45322 1.33333,-2.31998 1.33333,-4.14837 0,-3.17257 -0.31952,-3.30592 -7,-2.92131 l -7,0.40302 0.44799,5.66666 c 0.26979,3.41255 -0.11907,5.66667 -0.97755,5.66667 -1.74153,0 -8.14456,12.32217 -8.11789,15.62235 0.0248,3.07192 11.82043,9.87922 20.64745,11.91574 3.66667,0.84596 6.84386,1.59596 7.06042,1.66667 0.21657,0.0707 0.008,-2.12143 -0.46452,-4.87143 z m 26.63522,2.63459 c 3.61046,-1.29505 6.80046,-3.06264 7.0889,-3.92797 0.28844,-0.86532 -1.91556,-4.2204 -4.89779,-7.45574 -2.98223,-3.23533 -5.42223,-6.52178 -5.42223,-7.30321 0,-0.78143 -1.37285,-2.51433 -3.05078,-3.85089 -1.67794,-1.33656 -3.85072,-4.38011 -4.82843,-6.76344 -1.50411,-3.66655 -2.46144,-4.33334 -6.22153,-4.33334 -4.2538,0 -4.41975,0.18851 -3.87963,4.40716 0.31033,2.42394 2.0054,7.67394 3.7668,11.66667 1.7614,3.99273 3.62905,9.21568 4.15035,11.60656 0.89732,4.11553 3.84726,8.32599 5.82513,8.31424 0.49761,-0.003 3.85876,-1.06497 7.46921,-2.36004 z m 532.7689,-7.42793 c 0,-2.09631 -5.0108,-6.97367 -6.0731,-5.91136 -0.3979,0.39785 -0.3291,2.29417 0.1527,4.21404 0.9162,3.65037 5.9204,5.08502 5.9204,1.69732 z m -509.33335,-4.064 c 0,-2.26072 -3.6059,-3.85902 -4.70266,-2.08443 -0.43344,0.70131 -0.41724,1.87511 0.036,2.60844 1.23207,1.99352 4.66667,1.60785 4.66667,-0.52401 z m 24.39954,-5.68256 c 7.12214,-3.68294 11.42179,-7.37426 10.71994,-9.20324 -0.40587,-1.05768 -4.13435,-2.05216 -9.55911,-2.54964 -4.89153,-0.44858 -10.72285,-1.09572 -12.95848,-1.43811 -2.31889,-0.35513 -5.15688,0.17605 -6.60743,1.23673 -2.41294,1.76439 -2.20572,2.17303 4.06191,8.01003 7.35104,6.84597 8.25239,7.09384 14.34317,3.94423 z m 500.19821,-8.79343 c 1.3196,-13.00757 1.6167,-30.24099 0.5509,-31.96537 -0.4757,-0.76984 -2.2788,-1.05895 -4.0068,-0.64246 -1.728,0.4165 -5.5419,1.36428 -8.4752,2.10618 -2.9333,0.7419 -9.6425,1.66161 -14.9094,2.0438 -11.2073,0.81325 -16.0456,1.8704 -19.8637,4.34012 -1.5252,0.98656 -3.1752,1.39165 -3.66667,0.90018 -0.49145,-0.49145 -0.89356,-0.19356 -0.89356,0.66199 0,3.02516 5.2788,7.05192 7.56635,5.77175 1.55188,-0.86848 3.80018,-0.0476 8.10068,2.95752 8.4868,5.93054 12.5701,8.57441 15.9996,10.35948 1.65,0.85884 3,1.99241 3,2.51906 0,0.52667 1.7708,1.69103 3.935,2.5875 2.1643,0.89645 4.8781,3.06925 6.0308,4.82842 3.7625,5.74231 5.5723,3.97722 6.632,-6.46817 z m -534.61728,10e-4 c -0.91998,-6.13477 -1.0119,-6.18732 -8.98047,-5.13341 -2.17781,0.28802 -0.92415,5.46696 1.33333,5.50798 2.20011,0.04 8.64383,3.9576 6.50948,3.9576 -0.5501,0 -0.6047,0.63992 -0.12133,1.42204 1.6224,2.6251 2.15232,0.20306 1.25897,-5.75421 z m 425.78924,-1.00116 c 3.04106,0 18.04117,-7.79939 21.92338,-11.39919 2.07252,-1.92173 3.23058,-4.1169 2.78478,-5.27865 -0.89211,-2.3248 -7.4188,-2.64945 -11.31743,-0.56297 -1.87875,1.00548 -3.16668,1.00888 -4.36836,0.012 -0.93727,-0.77787 -2.00765,-1.11075 -2.37865,-0.73976 -0.37099,0.37098 -3.63292,0.74117 -7.24875,0.82264 l -6.57421,0.14812 -0.39048,8.6949 c -0.39022,8.68908 1.39144,12.57856 4.38885,9.58115 0.7028,-0.7028 2.13419,-1.27781 3.18087,-1.27781 z M 679.06371,601.73079 c 21.26667,-0.34513 41.96667,-0.89921 46,-1.23131 26.32177,-2.16718 55.00789,-3.44804 78.4857,-3.50444 14.9338,-0.0359 27.5338,-0.28566 28,-0.55509 0.46619,-0.26944 6.803,-0.89219 14.08179,-1.38389 7.27879,-0.49171 13.64255,-1.1464 14.14168,-1.45488 0.49913,-0.3085 3.45449,-0.8809 6.56745,-1.27203 3.11296,-0.39112 6.14526,-1.01108 6.73843,-1.37768 0.59316,-0.36659 4.28244,-0.95436 8.19839,-1.30616 8.65125,-0.77717 22.7781,-2.97977 34.45322,-5.37177 4.76667,-0.97659 11.97545,-1.79716 16.01952,-1.82347 4.04408,-0.0263 12.74408,-0.9496 19.33333,-2.05172 6.58927,-1.10213 15.28048,-2.28408 19.31382,-2.62657 11.06208,-0.93932 36.02616,-4.88696 39.67356,-6.27368 1.7693,-0.67268 3.6578,-0.95054 4.1968,-0.61746 2.0373,1.25911 30.8103,-5.92632 47.463,-11.85281 9.5333,-3.39281 18.2333,-6.40667 19.3333,-6.69745 7.8581,-2.07726 25.2718,-9.58075 35.3334,-15.22496 6.6,-3.70238 22.2,-11.76833 34.6666,-17.92436 21.7549,-10.74252 23.1002,-11.64252 33.4424,-22.37319 6.644,-6.89361 12.2135,-14.14829 14.5259,-18.9209 3.5106,-7.24595 3.6979,-8.48112 2.9305,-19.33334 -2.1804,-30.83561 -23.3846,-67.81898 -50.4268,-87.95198 -3.9263,-2.92309 -10.5753,-8.83811 -14.7756,-13.14447 -8.9245,-9.14969 -11.2002,-11.16066 -12.6401,-11.16969 -0.5809,-0.004 -2.8563,-1.49005 -5.0563,-3.30315 -2.2,-1.81309 -6.7,-4.58484 -10,-6.15944 -3.3,-1.5746 -10.8,-5.14974 -16.6666,-7.9448 -5.8667,-2.79504 -12.7667,-5.48932 -15.3334,-5.98729 -2.5666,-0.49797 -8.2201,-2.33639 -12.5632,-4.08539 -4.3431,-1.74898 -9.017,-3.17997 -10.3864,-3.17997 -1.3695,0 -4.7371,-1.14641 -7.4836,-2.54757 -2.7465,-1.40116 -7.8087,-2.85712 -11.2492,-3.23546 -3.4405,-0.37834 -6.9524,-1.11858 -7.8041,-1.64498 -0.8518,-0.5264 -3.7157,-1.1462 -6.3644,-1.37734 -13.3969,-1.16904 -23.31179,-3.28372 -27.483,-5.86168 -2.54808,-1.5748 -6.86827,-3.14052 -9.60043,-3.4794 -2.73215,-0.33886 -5.28963,-1.08141 -5.68328,-1.6501 -0.39364,-0.56868 -1.91572,-1.16034 -3.38239,-1.31479 -1.46666,-0.15444 -6.11666,-0.62311 -10.33333,-1.04148 -4.21667,-0.41836 -7.66667,-1.22764 -7.66667,-1.79837 0,-0.57075 -3.72914,-1.45963 -8.28698,-1.97528 -4.55784,-0.51567 -8.90784,-1.32731 -9.66667,-1.80365 -0.75883,-0.47635 -1.97968,-0.90246 -2.71301,-0.94691 -2.79194,-0.16925 -24.18036,-2.23139 -28,-2.69957 -2.2,-0.26967 -7.23189,-1.12026 -11.18199,-1.89019 -3.95009,-0.76995 -10.25405,-1.39989 -14.0088,-1.39989 -3.75474,0 -8.92285,-0.64256 -11.48468,-1.42792 -4.55874,-1.39752 -20.96276,-1.67516 -30.0715,-0.50895 -2.52251,0.32296 -4.58636,0.0221 -4.58636,-0.66861 0,-0.75471 -1.59607,-0.69942 -4,0.1386 -4.66798,1.62726 -4.66111,1.60293 -1.81284,6.42468 2.82518,4.78265 1.5583,10.70886 -2.28931,10.70886 -1.49491,0 -5.40476,-1.5 -8.68857,-3.33333 -3.28382,-1.83334 -7.41387,-3.33334 -9.17791,-3.33334 -1.76403,0 -3.58405,-0.60956 -4.04451,-1.35457 -0.72074,-1.16621 -7.98357,-1.6756 -17.3202,-1.21477 -5.32465,0.2628 -6.78285,0.0588 -13.5395,-1.89411 -9.82707,-2.84037 -68.77304,-5.14885 -72.5094,-2.83965 -0.48505,0.29977 -7.42248,0.89249 -15.41651,1.31715 -7.99402,0.42465 -19.11749,1.0166 -24.71882,1.31544 -8.82314,0.47072 -10.49907,0.19544 -12.53998,-2.05975 -1.29566,-1.43168 -3.16276,-2.60307 -4.1491,-2.60307 -0.98634,0 -1.79335,-0.63541 -1.79335,-1.41202 0,-0.77662 -0.54284,-1.07654 -1.20631,-0.66648 -1.03893,0.64209 -26.38937,2.31176 -34.12702,2.2477 -1.46667,-0.012 -6.26667,-0.0681 -10.66667,-0.12453 -4.4,-0.0563 -10.63542,0.29152 -13.85652,0.77296 -4.21073,0.62937 -5.5937,0.45013 -4.9213,-0.63783 0.51436,-0.8322 0.2998,-1.51313 -0.47682,-1.51313 -0.77661,0 -1.41202,0.525 -1.41202,1.16667 0,0.64166 -3.75,1.20025 -8.33334,1.2413 -4.58333,0.0411 -11.28274,0.40702 -14.88758,0.81324 -4.23879,0.47768 -7.27318,0.15692 -8.58928,-0.90797 -1.2306,-0.99569 -1.68058,-1.05468 -1.13835,-0.1492 0.97611,1.63003 -9.77367,3.37892 -23.508,3.82456 -4.69832,0.15244 -8.21385,0.93876 -8.85817,1.98129 -0.66899,1.08244 -2.49184,1.45203 -4.87679,0.98878 -2.09466,-0.40688 -6.80849,-0.12054 -10.47516,0.6363 -3.66666,0.75684 -9.07586,1.51113 -12.02045,1.67619 -2.94459,0.16506 -6.66827,1.0036 -8.27484,1.86342 -1.60659,0.85982 -6.39739,1.919 -10.64621,2.35376 -4.24884,0.43475 -12.22516,1.69995 -17.72516,2.81156 -5.5,1.11162 -14.5,2.8013 -20,3.75486 -9.85794,1.70912 -14.74186,2.81849 -18.66667,4.24009 -1.1,0.39843 -3.2,0.9154 -4.66667,1.14883 -1.46666,0.23341 -6.86666,1.71298 -12,3.28792 -20.23534,6.20836 -26.76223,7.80881 -29.03349,7.11929 -1.42958,-0.43399 -2.22157,-0.0889 -2,0.87151 0.20176,0.87452 -0.72977,1.77349 -2.07006,1.9977 -1.3403,0.22422 -4.3403,1.30558 -6.66667,2.403 -2.32637,1.09743 -9.02977,3.86178 -14.89644,6.14299 -11.90936,4.63088 -10.76231,4.12123 -30,13.32959 -14.50328,6.94218 -22.09021,11.23206 -31.95971,18.07098 -3.17489,2.2 -6.71294,4.6 -7.86233,5.33334 -1.14939,0.73333 -4.91423,3.43333 -8.36631,6 -25.86943,19.23429 -39.17837,31.36521 -45.4827,41.45689 -2.01908,3.23204 -5.13276,7.86126 -6.91928,10.28717 -3.30773,4.49152 -5.41939,9.7466 -9.25813,23.03979 -3.78586,13.11 -2.3224,30.9156 3.42276,41.6443 5.37134,10.03066 29.46714,28.79907 52.36962,40.79116 9.88212,5.17444 45.04825,18.01387 55.38941,20.22312 11.31736,2.4178 47.58154,11.95327 50,13.14723 1.46667,0.72408 6.26667,2.56768 10.66667,4.09688 4.4,1.52921 11.6,4.02996 16,5.5572 4.4,1.52725 8.80005,3.4122 9.7779,4.18877 0.97784,0.77659 2.77784,1.58492 4,1.79629 12.89443,2.23018 16.03346,2.91323 19.0451,4.14422 1.91932,0.7845 6.71932,2.05021 10.66666,2.81266 3.94735,0.76246 8.677,1.7399 10.51034,2.1721 7.23061,1.70458 26.49318,4.89744 35.47744,5.88054 5.2126,0.57039 10.0126,1.35608 10.66666,1.74599 0.65408,0.38992 6.88923,1.08723 13.8559,1.5496 6.96666,0.46236 15.36666,1.15109 18.66666,1.53052 12.50993,1.43837 64.26913,4.71303 86.66667,5.48313 12.83333,0.44127 23.45216,0.8924 23.5974,1.00254 0.14522,0.11013 2.54522,0.0459 5.33333,-0.14284 2.78809,-0.1887 22.46926,-0.62546 43.73593,-0.97059 z m -56.96522,-14.84636 c -0.42319,-0.42317 -3.67914,-0.97587 -7.23544,-1.2282 -3.5563,-0.25233 -9.6174,-1.62031 -13.46911,-3.03995 -14.45595,-5.32809 -16.03035,-10.23861 -9.65175,-30.10342 2.39336,-7.45364 5.76982,-16.5607 7.50322,-20.23788 1.7334,-3.6772 3.15164,-8.5342 3.15164,-10.79336 0,-6.92976 3.40074,-8.73143 14.82101,-7.85193 5.41511,0.41702 12.41285,1.41992 15.55056,2.22864 3.13769,0.80873 6.06659,1.10874 6.50864,0.66668 0.44205,-0.44206 1.92485,-0.20374 3.29509,0.5296 2.52345,1.3505 3.27929,5.93642 1.45196,8.80956 -1.06708,1.67778 -9.56478,3.3537 -18.29393,3.60794 -6.41195,0.18675 -8.66667,1.45511 -8.66667,4.87528 0,3.27024 5.80255,4.85752 10.82591,2.96141 2.99309,-1.12976 4.08053,-0.95972 5.76485,0.90143 3.15648,3.48788 2.5139,6.28887 -2.25742,9.83991 -3.5216,2.62093 -5.93202,3.22661 -12.8676,3.23326 -7.40672,0.007 -8.85614,0.42675 -10.97036,3.17612 -1.55223,2.01855 -2.44684,5.44874 -2.46572,9.45435 -0.0391,8.28545 2.34814,9.5786 17.96148,9.72971 11.80721,0.11426 12.0107,0.1717 13.2675,3.7454 1.0487,2.98194 0.7671,4.13866 -1.57866,6.48441 -2.701,2.70101 -10.98312,4.67312 -12.6452,3.01104 z m -93.6562,-11.39612 c -4.88479,-4.28891 -5.86194,-7.51084 -3.11191,-10.26087 1.90288,-1.90288 7.25259,-2.12322 8.3522,-0.34401 1.88116,3.0438 16.71447,-7.08003 16.71447,-11.40773 0,-1.8884 -6.98714,-12.01456 -9.59296,-13.90268 -1.9656,-1.42423 -5.17778,-12.67349 -4.44914,-15.58121 0.49834,-1.98866 3.17264,-4.07987 8.09923,-6.33334 8.86005,-4.05268 8.70965,-4.04482 12.35812,-0.64574 4.4908,4.18381 3.81691,8.8959 -1.64471,11.50037 -6.2811,2.99525 -6.57416,5.79189 -1.24958,11.92482 4.1366,4.7646 9.81237,14.86591 9.81237,17.46332 0,2.33331 -14.40705,15.76359 -15.61464,14.556 -0.4596,-0.45958 -1.80627,0.0428 -2.99263,1.11644 -1.18634,1.07363 -4.36468,2.87448 -7.06296,4.0019 -4.83724,2.02113 -4.97194,1.9919 -9.61786,-2.08727 z m -60.73804,-10.94116 c -7.43692,-3.47219 -12.34723,-10.25781 -11.10623,-15.34789 0.47896,-1.9645 4.59058,-11.37182 9.1369,-20.90515 4.54633,-9.53333 9.62486,-20.78333 11.28562,-25 1.66076,-4.21666 3.69987,-7.73776 4.53136,-7.82464 5.01988,-0.52456 10.17848,2.96176 10.17848,6.87888 0,1.26919 -0.8963,4.02619 -1.99178,6.12668 -1.09548,2.1005 -1.99548,4.86908 -2,6.15242 -0.004,1.28333 -0.55859,2.33333 -1.23127,2.33333 -0.67268,0 -2.29767,2.85 -3.61109,6.33333 -1.31342,3.48334 -3.4862,8.22215 -4.82843,10.53071 -4.35376,7.48828 -7.64227,18.32617 -5.89743,19.4361 2.82114,1.79459 16.45708,1.1654 18.1181,-0.836 2.31652,-2.79121 8.30732,-3.95773 9.62834,-1.8748 4.93316,7.7784 -4.68652,16.5107 -18.39922,16.70192 -5.31559,0.0741 -9.69988,-0.78438 -13.81335,-2.70489 z m 207.39978,-1.71196 c -2.30836,-3.52301 -1.89161,-9.87441 0.64791,-9.87441 0.71725,0 3.55581,-1.97459 6.30793,-4.38799 2.75211,-2.41339 6.50384,-5.40873 8.33717,-6.65632 1.83334,-1.24759 6.399,-4.37536 10.14594,-6.95061 7.91285,-5.43847 18.2868,-8.03015 20.66633,-5.16298 0.83284,1.00351 2.20821,1.82456 3.0564,1.82456 0.84819,0 4.5722,3.219 8.2756,7.15334 9.36727,9.95138 12.05329,11.43161 21.25568,11.71362 10.38487,0.31827 23.89448,-2.96341 39.29292,-9.54482 6.84868,-2.92718 14.42322,-5.32214 16.83232,-5.32214 3.96354,0 9.73904,2.61 21.14148,9.55406 2.2,1.33978 5.65826,2.43822 7.68505,2.44096 2.02677,0.003 13.72677,-3.40628 26,-7.57562 21.95035,-7.45673 22.55276,-7.57885 36.86999,-7.47357 8.00526,0.0589 16.70526,0.72648 19.33333,1.4836 15.91457,4.58481 19.81458,4.81588 59.84898,3.54583 28.82594,-0.91448 31.40274,-0.80688 35.66664,1.4894 7.8611,4.23348 5.0354,13.35914 -2.9749,9.60729 -3.8381,-1.79769 -10.5361,-1.97056 -22.4291,-0.57883 -20.8603,2.4411 -53.88642,3.04174 -57.61214,1.04779 -1.58358,-0.84751 -5.24538,-1.54091 -8.13736,-1.54091 -2.89199,0 -7.28144,-0.81189 -9.75434,-1.8042 -5.26501,-2.11272 -21.39282,-1.96324 -31.08307,0.28808 -3.6228,0.84168 -9.59062,3.02714 -13.26179,4.85656 -3.67119,1.82943 -8.15983,3.32623 -9.97476,3.32623 -1.81495,0 -4.35059,0.95087 -5.63477,2.11304 -1.65768,1.50017 -5.3619,2.17692 -12.77166,2.33333 -9.87738,0.20848 -11.03582,-0.0871 -21.6135,-5.5152 -10.13427,-5.20053 -11.56443,-5.59438 -15.33334,-4.22273 -2.28613,0.83201 -5.9566,1.81939 -8.1566,2.19416 -2.2,0.37477 -4.83132,1.36596 -5.84738,2.20264 -1.01606,0.83668 -2.51606,1.549 -3.33334,1.58293 -0.81726,0.034 -3.88594,1.13138 -6.81928,2.43875 -13.76663,6.13572 -34.27469,6.99735 -43.99999,1.8486 -2.2,-1.16472 -7.69578,-5.71869 -12.21283,-10.11995 -6.26587,-6.10524 -8.87849,-7.8282 -11.02077,-7.26798 -1.54438,0.40386 -3.13402,1.26188 -3.53254,1.90669 -0.39852,0.64481 -1.73917,1.17335 -2.97922,1.17451 -1.24006,10e-4 -6.38887,3.90116 -11.44182,8.66666 -5.05294,4.76551 -9.92948,8.66455 -10.83674,8.66455 -0.90726,0 -2.3965,0.9 -3.30942,2 -2.42278,2.91927 -4.72622,2.45848 -7.29301,-1.45892 z M 396.85698,547.20963 c -3.90402,-1.97531 -7.0572,-5.0312 -9.77776,-9.47611 -3.77982,-6.17552 -4.00452,-7.31024 -3.82829,-19.33333 0.26915,-18.36144 0.43201,-19.93354 2.63576,-25.44124 2.55087,-6.37526 7.33467,-8.84061 10.45787,-5.3895 2.60772,2.88149 3.6032,9.39293 1.78294,11.6623 -0.70774,0.88238 -1.60833,8.5559 -2.00132,17.05227 -0.62677,13.55105 -0.42398,15.76897 1.6515,18.06236 1.3013,1.43792 2.88642,2.6144 3.52248,2.6144 3.86164,0 21.45465,-20.68453 26.65022,-31.33333 7.68404,-15.74915 15.07568,-26.59268 17.22272,-25.26574 0.5803,0.35864 1.8889,2.3235 2.908,4.36635 2.06074,4.13083 0.60934,9.56605 -2.55446,9.56605 -0.98795,0 -1.79626,1.18786 -1.79626,2.63968 0,2.53866 -2.5988,10.37844 -5.75474,17.36032 -3.11976,6.9018 -12.00007,19.02653 -14.39374,19.65249 -1.3685,0.35788 -2.1294,1.23123 -1.69086,1.94078 1.08086,1.74889 -5.8887,8.8446 -10.82732,11.02329 -7.28523,3.21389 -8.39931,3.23733 -14.20674,0.29896 z m -94.49906,-22.28798 c -2.96383,-2.96383 -3.31781,-11.54018 -0.57624,-13.96087 0.83055,-0.73333 2.55645,-5.23333 3.83533,-10 4.17296,-15.55344 5.33547,-19.28473 7.06195,-22.66667 2.37027,-4.64302 2.13452,-7.96734 -0.92032,-12.97757 -2.85595,-4.68404 -2.36009,-8.38207 1.1144,-8.31085 11.14749,0.22848 30.42569,2.90586 32.98156,4.58053 1.71341,1.12268 4.03577,2.04123 5.1608,2.04123 1.12504,0 5.27131,3.15 9.21393,7 5.7042,5.57018 7.33799,8.13374 7.99859,12.5505 0.75212,5.02875 0.34587,6.15676 -4.32195,12 -7.25938,9.08742 -11.44325,12.66676 -17.18589,14.70268 -8.57855,3.04132 -12.73435,3.15094 -20.98969,0.55364 -9.1659,-2.88377 -9.40427,-2.72536 -10.72792,7.12942 -0.4972,3.70173 -1.5103,7.48042 -2.25131,8.39709 -2.04303,2.5273 -7.35821,1.99589 -10.39324,-1.03913 z m 44.04356,-31.71575 c 3.73709,-3.60208 6.66224,-7.62107 6.66224,-9.15352 0,-3.83487 -4.42545,-9.0236 -9.91996,-11.63092 -5.79552,-2.75016 -20.70679,-2.69843 -20.82079,0.0723 -0.0407,0.99024 -0.11053,5.85042 -0.15524,10.80042 l -0.0812,9 5.82191,3.56187 c 8.34603,5.10612 10.81281,4.75263 18.493,-2.65008 z m -81.33776,2.42155 c 0,-0.73334 -0.62619,-1.33334 -1.39152,-1.33334 -0.76535,0 -3.01535,-1.51845 -5,-3.37433 -7.52249,-7.03439 -19.33873,-12.33908 -29.09993,-13.06389 -5.04636,-0.37472 -9.32521,-0.80442 -9.50855,-0.95487 -0.18333,-0.15047 -0.90333,-0.34857 -1.6,-0.44024 -0.69666,-0.0917 -2.01666,-0.91667 -2.93333,-1.83333 -0.91667,-0.91667 -2.74667,-1.66667 -4.06667,-1.66667 -3.10192,0 -3.13768,-4.17201 -0.0667,-7.77677 3.02804,-3.55431 5.29882,-3.83184 11,-1.34443 2.56666,1.11984 6.8558,2.446 9.5314,2.94701 2.67561,0.50102 6.37024,2.09518 8.2103,3.54256 1.84007,1.4474 3.68507,2.63163 4.10003,2.63163 0.41495,0 5.06948,2.1 10.3434,4.66667 5.27393,2.56666 10.34625,4.66666 11.27181,4.66666 2.48995,0 7.20972,6.57072 7.20972,10.03716 0,2.9258 -2.24819,4.62951 -6.10905,4.62951 -1.04002,0 -1.89095,-0.6 -1.89095,-1.33333 z m 852.77788,-21 c -0.55,-0.55 -6.2,-1.08975 -12.5556,-1.19943 -6.3556,-0.10973 -13.6556,-0.60589 -16.2223,-1.10267 -2.5666,-0.49677 -5.7166,-0.89432 -7,-0.88344 -1.2833,0.0107 -2.3333,-0.42789 -2.3333,-0.97509 0,-0.54719 -2.4,-0.87236 -5.3333,-0.72259 -2.9334,0.14976 -5.3334,-0.1152 -5.3334,-0.5889 0,-0.47367 -1.65,-0.98788 -3.6666,-1.14268 -7.3446,-0.5638 -10.365,-1.08995 -11.8895,-2.0711 -0.8558,-0.55081 -4.4558,-1.37188 -8,-1.82458 -3.5441,-0.45271 -9.7439,-1.70028 -13.7772,-2.77239 -4.0334,-1.07211 -9.7334,-2.51304 -12.6667,-3.20209 -2.9333,-0.68906 -6.2333,-1.63194 -7.3333,-2.09531 -1.1,-0.46336 -3.8,-1.07105 -6,-1.35041 -2.2,-0.27936 -4.9,-0.86446 -6.00003,-1.30023 -1.1,-0.43576 -4.03767,-1.03788 -6.52813,-1.33804 -2.49048,-0.30016 -5.79048,-1.24288 -7.33334,-2.09492 -1.54286,-0.85205 -3.80204,-1.39753 -5.02041,-1.21219 -1.21837,0.18535 -2.60983,-0.3015 -3.09213,-1.08189 -0.48231,-0.78039 -1.41206,-1.08816 -2.06611,-0.68392 -0.65405,0.40423 -5.8208,-0.77777 -11.48167,-2.62668 -5.66086,-1.84889 -10.55014,-3.10397 -10.86505,-2.78907 -0.31491,0.31492 -2.74781,-0.59329 -5.40644,-2.01824 -2.65864,-1.42494 -6.14416,-2.59081 -7.74559,-2.59081 -1.60142,0 -4.61032,-0.85471 -6.68641,-1.89935 -2.07609,-1.04462 -6.47472,-2.61656 -9.77472,-3.49317 -3.3,-0.87661 -7.94465,-2.55547 -10.32144,-3.7308 -3.742,-1.85041 -4.90409,-1.89435 -8.66666,-0.32764 -5.83295,2.42877 -9.68406,2.22323 -13.9133,-0.74261 -1.93962,-1.3602 -7.81842,-4.8731 -13.064,-7.80643 -5.24557,-2.93333 -14.47318,-8.93333 -20.5058,-13.33333 -6.03261,-4.4 -12.89449,-9.38867 -15.2486,-11.08592 -4.42989,-3.19384 -22.6722,-19.39153 -25.80649,-22.91408 -9.33321,-10.48933 -12.47371,-14.598 -12.47371,-16.31919 0,-1.11152 -0.99426,-2.84442 -2.20949,-3.85089 -3.12679,-2.58964 -11.12384,-20.15296 -11.12384,-24.43045 0,-1.96612 -0.5692,-4.63834 -1.26488,-5.93823 -1.87489,-3.50328 -0.22073,-8.12791 2.90723,-8.12791 3.97908,0 11.22072,8.72298 12.95305,15.60267 1.06159,4.21595 3.10473,7.45203 6.79855,10.76803 2.90446,2.6074 6.70826,7.85862 8.45289,11.66938 1.747,3.81595 5.34769,8.65783 8.01487,10.77763 2.66356,2.11693 9.27949,8.06824 14.70209,13.22513 11.61953,11.0502 16.85585,14.36038 17.86027,11.2905 0.35989,-1.1 2.96172,-4.32059 5.78181,-7.15687 2.82011,-2.83627 5.12745,-5.57401 5.12745,-6.08388 0,-0.50985 1.84143,-2.68927 4.09204,-4.84313 5.28571,-5.05846 11.90796,-15.06266 11.90796,-17.98928 0,-1.376 -1.32396,-2.53572 -3.33333,-2.91984 -1.83333,-0.35047 -3.33333,-0.1204 -3.33333,0.51122 0,0.63164 -0.69967,1.14844 -1.55482,1.14844 -0.85514,0 -2.50514,0.88587 -3.66666,1.96859 -12.15068,11.32639 -17.47782,15.52833 -21.35582,16.84508 -4.26829,1.44925 -4.79489,1.30121 -7.80034,-2.19284 -2.6038,-3.02709 -3.07218,-4.69047 -2.4378,-8.6576 0.60224,-3.76621 0.21185,-5.42949 -1.67515,-7.13721 -2.18077,-1.97358 -2.6496,-1.99866 -4.1252,-0.22066 -1.39211,1.67739 -8.7872,6.06131 -10.22461,6.06131 -0.75444,0 -5.82627,-11.10235 -5.82627,-12.75384 0,-0.87247 0.84785,-2.28996 1.88411,-3.14997 1.03626,-0.86003 2.3013,-4.59703 2.8112,-8.30444 1.14646,-8.33583 -0.76655,-10.79238 -8.20375,-10.5346 -2.83703,0.0983 -6.89396,0.23748 -9.01543,0.30921 -6.78542,0.22943 -10.72326,-8.96133 -6.03997,-14.09705 2.27213,-2.49163 41.46061,-0.0107 49.77765,3.15192 1.74827,0.66469 3.45715,0.93004 3.79751,0.58968 0.34036,-0.34038 2.30107,0.0208 4.35712,0.80244 2.05604,0.7817 11.28925,2.56558 20.51825,3.96418 19.96486,3.02555 27.63189,4.53164 37.44664,7.35592 4.03333,1.16063 9.59679,2.69146 12.36323,3.40183 2.76645,0.71037 7.25756,2.48555 9.98025,3.94483 2.72271,1.45926 5.55191,2.65322 6.28715,2.65322 1.17164,0 24.91037,7.11099 36.03604,10.79466 2.2,0.72841 9.7,3.15021 16.66666,5.38176 12.9929,4.16184 23.2354,8.51878 38.9544,16.57032 4.925,2.52262 10.1486,4.5866 11.6081,4.5866 1.4594,0 5.8299,1.8765 9.7122,4.17001 3.8823,2.29351 9.27,4.95327 11.9728,5.91056 16.1094,5.70581 47.1822,34.02582 56.966,51.91942 2.4059,4.4 4.958,8.7108 5.6714,9.57958 0.7134,0.86876 1.1062,3.56876 0.8728,6 -0.3494,3.63942 -1.0393,4.49178 -3.9048,4.82436 -4.3401,0.50368 -10.6944,-4.60298 -13.7561,-11.05511 -1.2221,-2.57519 -3.1051,-4.68216 -4.1845,-4.68216 -2.6081,0 -16.5066,7.46723 -19.9908,10.74043 -1.518,1.42609 -3.6979,2.5929 -4.8441,2.5929 -2.9502,0 -5.4362,3.4361 -4.5359,6.26935 0.6429,2.02323 2.2725,2.39045 10.4435,2.35335 5.3249,-0.0241 11.2595,-0.52112 13.188,-1.1043 5.8088,-1.75661 14.7434,1.9946 17.4297,7.31795 2.493,4.94047 3.0678,8.40207 1.2037,7.25 -0.6565,-0.40573 -1.5376,0.15885 -1.9581,1.25464 -0.7929,2.0662 -6.3174,2.74549 -8.0704,0.99235 z m -43.7427,-23.21576 c -0.057,-2.00763 -0.6692,-3.53039 -1.3602,-3.38391 -0.6911,0.14648 -1.9317,-0.75863 -2.7571,-2.01136 -1.6597,-2.51904 0.8165,-14.67245 3.158,-15.50008 2.3177,-0.81919 1.2882,-2.31747 -1.5923,-2.31747 -1.5674,0 -4.5285,1.67864 -6.5802,3.73031 -2.0516,2.05168 -5.6169,4.10765 -7.9229,4.56883 -2.3059,0.46118 -4.8891,1.95397 -5.7406,3.3173 -2.7644,4.42654 -9.4152,2.61987 -12.5905,-3.42016 -1.4733,-2.8025 0.091,-9.24017 3.1022,-12.7677 2.6484,-3.1025 3.7078,-8.89204 1.8384,-10.04739 -1.0366,-0.64067 -4.8339,2.32741 -10.4755,8.18788 -15.3055,15.89943 -17.7775,19.18904 -16.0154,21.31228 0.8584,1.03431 2.914,1.88056 4.568,1.88056 1.654,0 5.1612,0.9 7.7939,2 2.6327,1.1 7.056,2.02303 9.8295,2.05117 2.7736,0.0281 10.4429,1.47139 17.0429,3.20723 15.4581,4.06555 17.8372,3.95703 17.7018,-0.80749 z m -68.2899,-17.61627 c -0.9787,-7.83351 -1.1583,-7.54276 15.4135,-24.95269 2.6539,-2.78821 5.1293,-6.23153 5.5007,-7.6518 0.6466,-2.4726 0.5122,-2.48985 -3.1622,-0.40623 -2.1106,1.19684 -4.1764,3.22608 -4.5906,4.50942 -0.4142,1.28333 -1.6126,2.33333 -2.6632,2.33333 -1.0506,0 -1.9102,0.53164 -1.9102,1.18141 0,0.64977 -1.95,2.12157 -4.3333,3.27067 -2.3833,1.14909 -5.8866,3.55201 -7.7849,5.33981 -1.8984,1.7878 -5.37931,4.24737 -7.73531,5.46571 -2.35601,1.21833 -4.61697,3.08378 -5.02437,4.14545 -0.40739,1.06165 -1.55542,1.93028 -2.55116,1.93028 -1.96999,0 -4.57092,4.01771 -4.57092,7.06079 0,1.24933 1.03022,1.71153 3,1.3459 1.65,-0.30626 6.3,0.33744 10.33333,1.43048 11.31783,3.06714 11.10043,3.17506 10.07863,-5.00253 z m -34.83126,-5.83464 c -0.44189,-2.01667 -1.02409,-4.38959 -1.2938,-5.27315 -0.54052,-1.7708 8.62574,-15.74185 17.61538,-26.84907 5.33349,-6.58983 7.20557,-10.87778 4.74913,-10.87778 -0.55839,0 -4.00839,2.09403 -7.66667,4.65339 -3.65828,2.55937 -7.64594,5.01484 -8.86148,5.45661 -1.21553,0.44176 -2.50856,1.94471 -2.87341,3.33988 -0.36484,1.39516 -1.77031,2.94242 -3.12327,3.43834 -1.35296,0.49592 -4.16145,2.64741 -6.2411,4.78109 -2.07966,2.13368 -4.10108,3.55953 -4.49207,3.16854 -0.39097,-0.39097 -1.45963,0.0107 -2.37479,0.89231 -4.30826,4.15101 -8.82094,7.60317 -9.93892,7.60317 -1.56762,0 -3.28224,5.23651 -2.10664,6.43382 1.22604,1.24868 20.68783,6.67412 24.38567,6.79809 2.62053,0.0879 2.91788,-0.38927 2.22197,-3.56524 z m 127.16846,-0.68197 c 0.3081,-1.6 -0.4099,-2.31803 -2.318,-2.31803 -1.9082,0 -2.7645,0.85631 -2.7645,2.76443 0,3.41686 4.4131,3.02924 5.0825,-0.4464 z M 925.97229,413.96078 c 1.48872,-1.65 3.82268,-4.95 5.18656,-7.33333 1.36389,-2.38333 2.95044,-4.33333 3.52567,-4.33333 0.57521,0 1.04585,-0.64047 1.04585,-1.42327 0,-0.78279 2.7,-4.73779 6,-8.78888 3.3,-4.05111 6,-7.91064 6,-8.57675 0,-0.6661 0.9,-1.2111 2,-1.2111 1.11111,0 2,-1.18519 2,-2.66667 0,-3.03931 -2.39153,-3.60173 -3.46129,-0.81401 -0.41103,1.07112 -1.79952,1.56798 -3.29148,1.17782 -1.76598,-0.46181 -2.58056,0.006 -2.58056,1.48068 0,1.18554 -0.93542,2.15551 -2.0787,2.15551 -1.14328,0 -1.78582,0.47387 -1.42788,1.05303 0.35795,0.57917 -2.0705,2.77466 -5.39656,4.87888 -7.53828,4.76908 -16.99325,14.31276 -20.29882,20.48927 -1.46624,2.73971 -0.40155,4.3803 3.86862,5.96119 3.90948,1.44736 6.23696,0.91201 8.90859,-2.04904 z m 146.01851,-5.91612 c 4.1373,-3.96377 4.6278,-6.02021 1.9636,-8.23136 -2.7959,-2.32036 -6.4563,1.2531 -7.0799,6.91167 -0.6443,5.84705 0.1712,6.0574 5.1163,1.31969 z m -176.85299,-5.83242 c 1.36807,-1.51171 7.38923,-10.36171 13.38033,-19.66667 5.99112,-9.30497 11.80555,-17.90889 12.92096,-19.11983 3.24166,-3.51929 4.02416,-7.58921 1.87276,-9.7406 -1.68994,-1.68996 -2.75352,-1.18653 -8.42448,3.98766 -7.48003,6.82477 -13.64473,12.78437 -19.62185,18.96905 -2.311,2.39127 -5.85886,5.09085 -7.88414,5.99908 -2.02528,0.90824 -3.99678,2.64211 -4.38111,3.85304 -0.38435,1.21095 -2.02729,2.53908 -3.65101,2.95141 -3.4113,0.8663 -6.55916,5.28424 -5.55483,7.79603 0.82999,2.07575 12.15605,7.43532 16.06261,7.60095 1.53635,0.0652 3.91268,-1.11843 5.28076,-2.63012 z m 111.92589,-5.25146 c 0.4532,-0.73333 0.224,-1.33333 -0.5093,-1.33333 -0.7333,0 -1.7041,0.6 -2.1574,1.33333 -0.4532,0.73334 -0.224,1.33334 0.5093,1.33334 0.7334,0 1.7042,-0.6 2.1574,-1.33334 z m 14.1346,-9.23186 c 4.6466,-3.61086 8.9104,-6.2797 9.475,-5.93075 1.2561,0.77636 -0.2036,-3.54145 -1.9691,-5.82449 -2.1302,-2.75459 -7.9229,-0.32775 -13.6405,5.71465 -2.9333,3.09997 -5.4389,6.15444 -5.5679,6.78772 -0.1289,0.63327 -0.6432,2.2014 -1.1426,3.48473 -1.734,4.45547 4.168,2.51103 12.8451,-4.23186 z m -47.90357,-2.41335 c 2.4396,-2.00487 4.73564,-4.01219 5.10231,-4.46071 0.36666,-0.44852 4.41666,-3.36088 9,-6.4719 4.58333,-3.11104 8.33333,-6.42878 8.33333,-7.37276 0,-2.0257 -7.40807,-5.88635 -10.50969,-5.47706 -1.18634,0.15655 -3.01526,2.19182 -4.06427,4.5228 -1.049,2.331 -2.65815,4.23818 -3.57587,4.23818 -0.91772,0 -3.02933,1.95 -4.69248,4.33333 -1.66313,2.38333 -3.80398,4.81315 -4.75745,5.39959 -1.96128,1.2063 -2.39596,8.93374 -0.50255,8.93374 0.67708,0 3.22708,-1.64034 5.66667,-3.64521 z m -38.89769,-11.02145 c 0,-0.73334 0.75,-1.35104 1.66666,-1.37267 0.91667,-0.0216 5.73386,-3.81309 10.70486,-8.42545 8.88112,-8.24038 8.99253,-8.42746 6.41049,-10.76416 -3.69592,-3.34476 -9.43971,-1.27475 -12.35019,4.4509 -1.22916,2.41807 -3.32916,5.68234 -4.66666,7.25394 -2.52148,2.96277 -5.76516,8.3112 -5.76516,9.50601 0,0.37661 0.9,0.68476 2,0.68476 1.1,0 2,-0.6 2,-1.33333 z m -84.33333,-43.17131 c 3.75337,-1.26163 3.91262,-4.83969 0.25792,-5.79541 -1.50814,-0.39439 -2.45303,-1.47031 -2.09976,-2.39094 0.42493,-1.10733 -0.23139,-1.44537 -1.93918,-0.99877 -4.34426,1.13605 -5.27784,11.26356 -0.96813,10.50244 0.96204,-0.16991 3.09915,-0.76269 4.74915,-1.31732 z m -91.79929,129.96764 c -5.12144,-2.72899 -13.2639,-4.16816 -27.86738,-4.92554 -5.5,-0.28525 -12.1,-0.78409 -14.66666,-1.10853 -2.56667,-0.32445 -8.26667,-0.93871 -12.66667,-1.36503 -4.4,-0.4263 -9.76409,-0.95737 -11.92021,-1.18014 -2.15612,-0.22276 -4.15452,-1.10795 -4.4409,-1.96707 -0.37273,-1.11821 -1.24782,-1.17289 -3.07978,-0.19247 -1.76847,0.94646 -3.38668,0.9267 -5.23772,-0.064 -1.47324,-0.78845 -4.92324,-1.35273 -7.66667,-1.25397 -2.74343,0.0988 -7.08409,-0.47724 -9.64592,-1.28003 -2.56183,-0.80273 -6.31183,-1.45956 -8.33333,-1.45956 -2.02151,0 -3.67547,-0.51072 -3.67547,-1.13493 0,-0.62421 -2.85,-1.16396 -6.33333,-1.19943 -7.64025,-0.0777 -23.396,-2.26229 -25.44343,-3.52766 -0.8104,-0.50087 -3.44216,-1.17767 -5.84834,-1.50402 -2.40619,-0.32634 -8.41938,-1.12444 -13.36263,-1.77354 -4.94325,-0.64911 -9.96913,-1.9947 -11.16863,-2.99018 -1.19949,-0.99549 -4.25645,-1.94276 -6.79324,-2.10505 -2.53678,-0.16228 -5.36612,-0.92064 -6.28738,-1.68523 -0.92127,-0.76458 -2.01186,-1.05334 -2.42351,-0.64168 -0.41167,0.41166 -3.31916,-0.49354 -6.46109,-2.01157 -3.14195,-1.51803 -7.06452,-2.76004 -8.71683,-2.76004 -1.65232,0 -3.37503,-0.6 -3.82825,-1.33333 -0.45323,-0.73334 -1.68704,-1.33334 -2.7418,-1.33334 -1.05476,0 -5.96935,-1.84964 -10.92131,-4.11032 -4.95196,-2.26068 -11.40356,-5.184 -14.33689,-6.49628 -2.93334,-1.31226 -9.37071,-4.26262 -14.30528,-6.55634 -4.93457,-2.29371 -9.67793,-4.17039 -10.54081,-4.17039 -0.86288,0 -3.53547,-1.5 -5.9391,-3.33333 -2.40362,-1.83333 -4.96246,-3.33333 -5.68633,-3.33333 -1.92591,0 -20.78372,-9.67532 -21.30625,-10.93154 -0.24446,-0.58765 -1.52099,-1.06846 -2.83675,-1.06846 -1.31576,0 -3.13923,-0.9 -4.05215,-2 -0.91292,-1.1 -2.75097,-2 -4.08457,-2 -1.33359,0 -2.76824,-0.55583 -3.18811,-1.23519 -0.41985,-0.67935 -5.70526,-3.93217 -11.74534,-7.22851 -6.04008,-3.29632 -13.46046,-7.79244 -16.4897,-9.99137 -5.30345,-3.84977 -13.82561,-16.47053 -13.82561,-20.47481 0,-4.57622 14.89493,-13.1449 23.91336,-13.75676 2.76308,-0.18746 6.27348,-1.00966 7.80089,-1.8271 1.5274,-0.81745 5.06655,-1.48469 7.86476,-1.48278 4.96602,0.004 12.00424,-1.35162 35.08766,-6.75522 6.23333,-1.45916 17.03333,-3.48948 24,-4.51182 6.96666,-1.02235 14.22829,-2.45783 16.13694,-3.18996 1.90864,-0.73214 7.18727,-1.66187 11.73025,-2.0661 4.543,-0.40422 8.69562,-1.00417 9.22803,-1.33322 0.53243,-0.32906 5.4538,-0.97374 10.9364,-1.43262 5.48261,-0.45889 11.76837,-1.05045 13.96837,-1.3146 2.2,-0.26413 8.71348,-0.89432 14.4744,-1.40041 5.76094,-0.50609 12.43472,-1.73923 14.83066,-2.74031 2.39593,-1.00109 4.68072,-1.49566 5.07732,-1.09908 0.3966,0.3966 7.30948,0.0624 15.36194,-0.74258 25.21283,-2.52058 51.36255,-1.71407 68.25568,2.10514 15.53253,3.51159 17.92623,4.1439 23.51433,6.21135 11.49278,4.25204 20.6894,12.03356 18.46864,15.62684 -1.38233,2.23665 -7.3077,1.47623 -21.3163,-2.7356 -2.2,-0.66145 -6.12342,-1.46179 -8.7187,-1.77853 -2.59528,-0.31675 -6.95998,-1.51238 -9.69933,-2.65695 -2.73936,-1.14457 -5.80653,-1.76412 -6.81595,-1.37677 -1.0094,0.38734 -5.0447,0.11413 -8.96732,-0.60703 -7.60282,-1.39785 -14.46537,-0.73256 -14.46537,1.40236 0,0.71364 1.27161,2.32721 2.82581,3.58572 l 2.82583,2.28821 -2.85292,5.59218 c -1.56911,3.0757 -3.64773,5.59218 -4.61917,5.59218 -0.97144,0 -2.83838,1.18468 -4.14875,2.63263 -1.31037,1.44795 -3.65105,3.03525 -5.20153,3.52736 -2.56696,0.81472 -6.01555,4.13024 -6.1202,5.88404 -0.0963,1.61395 6.50104,0.26968 8.50334,-1.73263 4.24523,-4.24522 26.66299,-14.26449 31.20856,-13.94817 4.22091,0.29373 4.3479,0.47405 3.96971,5.63677 -0.24917,3.40154 -0.99436,5.2126 -2.05735,5 -0.91666,-0.18333 -1.51666,0.1695 -1.33333,0.78406 0.39513,1.32453 -13.84104,17.50769 -15.42301,17.53232 -1.61143,0.0251 -11.52496,8.48938 -11.55295,9.86406 -0.0133,0.64924 -1.59081,2.63247 -3.50575,4.40718 -4.56409,4.22986 -3.16602,5.42466 2.41158,2.06094 2.4219,-1.46058 8.00346,-4.59337 12.40346,-6.96174 4.4,-2.36838 10.1,-5.65658 12.66667,-7.30711 8.93311,-5.74459 18.04937,-10.86572 25.76607,-14.47431 7.27013,-3.39977 7.71357,-3.8706 6.94426,-7.37325 -0.66336,-3.02024 -0.25056,-3.99647 2.1412,-5.06369 3.65288,-1.62996 11.04532,0.65408 15.2666,4.71692 1.60842,1.54804 3.58983,2.81462 4.40314,2.81462 0.8133,0 1.47873,0.58246 1.47873,1.29435 0,1.32941 7.91499,13.47349 9.61495,14.75239 0.52156,0.39236 1.87974,2.94268 3.01818,5.66736 1.13846,2.72468 4.91172,7.64201 8.38506,10.9274 3.47333,3.28538 12.91514,14.1521 20.98181,24.14828 8.06666,9.99616 18.17626,21.85779 22.46578,26.35919 13.96888,14.6589 15.53422,16.76466 15.53422,20.89743 0,2.91828 -0.62848,3.9536 -2.4,3.9536 -1.32,0 -2.97,0.56967 -3.66667,1.26595 -3.08983,3.08804 -11.58803,-4.12543 -23.26667,-19.74927 -10.62048,-14.20823 -26.67315,-34.30285 -31.90009,-39.9323 -2.25494,-2.42859 -4.0999,-4.69147 -4.0999,-5.02863 0,-1.177 -13.9782,-18.57024 -16.31264,-20.29801 -1.29472,-0.95826 -2.35403,-2.42543 -2.35403,-3.26039 0,-2.13173 -6.80235,-8.99735 -8.91444,-8.99735 -0.96188,0 -5.19963,3.28739 -9.41721,7.30531 -4.21759,4.01791 -8.38782,7.31791 -9.26716,7.33333 -0.87935,0.0155 -3.20056,2.12803 -5.15826,4.6947 -1.95769,2.56666 -4.23822,4.66668 -5.06785,4.6667 -2.03504,6e-5 -8.84175,8.67 -8.84175,11.26206 0,3.12896 1.34224,2.6046 10.02623,-3.91687 7.93052,-5.95564 27.96564,-15.34523 32.74299,-15.34523 1.37645,0 3.49946,1.52135 4.7178,3.38076 2.0798,3.17418 2.06314,3.66303 -0.27247,8 -1.36819,2.54059 -3.18903,4.61924 -4.04629,4.61924 -0.85727,0 -3.4025,2.1 -5.65607,4.66667 -2.25356,2.56667 -4.97528,4.66667 -6.04827,4.66667 -1.07298,0 -2.32201,1.1693 -2.7756,2.59846 -0.4536,1.42915 -1.99466,2.96979 -3.4246,3.42363 -1.42993,0.45384 -3.22036,1.98453 -3.97872,3.40153 -0.75834,1.41702 -2.18424,2.57638 -3.16865,2.57638 -0.9844,0 -2.53128,0.8934 -3.43749,1.98532 -0.90623,1.09192 -2.11568,1.69606 -2.6877,1.34254 -1.24364,-0.76861 -3.13497,5.97276 -1.99541,7.11232 0.43571,0.43571 2.11491,-0.0405 3.73156,-1.05841 5.60777,-3.53061 28.28112,-14.67429 29.89831,-14.69465 0.89408,-0.0107 3.89408,-1.1651 6.66666,-2.5641 9.3817,-4.73388 10.71104,-4.73013 13.61088,0.0383 2.47943,4.07709 2.50364,4.53385 0.42659,8.05001 -1.21109,2.05023 -4.78073,5.9258 -7.93253,8.6124 -3.1518,2.6866 -5.73055,5.58308 -5.73055,6.43661 0,0.85355 -2.1,3.84456 -4.66667,6.64672 -2.56666,2.80215 -4.66666,5.6548 -4.66666,6.33924 0,0.68444 -0.57731,0.88764 -1.2829,0.45156 -1.30169,-0.80449 -4.09836,7.16528 -3.13352,8.92972 0.94286,1.7242 15.64779,-4.52142 19.74975,-8.3883 2.2,-2.07392 6.20625,-4.69095 8.90277,-5.81562 2.69654,-1.12466 7.97294,-3.85508 11.72535,-6.06757 7.4532,-4.39457 11.71369,-5.08739 12.86322,-2.09177 0.92626,2.41381 -3.46722,10.06904 -5.77882,10.06904 -0.94188,0 -1.71252,0.61286 -1.71252,1.36192 0,0.74905 -1.46699,2.03032 -3.25999,2.84726 -5.09524,2.32155 -5.28712,5.09939 -0.68054,9.85218 5.37877,5.54948 7.36221,13.56104 4.21761,17.0358 -4.03164,4.4549 -6.26189,4.93126 -11.07637,2.36584 z m -46.74466,-26.60854 c 1.21584,-2.6887 3.47555,-6.68088 5.02158,-8.8715 1.54602,-2.19063 3.52408,-5.34595 4.39569,-7.01182 1.56375,-2.98876 1.48919,-3.02406 -5.63172,-2.66666 -5.12995,0.25746 -7.03347,0.84617 -6.58359,2.03612 0.36478,0.96481 -1.26445,2.46829 -3.8459,3.54908 -2.46332,1.03133 -4.94424,2.34353 -5.51314,2.91598 -0.56889,0.57246 -2.36889,1.23658 -4,1.47582 -1.6311,0.23925 -3.56794,1.23648 -4.30409,2.21606 -0.73615,0.97959 -2.68615,2.20882 -4.33333,2.73162 -8.28959,2.63101 3.06237,7.87058 18.12784,8.36702 3.89745,0.1284 4.73316,-0.46597 6.66666,-4.74172 z m -46.48905,-4.94126 c -1.80299,-4.74222 -1.87117,-4.55206 4.033,-11.24654 7.70093,-8.73174 6.95789,-10.1939 -2.63844,-5.19202 -2.96296,1.54438 -5.83144,3.59157 -6.37439,4.5493 -1.5459,2.72692 -10.18301,3.88491 -12.06476,1.61754 -2.58776,-3.11806 -3.57444,-10.30815 -1.41456,-10.30815 1.01266,0 2.59355,-1.65 3.51311,-3.66666 0.91956,-2.01667 3.61603,-5.87763 5.99215,-8.5799 11.68038,-13.28368 16.98689,-19.63312 16.98689,-20.3255 0,-0.4187 -1.2,-0.76127 -2.66667,-0.76127 -1.46666,0 -2.66666,0.6 -2.66666,1.33333 0,0.73334 -0.96299,1.33334 -2.13998,1.33334 -1.17697,0 -4.62697,1.67382 -7.66666,3.7196 -3.03968,2.04578 -10.9267,6.39578 -17.52669,9.66666 -6.6,3.2709 -13.5429,7.58516 -15.42866,9.58728 -1.88574,2.00212 -4.83158,3.80212 -6.54629,4 -1.71472,0.19788 -5.37477,2.60979 -8.13347,5.35979 -2.75869,2.75 -5.51285,5.00468 -6.12036,5.0104 -0.6075,0.005 -1.77336,1.45329 -2.5908,3.21682 -1.43698,3.10018 -1.28237,3.22871 4.66667,3.87924 3.38411,0.37007 10.05291,1.6931 14.81957,2.94006 4.76667,1.24697 10.76667,2.48032 13.33334,2.74077 7.72221,0.78361 15.06398,1.93513 19.99999,3.13689 2.56667,0.62491 6.30182,1.1976 8.30034,1.27267 3.36389,0.1264 3.53712,-0.11747 2.33333,-3.28365 z m -71.32914,-12.24654 c -3.45415,-8.21761 -3.46182,-8.2064 19.25445,-28.15171 4.70744,-4.13323 11.04444,-9.91495 14.08224,-12.84828 3.03779,-2.93334 8.93625,-8.45707 13.10769,-12.27496 4.17143,-3.8179 7.56535,-7.7179 7.54203,-8.66667 -0.0312,-1.26871 -0.4721,-1.19596 -1.66667,0.27496 -0.89335,1.1 -2.82427,2.20997 -4.29093,2.4666 -1.46667,0.25663 -3.01649,1.02996 -3.44405,1.71851 -0.42758,0.68854 -2.50156,1.37857 -4.60888,1.5334 -2.38167,0.17497 -5.25471,1.87752 -7.59268,4.49934 -2.06866,2.31983 -5.99466,5.3965 -8.72446,6.83706 -10.91777,5.76148 -14.09677,7.73764 -17.07094,10.61176 -1.70744,1.65 -3.91455,3 -4.90467,3 -0.99013,0 -5.63457,2.7 -10.32099,6 -4.68641,3.3 -9.05094,6 -9.69897,6 -0.64803,0 -3.85192,2.67369 -7.11977,5.94154 l -5.94155,5.94156 4.3754,2.2626 c 4.43513,2.29351 20.99087,6.88589 25.52755,7.08109 1.85729,0.0799 2.2309,-0.47652 1.4952,-2.2268 z m -41.97119,-12.82018 c 0,-4.95341 4.5442,-10.04965 22,-24.67265 4.4,-3.68595 9.5516,-8.20098 11.44801,-10.0334 1.8964,-1.83243 5.0464,-4.05996 7,-4.95007 1.95359,-0.89012 3.55199,-2.42209 3.55199,-3.40439 0,-2.98544 -3.28857,-2.00778 -7.28791,2.16662 -2.08276,2.17393 -4.38604,3.58226 -5.1184,3.12964 -0.73236,-0.45263 -1.99054,0.0187 -2.79596,1.0474 -0.80542,1.0287 -5.9644,3.94861 -11.4644,6.48868 -5.5,2.54005 -11.33569,5.7812 -12.96818,7.20253 -1.63251,1.42133 -7.63251,5.12015 -13.33334,8.2196 -5.70084,3.09945 -10.36514,6.45831 -10.36514,7.46413 0,1.52819 15.14402,10.12471 18.33333,10.40694 0.55,0.0487 1,-1.33059 1,-3.06503 z m -35.33333,-18.17981 c 1.13766,-2.2 2.57052,-4 3.18413,-4 0.6136,0 4.3482,-3.30472 8.29909,-7.34383 7.64546,-7.81615 23.43851,-21.22903 29.51678,-25.06831 2.01666,-1.2738 3.66666,-3.47096 3.66666,-4.88257 0,-2.30675 -0.43869,-2.41851 -4.33333,-1.10401 -2.38333,0.8044 -5.45455,2.62454 -6.82493,4.04476 -1.37364,1.4236 -3.57232,2.29958 -4.90024,1.95233 -1.65218,-0.43205 -2.1858,-0.0492 -1.69908,1.2192 0.39025,1.017 0.17573,1.84909 -0.47674,1.84909 -1.421,0 -16.03976,7.95999 -24.43234,13.30354 -3.3,2.1011 -7.05,3.86734 -8.33333,3.925 -1.28334,0.0576 -2.33334,0.61032 -2.33334,1.22817 0,0.61785 -2.10346,2.25616 -4.67436,3.64068 -5.08178,2.73672 -7.13396,6.62763 -4.75194,9.00964 1.68414,1.68415 11.86654,6.03656 14.39206,6.15181 0.89784,0.041 2.56324,-1.7255 3.70091,-3.9255 z M 495.88969,362.928 c 5.77904,-4.16096 10.50736,-8.27974 10.50736,-9.15286 0,-0.87312 2.89672,-3.27925 6.43716,-5.34698 6.39408,-3.73435 10.50869,-8.29931 8.91605,-9.89194 -0.45735,-0.45734 -1.24892,-0.21725 -1.75904,0.53356 -0.51013,0.7508 -3.11797,2.69558 -5.79521,4.3217 -2.67723,1.62613 -5.2084,3.84446 -5.62481,4.92962 -0.41642,1.08516 -1.94055,1.97302 -3.38695,1.97302 -1.4464,0 -2.99008,0.58292 -3.4304,1.29537 -0.44032,0.71245 -3.32573,2.50851 -6.41203,3.99124 -3.08629,1.48273 -7.41144,3.85596 -9.61144,5.27384 -2.2,1.41789 -5.20353,2.62183 -6.67452,2.67543 -3.24646,0.11826 -6.26704,-5.9049 -5.1332,-10.23588 0.95343,-3.64182 -1.74345,-3.99007 -7.56925,-0.97743 -4.23725,2.19116 -8.31597,8.63176 -6.859,10.83084 1.11845,1.68812 17.83397,10.72664 21.14528,11.4338 1.36096,0.29064 2.93244,-0.49224 3.58333,-1.78516 0.63762,-1.26655 5.88762,-5.70723 11.66667,-9.86817 z m 57.52545,8.49221 c 1.64005,-0.84731 3.88191,-2.01777 4.98191,-2.60103 1.1,-0.58325 4.7,-2.38906 8,-4.01293 3.3,-1.62385 9,-4.85708 12.66666,-7.18495 15.50198,-9.84176 36.7659,-21.99385 38.48522,-21.99385 1.02021,0 2.60186,-0.9 3.51478,-2 0.91292,-1.1 2.40388,-2 3.31326,-2 0.90937,0 3.91968,-1.80101 6.68958,-4.00225 2.76991,-2.20126 7.35954,-4.69836 10.19918,-5.54914 2.83963,-0.85077 5.82933,-2.34976 6.64374,-3.33108 0.81441,-0.9813 2.25729,-1.7842 3.20639,-1.7842 2.60693,0 3.17589,-3.05405 1.02921,-5.52449 -1.56531,-1.80139 -3.72375,-2.06944 -12.13405,-1.50689 -9.06513,0.60634 -10.79363,1.16666 -15.17929,4.92062 -6.2262,5.3294 -22.55315,14.92452 -24.38882,14.33299 -0.75856,-0.24445 -0.91464,0.0201 -0.34685,0.58789 0.91109,0.91111 -4.81055,5.10406 -23.69901,17.36716 -2.93334,1.90443 -6.32675,4.71406 -7.54094,6.2436 -1.96954,2.48114 -2.47274,2.57244 -4.66666,0.84674 -2.2353,-1.75827 -2.29928,-1.73007 -0.70318,0.30985 1.51963,1.94216 1.25728,2.57011 -1.94962,4.66667 -4.08506,2.67065 -12.37995,11.17832 -12.43686,12.75586 -0.0495,1.36983 0.83111,1.25952 4.31535,-0.54057 z m -93.92062,-24.41736 c 1.96305,-0.43651 5.62573,-2.59659 8.13929,-4.80016 4.08735,-3.58329 4.35619,-4.22039 2.54511,-6.03147 -1.8111,-1.81109 -2.60586,-1.79256 -7.5242,0.17536 -3.02456,1.2102 -6.26987,1.9333 -7.21178,1.6069 -1.67254,-0.57959 -8.69574,1.48352 -16.04589,4.7136 -6.12167,2.6902 -4.8478,6.57552 3.65355,11.14338 l 5.3036,2.84968 3.78556,-4.43181 c 2.08205,-2.43749 5.39169,-4.78896 7.35476,-5.22548 z m 90.50459,-8.85968 c 2.7591,-1.54968 11.47735,-6.10585 19.3739,-10.12481 14.96377,-7.61586 18.4473,-11.4519 9.35737,-10.3043 -7.86483,0.99294 -9.60437,1.86762 -10.45507,5.25707 -0.53101,2.11573 -2.08453,3.44925 -4.68318,4.02001 -5.22862,1.1484 -11.86175,4.54126 -11.86175,6.0673 0,0.67962 -0.70276,1.23568 -1.56168,1.23568 -1.86108,0 -6.43832,3.93857 -6.43832,5.53998 0,1.62907 0.68835,1.44339 6.26873,-1.69093 z m -72.93539,-1.96016 c 0,-2.35457 -2.87035,-1.94452 -3.69444,0.52777 -0.29028,0.87083 0.42221,1.58334 1.58333,1.58334 1.16111,0 2.11111,-0.95 2.11111,-2.11111 z m 35.15351,-3.319 c 4.83226,-3.80105 4.41998,-4.82631 -1.94074,-4.82631 -5.59031,0 -7.52468,1.78312 -6.06393,5.58975 1.06172,2.7668 3.85544,2.50035 8.00467,-0.76344 z"
       style="fill:#000000;stroke-width:1.33333" />
  </g>
</svg>
