<?xml version="1.0" encoding="UTF-8" standalone="no"?>
<svg
   xmlns:dc="http://purl.org/dc/elements/1.1/"
   xmlns:cc="http://creativecommons.org/ns#"
   xmlns:rdf="http://www.w3.org/1999/02/22-rdf-syntax-ns#"
   xmlns:svg="http://www.w3.org/2000/svg"
   xmlns="http://www.w3.org/2000/svg"
   viewBox="0 0 1414.6667 821.33331"
   height="821.33331"
   width="1414.6667"
   id="svg144"
   version="1.1">
  <metadata
     id="metadata150">
    <rdf:RDF>
      <cc:Work
         rdf:about="">
        <dc:format>image/svg+xml</dc:format>
        <dc:type
           rdf:resource="http://purl.org/dc/dcmitype/StillImage" />
        <dc:title></dc:title>
      </cc:Work>
    </rdf:RDF>
  </metadata>
  <defs
     id="defs148" />
  <g
     id="g152">
    <path
       id="path328"
       d="m 943.60788,755.49017 c -1.8334,-1.04802 -4.6479,-1.92677 -6.2547,-1.95274 -1.6067,-0.026 -3.2921,-0.64726 -3.7453,-1.38059 -0.4532,-0.73333 -2.0808,-1.33333 -3.6167,-1.33333 -2.7342,0 -8.3458,-2.40479 -26.9644,-11.55528 -5.0862,-2.49975 -11.4544,-4.75755 -14.1515,-5.01734 -5.7138,-0.55034 -10.6008,-2.87194 -10.6008,-5.03597 0,-0.83312 -0.9766,-2.59393 -2.17023,-3.91289 -1.19365,-1.31898 -2.44929,-4.8137 -2.79032,-7.76604 -0.61072,-5.28707 -0.52833,-5.40722 5.47155,-7.97906 l 6.0915,-2.61114 -2.5938,-7.72782 c -7.63933,-22.76012 -7.96304,-24.62054 -7.4062,-42.56511 0.4161,-13.40882 1.25471,-19.49572 3.8341,-27.82935 1.8159,-5.86667 4.3277,-14.26667 5.5818,-18.66667 3.2644,-11.45244 13.3478,-31.56102 19.1888,-38.2665 2.7468,-3.15343 8.599,-10.29704 13.0048,-15.87472 11.824,-14.96903 27.7116,-29.18363 32.6334,-29.19709 1.0017,-0.003 3.7858,-1.20274 6.1869,-2.66667 2.401,-1.46392 5.2721,-2.66168 6.3802,-2.66168 1.1081,0 3.4381,-0.93264 5.1778,-2.07252 1.7397,-1.13989 8.525,-2.74933 15.0786,-3.57655 13.7837,-1.73982 33.37862,0.0871 48.99782,4.56822 8.7852,2.52046 30.382,13.01724 38.2058,18.56933 1.9466,1.38133 3.992,2.51152 4.5455,2.51152 2.1294,0 16.236,11.4001 22.9284,18.52924 3.8572,4.10892 8.32,10.17076 9.9173,13.47076 1.5973,3.3 4.6559,8.87112 6.7968,12.38025 2.1943,3.59651 3.6052,7.47975 3.2337,8.90024 -0.4393,1.67981 -0.087,2.3004 1.0574,1.86135 1.1463,-0.43988 2.0141,1.10377 2.6129,4.64768 1.5696,9.29037 3.7514,10.26881 26.0355,11.67546 9.3985,0.59326 15.2469,0.22467 22.6667,-1.42857 5.5,-1.22547 13.9,-2.748 18.6667,-3.38339 21.0802,-2.81001 44.8601,-13.33593 61.5549,-27.24662 2.6885,-2.24019 7.7033,-6.17307 11.1441,-8.73974 3.4407,-2.56666 8.0221,-6.46666 10.1809,-8.66666 4.5191,-4.60539 12.721,-17.94564 13.8851,-22.58404 0.4352,-1.73384 1.7911,-4.26173 3.0131,-5.61753 1.6453,-1.82538 2.2979,-5.40626 2.5147,-13.79843 0.1667,-6.45325 1.2127,-13.75708 2.4292,-16.96219 1.5613,-4.11374 2.2002,-10.98109 2.3738,-25.51346 0.2063,-17.27463 -0.069,-20.22478 -2.0958,-22.47614 -1.2834,-1.42533 -2.3334,-3.455 -2.3334,-4.51036 0,-1.05534 -1.5,-4.12628 -3.3333,-6.82426 -1.8333,-2.698 -3.3333,-5.21063 -3.3333,-5.58364 0,-1.80043 -9.0194,-13.41493 -16.3334,-21.03295 -1.2833,-1.33668 -2.3333,-2.82049 -2.3333,-3.29734 0,-2.1371 -13.162,-12.9841 -21.1735,-17.44947 -13.7802,-7.6806 -17.0011,-10.16724 -28.9082,-22.31812 -6.1256,-6.25097 -11.6193,-11.3654 -12.2082,-11.3654 -0.5889,0 -2.6071,-1.42463 -4.4849,-3.16585 -3.1682,-2.93774 -11.5381,-8.83943 -17.4658,-12.31535 -1.3893,-0.81467 -3.8535,-2.66209 -5.4761,-4.10539 -3.7984,-3.3789 -19.7719,-13.71074 -28.3137,-18.31374 -7.8733,-4.24271 -11.2836,-6.29303 -13.4722,-8.09967 -0.8884,-0.73333 -4.9637,-3.35998 -9.0563,-5.837 -4.0926,-2.47701 -7.4411,-5.06242 -7.4411,-5.74536 0,-0.68292 -0.5207,-0.91988 -1.1571,-0.52656 -1.1645,0.7197 -20.4495,-8.68945 -24.1762,-11.79558 -1.1,-0.91682 -5.9,-3.21391 -10.6667,-5.10466 -33.0698,-13.11749 -58.6388,-22.32417 -61.9992,-22.32417 -1.5534,0 -6.2266,-2.04877 -10.385,-4.55281 -4.1584,-2.50406 -10.12312,-5.15071 -13.25492,-5.88147 -5.1951,-1.21219 -34.0014,-11.83331 -40.3609,-14.8814 -1.4667,-0.70297 -7.1667,-2.45756 -12.6667,-3.89908 -5.5,-1.44153 -13.3,-3.8994 -17.3333,-5.46193 -14.9326,-5.78498 -17.1758,-6.44251 -24.8385,-7.28083 -9.5094,-1.04036 -15.692,-2.28903 -39.82815,-8.04381 -10.26667,-2.4479 -24.06667,-5.14379 -30.66667,-5.9909 -6.6,-0.8471 -13.8,-2.07232 -16,-2.72269 -2.2,-0.65037 -8.5,-1.51736 -14,-1.92664 -16.73628,-1.2454 -24.17027,-2.07183 -36,-4.00205 -16.81575,-2.74379 -38.43393,-5.87099 -46,-6.65417 -7.4202,-0.76808 -19.41492,-2.30463 -41.33334,-5.2949 -8.06666,-1.1005 -16.03753,-1.64193 -17.71304,-1.20316 -1.67549,0.43878 -9.47549,0.1152 -17.33333,-0.71917 -17.42549,-1.85019 -30.00051,-1.99813 -78.95363,-0.92891 -39.89357,0.87135 -48.34765,1.34403 -50.76545,2.83831 -0.80971,0.50043 -7.26872,1.43577 -14.35338,2.07855 -23.19022,2.10401 -32.91052,3.42577 -35.58342,4.83861 -1.4471,0.76491 -7.26784,1.71444 -12.93499,2.11005 -6.14993,0.42932 -11.51044,1.56439 -13.29668,2.81552 -1.64601,1.15292 -4.65925,2.09621 -6.69609,2.09621 -3.99607,0 -4.65131,1.18535 -2.0778,3.75886 1.27846,1.27846 0.84532,2.34896 -2.02883,5.01401 -2.00988,1.86368 -3.30596,3.9522 -2.88016,4.64115 1.50896,2.44154 -5.74472,1.20981 -9.28775,-1.57715 -3.7014,-2.91152 -5.36357,-3.07152 -26.26981,-2.52883 -9.86222,0.256 -23.60039,-2.75753 -33.51768,-7.35229 -5.97475,-2.76813 -19.6413,-15.08716 -19.6413,-17.70465 0,-0.60009 -2.99304,-4.05208 -6.65121,-7.67109 -3.65816,-3.619 -6.65816,-7.29272 -6.66667,-8.16382 -0.008,-0.8711 -2.71545,-3.52281 -6.01545,-5.89269 -3.3,-2.36988 -6,-4.90053 -6,-5.62367 0,-0.72313 -1.3622,-3.17141 -3.02709,-5.44064 -1.66491,-2.26922 -3.89156,-5.82306 -4.94814,-7.89744 -2.27605,-4.46861 -17.28941,-20.82947 -17.33004,-18.88547 -0.0161,0.77524 -2.61885,1.13689 -6.1567,0.85551 -3.53616,-0.28124 -8.18928,0.36488 -11,1.52742 -7.52948,3.11429 -22.62947,7.60746 -25.56603,7.60746 -1.45127,0 -2.63867,0.65 -2.63867,1.44445 0,0.79444 -0.75,1.17679 -1.66667,0.84966 -4.00986,-1.431 -25,12.47896 -25,16.56725 0,0.62626 -1.47662,1.13864 -3.28138,1.13864 -1.80478,0 -4.35478,1.12555 -5.66667,2.50123 -1.31191,1.37568 -3.74399,2.91888 -5.40464,3.42933 -1.66065,0.51046 -2.67524,1.4849 -2.25464,2.16544 0.42059,0.68054 -0.36931,1.23734 -1.75533,1.23734 -1.38603,0 -3.29579,1.44946 -4.2439,3.22102 -0.94812,1.77156 -2.84228,3.51351 -4.20925,3.87098 -1.36697,0.35748 -3.04239,2.1149 -3.72313,3.9054 -0.68075,1.7905 -2.31518,4.3329 -3.63204,5.64978 -1.31689,1.31688 -2.49587,3.08615 -2.61997,3.93172 -0.12411,0.84556 -3.85313,5.31427 -8.28673,9.93044 -6.08432,6.33489 -8.27716,9.67201 -8.94223,13.60852 -0.48463,2.86851 -1.60788,5.21547 -2.4961,5.21547 -0.88822,0 -2.41693,2.25 -3.39714,5 -0.9802,2.75 -2.89587,6.5858 -4.25705,8.524 -1.36118,1.93818 -4.60591,9.10825 -7.21051,15.93346 -2.6046,6.82522 -5.35099,13.15095 -6.1031,14.05718 -0.75211,0.90624 -1.65883,3.93617 -2.01494,6.7332 -1.02566,8.0559 -1.23557,8.90885 -2.98333,12.12284 -0.91197,1.67702 -2.31117,2.62977 -3.12416,2.12732 -0.89573,-0.55359 -1.09456,-0.29859 -0.50764,0.65106 0.53064,0.8586 1.52335,1.21591 2.20601,0.79399 0.68266,-0.42191 1.2412,0.13291 1.2412,1.23291 0,1.1 -0.50461,2.31186 -1.12136,2.69304 -0.61675,0.38117 -1.16136,3.3387 -1.21024,6.5723 -0.0489,3.23359 -1.01903,10.60714 -2.15588,16.38564 -1.13685,5.77852 -2.29956,15.79227 -2.58379,22.2528 -0.36874,8.38131 -1.11935,12.34897 -2.62014,13.84976 -1.59225,1.59225 -1.79551,2.91307 -0.83646,5.43553 0.69678,1.8327 1.59789,5.41494 2.00245,7.96054 0.57534,3.62016 0.34963,4.39609 -1.03617,3.5621 -1.37954,-0.83021 -1.43938,-0.64064 -0.2703,0.85638 0.86351,1.10574 1.56644,7.71674 1.65444,15.55993 0.0842,7.50053 0.76003,16.34597 1.50194,19.65655 0.74191,3.31056 1.25216,6.47376 1.13388,7.02933 -0.11828,0.55557 0.13153,1.91013 0.55515,3.01013 0.76049,1.97476 1.96878,7.31794 2.90231,12.83428 0.2638,1.55887 1.05958,3.95887 1.7684,5.33334 0.70882,1.37448 1.01984,3.24905 0.69116,4.16572 -0.32869,0.91666 0.009,1.66666 0.75121,1.66666 0.74186,0 2.1115,3.45 3.04365,7.66667 1.73639,7.85468 12.07061,27.11637 21.43013,39.94306 2.78646,3.8187 5.06629,7.5687 5.06629,8.33334 0,0.76465 0.57471,1.39026 1.27713,1.39026 0.70242,0 2.86746,2.7137 4.8112,6.03044 1.94374,3.31675 4.66708,6.6368 6.05185,7.37792 1.38478,0.74111 3.74685,3.75664 5.24904,6.70119 1.5022,2.94455 3.60416,5.68867 4.67102,6.09807 1.06687,0.4094 1.93976,1.34244 1.93976,2.07342 0,1.18526 12.96238,15.47042 19,20.93891 3.32191,3.00877 7.16558,6.77765 12.07388,11.83895 4.72483,4.8721 24.53135,16.5537 38.92612,22.95806 5.13334,2.28387 11.13334,4.95007 13.33334,5.92491 11.60008,5.14004 49.91372,14.45109 66.33333,16.12044 8.53642,0.86788 9,0.77124 9,-1.87624 0,-3.48698 5.74602,-7.40451 9.44262,-6.43783 1.52417,0.39859 5.2731,-0.20473 8.33097,-1.34069 6.74632,-2.5062 35.47576,-2.93338 45.55975,-0.67743 14.76851,3.30393 33.29252,5.51015 58,6.9078 14.3,0.80892 27.8,1.70681 30,1.99531 27.87107,3.65482 180.12946,3.06802 183.93334,-0.70888 0.69666,-0.69172 3.79667,-1.25768 6.88889,-1.25768 3.16664,0 5.8536,-0.69415 6.15199,-1.58931 0.71475,-2.14424 45.57975,-2.80376 67.02579,-0.98529 22.95644,1.94653 71.66781,8.40408 73.85733,9.79109 1.02155,0.64711 5.85115,1.05996 10.73247,0.91743 6.93211,-0.20242 10.38124,0.43865 15.75471,2.92821 8.77609,4.06603 10.98882,5.94339 10.98882,9.32335 0,1.49909 -0.38753,2.33809 -0.86118,1.86444 -0.47366,-0.47364 -3.29186,0.92636 -6.26267,3.11112 -6.05351,4.4518 -7.99072,4.76569 -13.06668,2.11724 -7.89537,-4.11954 -20.63067,-7.59814 -30.02198,-8.20042 -5.47862,-0.35134 -12.47208,-1.1907 -15.54098,-1.86524 -8.37672,-1.84117 -47.00871,-5.67328 -57.03988,-5.65809 -8.69316,0.0133 -19.76019,1.00253 -26.8733,2.4024 -2.2206,0.43703 -3.68416,1.60005 -3.71102,2.94901 -0.0244,1.22506 -1.19432,3.60671 -2.59983,5.29255 -2.41483,2.89648 -3.20119,3.02251 -14.28897,2.29005 -6.45343,-0.42632 -16.17084,-1.23686 -21.59426,-1.80122 -5.42341,-0.56436 -12.83109,-0.64506 -16.46151,-0.17931 -7.09537,0.91025 -28.29933,0.58472 -35.27249,-0.54152 -5.36385,-0.86632 -12.19684,1.0388 -14.36611,4.00545 -0.92745,1.26838 -1.44074,4.67768 -1.16182,7.71683 0.47924,5.22176 0.19309,5.69008 -6.9925,11.44456 -4.1207,3.3 -8.62597,6.65305 -10.01172,7.45124 -1.38574,0.79819 -7.94417,6.45945 -14.57426,12.58061 l -12.05474,11.12936 0.85122,5.67636 c 0.82897,5.52793 0.72773,5.72796 -3.87179,7.64976 -2.59765,1.08537 -5.88929,1.66841 -7.31475,1.29565 -3.7982,-0.99325 -16.54957,5.50775 -20.02592,10.20975 l -3.00152,4.05977 -10.39444,-0.86686 c -11.77963,-0.98239 -23.78748,0.72606 -38.02443,5.41002 -26.58026,8.74492 -43.96962,13.49331 -54.12914,14.78066 -1.1,0.13938 -2.93311,0.65606 -4.07358,1.1482 -2.0986,0.90556 -21.79266,0.22177 -27.92642,-0.96962 -1.83334,-0.3561 -6.33334,-1.08452 -10.00001,-1.6187 -3.66666,-0.5342 -7.26666,-1.41015 -8,-1.94655 -0.73333,-0.5364 -3.68516,-1.3998 -6.55961,-1.91867 -2.87445,-0.51886 -14.57445,-3.95845 -26,-7.64354 -21.38472,-6.89722 -38.84017,-14.4945 -52.69528,-22.93499 -4.35687,-2.65419 -8.99303,-4.82579 -10.3026,-4.82579 -1.30957,0 -3.41752,-1.65 -4.68432,-3.66666 -1.26681,-2.01667 -6.54113,-7.86667 -11.72069,-13 -7.97824,-7.90704 -13.01722,-14.69556 -25.73391,-34.66889 -6.00862,-9.43736 -12.68087,-25.39879 -13.4916,-32.27479 -0.50103,-4.24915 -1.34075,-8.42116 -1.86606,-9.27113 -0.76626,-1.23983 -13.47425,-10.28126 -25.93465,-18.45186 -6.68621,-4.38432 -26.40387,-27.45653 -45.00924,-52.66666 -5.75464,-7.79748 -18.20465,-27.15869 -19.3395,-30.07516 -0.58679,-1.508 -2.57106,-4.52943 -4.40948,-6.71427 -9.27728,-11.02542 -24.50103,-52.84581 -27.53101,-75.62909 -1.36345,-10.25212 -2.14401,-67.9303 -0.94601,-69.90372 0.3376,-0.5561 1.00877,-7.61109 1.4915,-15.67775 1.06787,-17.84466 1.19544,-18.72236 4.60866,-31.70844 1.49982,-5.70631 3.40336,-14.25928 4.23007,-19.00662 0.82671,-4.74733 2.041,-8.96394 2.69842,-9.37025 0.65742,-0.40631 1.19531,-2.19119 1.19531,-3.9664 0,-4.41408 3.61094,-13.26843 8.6997,-21.33241 3.76116,-5.96022 8.27503,-13.89486 15.14128,-26.61588 1.18746,-2.2 3.70678,-6.1 5.59849,-8.66667 1.8917,-2.56666 5.41193,-8.16244 7.82272,-12.43506 2.41079,-4.27262 5.21303,-8.08682 6.2272,-8.47599 1.01417,-0.38917 1.84394,-1.20961 1.84394,-1.82321 0,-1.39846 21.45642,-22.59907 22.87175,-22.59907 0.57159,0 4.02749,-2.65399 7.6798,-5.89776 3.65231,-3.24376 11.92233,-8.56885 18.37784,-11.83354 6.45551,-3.26468 13.83728,-7.20553 16.40395,-8.75744 5.58378,-3.37619 3.41965,-2.56376 24.66666,-9.26005 24.38529,-7.68536 28.55567,-8.35608 36.29438,-5.83714 7.46981,2.43141 8.96541,4.214 18.37024,21.89528 1.8458,3.47014 4.83077,7.27565 6.63325,8.45669 1.8025,1.18104 5.50995,6.14183 8.23879,11.02398 2.72884,4.88216 6.49708,10.07665 8.37387,11.54331 1.87678,1.46667 5.48969,4.61667 8.02869,7 2.539,2.38334 5.33265,4.33334 6.20813,4.33334 1.49078,0 5.12951,7.4679 4.71008,9.66666 -0.10493,0.55 0.29611,1 0.89116,1 0.59506,0 2.24506,1.05 3.66667,2.33334 3.49205,3.15238 14.57519,8.0186 21.91808,9.62345 3.3,0.72125 11.30617,1.32603 17.79149,1.34395 10.76155,0.0297 11.85363,-0.20499 12.50281,-2.68747 0.80865,-3.09229 6.78152,-6.61327 11.21853,-6.61327 1.63821,0 5.41801,-1.1751 8.39955,-2.61134 14.35921,-6.91703 20.82404,-8.03466 64.75429,-11.19459 4.03333,-0.29012 14.53333,-1.83129 23.33333,-3.42483 15.26686,-2.76456 18.53547,-2.86308 71.33334,-2.15012 85.45353,1.15395 99.00214,1.73762 112.59343,4.85043 6.55972,1.50239 16.45972,2.94171 22,3.19852 5.54028,0.25681 11.60932,1.05339 13.48676,1.77019 1.87743,0.71678 9.07743,1.98041 16,2.80806 6.92256,0.82764 20.08648,2.76071 29.25315,4.2957 9.16666,1.535 18.46666,2.91365 20.66666,3.0637 15.61298,1.06482 51.86439,6.8494 63.33334,10.10599 4.76667,1.35349 12.86667,3.07424 17.99995,3.8239 5.1334,0.74966 13.2334,2.0354 18,2.85723 4.7667,0.82183 11.0667,1.67443 14,1.89465 2.9334,0.22023 10.7334,2.3199 17.3334,4.66591 6.6,2.34603 15.6,5.34735 20,6.66961 15.0972,4.53694 39.1575,13.63064 47.7897,18.06234 3.55102,1.82305 7.57972,3.31465 8.95272,3.31465 1.373,0 5.0676,1.40645 8.2103,3.12544 5.5755,3.04971 9.7576,4.76536 33.0473,13.5572 15.1608,5.72323 19.8829,7.35631 24.8453,8.59248 2.2982,0.57251 7.6982,2.89279 12,5.15616 4.3017,2.26337 10.8213,5.55693 14.488,7.31903 17.8686,8.58709 35.5922,18.32517 41.34,22.71397 3.5072,2.67797 6.8409,4.86905 7.4082,4.86905 2.5737,0 38.982,23.28187 51.8033,33.12647 2.63,2.01941 8.1161,5.64873 12.1914,8.06517 4.0753,2.41643 13.0344,10.03685 19.9091,16.93427 6.8748,6.89741 12.9932,12.54076 13.5965,12.54076 1.5826,0 18.1504,11.62517 24.4182,17.13352 5.7746,5.07496 23.6404,26.78537 26.4977,32.19981 5.9875,11.34629 8.8497,16.19644 11.9785,20.29848 4.7119,6.17764 6.5819,14.96432 6.605,31.03485 0.035,24.31319 -0.5657,33.94796 -2.181,34.98956 -1.6068,1.03613 -1.9203,2.38733 -2.7258,11.74672 -0.2558,2.97163 -1.0686,6.57163 -1.8062,8 -0.7377,1.42839 -1.0498,3.4146 -0.6936,4.41384 0.3562,0.99923 -0.6817,4.18201 -2.3064,7.07285 -1.886,3.35568 -2.6666,6.40147 -2.159,8.42402 1.8146,7.23005 -4.5232,16.03542 -24.2464,33.68634 -1.8437,1.65 -3.8829,3 -4.5316,3 -0.6487,0 -3.0232,2.1 -5.2768,4.66667 -2.2535,2.56666 -4.6813,4.66666 -5.3951,4.66666 -0.7138,0 -3.1704,1.87262 -5.4592,4.16136 -3.8283,3.82838 -9.8862,7.02123 -11.7373,6.1862 -0.4237,-0.19116 -2.9772,1.33567 -5.6745,3.39295 -2.6972,2.05728 -5.5047,3.36925 -6.2389,2.91549 -0.7342,-0.45376 -1.6949,0.11307 -2.1348,1.2595 -0.4561,1.18849 -2.3699,2.0845 -4.4524,2.0845 -2.0089,0 -5.579,0.96103 -7.9335,2.13562 -2.3545,1.17458 -5.4467,1.83076 -6.8715,1.45816 -1.4248,-0.3726 -2.5906,-0.21576 -2.5906,0.34853 0,0.56429 -3.2989,2.06361 -7.3308,3.33183 -4.032,1.26821 -7.6812,2.87265 -8.1094,3.56542 -0.4281,0.69279 -5.3792,1.16736 -11.0024,1.05463 -5.6232,-0.11267 -12.924,0.53764 -16.224,1.44528 -3.3831,0.93047 -14.8686,1.72517 -26.3333,1.82205 -19.6606,0.16614 -20.3333,0.26372 -20.3334,2.94959 0,1.52779 -0.3981,3.17591 -0.8847,3.66251 -0.4866,0.4866 -0.975,3.69938 -1.0853,7.13952 -0.112,3.4934 -0.9023,6.48873 -1.7902,6.7847 -0.8744,0.29146 -1.2344,1.10496 -0.8,1.80779 0.4344,0.70281 0.2208,2.00157 -0.4745,2.88611 -0.6953,0.88454 -1.6584,3.25826 -2.1402,5.27493 -0.4817,2.01667 -1.4645,3.66667 -2.1838,3.66667 -0.7194,0 -1.3271,1.65 -1.3504,3.66666 -0.048,4.14559 -2.9969,8.79664 -4.6365,7.31261 -0.5951,-0.5386 -0.676,-0.27074 -0.1798,0.59524 1.2392,2.1627 -5.2227,8.94459 -7.2995,7.66103 -1.1369,-0.70261 -1.3627,-0.31436 -0.7485,1.28644 0.8536,2.22425 -2.4886,6.69125 -7.1705,9.58388 -1.0928,0.67511 -3.0362,2.87747 -4.3189,4.89413 -1.2826,2.01667 -2.8473,3.66667 -3.4772,3.66667 -0.6298,0 -4.066,2.72377 -7.6359,6.05283 -3.5699,3.32905 -8.8908,7.20714 -11.8241,8.61798 -2.9333,1.41083 -4.7333,2.58866 -4,2.61738 1.8146,0.0711 -18.8484,13.37848 -20.7735,13.37848 -0.8415,0 -3.7118,1.14437 -6.3783,2.54304 -15.426,8.09145 -45.64882,16.2145 -69.79562,18.75918 -15.6311,1.64726 -14.3129,1.69282 -18.3859,-0.63556 z m 33.8233,-20.63218 c 2.2972,-0.74699 10.7767,-3.39516 18.8433,-5.88483 13.33772,-4.11649 30.26432,-10.93481 35.33342,-14.23292 1.1,-0.71569 4.664,-2.93975 7.92,-4.94233 3.256,-2.00259 8.356,-5.7625 11.3333,-8.35536 2.9773,-2.59287 7.8133,-6.48274 10.7467,-8.64415 8.0615,-5.94011 9.9061,-7.53272 15.1003,-13.03736 8.179,-8.66785 20.1353,-31.87097 22.8122,-44.27086 0.9499,-4.4 2.2578,-9.80768 2.9063,-12.01707 2.2573,-7.68983 1.6853,-18.48712 -1.3106,-24.74016 -7.238,-15.10693 -16.3833,-25.98655 -33.0631,-39.33311 -4.457,-3.56638 -7.5189,-5.36541 -19.5302,-11.47506 -13.2566,-6.74305 -46.1199,-16.82872 -49.01162,-15.04155 -0.5095,0.31492 -5.2942,1.19204 -10.6327,1.94918 -15.0749,2.138 -24.1746,5.13084 -23.6377,7.77428 0.3029,1.49136 1.5275,2.08544 3.742,1.81533 10.2075,-1.24503 35.91412,-1.26911 39.95842,-0.0375 8.293,2.5256 22.5098,9.72433 22.5893,11.43823 0.1796,3.86857 7.5694,15.09486 10.4286,15.84272 4.0241,1.05256 13.6431,12.12985 14.5738,16.78322 0.4079,2.03944 1.1967,3.70808 1.7528,3.70808 1.044,0 3.0738,5.17304 2.7753,7.07314 -0.093,0.59022 0.7424,2.37373 1.8558,3.96334 1.1134,1.58962 2.0281,3.8067 2.0326,4.92687 0,1.12016 0.9045,3.75524 2,5.85573 2.3244,4.45688 2.4666,5.29842 0.7119,4.21395 -0.7558,-0.46713 -0.6997,0.87317 0.137,3.27347 2.4594,7.05508 -0.2621,27.5833 -4.5395,34.24081 -0.5468,0.85101 -1.0841,4.15101 -1.194,7.33333 -0.1357,3.92867 -1.392,7.49807 -3.9135,11.11936 -5.885,8.45167 -17.1679,19.96519 -19.5831,19.98339 -1.2135,0.009 -2.8299,1.26328 -3.5918,2.78698 -0.762,1.52371 -2.2817,3.65936 -3.377,4.74591 -2.9609,2.93713 -24.8557,17.15043 -26.4192,17.15043 -0.7426,0 -1.5811,0.69292 -1.8634,1.53982 -0.8287,2.48622 -11.42392,4.98098 -25.18972,5.93123 -11.6908,0.80701 -13.8264,0.56221 -24.3626,-2.79275 -13.9264,-4.43442 -20.7513,-9.11706 -25.6843,-17.62209 -2.0382,-3.51425 -4.4254,-6.98955 -5.3048,-7.72288 -0.8794,-0.73333 -3.2076,-6.43333 -5.1738,-12.66667 -1.9661,-6.23333 -4.3573,-13.44126 -5.3138,-16.01762 -2.2571,-6.07981 -2.8002,-32.07816 -0.8491,-40.64904 2.0483,-8.99804 6.5225,-24.14145 9.0606,-30.66667 1.141,-2.93333 2.7911,-7.25774 3.6668,-9.60981 0.8757,-2.35205 2.6084,-5.39931 3.8503,-6.77165 2.8221,-3.11832 2.9035,-5.61854 0.183,-5.61854 -2.9254,0 -9.9302,7.95927 -10.828,12.30343 -0.4133,2.00023 -1.5793,4.32369 -2.5909,5.16327 -1.0116,0.83957 -1.8393,2.67413 -1.8393,4.07681 0,3.50712 -3.8757,9.12316 -6.296,9.12316 -1.2391,0 -1.6841,0.75425 -1.18,2 0.4452,1.1 1.1735,2.9 1.6187,4 0.4451,1.1 0.1097,2 -0.7454,2 -0.8551,0 -1.2137,0.55163 -0.7971,1.22584 0.4167,0.67421 0,2.02421 -0.9213,3 -0.9234,0.97579 -1.8838,2.97416 -2.1344,4.44083 -0.2505,1.46666 -0.9368,2.84544 -1.5251,3.06393 -0.5883,0.21849 -0.7623,1.57265 -0.3866,3.00925 0.3757,1.43659 0.028,4.25783 -0.7725,6.2694 -4.9202,12.36312 -5.1087,13.37414 -5.5295,29.65742 -0.2932,11.34637 0.6127,21.59693 2.3202,26.25461 0.7552,2.05996 2.1621,6.36632 3.1265,9.56969 0.9644,3.20336 2.9839,7.38048 4.488,9.28247 1.504,1.902 3.3345,5.25465 4.0678,7.45036 1.1281,3.37762 3.308,4.87434 14.1605,9.72265 7.0549,3.15175 16.6549,6.60707 21.3333,7.67848 9.1122,2.0868 26.3601,1.78427 33.6629,-0.59045 z m 17.51,-30.31455 c 2.9333,-1.52616 9.34692,-5.98748 14.25242,-9.91405 4.9054,-3.92656 11.547,-9.07606 14.759,-11.4433 3.212,-2.36724 6.485,-5.66724 7.2733,-7.33333 2.892,-6.11247 5.9768,-15.87888 5.2462,-16.6095 -0.4134,-0.41336 -2.5611,0.77105 -4.7728,2.63204 -2.5576,2.1521 -5.0045,3.12645 -6.723,2.67706 -1.8724,-0.48964 -2.7018,-0.0592 -2.7018,1.40206 0,1.75017 -5.1795,5.88495 -6.3563,5.07419 -0.196,-0.13502 -2.296,2.01151 -4.6667,4.77006 -2.3706,2.75856 -5.6635,6.11374 -7.3175,7.45596 -1.6539,1.34222 -3.8611,3.29432 -4.90472,4.33797 -1.0437,1.04367 -2.8799,1.89757 -4.0805,1.89757 -1.2006,0 -3.338,0.61822 -4.7499,1.3738 -1.8936,1.01343 -3.6352,0.8214 -6.6391,-0.732 -3.6793,-1.90262 -4.0213,-2.61488 -3.5446,-7.38206 0.5555,-5.5543 1.7126,-7.27032 11.926,-17.68599 6.9517,-7.0893 8.18882,-10.55348 3.3333,-9.33356 -1.65,0.41456 -4.3,0.83011 -5.8888,0.92344 -1.5889,0.0933 -2.6586,0.40006 -2.377,0.68159 0.2815,0.28153 -0.6685,2.01245 -2.1112,3.84648 -1.4426,1.83403 -2.6354,4.00368 -2.6506,4.82145 -0.046,2.45974 -14.9857,16.2138 -19.6312,18.07284 -3.715,1.48675 -4.7939,1.42404 -7.6454,-0.44435 -1.8261,-1.19645 -3.6986,-3.68361 -4.1613,-5.52701 -0.4627,-1.8434 -1.9241,-3.9312 -3.2477,-4.63956 -1.3236,-0.70836 -3.103,-3.39835 -3.9543,-5.97773 -1.3875,-4.20412 -1.2259,-5.08533 1.5599,-8.50888 3.3561,-4.12439 7.3519,-10.71063 9.9263,-16.36163 1.5975,-3.50664 1.5744,-3.52888 -2.4595,-2.37196 -2.2397,0.64232 -4.5867,0.84984 -5.2156,0.46115 -0.629,-0.38869 -1.1436,0.50311 -1.1436,1.98179 0,1.48046 -2.1072,4.36162 -4.6897,6.41202 -2.5793,2.04794 -6.2047,6.6109 -8.0563,10.13991 -3.0265,5.76845 -3.205,6.91293 -1.7675,11.33333 1.9658,6.04491 5.9316,17.35857 7.292,20.80232 0.678,1.71655 0.5275,2.25508 -0.4597,1.64492 -0.8073,-0.49892 -1.9055,-0.14735 -2.4404,0.78128 -0.5349,0.92863 -0.4961,1.25811 0.086,0.73219 0.5824,-0.52594 3.8286,1.48436 7.2138,4.4673 3.3852,2.98296 7.7768,6.26416 9.7592,7.29156 9.4135,4.87876 30.705,3.98618 41.729,-1.74937 z M 408.60785,685.2672 c 2.83199,0.14468 4.33334,-0.39429 4.33334,-1.5556 0,-2.78532 -1.47279,-3.57395 -4.07431,-2.18165 -1.31469,0.7036 -4.5346,1.43249 -7.15535,1.61974 -2.62076,0.18727 -4.7662,0.74048 -4.76768,1.22938 -0.004,1.43596 3.16502,2.29802 5.33067,1.44997 1.1,-0.43076 3.95,-0.68359 6.33333,-0.56184 z m -29,-6.02785 c 0,-1.96824 -6.09039,-9.73146 -7.64127,-9.74007 -2.02409,-0.0107 -3.80216,6.43768 -2.19444,7.95909 2.04218,1.93256 9.83571,3.34375 9.83571,1.78098 z m -63.47821,-10.08251 c -7.23891,-12.45168 -12.3971,-15.62772 -17.04312,-10.49393 -2.16231,2.38933 -2.03108,2.69368 2.81688,6.53333 5.9566,4.71772 16.34829,7.61077 14.22624,3.9606 z m 687.78766,-18.33333 c 0.916,-1.46667 2.421,-2.66667 3.3446,-2.66667 2.7215,0 1.9061,-1.88529 -1.4976,-3.46248 -2.7868,-1.29137 -3.4185,-1.01808 -5.3999,2.33608 -3.36672,5.69935 0.071,9.36904 3.5529,3.79307 z m -722.09384,-7.80405 c -2.33582,-1.82064 -5.13989,-5.12291 -6.23128,-7.33839 -1.09138,-2.21547 -3.6632,-5.25345 -5.71514,-6.75107 -3.1928,-2.33028 -3.90563,-2.4401 -4.94303,-0.76154 -1.42513,2.30592 4.12383,8.85877 9.15647,10.813 2.28934,0.88898 2.95753,1.9562 2.44702,3.90838 -0.54116,2.06943 0.26572,3.08651 3.51738,4.43367 5.96908,2.473 7.05932,-0.18021 1.76858,-4.30405 z m 712.45102,4.47072 c 0.9568,-1.15279 1.0864,-2 0.306,-2 -0.7447,0 -1.6993,0.9 -2.1215,2 -0.4221,1.1 -0.5597,2 -0.3059,2 0.2539,0 1.2085,-0.9 2.1214,-2 z m 50.33342,-7.00583 7,-0.65772 -0.018,-7.50156 c -0.036,-14.83515 -2.8813,-17.41851 -8.071,-7.32801 -2.0753,4.035 -4.4573,6.62049 -6.8763,7.46377 -3.0977,1.07985 -3.7011,2.05307 -3.7011,5.96909 0,3.94182 0.3676,4.52398 2.3333,3.69552 1.2833,-0.54085 5.4833,-1.27934 9.3333,-1.64109 z m -83.66672,-7.30008 c 0,-2.23752 -0.3347,-2.40948 -2,-1.02743 -1.1,0.91292 -2,2.46756 -2,3.45475 0,1.04767 0.8326,1.47539 2,1.02743 1.1,-0.42212 2,-1.97675 2,-3.45475 z m 14.4093,-15.01628 c -1.9894,-2.216 -3.7045,2.08487 -1.9536,4.899 1.4634,2.35204 1.5861,2.32336 2.3425,-0.54736 0.4389,-1.6662 0.2639,-3.62444 -0.3889,-4.35164 z m -381.07596,1.92489 c 0,-3.25565 -1.80977,-4.20192 -6.01686,-3.146 l -3.47286,0.87163 2.8868,3.07285 c 3.19506,3.40098 6.60292,2.98887 6.60292,-0.79848 z m -35.7677,0.57566 c 3.00848,-0.5037 4.66386,-1.43287 4.28972,-2.40784 -0.79083,-2.06088 -10.39858,-2.62054 -13.79375,-0.8035 -3.54879,1.89926 -2.07143,5.86846 1.78895,4.80635 1.54886,-0.42613 5.02065,-1.14389 7.71508,-1.59501 z m -258.38573,-4.41238 c -3.61724,-6.12349 -17.94565,-11.2892 -18.7672,-6.76598 -0.77919,4.29009 4.66131,8.31781 12.61243,9.33726 4.20284,0.53887 7.82545,1.05843 8.05025,1.15458 0.22479,0.0961 -0.62817,-1.58048 -1.89548,-3.72586 z m 224.6291,-1.55069 c -3.12104,-1.92892 -4.78931,1.39836 -1.809,3.60796 2.3882,1.7706 2.71517,1.74311 3.13118,-0.26333 0.2555,-1.23222 -0.33949,-2.7373 -1.32218,-3.34463 z m 414.57559,2.05821 c -0.3995,-0.39957 0.8505,-2.45301 2.7778,-4.56318 1.9274,-2.11018 4.9178,-5.53326 6.6454,-7.60684 1.7275,-2.07358 5.3275,-6.38915 8,-9.59016 4.6228,-5.53722 13.6904,-16.61828 15.9961,-19.54798 0.5921,-0.7524 2.1475,-3.0024 3.4564,-5 2.1451,-3.2739 2.1654,-3.63201 0.2054,-3.63201 -4.7447,0 -12.799,3.38276 -12.799,5.37548 0,1.13275 -3.8339,5.53104 -8.5197,9.77399 -5.5404,5.01665 -8.7926,9.07877 -9.3,11.61582 -0.4533,2.26632 -1.6325,3.90138 -2.8137,3.90138 -1.1183,0 -2.0333,0.82653 -2.0333,1.83674 0,1.0102 -0.8934,2.57819 -1.9853,3.4844 -1.0919,0.90623 -1.6843,2.13472 -1.3164,2.73002 0.3679,0.59529 -0.027,2.60953 -0.8774,4.4761 -1.1998,2.63339 -1.167,3.85071 0.1463,5.43326 0.931,1.1217 2.0192,2.03948 2.4183,2.03948 0.3991,0 0.3987,-0.32692 -9e-4,-0.7265 z m 83.43092,-1.2735 c 0.4221,-1.1 1.5035,-2 2.403,-2 0.8996,0 3.2222,-1.52006 5.1614,-3.3779 3.0932,-2.96346 7.0319,-4.12002 15.4794,-4.54528 2.1642,-0.10893 -1.0784,-10.68058 -3.7313,-12.16525 -2.7687,-1.54943 -8.4613,0.30241 -8.4613,2.75251 0,1.09857 -2.2484,3.19857 -4.9964,4.66666 -2.7627,1.47591 -4.998,3.6828 -5,4.93634 0,1.24689 -0.8558,2.74689 -1.8975,3.33333 -2.8573,1.60873 -4.2533,8.39959 -1.7267,8.39959 1.1011,0 2.3473,-0.9 2.7694,-2 z m -765.35541,-1.39084 c -0.43425,-1.13163 -1.07551,-1.77155 -1.425,-1.42204 -0.34951,0.3495 -0.23997,1.27538 0.2434,2.0575 1.31473,2.12728 2.08317,1.71402 1.1816,-0.63546 z m 256.87323,-0.38694 c 0,-0.61112 -0.87361,-1.11112 -1.94135,-1.11112 -1.06774,0 -1.63233,0.5 -1.25464,1.11112 0.37768,0.61111 1.2513,1.11111 1.94135,1.11111 0.69005,0 1.25464,-0.5 1.25464,-1.11111 z m 549.07778,-2.98889 c -0.2628,-0.78833 -1.0478,-1.43333 -1.7444,-1.43333 -0.6967,0 -1.4817,0.645 -1.7445,1.43333 -0.2628,0.78833 0.5222,1.43333 1.7445,1.43333 1.2222,0 2.0072,-0.645 1.7444,-1.43333 z m -646.07186,-1.56667 c 0.79072,-2.34714 -2.99951,-4.90741 -7.33925,-4.9576 -3.94998,-0.0457 -4.39595,2.14423 -1,4.91038 2.62066,2.13464 7.62648,2.163 8.33925,0.0472 z m 696.14296,-15 c -0.4222,-1.1 -1.2391,-2 -1.8155,-2 -0.5765,0 -1.3934,0.9 -1.8155,2 -0.5195,1.35363 0.067,2 1.8155,2 1.7481,0 2.3349,-0.64637 1.8155,-2 z m -10.2381,-2.25 c -0.4256,-1.06364 -0.7415,-0.7477 -0.8055,0.80556 -0.058,1.40555 0.2572,2.19306 0.7003,1.75 0.443,-0.44305 0.4904,-1.59306 0.1052,-2.55556 z m -82.7265,-7.12162 c 10.2862,-10.49075 10.0237,-12.10012 -2.9531,-18.10651 -6.6496,-3.07784 -9.6318,-3.7758 -13.2403,-3.09884 -3.729,0.69956 -4.65752,1.48939 -4.65752,3.96192 0,1.70596 -1.492,4.26173 -3.3334,5.71017 -3.6652,2.88306 -4.5319,8.23822 -1.3333,8.23822 1.1,0 2,-1.17282 2,-2.60626 0,-1.93329 1.2307,-2.83712 4.76632,-3.5004 5.647,-1.0594 7.4766,0.351 8.1238,6.26252 0.2568,2.3464 1.0908,5.01782 1.8532,5.93646 0.9602,1.157 0.9566,1.9358 -0.012,2.53433 -1.5089,0.93253 -1.9239,3.37335 -0.5736,3.37335 0.4535,0 4.6654,-3.91723 9.3598,-8.70496 z m -84.44032,-14.02394 c 1.2851,-1.50089 1.9354,-3.37794 1.4451,-4.17122 -0.5794,-0.93743 -1.3168,-0.68227 -2.1065,0.72889 -0.6683,1.19417 -2.0852,2.17123 -3.1488,2.17123 -1.0636,0 -1.9338,0.9 -1.9338,2 0,2.85236 3.004,2.47116 5.744,-0.7289 z m 20.568,-18.60444 c 0.8768,0 2.2043,-1.14002 2.95,-2.53338 1.0388,-1.94085 0.8683,-2.72048 -0.7288,-3.33333 -3.5147,-1.34874 -4.532,-0.92786 -6.1057,2.52596 -0.8335,1.82925 -3.5349,4.51746 -6.0032,5.97379 -5.0918,3.00424 -6.9791,6.45466 -4.4017,8.04756 1.1724,0.72459 3.5399,-0.84981 7.2198,-4.80124 3.0115,-3.23365 6.1928,-5.87936 7.0696,-5.87936 z M 542.27452,176.68087 c 0,-0.2882 -0.9,-0.52401 -2,-0.52401 -1.1,0 -2,0.58117 -2,1.29149 0,0.71031 0.9,0.94612 2,0.52401 1.1,-0.42212 2,-1.00328 2,-1.29149 z m 10.05671,383.14264 c -1.10977,-3.85 -2.36551,-11.47034 -2.79051,-16.9341 -0.90849,-11.67939 -1.24222,-12.43114 -5.04508,-11.36407 -7.37824,2.07031 -10.09524,3.73704 -10.47945,6.4286 -0.24524,1.71803 -1.30342,2.80231 -2.63687,2.70196 -1.37781,-0.10373 -1.9588,0.53196 -1.52337,1.66667 0.45346,1.18173 -0.24914,1.83428 -1.97502,1.83428 -1.77777,0 -3.14792,1.34549 -4.07329,4 -0.76692,2.2 -2.02561,4 -2.79709,4 -0.77148,0 -1.4027,0.89999 -1.4027,1.99999 0,1.1 -0.93541,2 -2.07869,2 -1.15376,0 -1.68119,0.64316 -1.18535,1.44547 0.56607,0.91591 -0.22304,1.28225 -2.1539,1 -6.25566,-0.91448 -7.32442,-5.92216 -6.45483,-30.24433 0.76476,-21.39015 2.54243,-31.41237 5.79055,-32.64631 2.42072,-0.91961 7.40378,1.58583 6.75032,3.39399 -1.30255,3.60423 -1.68312,14.42387 -0.53238,15.13507 0.69988,0.43254 0.62484,1.82832 -0.17902,3.33037 -0.99899,1.86661 -0.95458,2.58575 0.15965,2.58575 1.05427,0 0.96348,0.70265 -0.28643,2.21682 -1.42661,1.72826 -1.4626,2.34046 -0.16325,2.77778 0.91667,0.30853 1.66667,1.67554 1.66667,3.03782 0,4.55376 2.73681,4.2424 8.3925,-0.95477 5.44938,-5.00756 20.04009,-15.38585 30.02017,-21.35316 8.33438,-4.98331 14.92066,-3.20575 14.92066,4.02692 0,3.48772 -4.77002,7.5498 -8.95309,7.62432 -5.24861,0.0935 -6.71472,2.82793 -5.69804,10.62744 0.63949,4.90596 0.46421,7.64743 -0.53003,8.28948 -1.07336,0.69316 -1.01057,1.72549 0.22634,3.72089 0.9415,1.51888 1.3592,3.33216 0.9282,4.02954 -0.431,0.69737 1.15981,3.68629 3.53513,6.64206 3.70468,4.60999 4.13797,5.89127 3.04725,9.01116 -0.89746,2.56712 -2.3429,3.76113 -4.91364,4.05892 -2.00316,0.23204 -3.64212,0.98204 -3.64212,1.66667 0,0.68462 -0.88324,1.24477 -1.96276,1.24477 -1.22264,0 -2.7236,-2.63952 -3.98053,-7 z m 59.02796,3.09059 c -8.45103,-6.64759 -7.64332,-21.04669 2.45675,-43.79677 1.71889,-3.87172 3.12525,-7.92987 3.12525,-9.01808 0,-1.08823 0.5562,-3.02044 1.236,-4.29383 0.6798,-1.27339 1.5662,-3.37885 1.96976,-4.67881 0.40357,-1.29998 1.79736,-2.7562 3.09733,-3.23608 3.39875,-1.25464 4.28792,-3.11198 3.4634,-7.23455 -0.65692,-3.28457 -0.24013,-3.76117 4.42078,-5.05536 7.78288,-2.16107 24.18736,-1.77587 30.72661,0.72151 4.73059,1.80662 5.46351,2.55056 4.42483,4.49136 -0.6847,1.27933 -0.94516,2.6258 -0.57883,2.99212 1.0798,1.0798 -6.69501,2.73214 -23.08375,4.90588 -5.31146,0.70449 -10.99497,2.21789 -12.63001,3.36312 -1.63504,1.14524 -2.28119,2.08224 -1.43587,2.08224 1.0205,0 1.21435,1.23205 0.5769,3.66666 -1.45202,5.54572 -0.389,9.66667 2.49356,9.66667 1.37238,0 2.86606,-0.6 3.31929,-1.33333 0.45323,-0.73334 2.23883,-1.33334 3.96801,-1.33334 2.7539,0 3.09958,0.55951 2.78614,4.50972 -0.42248,5.32474 -3.98338,9.58018 -9.08748,10.85999 -2.01667,0.50565 -3.66667,1.45433 -3.66667,2.10817 0,0.65383 -1.15715,1.18879 -2.57143,1.18879 -1.41429,0 -3.44285,0.87143 -4.50793,1.93651 -1.06508,1.06508 -2.30795,1.56508 -2.76191,1.1111 -0.45397,-0.45396 -0.8254,0.47462 -0.8254,2.0635 0,1.58889 -0.5481,2.88889 -1.21802,2.88889 -2.69006,0 0.92341,7.43029 4.44505,9.14025 3.25319,1.57963 4.74325,1.47187 11.84511,-0.8566 8.91765,-2.92382 12.08749,-2.60396 10.91156,1.10107 -0.41935,1.32124 -1.00322,3.65244 -1.29748,5.18044 -0.82924,4.3059 -1.92268,5.43484 -5.26394,5.43484 -1.69785,0 -5.63788,0.9 -8.75561,2 -7.68057,2.70986 -13.6534,2.51416 -17.582,-0.57608 z m -148.74026,-4.5338 c -1.67898,-3.68499 -0.4963,-11.07828 4.40627,-27.54493 1.85777,-6.23986 4.24888,-14.2641 5.31355,-17.83163 1.06468,-3.56755 1.93577,-7.05759 1.93577,-7.75564 0,-0.69804 1.52365,-3.26679 3.38589,-5.70831 6.18175,-8.10469 12.28686,-2.22962 8.09884,7.7937 -1.12345,2.68878 -1.7029,5.774 -1.28769,6.85602 0.41521,1.08204 0.12747,1.96734 -0.63936,1.96734 -0.76685,0 -1.80239,2.72138 -2.30117,6.04753 -0.49879,3.32613 -2.32552,8.138 -4.05942,10.69304 -2.3498,3.46263 -3.27385,6.93044 -3.62902,13.61913 -0.54852,10.33007 -1.81322,14.08735 -4.40679,13.09211 -1.00537,-0.3858 -1.82795,-0.12027 -1.82795,0.59002 0,2.54326 -3.59937,1.23134 -4.98892,-1.81838 z m -83.51429,-11.37616 c -2.55007,-2.81781 -1.85232,-7.08999 4.14376,-25.37103 3.76348,-11.47425 7.71428,-18.16442 15.07148,-25.52162 2.90839,-2.90839 5.28797,-5.9454 5.28797,-6.74892 0,-0.80352 0.98835,-3.13407 2.19632,-5.179 1.66024,-2.81059 3.5315,-3.90186 7.66667,-4.47106 3.00869,-0.41414 7.27035,-1.62232 9.47035,-2.68485 8.29573,-4.00655 9.771,-3.97161 14.07596,0.33336 3.34348,3.34348 3.8106,4.51643 2.65701,6.67192 -0.7698,1.4384 -1.39964,5.0238 -1.39964,7.96756 0,3.84036 -0.92812,6.35375 -3.2856,8.89751 -1.80708,1.94988 -3.15708,4.00661 -3,4.57053 0.15708,0.56393 -1.3644,2.89429 -3.38107,5.1786 -5.09754,5.77405 -4.75448,10.15365 1.22436,15.63005 4.87219,4.46275 4.8842,4.50067 3.11992,9.8465 -1.59592,4.83566 -2.20973,5.36649 -6.20544,5.36649 -6.26914,0 -11.02464,-7.44847 -13.06682,-20.46639 -1.38002,-8.7969 -1.28248,-10.16513 1.01926,-14.2974 1.39992,-2.51325 4.87708,-6.72738 7.72702,-9.36473 8.51826,-7.88287 5.91822,-10.40228 -5.18712,-5.02627 -3.9842,1.92872 -5.33275,3.18184 -4.1865,3.89027 1.2481,0.77137 0.5599,2.33324 -2.6279,5.96393 -2.37536,2.70539 -5.93088,8.30478 -7.90115,12.44307 -1.97025,4.13831 -4.27649,7.97277 -5.12496,8.52104 -0.84847,0.54828 -1.22848,2.19828 -0.84449,3.66667 0.45766,1.75012 0.0425,2.66981 -1.20527,2.66981 -1.1873,0 -2.55535,2.63365 -3.63616,7 -3.07286,12.41404 -7.52696,16.12838 -12.60796,10.51396 z m -37.87736,-11.9756 c -0.94266,-0.59811 -2.07734,-3.327 -2.52152,-6.0642 -0.62582,-3.85637 -0.16495,-5.84599 2.04724,-8.83812 1.57017,-2.12376 2.85485,-4.65219 2.85485,-5.61871 0,-0.96652 0.83477,-2.94912 1.85505,-4.40577 1.02028,-1.45665 3.82342,-7.44016 6.2292,-13.29668 2.40578,-5.85652 4.871,-11.21821 5.47828,-11.91488 3.33603,-3.82711 -0.95586,-11.4 -6.46086,-11.4 -3.85971,0 -7.04927,-4.11855 -6.5822,-8.49931 0.78973,-7.40713 5.81821,-7.40016 24.7556,0.0344 6.25529,2.45574 12.65392,4.46496 14.21917,4.46496 1.56525,0 3.64992,0.96878 4.63259,2.15283 1.53173,1.84563 1.34369,2.51152 -1.31779,4.66667 -1.78005,1.44134 -5.19015,2.51378 -7.99341,2.51378 -5.42964,0 -10.81563,3.06919 -10.81563,6.16327 0,1.10663 -0.72067,3.3226 -1.60147,4.92439 -0.88081,1.60178 -1.79926,4.11234 -2.041,5.57901 -0.42154,2.55756 -2.31798,6.55257 -7.91172,16.66667 -1.41953,2.56666 -3.70629,8.45214 -5.08169,13.07884 -1.38892,4.67217 -3.54288,8.96992 -4.84477,9.66666 -2.80139,1.49926 -2.73844,1.49764 -4.89992,0.12614 z M 304.9828,492.99391 c -3.27711,-1.7539 -8.22711,-5.09362 -11,-7.42161 -4.21518,-3.53885 -5.04162,-5.06785 -5.04162,-9.32748 0,-8.6392 4.58922,-9.81409 12.01419,-3.07576 1.82553,1.65671 6.37588,5.75932 10.11191,9.11692 5.40166,4.85453 6.66682,6.76339 6.17789,9.32112 -0.33817,1.76903 -1.09584,3.21641 -1.68371,3.21641 -0.58786,0 -1.86792,0.30584 -2.84456,0.67966 -0.97665,0.37381 -4.45698,-0.75535 -7.7341,-2.50926 z m -95.5755,-2.15986 c -4.72292,-3.11551 -6.5632,-8.09211 -4.45148,-12.0379 1.62933,-3.04444 6.84647,-3.4273 17.00759,-1.24813 5.54676,1.18956 7.3919,1.00321 12.73229,-1.28595 3.43501,-1.47242 6.24548,-3.23293 6.24548,-3.91225 0,-0.67932 -2.09284,-4.15064 -4.65076,-7.71405 -7.90107,-11.00687 -9.55057,-15.16155 -9.83744,-24.77784 -0.24392,-8.17671 0.0591,-9.30429 3.44371,-12.81512 4.56908,-4.73947 12.94193,-6.26135 22.80744,-4.14557 5.61927,1.20512 7.34763,2.25046 8.99817,5.44225 1.12362,2.17285 1.68382,5.08215 1.24488,6.46511 -0.70876,2.23311 -2.07708,2.48674 -12.22869,2.26669 -9.29395,-0.20146 -11.69242,0.15892 -12.83104,1.9279 -1.92396,2.98908 0.68236,8.92315 6.43138,14.643 2.49572,2.48307 4.55674,5.56466 4.58002,6.84799 0.0233,1.28333 0.64233,2.33333 1.37566,2.33333 0.73334,0 1.33334,1.26947 1.33334,2.82106 0,4.58774 -4.48519,15.84561 -6.31296,15.84561 -0.92787,0 -1.68704,0.9 -1.68704,2 0,1.1 -1.16598,2 -2.59107,2 -1.42508,0 -3.37508,1.11227 -4.33333,2.47171 -1.73792,2.46554 -5.72071,3.6185 -17.0756,4.94314 -4.65498,0.54304 -6.94164,0.0788 -10.20055,-2.07098 z m 895.5339,-14.73932 c -3.8462,-1.96223 -10.8784,-2.65848 -40,-3.9604 -19.4333,-0.8688 -38.1833,-2.03724 -41.6667,-2.59654 -3.4833,-0.5593 -6.3333,-0.58564 -6.3333,-0.0585 0,1.3842 -44.22012,-0.0389 -47.00002,-1.51264 -1.2833,-0.68031 -2.3333,-0.75379 -2.3333,-0.16328 0,0.59052 -6.75,0.63997 -15,0.10987 -28.7493,-1.84714 -56.4385,-3.83787 -71.6667,-5.15254 -22.79384,-1.96782 -28.3313,-2.35002 -47.33332,-3.2669 -16.06711,-0.77526 -31.10036,-2.07704 -48.33333,-4.18536 -3.85,-0.47102 -7,-1.40823 -7,-2.0827 0,-0.67446 -0.62074,-0.84266 -1.37942,-0.37377 -1.48368,0.91696 -23.36381,-1.48876 -29.95392,-3.29344 -2.2,-0.60247 -7.6,-1.86501 -12,-2.80567 -4.4,-0.94065 -8.61889,-2.17422 -9.37532,-2.74129 -0.75642,-0.56705 -5.72372,-1.93768 -11.03841,-3.04583 -12.60415,-2.62804 -19.83703,-6.76658 -23.13959,-13.24011 -2.40218,-4.7087 -2.44441,-5.37367 -0.52696,-8.30007 2.19094,-3.34377 2.031,-3.35751 11.41362,0.9792 22.92182,10.5946 81.53892,20.46112 141.33333,23.78945 14.3,0.79597 31.4,2.04388 38.00002,2.77312 10.8647,1.20045 27.3038,2.49641 57.3333,4.51981 5.8667,0.3953 12.854,1.00475 15.5273,1.35434 2.6734,0.3496 21.2734,0.9557 41.3334,1.3469 20.05992,0.3912 37.88812,1.02199 39.61802,1.40175 1.73,0.37976 14.63,0.99943 28.6667,1.37704 14.0367,0.3776 30.0213,0.90416 35.5213,1.17012 5.5,0.26596 12.836,0.52916 16.3022,0.58488 6.0002,0.0964 6.4259,0.35727 8.8826,5.44223 3.777,7.81746 2.234,12.35904 -4.6121,13.5749 -7.4467,1.32252 -9.9538,1.05196 -15.2394,-1.6446 z m 42.0153,-49.68296 c -1.4582,-0.87353 -4.0892,-2.63825 -5.8465,-3.92159 -1.7573,-1.28333 -4.1642,-2.33381 -5.3486,-2.33438 -1.1845,-5.8e-4 -6.0485,-1.84368 -10.8091,-4.09578 -10.8825,-5.1482 -27.8157,-11.08121 -43.3444,-15.18692 -30.4844,-8.05984 -37.8704,-10.09173 -45.3334,-12.47121 -4.4,-1.40288 -12.5,-3.29613 -18,-4.20723 -24.88852,-4.12286 -59.66202,-11.1405 -68.66662,-13.85762 -3.6667,-1.1064 -12.0667,-3.59895 -18.6667,-5.53899 -6.6,-1.94004 -14.4,-4.45267 -17.3333,-5.58361 -2.9334,-1.13096 -7.1561,-2.00463 -9.384,-1.9415 -2.2279,0.0631 -10.0279,-1.39328 -17.3333,-3.23648 -16.66856,-4.20552 -38.35634,-8.54244 -65.94938,-13.18793 -5.50001,-0.92597 -15.10001,-2.94273 -21.33334,-4.48171 -6.23333,-1.53897 -19.73333,-4.33314 -30,-6.20928 -10.26667,-1.87613 -22.26667,-4.23748 -26.66667,-5.24745 -4.4,-1.00997 -12.8,-2.87337 -18.66666,-4.14088 -5.86667,-1.26752 -14.17138,-3.12544 -18.45491,-4.12869 -4.28352,-1.00327 -8.18352,-1.58475 -8.66667,-1.29219 -0.8319,0.50376 -10.29078,-0.77517 -17.54509,-2.37226 -11.07022,-2.4372 -14.16742,-3.70458 -17.70959,-7.24675 -3.44107,-3.44107 -3.78079,-4.43084 -2.66287,-7.75836 1.16012,-3.45313 1.83778,-3.80365 7.16026,-3.70369 3.23337,0.0607 7.67886,0.78964 9.87886,1.61981 2.2,0.83016 12.40001,3.39736 22.66667,5.70488 10.26667,2.30752 23.76667,5.59237 30,7.29967 6.23334,1.70728 18.83334,4.41609 28,6.01958 9.16667,1.60348 21.16667,3.71759 26.66667,4.698 5.5,0.98043 16,2.72456 23.33333,3.87584 7.33334,1.15129 15.43334,2.79069 18.00001,3.64313 5.95777,1.97867 7.25772,2.23642 15.33333,3.04027 6.36867,0.63393 11.88535,1.57539 26.66667,4.5508 17.32678,3.4878 21.84778,4.46764 28.66668,6.21295 6.8647,1.75702 26.8772,6.62058 32.5286,7.90528 1.3908,0.31614 4.3908,1.17202 6.6667,1.90193 9.4925,3.04436 31.6995,8.50284 44.138,10.84913 7.3333,1.38328 17.5333,3.43678 22.66672,4.56331 5.1333,1.12653 12.9333,2.69525 17.3333,3.48603 10.6653,1.91677 33.3355,7.26645 47.3333,11.1696 6.2334,1.73809 17.9334,4.78398 26,6.76865 8.0667,1.98465 22.4667,6.17824 32,9.31908 9.5334,3.14084 20.6334,6.64725 24.6667,7.79203 5.8133,1.64998 7.9576,3.05422 10.3451,6.77476 2.5453,3.9664 2.7537,5.1065 1.3459,7.36077 -0.9162,1.46708 -2.1569,2.66741 -2.7571,2.66741 -0.6002,0 -0.7458,0.55895 -0.3236,1.24211 0.8197,1.32641 -4.2841,5.47719 -6.5737,5.34615 -0.7534,-0.0431 -2.563,-0.79312 -4.0213,-1.66667 z M 503.49665,388.93454 c -0.32173,-0.32173 -8.67833,-0.94337 -18.57021,-1.38141 -26.85012,-1.18901 -36.23829,-1.92792 -43.457,-3.42031 -3.59055,-0.7423 -12.22825,-2.26262 -19.19492,-3.37849 -6.96667,-1.11585 -14.76667,-2.56561 -17.33333,-3.22167 -2.56667,-0.65606 -8.26667,-1.8734 -12.66667,-2.7052 -4.4,-0.83178 -16.59099,-3.6085 -27.0911,-6.17046 -10.5001,-2.56198 -24.0001,-5.50483 -30,-6.53968 -5.99989,-1.03486 -15.1089,-3.05387 -20.24224,-4.48671 -5.13333,-1.43284 -13.23333,-3.28897 -18,-4.12473 -11.9428,-2.094 -23.15793,-5.64916 -33.26388,-10.54455 -4.6981,-2.2758 -9.3568,-4.13781 -10.35265,-4.13781 -0.99584,0 -3.21327,-0.91904 -4.9276,-2.04232 -1.71435,-1.12328 -6.64323,-2.60744 -10.9531,-3.29812 -9.36834,-1.50136 -13.8361,-5.59807 -13.8361,-12.687 0,-8.28375 6.77144,-9.28212 16.76413,-2.47171 6.76849,4.613 16.00762,9.61924 21.90254,11.86797 2.56666,0.97911 7.96666,3.0665 12,4.63864 6.88005,2.68178 14.82402,4.69512 58,14.69979 9.53333,2.20905 23.63333,5.54596 31.33333,7.41535 7.7,1.86938 20.3,4.52198 28,5.89466 19.87282,3.54272 48.20027,9.28246 49.36519,10.00242 2.17828,1.34626 54.34621,4.67182 80.09299,5.10572 23.43911,0.395 28.02168,0.81038 31.48053,2.85358 2.5829,1.52575 3.8392,3.19031 3.47088,4.59878 -0.50617,1.9356 -3.47793,2.24198 -24.12923,2.48768 -12.95357,0.1541 -24.50924,0.58402 -25.67926,0.95537 -1.17003,0.37135 -2.39056,0.41195 -2.7123,0.0903 z M 118.37977,348.71241 c 0.064,-1.55327 0.37992,-1.8692 0.80556,-0.80556 0.38516,0.96249 0.33779,2.11249 -0.10527,2.55556 -0.44305,0.44305 -0.75819,-0.34445 -0.70029,-1.75 z"
       style="fill:#000000;stroke-width:1.33333" />
  </g>
</svg>
