<?xml version="1.0" standalone="no"?>
<!DOCTYPE svg PUBLIC "-//W3C//DTD SVG 20010904//EN"
 "http://www.w3.org/TR/2001/REC-SVG-20010904/DTD/svg10.dtd">
<svg version="1.0" xmlns="http://www.w3.org/2000/svg"
 width="1280.000000pt" height="720.000000pt" viewBox="0 0 1280.000000 720.000000"
 preserveAspectRatio="xMidYMid meet">
<metadata>
Created by potrace 1.16, written by Peter Selinger 2001-2019
</metadata>
<g transform="translate(0.000000,720.000000) scale(0.100000,-0.100000)"
fill="#000000" stroke="none">
<path d="M4639 5790 c-277 -47 -490 -184 -594 -381 -49 -94 -65 -149 -72 -255
-10 -152 21 -241 113 -328 31 -28 78 -81 105 -118 63 -85 184 -199 277 -261
158 -106 310 -164 453 -174 149 -10 259 30 370 135 158 148 226 405 174 658
-9 43 -17 83 -18 88 -1 5 24 24 55 42 72 43 154 123 173 168 34 81 6 147 -77
181 -37 15 -63 16 -183 10 l-140 -7 -33 46 c-36 50 -111 111 -180 145 -105 53
-284 74 -423 51z"/>
<path d="M2190 5079 c-345 -35 -681 -170 -955 -384 -109 -85 -286 -271 -367
-385 -218 -307 -338 -686 -338 -1065 0 -652 332 -1240 891 -1581 306 -186 654
-275 1024 -261 372 15 700 129 1017 353 112 80 328 297 408 411 56 81 154 240
163 267 2 5 215 -68 474 -163 l471 -171 1998 0 1999 0 90 -96 c455 -492 1102
-700 1745 -562 383 82 768 307 1010 592 48 56 84 89 105 96 50 17 111 75 141
136 21 43 27 72 29 132 2 63 7 88 32 137 86 170 143 448 143 696 0 765 -492
1477 -1205 1742 -393 147 -826 152 -1229 16 -272 -92 -509 -241 -718 -451
l-98 -97 -272 201 c-150 111 -302 221 -337 245 l-65 45 -295 -3 -296 -2 -80
39 c-67 33 -90 39 -140 38 -71 -1 -124 -25 -176 -81 -20 -21 -235 -306 -479
-633 -243 -327 -446 -598 -449 -602 -4 -4 -54 8 -111 27 -136 44 -773 229
-913 266 -165 43 -279 59 -412 59 -188 0 -306 -39 -402 -135 -181 -181 -189
-502 -18 -692 50 -56 152 -114 230 -132 254 -56 1025 -121 1435 -121 255 0
406 33 516 112 35 25 73 73 149 188 159 242 424 668 843 1353 l35 57 244 0
244 0 299 -220 299 -221 -29 -48 c-132 -213 -233 -533 -247 -783 -3 -53 -9
-100 -12 -105 -3 -5 -76 -4 -171 3 -236 17 -562 33 -723 36 -138 3 -139 3
-161 -23 -12 -14 -38 -64 -56 -110 -80 -201 -206 -428 -358 -646 l-65 -93
-996 0 -996 0 -445 162 c-245 89 -446 162 -446 162 -1 1 6 44 17 96 90 460 2
934 -248 1332 -82 130 -159 226 -272 338 -395 391 -930 583 -1471 529z m410
-374 c600 -90 1091 -556 1225 -1165 26 -116 31 -391 11 -520 -9 -57 -17 -105
-19 -106 -1 -1 -315 112 -697 252 -736 268 -760 275 -828 240 -40 -21 -78 -66
-92 -110 -22 -69 8 -163 65 -200 14 -9 333 -129 708 -266 375 -137 690 -252
699 -255 16 -6 16 -9 1 -38 -32 -64 -124 -194 -190 -270 -212 -243 -498 -407
-833 -478 -137 -29 -387 -32 -530 -6 -613 112 -1095 595 -1207 1209 -23 130
-23 381 1 508 89 462 374 848 783 1058 285 146 583 195 903 147z m7965 10
c349 -21 727 -213 972 -494 176 -202 287 -424 344 -691 30 -140 33 -419 5
-550 -20 -97 -50 -203 -71 -253 l-15 -35 -87 24 c-759 212 -1733 409 -2468
498 -115 15 -230 29 -254 32 l-44 6 6 96 c7 120 28 226 73 362 32 97 118 285
135 295 3 3 258 -180 565 -407 708 -520 645 -478 706 -478 43 0 54 4 83 33 44
44 53 93 29 144 -16 31 -106 101 -499 390 -264 194 -536 394 -604 444 l-123
91 58 60 c192 196 458 344 727 405 104 23 289 43 347 37 14 -2 66 -6 115 -9z
m-635 -2330 c336 -36 1003 -143 1220 -195 69 -17 158 -33 199 -37 l73 -6 -38
-34 c-59 -50 -210 -151 -284 -188 -171 -86 -348 -137 -544 -156 -454 -46 -981
166 -1249 501 -34 43 -71 93 -81 111 l-19 32 289 -6 c159 -3 354 -13 434 -22z"/>
</g>
</svg>
