<?xml version="1.0" standalone="no"?>
<!DOCTYPE svg PUBLIC "-//W3C//DTD SVG 20010904//EN"
 "http://www.w3.org/TR/2001/REC-SVG-20010904/DTD/svg10.dtd">
<svg version="1.0" xmlns="http://www.w3.org/2000/svg"
 width="1280.000000pt" height="733.000000pt" viewBox="0 0 1280.000000 733.000000"
 preserveAspectRatio="xMidYMid meet">
<metadata>
Created by potrace 1.15, written by Peter Selinger 2001-2017
</metadata>
<g transform="translate(0.000000,733.000000) scale(0.100000,-0.100000)"
fill="#000000" stroke="none">
<path d="M3159 7315 c-49 -22 -66 -54 -49 -95 19 -46 53 -67 138 -85 42 -9
127 -33 187 -52 156 -49 201 -55 330 -42 171 17 156 19 171 -26 7 -22 63 -211
124 -420 61 -209 120 -407 130 -440 76 -242 240 -817 236 -824 -3 -5 -21 -12
-41 -15 -19 -4 -37 -11 -39 -15 -5 -8 19 -105 30 -123 3 -4 22 -1 44 7 22 8
41 11 43 7 2 -4 17 -55 32 -114 l28 -107 -190 -203 c-105 -112 -239 -256 -299
-320 -64 -70 -116 -118 -127 -118 -10 0 -35 18 -55 41 -40 44 -79 69 -111 69
-11 0 -30 14 -42 31 -23 32 -88 68 -125 69 -11 0 -31 12 -45 26 -33 35 -71 54
-112 54 -22 0 -41 8 -53 21 -29 33 -69 49 -117 49 -29 0 -49 6 -58 17 -21 24
-73 43 -121 43 -26 0 -57 8 -78 22 -25 15 -54 22 -100 23 -36 1 -85 10 -110
19 -35 14 -52 15 -84 7 -30 -7 -46 -6 -67 5 -32 16 -111 19 -138 5 -12 -7 -32
-5 -63 7 -43 15 -50 15 -100 -1 -42 -13 -62 -14 -93 -6 -33 8 -50 7 -85 -6
-26 -10 -70 -16 -105 -16 -43 1 -71 -4 -100 -19 -24 -12 -59 -20 -90 -20 -35
0 -63 -8 -94 -25 -23 -14 -58 -25 -76 -25 -40 0 -83 -15 -108 -38 -10 -9 -46
-22 -80 -29 -43 -9 -69 -21 -92 -43 -17 -16 -41 -30 -53 -30 -35 0 -84 -25
-116 -58 -18 -20 -43 -33 -69 -37 -29 -5 -51 -19 -81 -50 -23 -23 -59 -48 -80
-56 -34 -12 -106 -80 -106 -100 0 -4 -12 -10 -26 -13 -42 -11 -72 -35 -96 -77
-11 -21 -34 -43 -50 -50 -33 -14 -85 -70 -93 -102 -3 -12 -23 -32 -44 -44 -26
-15 -46 -38 -62 -70 -12 -26 -42 -66 -65 -88 -27 -26 -46 -55 -53 -81 -7 -25
-21 -48 -36 -58 -29 -19 -65 -85 -65 -119 0 -13 -12 -34 -26 -48 -34 -32 -53
-70 -55 -111 -2 -20 -13 -44 -31 -63 -27 -29 -53 -118 -41 -138 3 -5 -4 -18
-15 -30 -28 -30 -42 -70 -42 -119 0 -25 -9 -55 -22 -77 -17 -26 -23 -51 -23
-96 0 -35 -8 -80 -19 -108 -16 -40 -17 -56 -9 -93 6 -24 7 -47 2 -49 -4 -3
-12 -28 -18 -55 -8 -37 -8 -59 2 -87 10 -32 10 -45 -3 -80 -12 -36 -12 -48 -1
-85 7 -24 12 -56 10 -73 -5 -64 -2 -111 11 -140 7 -16 12 -56 11 -88 -2 -43 2
-66 18 -92 14 -25 20 -51 19 -89 -1 -43 4 -63 24 -93 17 -25 27 -57 30 -94 3
-40 12 -65 31 -91 15 -19 27 -47 27 -62 0 -36 22 -85 54 -119 14 -15 26 -39
26 -53 0 -34 35 -101 64 -119 16 -10 26 -29 30 -56 5 -29 18 -52 50 -84 24
-24 49 -59 56 -79 6 -20 31 -53 57 -76 26 -22 54 -58 64 -80 12 -27 33 -49 63
-68 25 -15 50 -39 57 -55 14 -34 71 -85 104 -93 14 -3 25 -11 25 -16 0 -24 44
-68 89 -91 27 -13 63 -40 80 -60 18 -20 53 -44 79 -54 26 -9 61 -32 78 -50 32
-34 70 -53 107 -53 12 0 33 -12 46 -26 33 -34 74 -54 116 -56 24 -1 43 -10 61
-29 26 -27 51 -36 114 -43 14 -1 46 -14 71 -29 32 -19 60 -27 94 -27 32 0 60
-7 84 -22 26 -17 51 -23 96 -23 33 0 69 -5 80 -12 33 -19 90 -25 129 -15 20 6
38 7 41 2 3 -5 28 -13 55 -19 39 -8 59 -8 90 3 22 8 43 10 45 5 11 -18 96 -22
136 -6 30 12 47 13 76 5 38 -10 69 -7 118 13 17 7 56 11 88 10 43 -2 66 2 92
18 25 14 51 20 89 19 43 -1 63 4 93 24 25 17 57 27 94 30 40 3 65 12 91 31 19
15 47 27 62 27 36 0 85 22 119 54 15 14 39 26 53 26 34 0 101 35 119 64 10 16
29 26 56 30 29 5 52 18 84 50 24 24 59 49 79 56 20 6 53 31 76 57 22 26 58 54
80 64 27 12 49 33 68 63 15 25 39 50 55 57 34 14 85 71 93 104 3 14 11 25 16
25 24 0 68 44 89 88 12 26 39 62 60 80 21 18 45 53 55 79 10 26 35 64 55 84
26 26 40 51 46 81 l9 43 504 46 c539 50 591 55 630 70 14 5 35 10 47 12 19 3
74 26 113 49 8 4 26 14 40 20 44 22 136 96 183 148 67 74 117 172 142 276 2 5
63 19 136 30 105 15 179 18 344 17 231 -3 260 2 301 50 47 56 15 131 -70 161
-30 11 -104 16 -266 20 -155 3 -259 11 -333 24 -110 19 -127 28 -127 67 0 17
-25 78 -52 125 -4 8 -13 26 -20 40 -7 14 -18 32 -25 41 -11 14 131 193 1093
1373 l1106 1357 141 109 c86 67 144 105 146 97 3 -6 21 -61 41 -122 l37 -110
122 -31 123 -31 59 -109 c33 -62 64 -108 71 -107 8 2 39 -65 86 -185 39 -104
72 -193 72 -199 0 -18 -35 -41 -74 -49 -28 -5 -52 -20 -80 -49 -23 -23 -59
-48 -80 -56 -34 -12 -106 -80 -106 -100 0 -4 -12 -10 -26 -13 -42 -11 -72 -35
-96 -77 -12 -21 -30 -41 -40 -45 -33 -10 -86 -64 -97 -97 -7 -21 -25 -40 -50
-54 -27 -15 -46 -37 -62 -70 -12 -26 -39 -63 -60 -81 -22 -19 -45 -52 -55 -80
-10 -26 -30 -57 -45 -69 -27 -23 -59 -88 -59 -121 0 -10 -12 -29 -26 -43 -34
-31 -52 -68 -57 -112 -2 -19 -15 -49 -30 -67 -29 -34 -37 -55 -40 -112 -1 -20
-10 -45 -18 -55 -29 -32 -39 -61 -39 -109 0 -31 -8 -59 -22 -83 -16 -26 -23
-52 -23 -96 -1 -33 -7 -73 -14 -90 -20 -48 -24 -79 -13 -118 6 -20 7 -39 2
-42 -17 -11 -30 -102 -18 -135 8 -24 7 -45 -3 -87 -11 -49 -11 -62 3 -100 12
-34 14 -53 6 -80 -10 -39 -7 -69 13 -118 7 -16 11 -56 10 -88 -2 -43 2 -66 18
-93 15 -25 21 -50 20 -89 -1 -43 4 -63 23 -93 17 -24 27 -56 30 -93 3 -40 12
-65 31 -91 15 -19 27 -47 27 -62 0 -36 22 -85 54 -119 14 -15 26 -39 26 -53 0
-34 35 -101 64 -119 16 -10 26 -29 30 -56 5 -29 18 -52 50 -84 24 -24 49 -59
56 -79 6 -20 31 -53 57 -76 26 -22 54 -58 64 -80 12 -27 33 -49 63 -68 25 -15
50 -39 57 -55 14 -34 71 -85 104 -93 14 -3 25 -11 25 -16 0 -24 44 -68 89 -91
27 -13 63 -40 80 -60 18 -20 52 -43 79 -53 26 -9 55 -28 66 -41 22 -29 86 -63
118 -63 13 0 34 -12 47 -26 33 -34 74 -54 116 -56 24 -1 43 -10 61 -29 26 -27
51 -36 114 -43 14 -1 46 -14 71 -29 32 -19 60 -27 94 -27 32 0 60 -7 84 -22
26 -17 51 -23 96 -23 33 0 69 -5 80 -12 33 -19 90 -25 129 -15 20 6 38 7 41 2
3 -5 28 -13 55 -19 39 -8 59 -8 90 3 22 8 43 10 45 5 11 -18 96 -22 136 -6 30
12 47 13 76 5 38 -10 69 -7 118 13 17 7 56 11 88 10 43 -2 66 2 92 18 25 14
51 20 89 19 43 -1 63 4 93 24 25 17 57 27 94 30 40 3 65 12 91 31 19 15 47 27
62 27 36 0 85 22 119 54 15 14 39 26 53 26 34 0 101 35 119 64 10 16 29 26 56
30 29 5 52 18 84 50 24 24 59 49 79 56 20 6 53 31 76 57 22 26 58 54 80 64 27
12 49 33 68 63 15 25 39 50 55 57 34 14 85 71 93 104 3 14 11 25 16 25 24 0
68 44 91 89 13 27 40 63 60 80 20 18 44 53 54 79 9 26 32 61 50 78 34 32 53
70 53 107 0 12 12 33 26 46 33 32 53 72 56 113 1 20 12 44 30 62 26 28 35 54
42 116 1 14 14 46 29 71 19 32 27 60 27 92 0 29 8 59 22 84 16 27 23 54 23 98
0 33 5 69 12 80 19 33 25 90 15 128 -5 19 -6 39 -2 44 17 16 28 94 19 126 -6
21 -6 53 2 94 11 53 10 68 -3 102 -13 32 -14 49 -6 78 10 38 7 69 -13 118 -7
17 -11 56 -10 87 2 44 -2 66 -19 97 -16 27 -21 49 -18 72 6 38 -6 81 -34 121
-11 16 -18 44 -18 70 0 32 -8 57 -30 91 -16 26 -30 59 -30 73 0 36 -23 85 -54
113 -16 16 -26 35 -26 53 0 38 -26 88 -60 116 -19 15 -31 36 -35 64 -5 30 -19
52 -50 82 -23 23 -47 58 -54 78 -7 20 -29 51 -49 68 -20 17 -41 34 -45 38 -4
4 -18 27 -31 52 -14 29 -36 53 -61 67 -21 12 -45 34 -53 50 -22 44 -62 81 -98
93 -18 6 -36 20 -39 30 -9 28 -65 78 -100 90 -17 6 -42 24 -54 41 -27 36 -78
69 -108 69 -13 0 -31 13 -44 31 -23 32 -88 68 -125 69 -11 0 -31 12 -45 26
-33 35 -71 54 -112 54 -22 0 -41 8 -53 21 -29 33 -69 49 -117 49 -29 0 -49 6
-58 17 -21 24 -73 43 -121 43 -26 0 -57 8 -78 22 -25 15 -54 22 -100 23 -36 1
-85 10 -110 19 -35 14 -52 15 -84 7 -30 -7 -46 -6 -67 5 -32 16 -111 19 -138
5 -12 -7 -32 -5 -63 7 -43 15 -50 15 -100 -1 -42 -13 -62 -14 -93 -6 -33 8
-50 7 -85 -6 -27 -10 -70 -16 -108 -15 -48 1 -71 -4 -98 -19 -23 -14 -53 -21
-86 -21 -34 0 -65 -8 -97 -24 -25 -14 -67 -26 -94 -29 -30 -3 -62 -15 -87 -32
-22 -16 -42 -26 -45 -24 -15 15 -144 367 -140 383 2 12 -21 91 -53 176 l-57
155 -108 3 -108 3 -32 36 c-30 33 -65 103 -66 130 -1 6 14 15 32 18 17 4 66
21 107 37 205 81 317 197 364 380 35 137 44 527 15 642 -6 21 -9 40 -6 42 2 2
25 -3 52 -13 44 -14 49 -14 60 0 10 14 18 13 77 -7 36 -12 94 -39 128 -60 l62
-38 28 33 c16 19 29 37 30 41 0 12 -84 79 -130 103 -25 12 -64 28 -87 35 -24
7 -43 19 -43 27 0 7 -16 38 -36 68 l-36 54 26 31 c32 39 40 68 34 124 -7 55
-32 90 -84 116 -72 35 -88 30 -281 -93 -76 -48 -199 -108 -439 -213 -312 -136
-335 -144 -351 -129 -31 31 -173 -5 -218 -55 -16 -18 -14 -28 40 -200 49 -158
56 -190 54 -253 -1 -40 3 -85 10 -100 15 -38 14 -57 -3 -57 -7 0 -665 -162
-1462 -361 -1563 -388 -2091 -519 -2103 -519 -4 0 -12 18 -18 40 l-10 40 57
16 57 16 6 61 c3 34 2 65 -2 70 -4 4 -43 -4 -87 -17 -43 -13 -80 -23 -81 -22
-1 1 -73 243 -158 537 -86 294 -197 673 -246 842 -50 170 -88 312 -84 315 3 4
156 7 338 7 282 0 344 -3 410 -18 116 -26 194 -32 212 -17 42 35 -4 93 -106
131 -106 40 -231 51 -724 59 -452 8 -571 16 -780 50 -33 6 -125 13 -205 15
-118 5 -152 3 -181 -10z m5810 -679 c9 -11 20 -12 44 -5 48 13 49 13 118 -40
58 -44 71 -50 132 -56 l69 -8 38 38 c38 38 39 38 44 14 12 -61 15 -262 6 -387
-26 -330 -110 -456 -376 -562 -39 -16 -86 -31 -106 -35 -33 -6 -35 -5 -50 33
l-15 39 83 7 c282 21 451 212 430 484 -8 100 -21 141 -71 217 -43 64 -197 222
-239 245 -54 29 -33 -2 81 -116 65 -66 133 -144 150 -174 62 -105 67 -294 12
-402 -27 -54 -101 -131 -153 -162 -60 -35 -145 -57 -231 -59 l-76 -2 -112 296
c-62 163 -125 315 -140 338 -16 24 -35 63 -42 88 l-14 45 137 64 c75 35 160
75 187 88 58 29 78 31 94 12z m-859 -981 c0 -5 -2215 -2731 -2317 -2852 l-44
-52 -47 15 c-26 8 -102 18 -169 21 -68 3 -123 7 -123 8 0 2 -374 1376 -501
1843 -34 123 -59 226 -55 229 13 13 2867 723 3161 786 29 7 95 8 95 2z m-3512
-942 c9 -32 8 -47 -8 -93 -37 -106 -24 -167 74 -339 76 -133 148 -334 261
-736 53 -187 123 -434 155 -549 33 -116 58 -211 57 -213 -2 -1 -76 -6 -165 -9
l-162 -7 0 54 c0 36 -7 65 -20 87 -14 23 -20 48 -19 87 1 43 -4 63 -23 93 -17
24 -27 56 -30 93 -3 40 -12 65 -31 91 -15 19 -27 47 -27 62 0 38 -23 87 -54
115 -14 14 -26 35 -26 48 0 39 -31 102 -60 123 -19 14 -29 32 -34 60 -5 31
-18 52 -50 83 -23 23 -48 59 -55 79 -7 20 -29 51 -49 68 -20 17 -41 34 -45 38
-4 4 -18 27 -31 52 -14 29 -36 53 -61 67 -21 12 -45 34 -53 50 -8 15 -28 43
-45 61 l-31 32 30 33 c301 326 473 507 484 507 4 0 12 -17 18 -37z m126 -453
c4 -14 -9 2 -29 34 -88 143 -107 206 -85 286 l12 45 48 -170 c26 -93 50 -181
54 -195z m-2174 32 c0 -12 -129 -1164 -133 -1182 -1 -8 -13 59 -26 150 -12 91
-49 353 -82 583 -32 230 -59 427 -59 438 0 18 9 19 150 19 83 0 150 -4 150 -8z
m195 -18 c131 -21 128 -20 122 -63 -3 -20 -42 -207 -87 -416 -44 -209 -101
-477 -126 -595 -41 -196 -88 -340 -110 -340 -4 0 -12 8 -19 17 -11 15 -16 16
-38 4 -14 -7 -30 -11 -35 -7 -6 3 -13 39 -17 79 -5 56 9 211 64 697 39 344 71
630 71 636 0 13 31 11 175 -12z m7755 18 c0 -6 -110 -990 -127 -1130 -3 -29
-7 -51 -8 -50 -3 3 -11 57 -100 687 -36 255 -65 472 -65 483 0 17 11 18 150
18 83 0 150 -3 150 -8z m195 -18 c133 -21 128 -19 121 -66 -4 -23 -43 -210
-87 -417 -44 -207 -100 -473 -125 -591 -43 -204 -49 -222 -112 -353 -47 -98
-68 -133 -73 -120 -3 10 -14 79 -24 153 l-17 135 71 632 c39 348 71 637 71
642 0 10 40 7 175 -15z m-8426 -291 c23 -170 64 -459 90 -644 41 -282 47 -346
39 -399 -4 -35 -10 -66 -13 -68 -3 -3 -17 0 -32 7 -24 11 -29 10 -45 -9 -18
-22 -18 -22 -52 51 -26 55 -64 195 -146 539 -62 256 -129 534 -150 618 l-38
153 22 9 c34 13 209 46 256 49 l26 1 43 -307z m7945 35 c21 -150 60 -430 88
-623 43 -300 49 -364 44 -445 -10 -161 -18 -240 -25 -240 -3 0 -39 64 -78 143
-70 136 -75 151 -127 372 -74 313 -160 669 -206 853 l-38 153 22 8 c34 14 209
47 256 50 l26 1 38 -272z m-7169 178 c70 -24 129 -47 133 -50 6 -6 -519 -1075
-526 -1070 -2 1 28 150 67 330 38 181 94 443 123 581 33 158 57 253 65 253 6
0 69 -20 138 -44z m7950 0 c70 -24 129 -47 133 -50 6 -7 -520 -1075 -527
-1070 -2 2 8 56 23 121 29 133 175 822 203 956 10 51 22 87 30 87 6 0 69 -20
138 -44z m-8965 -491 c67 -280 130 -541 140 -578 10 -38 14 -65 10 -60 -7 8
-478 890 -534 1000 l-26 52 32 17 c53 28 242 93 249 86 3 -4 61 -236 129 -517z
m7845 435 c19 -83 242 -1003 251 -1035 16 -61 -26 41 -129 315 -64 168 -154
406 -201 529 -47 124 -83 227 -80 230 11 12 129 48 135 42 3 -3 14 -40 24 -81z
m-6602 -41 c71 -36 197 -109 197 -115 0 -2 -58 -97 -130 -212 l-130 -208 -291
-312 c-160 -172 -294 -311 -297 -308 -6 6 11 41 348 719 129 257 235 467 237
467 2 0 32 -14 66 -31z m7942 5 c72 -38 205 -115 205 -120 0 -2 -153 -250
-341 -551 l-341 -548 -107 -102 c-58 -56 -109 -102 -112 -102 -3 -1 9 65 27
147 l32 147 288 578 c158 317 290 577 293 577 3 0 29 -12 56 -26z m-9306 -576
c176 -332 306 -587 312 -615 15 -65 -1 -108 -36 -99 -16 4 -27 1 -32 -8 -7
-12 -17 -8 -53 22 -32 27 -140 181 -398 571 -195 294 -356 541 -359 547 -8 20
244 172 258 156 4 -4 142 -262 308 -574z m7550 254 c45 -111 81 -205 81 -208
0 -8 -240 355 -247 372 -7 18 69 67 78 51 4 -6 44 -103 88 -215z m-6031 14
c-68 -73 -124 -132 -126 -131 -3 2 50 88 155 253 l33 53 30 -21 30 -22 -122
-132z m8160 62 c45 -38 82 -73 82 -77 0 -7 -622 -604 -818 -786 -49 -45 -29
-11 234 410 158 253 302 484 321 513 l33 53 33 -22 c17 -13 69 -53 115 -91z
m-9941 -413 c176 -264 323 -487 328 -495 4 -8 -7 -1 -26 16 -19 17 -216 194
-439 394 -223 199 -409 367 -414 371 -13 11 19 45 128 136 49 41 92 71 96 66
4 -4 151 -224 327 -488z m7784 250 c154 -231 170 -261 273 -525 l18 -45 -29
26 c-15 14 -163 146 -328 294 -165 147 -306 274 -314 281 -13 12 -12 17 10 40
48 52 202 175 209 167 4 -4 77 -111 161 -238z m-5757 83 c-157 -188 -254 -292
-366 -398 -128 -120 -130 -121 -53 -38 271 295 431 466 438 467 5 1 -4 -14
-19 -31z m117 -65 c58 -60 149 -172 148 -181 -1 -12 -984 -775 -1036 -804 -70
-40 -143 -36 -143 8 0 12 -4 25 -9 29 -18 10 29 72 92 121 158 124 364 318
520 489 110 122 368 385 377 385 3 0 26 -21 51 -47z m7950 0 c58 -60 149 -172
148 -181 0 -4 -228 -185 -507 -401 l-507 -395 -139 -63 c-76 -35 -140 -62
-142 -61 -1 2 33 59 76 128 l78 125 469 447 c257 246 470 447 473 448 3 0 26
-21 51 -47z m-10190 -418 c456 -408 563 -515 539 -539 -5 -5 -10 -20 -10 -32
0 -17 -9 -25 -34 -34 -27 -9 -41 -7 -80 10 -35 15 -1019 726 -1080 781 -5 4 2
22 15 41 38 56 159 198 168 198 5 0 222 -191 482 -425z m7836 101 l358 -323
68 -173 c37 -95 66 -175 63 -177 -4 -4 -1001 723 -1040 758 -5 4 2 22 15 41
38 56 160 198 169 198 4 0 169 -146 367 -324z m-5399 72 c58 -86 124 -210 116
-217 -5 -4 -229 -104 -498 -221 -270 -117 -515 -224 -545 -237 -31 -14 -52
-21 -48 -17 19 19 933 733 939 733 4 1 20 -18 36 -41z m7950 0 c55 -81 124
-210 115 -218 -4 -3 -226 -102 -493 -218 -267 -116 -512 -223 -545 -237 -33
-15 -57 -23 -52 -19 18 19 933 733 939 733 4 1 20 -18 36 -41z m-10584 -357
c256 -189 465 -346 463 -347 -3 -4 -1087 433 -1095 441 -6 6 35 89 93 188 32
55 50 75 59 70 7 -5 223 -163 480 -352z m7949 0 c257 -189 466 -346 464 -347
-4 -4 -1087 433 -1095 441 -8 7 20 63 84 173 39 65 59 90 68 85 7 -5 223 -163
479 -352z m-5131 2 c25 -65 48 -129 51 -143 6 -25 4 -26 -341 -137 l-347 -112
-254 -11 c-293 -12 -367 -12 -358 -4 9 9 1179 522 1192 523 6 1 31 -52 57
-116z m7940 24 c40 -100 70 -188 66 -192 -2 -1 -277 -91 -613 -200 l-610 -199
-150 -11 c-82 -6 -152 -10 -154 -8 -2 1 9 13 24 25 180 143 206 160 325 213
431 191 1057 464 1065 464 6 1 27 -41 47 -92z m-10796 -198 c396 -160 612
-252 645 -276 27 -19 49 -37 49 -40 0 -3 -7 -11 -16 -18 -14 -10 -15 -15 -4
-35 19 -36 -8 -51 -84 -44 -50 5 -1281 356 -1295 370 -11 11 85 284 100 284 5
0 277 -108 605 -241z m7951 0 c329 -133 607 -249 617 -258 18 -15 54 -87 71
-140 l7 -23 -83 7 c-67 5 -212 44 -699 187 -338 99 -617 181 -619 184 -12 11
84 284 100 284 5 0 278 -108 606 -241z m-5013 -84 c14 -58 20 -104 14 -106 -8
-3 -634 -26 -636 -24 -5 4 569 193 589 194 12 1 21 -16 33 -64z m7949 3 c18
-74 42 -226 36 -231 -5 -5 -1182 -77 -1186 -73 -2 1 72 27 164 57 93 30 341
111 553 180 212 70 392 127 401 128 12 1 21 -16 32 -61z m-1813 -89 c11 -91
11 -109 -3 -134 l-15 -29 -16 32 c-15 28 -15 44 -4 147 6 64 15 110 18 103 4
-7 13 -61 20 -119z m-9208 -66 c312 -92 566 -168 565 -170 -4 -3 -1191 38
-1195 42 -4 4 28 214 39 258 5 20 13 37 17 37 4 0 262 -75 574 -167z m7965 -5
c304 -89 551 -163 550 -165 -4 -3 -1191 38 -1195 42 -4 4 28 214 39 258 9 33
14 38 32 33 12 -3 271 -78 574 -168z m1362 56 c-18 -84 -28 -112 -48 -131
l-26 -23 -3 37 c-3 29 7 60 44 135 26 54 50 96 52 93 2 -2 -6 -52 -19 -111z
m-195 -120 c-6 -23 -14 -8 -55 97 -27 68 -49 126 -49 129 0 3 25 -41 55 -97
43 -80 54 -109 49 -129z m303 59 c-39 -61 -74 -103 -91 -111 -37 -16 -37 -16
-30 16 6 24 173 207 182 198 2 -2 -26 -48 -61 -103z m-8487 82 c7 -9 8 -15 2
-15 -5 0 -12 7 -16 15 -3 8 -4 15 -2 15 2 0 9 -7 16 -15z m3030 -59 c0 -8 3
-21 6 -30 5 -12 0 -16 -18 -16 -17 0 -29 -8 -36 -25 -7 -15 -20 -25 -33 -25
-14 0 -24 -10 -32 -30 -6 -17 -20 -30 -32 -32 -13 -2 -23 -14 -29 -34 -5 -17
-19 -35 -30 -40 -12 -5 -22 -20 -24 -37 -2 -15 -12 -32 -23 -37 -12 -7 -19
-21 -19 -39 0 -16 -7 -34 -15 -41 -8 -7 -15 -28 -15 -46 0 -19 -4 -34 -9 -34
-14 0 -21 140 -8 187 9 37 9 52 -5 89 -12 35 -14 53 -5 85 7 28 7 51 -1 74
l-10 34 72 4 c196 9 266 7 266 -7z m-872 -56 l3 -35 -593 -37 c-325 -21 -593
-36 -595 -34 -2 1 75 28 170 59 l172 56 365 14 c201 8 390 14 420 13 l55 -1 3
-35z m-930 5 c-3 -3 -89 -32 -192 -65 -241 -77 -327 -81 -310 -15 5 21 2 31
-11 41 -14 11 -15 14 -4 18 8 3 120 9 249 14 129 5 244 10 254 10 11 1 17 0
14 -3z m7337 -70 c-69 -53 -106 -75 -127 -75 -64 0 -13 50 107 104 55 25 104
45 109 45 4 1 -36 -33 -89 -74z m-6395 -146 l0 -152 -112 6 c-62 3 -376 33
-698 66 -524 55 -586 63 -604 81 -25 24 -17 32 53 55 42 14 188 26 630 55 317
21 611 38 654 39 l77 1 0 -151z m6180 147 c0 -3 -4 -8 -10 -11 -5 -3 -10 -1
-10 4 0 6 5 11 10 11 6 0 10 -2 10 -4z m1770 -146 l0 -150 -52 0 c-29 0 -318
9 -643 20 l-590 20 -148 42 c-81 23 -144 45 -140 49 5 3 66 26 137 49 l129 43
576 37 c317 21 611 38 654 39 l77 1 0 -150z m-1720 100 c0 -5 -5 -10 -11 -10
-5 0 -7 5 -4 10 3 6 8 10 11 10 2 0 4 -4 4 -10z m-9490 -15 c223 -8 491 -17
595 -20 105 -3 205 -8 223 -11 l34 -5 -44 -28 c-40 -26 -128 -108 -128 -120
-1 -33 -20 -35 -590 -71 -314 -19 -573 -34 -576 -31 -2 2 -4 71 -4 153 l0 148
43 0 c23 0 224 -7 447 -15z m8125 -6 l630 -21 98 -30 c79 -23 100 -34 109 -54
6 -13 9 -26 7 -28 -2 -2 -47 -18 -99 -35 l-95 -33 -650 -42 c-357 -23 -653
-41 -657 -39 -5 2 -8 71 -8 154 0 135 2 149 18 149 9 0 301 -9 647 -21z m1684
-13 c-2 -2 -54 -20 -115 -40 -78 -25 -120 -34 -143 -30 -37 8 -38 13 -5 37 23
17 46 21 248 36 11 0 17 -1 15 -3z m-874 -26 c7 -11 -9 -11 -45 0 -24 8 -24 8
7 9 17 1 35 -3 38 -9z m595 6 c0 -3 -4 -8 -10 -11 -5 -3 -10 -1 -10 4 0 6 5
11 10 11 6 0 10 -2 10 -4z m-8600 -26 c12 -7 12 -12 -4 -29 -18 -19 -18 -22
-2 -46 16 -25 16 -26 -11 -36 -59 -22 -145 -40 -181 -37 l-37 3 55 55 c49 50
128 100 155 100 6 0 17 -4 25 -10z m8877 -125 c5 -4 0 -5 -10 -2 -10 4 -64 7
-120 7 -93 0 -105 2 -132 24 l-30 24 34 9 c27 7 57 2 142 -22 60 -18 112 -35
116 -40z m-817 10 c0 -10 -10 -15 -27 -15 -16 0 -46 -2 -68 -5 l-40 -5 50 19
c62 24 85 26 85 6z m669 -92 c50 -36 90 -68 88 -69 -4 -5 -200 76 -215 89 -7
6 -18 19 -23 29 -9 16 -6 18 24 18 27 0 55 -15 126 -67z m869 -125 c340 -99
619 -182 621 -184 6 -6 -20 -93 -57 -192 -31 -82 -38 -93 -56 -89 -12 2 -283
111 -604 240 l-584 237 -111 81 c-62 45 -116 86 -122 92 -7 6 43 7 143 3 l154
-7 616 -181z m-1515 163 c4 -16 -16 -36 -92 -94 -93 -72 -112 -81 -684 -330
-323 -142 -591 -257 -595 -257 -13 0 -121 277 -111 284 2 1 182 59 399 130
217 70 492 159 610 199 169 55 233 72 300 77 157 13 167 12 173 -9z m1667 -7
c283 -9 518 -20 522 -23 8 -7 -16 -189 -33 -253 -5 -21 -14 -38 -19 -38 -10 0
-1128 327 -1145 335 -5 2 28 2 75 0 47 -3 317 -12 600 -21z m-9732 7 c9 -5 11
-17 6 -36 -5 -21 -3 -31 10 -40 14 -11 10 -17 -36 -52 -55 -42 -244 -130 -255
-119 -10 10 -16 112 -9 160 l7 46 77 24 c77 24 176 33 200 17z m-231 -7 c-3
-3 -12 -4 -19 -1 -8 3 -5 6 6 6 11 1 17 -2 13 -5z m7948 0 c-36 -14 -1122
-364 -1132 -364 -14 0 -17 10 -37 110 -18 89 -30 180 -25 181 7 2 1144 77
1174 77 17 0 26 -1 20 -4z m-8015 -14 c0 -5 -2 -10 -4 -10 -3 0 -240 -76 -528
-170 -288 -93 -528 -170 -534 -170 -20 0 -76 272 -60 288 8 7 910 68 1049 71
45 0 77 -3 77 -9z m8844 -10 c15 -5 48 -44 84 -97 81 -121 81 -123 31 -79
-113 100 -140 129 -146 157 -6 32 -5 33 31 19z m-460 -25 c4 -11 -10 -23 -45
-41 -28 -14 -53 -23 -55 -21 -4 3 84 77 92 77 1 0 4 -7 8 -15z m-8400 -106
l-1 -111 -467 -204 c-256 -112 -470 -204 -474 -204 -8 0 -96 217 -105 260 -6
25 -2 26 206 93 233 75 842 275 842 276 0 1 0 -49 -1 -110z m8596 -68 c-27
-56 -52 -101 -54 -101 -1 0 8 51 22 113 19 86 31 119 51 140 l26 29 3 -40 c2
-32 -7 -61 -48 -141z m250 21 c15 -62 26 -112 24 -112 -1 0 -28 47 -58 104
-47 86 -55 109 -50 135 l7 33 24 -25 c17 -17 32 -56 53 -135z m-125 118 c13
-26 14 -45 3 -145 -6 -64 -15 -110 -18 -103 -4 7 -13 59 -20 116 -10 81 -10
108 0 132 7 17 14 30 16 30 2 0 10 -13 19 -30z m349 -24 l133 -54 519 -382
c285 -211 521 -384 523 -386 11 -10 -171 -234 -189 -234 -6 0 -227 196 -493
435 -453 408 -486 440 -542 526 -95 144 -97 149 -90 149 3 0 66 -24 139 -54z
m-7521 9 l319 -34 346 -102 c191 -56 349 -103 351 -105 13 -12 -84 -284 -101
-284 -6 0 -275 106 -597 236 -527 212 -674 278 -697 315 -8 14 44 11 379 -26z
m7016 18 c-1 -5 -40 -44 -87 -88 -89 -84 -91 -79 -15 35 24 36 106 78 102 53z
m-182 -140 c-58 -90 -98 -131 -463 -478 -219 -209 -429 -409 -467 -444 l-67
-65 -41 40 c-22 21 -68 72 -101 113 -57 71 -59 75 -41 92 10 9 240 190 511
402 459 358 501 388 595 429 97 43 101 44 119 26 17 -17 16 -21 -45 -115z
m663 -73 c21 -19 196 -275 390 -568 305 -460 351 -535 339 -547 -23 -23 -232
-146 -242 -142 -5 1 -146 259 -313 572 l-303 570 -31 130 c-17 72 -34 139 -37
150 -5 18 73 -48 197 -165z m-7819 141 c40 -18 1068 -771 1069 -783 0 -4 -12
-21 -27 -37 -27 -29 -31 -30 -176 -41 l-147 -12 -29 24 c-145 122 -592 535
-597 552 -12 38 -44 70 -112 112 -66 40 -145 125 -123 132 6 2 11 16 11 32 0
22 6 31 28 38 29 11 47 8 103 -17z m7303 -118 l-32 -148 -287 -577 c-157 -318
-290 -578 -296 -578 -20 0 -259 134 -259 146 0 2 154 250 341 550 l342 546
106 104 c58 57 109 104 112 104 3 0 -9 -66 -27 -147z m-8131 120 c9 -3 17 -15
17 -27 0 -12 4 -26 10 -32 6 -6 1 -23 -16 -49 -33 -51 -175 -195 -190 -195
-15 0 -121 95 -134 120 -18 33 238 210 280 194 8 -4 23 -9 33 -11z m1807 -19
c85 -9 155 -17 155 -18 0 0 9 -19 21 -41 l20 -41 -195 58 c-175 53 -250 79
-181 64 14 -3 95 -13 180 -22z m6471 -126 c12 -76 18 -159 16 -193 -7 -86
-138 -1249 -142 -1253 -4 -4 -212 27 -260 39 l-41 10 62 292 c34 161 94 445
134 631 l72 339 66 139 c36 76 67 136 69 134 3 -2 13 -64 24 -138z m369 -735
c83 -339 150 -625 150 -634 0 -14 -19 -22 -87 -38 -49 -11 -115 -23 -148 -26
l-60 -7 -54 378 c-29 209 -70 498 -90 644 l-37 265 17 145 c9 80 17 147 18
150 1 3 33 -55 71 -128 l71 -132 149 -617z m-7986 811 c5 -14 4 -15 -9 -4 -17
14 -19 20 -6 20 5 0 12 -7 15 -16z m856 -209 c294 -119 537 -218 539 -221 14
-14 -135 -267 -152 -257 -7 4 -205 149 -442 323 -236 174 -450 331 -475 350
-25 18 -36 30 -25 27 11 -3 261 -103 555 -222z m7953 -1 c295 -119 537 -222
537 -229 0 -11 -124 -233 -138 -247 -5 -5 -175 114 -378 263 -203 150 -421
311 -484 357 -63 47 -106 82 -95 79 11 -3 262 -103 558 -223z m-9728 190 c-61
-51 -76 -59 -86 -43 -7 11 5 20 49 41 71 33 74 33 37 2z m335 22 c0 -2 -7 -9
-15 -16 -13 -11 -14 -10 -9 4 5 14 24 23 24 12z m7640 0 c0 -4 -929 -730 -940
-734 -15 -5 -169 243 -158 254 4 3 1070 474 1096 483 1 1 2 -1 2 -3z m-7594
-50 c29 7 28 12 8 -73 -8 -37 -14 -81 -11 -98 3 -16 -2 -42 -9 -57 -12 -23
-21 -28 -52 -28 -39 0 -149 23 -159 33 -10 11 90 160 137 204 35 33 47 39 53
27 5 -9 16 -12 33 -8z m-496 -20 c0 -2 3 -11 6 -19 4 -11 -112 -107 -396 -328
-221 -173 -405 -315 -410 -317 -15 -5 -169 243 -158 254 8 8 933 412 946 413
6 1 12 -1 12 -3z m2547 -22 c-3 -3 -12 -4 -19 -1 -8 3 -5 6 6 6 11 1 17 -2 13
-5z m-2478 -82 c25 -27 58 -58 73 -69 l28 -21 -98 -94 c-53 -52 -196 -188
-317 -303 -121 -115 -248 -236 -282 -269 l-63 -60 -41 39 c-22 22 -68 73 -101
114 -49 61 -57 76 -46 87 18 18 792 623 797 624 3 0 25 -22 50 -48z m3083 20
c12 -10 16 -23 12 -39 -4 -16 0 -31 12 -44 10 -12 18 -31 16 -43 -2 -16 5 -28
22 -40 17 -10 26 -26 26 -41 0 -18 8 -28 24 -35 14 -5 26 -19 28 -32 2 -12 14
-28 27 -34 13 -7 28 -22 35 -35 6 -13 22 -25 34 -27 13 -2 28 -14 34 -28 8
-17 19 -24 38 -24 19 0 33 -8 44 -25 12 -19 22 -24 39 -20 15 4 29 0 41 -14
13 -15 27 -19 50 -15 25 4 27 3 11 -5 -22 -10 -734 -75 -742 -67 -3 2 0 13 6
24 5 10 12 36 14 56 2 22 14 47 30 64 23 24 54 119 42 130 -2 2 10 25 26 50
21 34 29 58 29 93 0 29 8 61 19 81 10 18 22 47 26 65 7 34 22 35 57 5z m6448
-442 c223 -200 407 -365 409 -367 8 -6 -70 -82 -148 -145 -41 -32 -77 -56 -82
-51 -8 9 -639 958 -653 983 -5 8 9 -1 30 -21 21 -20 221 -199 444 -399z
m-9326 380 c-15 -22 -34 -40 -42 -40 -11 0 -3 14 23 40 21 22 40 40 42 40 2 0
-9 -18 -23 -40z m7659 -467 c-174 -280 -318 -510 -319 -512 -10 -12 -237 174
-232 191 3 8 859 828 865 828 1 0 -141 -228 -314 -507z m-6919 439 c2 -4 -2
-15 -9 -25 -15 -20 -28 -8 -19 17 7 17 20 21 28 8z m-147 -28 c-3 -3 -12 -4
-19 -1 -8 3 -5 6 6 6 11 1 17 -2 13 -5z m-653 -26 c-1 -11 -526 -867 -550
-897 -10 -12 -237 174 -232 190 8 23 754 728 768 726 8 -2 14 -10 14 -19z
m498 10 c-4 -4 -49 -10 -100 -14 -81 -6 -92 -5 -87 9 5 12 24 15 100 14 52 -1
91 -5 87 -9z m101 5 c-13 -2 -33 -2 -45 0 -13 2 -3 4 22 4 25 0 35 -2 23 -4z
m8392 -541 c153 -287 276 -524 274 -526 -10 -9 -237 -95 -258 -98 -23 -3 -26
2 -47 87 -40 166 -113 468 -178 740 -36 149 -70 285 -75 304 -6 19 -6 30 -2
25 5 -5 133 -244 286 -532z m-8814 491 c32 -3 59 -7 59 -8 0 -14 -503 -1015
-511 -1015 -20 0 -259 134 -259 146 0 5 547 883 561 900 7 9 20 8 50 -2 22 -8
67 -17 100 -21z m573 -39 c15 -64 16 -78 5 -85 -8 -5 -50 -30 -94 -57 -44 -27
-81 -49 -82 -48 -4 3 -33 204 -33 224 0 18 41 28 171 40 11 2 20 -18 33 -74z
m54 -42 c-14 -17 -20 -9 -35 46 -19 74 -14 81 16 22 21 -40 26 -59 19 -68z
m578 -133 c153 -138 280 -254 282 -259 1 -4 -50 -10 -115 -14 -65 -4 -125 -9
-134 -12 -11 -3 -59 61 -179 240 -136 205 -161 249 -156 271 4 14 10 25 14 25
5 0 134 -113 288 -251z m6799 -20 c-30 -145 -86 -406 -122 -579 -36 -173 -68
-317 -69 -319 -9 -11 -283 83 -284 97 -1 10 524 1069 528 1066 2 -1 -22 -121
-53 -265z m-7685 225 c0 -20 -30 -268 -33 -269 -1 -1 -45 -14 -97 -30 -52 -15
-105 -37 -117 -48 -30 -26 -30 -28 15 178 l37 170 70 6 c126 10 125 10 125 -7z
m-256 -184 l-38 -181 -33 6 c-39 7 -40 3 -12 -64 l22 -51 -68 -323 c-38 -177
-70 -324 -71 -326 -10 -12 -284 85 -284 100 0 17 511 1031 517 1025 3 -3 -12
-87 -33 -186z m301 66 c9 -65 15 -119 13 -120 -14 -8 -61 -26 -63 -24 -2 2 4
63 12 136 9 73 17 131 19 130 1 -2 10 -56 19 -122z m8025 -532 c38 -275 70
-508 70 -517 0 -15 -16 -17 -150 -17 -82 0 -150 3 -150 8 0 4 29 267 65 585
36 318 66 584 66 590 2 24 30 -160 99 -649z m-7349 390 c83 -124 149 -227 147
-229 -5 -5 -279 -28 -282 -24 -7 8 -186 346 -186 351 0 3 28 24 63 46 34 23
68 50 75 62 7 11 17 20 22 20 5 0 78 -102 161 -226z m-249 -85 c48 -90 88
-167 88 -170 0 -3 -28 -7 -62 -8 -35 -1 -72 -3 -83 -4 -17 -2 -24 16 -56 148
-21 83 -38 157 -38 166 -1 16 35 40 53 35 6 -1 49 -76 98 -167z m-137 -19 c19
-79 35 -149 35 -156 0 -11 -83 -22 -210 -27 l-34 -2 -12 85 c-19 132 -20 127
34 154 26 14 70 40 97 59 28 19 51 34 52 33 1 -1 18 -67 38 -146z m-236 -156
c1 -30 -1 -32 -45 -38 -74 -10 -74 -10 -68 27 3 17 11 42 17 55 8 17 8 25 -1
34 -26 26 -14 57 31 76 l42 19 12 -71 c6 -39 12 -85 12 -102z m1355 4 c-45
-55 -79 -88 -89 -88 -6 0 -33 22 -60 50 l-48 49 74 4 c41 1 89 4 108 5 l34 2
-19 -22z m-1729 -30 c29 -45 64 -68 136 -88 57 -16 64 -20 62 -41 -6 -67 -55
-504 -57 -507 -6 -5 -224 29 -262 41 l-40 12 66 307 c36 170 67 308 70 308 3
-1 14 -15 25 -32z m1563 -20 c31 -29 59 -54 61 -56 8 -5 -72 -82 -148 -144
-41 -32 -77 -56 -82 -51 -4 4 -48 69 -98 145 l-89 136 96 7 c54 3 104 8 112 9
65 14 91 6 148 -46z m-278 -129 c81 -121 91 -142 79 -154 -23 -23 -232 -146
-242 -142 -12 4 -238 427 -229 428 101 12 280 23 288 17 6 -5 53 -71 104 -149z
m-305 -90 c65 -121 115 -221 114 -222 -49 -30 -271 -109 -280 -99 -5 6 -129
508 -129 525 0 5 24 8 147 15 31 2 32 1 148 -219z m-290 89 c55 -230 95 -393
100 -409 6 -17 -30 -28 -180 -55 -134 -24 -115 -54 -159 264 -21 152 -39 282
-40 287 -1 10 82 20 195 23 l57 2 27 -112z m-263 -178 c20 -146 37 -275 38
-287 0 -23 -1 -23 -150 -23 -91 0 -150 4 -150 10 0 16 50 453 55 488 4 19 12
32 20 32 8 0 15 9 15 19 0 23 19 30 84 28 l50 -2 38 -265z"/>
</g>
</svg>
