<?xml version="1.0" standalone="no"?>
<!DOCTYPE svg PUBLIC "-//W3C//DTD SVG 20010904//EN"
 "http://www.w3.org/TR/2001/REC-SVG-20010904/DTD/svg10.dtd">
<svg version="1.0" xmlns="http://www.w3.org/2000/svg"
 width="1280.000000pt" height="1024.000000pt" viewBox="0 0 1280.000000 1024.000000"
 preserveAspectRatio="xMidYMid meet">
<metadata>
Created by potrace 1.16, written by Peter Selinger 2001-2019
</metadata>
<g transform="translate(0.000000,1024.000000) scale(0.100000,-0.100000)"
fill="#000000" stroke="none">
<path d="M8273 8611 c-163 -5 -184 -8 -210 -27 -49 -36 -75 -84 -70 -126 3
-20 57 -167 120 -325 119 -296 145 -369 134 -379 -16 -16 -2883 -713 -3414
-829 -18 -4 -26 5 -56 68 -19 39 -69 162 -111 272 -227 587 -277 692 -346 729
-84 45 -206 -20 -217 -116 -7 -57 18 -134 212 -658 79 -212 150 -409 159 -439
l16 -54 -42 -56 c-70 -92 -453 -571 -947 -1181 -727 -898 -1029 -1276 -1061
-1327 -35 -54 -37 -91 -11 -148 36 -78 50 -84 237 -106 201 -22 600 -60 1349
-129 868 -79 1128 -107 1216 -131 30 -7 52 -28 110 -100 84 -104 145 -156 233
-199 86 -42 167 -60 266 -60 214 1 372 84 510 271 29 38 55 69 58 69 4 1 77
-23 164 -52 l156 -53 7 -142 7 -143 156 0 155 0 -6 137 c-4 75 -7 158 -7 184
l0 48 -52 19 c-29 10 -159 58 -289 107 l-236 87 -12 81 c-7 45 -21 116 -32
159 -10 42 -19 86 -19 97 0 53 119 206 839 1076 861 1041 1279 1535 1364 1614
14 12 30 20 35 17 10 -6 92 -194 426 -977 415 -975 551 -1244 763 -1517 131
-167 358 -394 435 -433 136 -69 272 56 213 196 -8 20 -56 79 -107 133 -195
204 -449 548 -536 726 -58 119 -277 622 -622 1426 -567 1322 -834 1964 -827
1984 8 19 132 26 467 26 331 0 398 -7 479 -46 68 -33 159 -122 189 -185 114
-237 -38 -506 -321 -565 -38 -8 -78 -19 -87 -24 -19 -10 -30 -58 -30 -132 0
-57 -6 -56 132 -28 126 26 202 57 282 114 122 87 210 215 236 343 18 85 8 244
-20 318 -31 83 -101 186 -163 240 -61 54 -171 111 -242 125 -51 10 -597 30
-760 28 -49 -1 -172 -4 -272 -7z m85 -1228 c11 -16 33 -58 50 -95 l31 -68
-442 -532 c-242 -293 -755 -913 -1140 -1378 -385 -465 -707 -853 -716 -862
-16 -17 -19 -17 -71 3 -60 23 -163 43 -277 54 -71 7 -72 7 -86 44 -141 351
-767 1999 -767 2017 0 8 20 24 44 34 39 18 665 169 2701 655 352 84 643 154
647 154 4 1 15 -11 26 -26z m-3569 -1393 c73 -190 243 -633 378 -985 135 -352
246 -644 246 -650 -1 -5 -35 -68 -77 -140 -42 -71 -82 -147 -88 -167 -13 -46
3 -44 -251 -18 -105 10 -424 40 -707 65 -961 84 -1309 120 -1324 135 -15 15 4
47 110 187 103 135 171 220 1003 1243 586 721 562 693 571 683 4 -5 67 -163
139 -353z"/>
<path d="M4389 5669 c-52 -54 -149 -179 -150 -192 -5 -45 13 -82 107 -229 88
-138 194 -356 243 -500 22 -65 56 -191 76 -280 20 -89 38 -164 39 -166 5 -4
329 -43 332 -39 4 4 -36 263 -51 332 -54 245 -179 553 -317 784 -57 94 -182
264 -221 300 l-26 24 -32 -34z"/>
<path d="M4086 5090 c-166 -97 -376 -264 -376 -299 0 -24 35 -6 221 110 236
148 269 173 269 205 0 36 -33 31 -114 -16z"/>
<path d="M4262 4420 c-121 -25 -136 -30 -124 -42 5 -5 73 -8 165 -6 165 3 193
11 171 46 -16 24 -98 25 -212 2z"/>
<path d="M3510 8451 c-274 -8 -304 -13 -381 -67 -77 -53 -119 -121 -119 -191
0 -52 19 -76 80 -102 107 -46 383 -101 507 -101 83 0 106 7 290 93 l139 64
429 6 c431 5 525 12 574 44 21 13 23 21 19 69 -8 94 -73 141 -236 169 -102 18
-889 27 -1302 16z"/>
<path d="M2275 6525 c-460 -60 -897 -251 -1258 -548 -188 -155 -374 -362 -507
-563 -176 -267 -319 -639 -364 -949 -34 -229 -28 -657 10 -845 62 -298 197
-628 365 -885 245 -378 564 -659 974 -860 331 -162 560 -222 941 -245 445 -27
856 56 1239 250 234 118 404 241 604 435 312 303 515 618 630 978 35 108 39
152 16 161 -24 9 -236 28 -274 24 -32 -3 -35 -6 -63 -83 -65 -178 -210 -441
-341 -615 -133 -179 -354 -379 -552 -500 -233 -143 -518 -249 -795 -295 -134
-23 -402 -30 -541 -16 -485 51 -921 262 -1280 620 -341 339 -546 755 -610
1231 -16 117 -16 395 0 510 67 477 280 917 605 1244 336 338 775 551 1275 616
46 6 154 11 240 11 298 0 526 -50 880 -191 56 -22 107 -40 115 -40 7 0 42 37
78 83 91 116 121 164 113 178 -5 6 -53 33 -109 59 -271 127 -523 203 -786 236
-140 17 -466 17 -605 -1z"/>
<path d="M10185 6533 c-336 -11 -685 -65 -702 -108 -11 -31 94 -305 117 -305
6 0 55 11 108 25 53 13 140 29 192 35 124 14 537 14 643 0 188 -26 384 -88
592 -190 652 -318 1095 -939 1185 -1660 13 -108 13 -380 0 -490 -95 -782 -593
-1436 -1319 -1730 -280 -114 -407 -135 -811 -135 -339 1 -394 9 -632 91 -602
210 -1023 594 -1282 1169 -131 293 -170 491 -170 870 0 309 45 545 151 795
108 253 240 441 501 712 61 64 112 121 112 126 0 11 -75 192 -105 255 -11 22
-26 37 -36 37 -26 0 -117 -79 -259 -226 -230 -237 -327 -369 -451 -613 -114
-223 -186 -450 -225 -706 -15 -97 -19 -179 -19 -435 0 -352 8 -416 81 -659
127 -422 312 -729 629 -1046 307 -308 630 -504 1023 -620 249 -73 403 -95 692
-95 320 0 536 30 768 107 642 212 1150 649 1446 1244 240 482 317 1021 221
1543 -74 401 -244 775 -492 1084 -163 203 -444 459 -618 561 -239 141 -552
266 -820 326 -105 23 -331 47 -410 43 -16 -1 -66 -3 -110 -5z"/>
<path d="M2204 5943 c3 -15 39 -221 81 -458 118 -672 156 -845 184 -845 39 0
22 144 -93 795 -47 264 -86 491 -88 505 -3 22 -9 25 -46 28 -43 3 -44 3 -38
-25z"/>
<path d="M9870 5903 c1 -156 87 -616 135 -717 17 -36 52 -73 60 -64 3 2 -13
110 -35 239 -96 557 -108 609 -145 609 -12 0 -15 -15 -15 -67z"/>
<path d="M10592 5957 c-13 -16 -68 -260 -142 -635 -89 -450 -114 -601 -101
-629 16 -34 29 -28 42 20 74 277 249 1119 249 1203 0 38 -30 63 -48 41z"/>
<path d="M2950 5936 c-5 -13 -54 -226 -110 -473 -55 -246 -103 -458 -105 -470
-8 -35 16 -28 43 11 34 50 55 111 105 311 60 236 107 471 114 568 6 74 5 77
-16 77 -14 0 -25 -9 -31 -24z"/>
<path d="M1530 5679 c0 -25 6 -35 273 -464 494 -793 516 -823 525 -742 6 49
-132 286 -462 792 -248 382 -336 491 -336 414z"/>
<path d="M11225 5592 c-98 -132 -410 -581 -562 -809 -109 -164 -154 -239 -151
-255 8 -61 47 -18 282 312 173 241 477 693 506 751 26 50 25 69 -2 69 -17 0
-37 -20 -73 -68z"/>
<path d="M1000 5185 c-6 -8 -9 -19 -5 -24 9 -15 359 -275 598 -445 340 -241
576 -396 602 -396 73 0 -15 80 -348 318 -353 252 -807 562 -822 562 -7 0 -18
-7 -25 -15z"/>
<path d="M8635 5190 c-12 -19 23 -58 118 -133 138 -111 527 -377 549 -377 16
0 -49 84 -109 141 -91 88 -335 266 -484 352 -50 29 -64 33 -74 17z"/>
<path d="M11643 5036 c-256 -154 -874 -555 -963 -625 -23 -19 -24 -21 -9 -37
11 -10 24 -14 38 -9 52 16 636 382 946 592 196 133 224 163 156 163 -18 0 -81
-31 -168 -84z"/>
<path d="M704 4507 c-10 -26 1 -33 88 -61 137 -43 1240 -291 1328 -298 31 -3
35 0 35 21 0 20 -9 27 -55 43 -145 50 -1164 281 -1337 304 -43 5 -54 4 -59 -9z"/>
<path d="M8347 4513 c-16 -15 -5 -35 28 -49 79 -33 461 -124 1005 -239 118
-25 225 -48 238 -50 33 -8 29 27 -5 47 -63 36 -321 105 -778 207 -392 87 -472
101 -488 84z"/>
<path d="M11535 4355 c-707 -128 -775 -144 -775 -184 0 -17 6 -21 37 -21 40 0
787 130 1058 185 219 44 250 55 250 86 0 18 -6 24 -25 26 -14 1 -259 -40 -545
-92z"/>
<path d="M9695 4023 c-82 -11 -649 -109 -865 -149 -470 -86 -510 -96 -510
-120 0 -24 27 -27 138 -14 203 23 1270 208 1327 230 63 24 -7 65 -90 53z"/>
<path d="M1955 4008 c-153 -23 -867 -153 -1010 -183 -222 -48 -267 -62 -263
-83 7 -34 152 -14 918 124 514 92 560 103 560 134 0 18 -7 20 -72 19 -40 -1
-100 -6 -133 -11z"/>
<path d="M10767 3993 c-4 -3 -7 -21 -7 -39 0 -22 5 -34 18 -38 23 -7 956 -211
1106 -242 116 -23 187 -30 199 -18 35 36 -136 84 -895 253 -455 102 -412 93
-421 84z"/>
<path d="M9675 3777 c-223 -137 -578 -361 -880 -555 -120 -77 -201 -135 -203
-146 -8 -37 14 -38 86 -2 196 99 1071 651 1210 763 34 28 40 38 31 49 -6 8
-19 14 -28 14 -9 0 -106 -55 -216 -123z"/>
<path d="M2145 3851 c-93 -50 -269 -164 -665 -426 -489 -324 -520 -347 -520
-380 0 -14 5 -25 12 -25 41 0 1021 637 1196 777 39 32 54 65 34 77 -4 2 -30
-8 -57 -23z"/>
<path d="M9913 3708 c-228 -307 -762 -1081 -794 -1152 -14 -30 -1 -53 25 -43
37 14 645 870 835 1175 42 67 50 86 40 98 -21 26 -37 14 -106 -78z"/>
<path d="M10657 3784 c-26 -26 83 -118 443 -371 411 -289 636 -433 677 -433
29 0 29 22 1 53 -54 58 -1067 757 -1098 757 -9 0 -20 -3 -23 -6z"/>
<path d="M2270 3683 c-135 -153 -597 -814 -748 -1069 -48 -81 -54 -117 -19
-112 16 2 73 75 219 283 387 549 608 886 608 926 0 30 -15 23 -60 -28z"/>
<path d="M10104 3663 c-65 -153 -322 -1337 -312 -1436 4 -44 30 -42 45 5 26
78 319 1371 325 1433 2 25 -1 31 -20 33 -18 3 -26 -4 -38 -35z"/>
<path d="M10465 3670 c-4 -6 5 -35 19 -65 53 -116 599 -964 700 -1087 73 -90
102 -69 50 35 -15 28 -133 218 -262 422 -418 657 -479 741 -507 695z"/>
<path d="M2462 3633 c-28 -55 -110 -379 -207 -818 -125 -567 -133 -615 -96
-615 23 0 43 55 90 245 78 310 264 1174 257 1192 -8 19 -34 16 -44 -4z"/>
<path d="M10260 3630 c0 -21 143 -838 217 -1239 21 -113 43 -206 49 -208 7 -2
19 4 28 13 28 27 18 96 -115 864 -114 656 -97 584 -142 588 -32 3 -37 0 -37
-18z"/>
<path d="M2630 3617 c0 -45 184 -1130 223 -1320 15 -70 30 -97 53 -97 10 0 14
13 14 45 0 161 -199 1296 -242 1378 -13 26 -48 22 -48 -6z"/>
<path d="M2835 3620 c-8 -13 -27 17 349 -570 175 -272 335 -515 355 -540 41
-48 71 -63 71 -34 0 73 -617 1063 -704 1129 -35 26 -61 32 -71 15z"/>
<path d="M3245 3570 c23 -37 853 -600 885 -600 31 0 25 32 -12 67 -106 98
-651 473 -762 524 -43 20 -122 26 -111 9z"/>
</g>
</svg>
