<?xml version="1.0" encoding="utf-8"?>
<!-- Svg Vector Icons : http://www.onlinewebfonts.com/icon -->
<!DOCTYPE svg PUBLIC "-//W3C//DTD SVG 1.1//EN" "http://www.w3.org/Graphics/SVG/1.1/DTD/svg11.dtd">
<svg version="1.1" xmlns="http://www.w3.org/2000/svg" xmlns:xlink="http://www.w3.org/1999/xlink" x="0px" y="0px" viewBox="0 0 1000 1000" enable-background="new 0 0 1000 1000" xml:space="preserve">
<metadata> Svg Vector Icons : http://www.onlinewebfonts.com/icon </metadata>
<g><g transform="translate(0.000000,511.000000) scale(0.100000,-0.100000)"><path d="M2696.1,2808.2c-323.5-115-411.1-526.1-157.8-748.2c85.7-74.1,159.8-109.1,278.6-128.6l81.8-13.6v68.2c0,64.3-3.9,70.2-77.9,81.8c-317.6,52.6-399.4,434.5-126.7,588.5c72.1,40.9,101.3,44.8,424.8,44.8c189,0,344.9-7.8,344.9-17.5c0-39-1099-2613-1161.3-2718.2c-97.4-165.6-321.5-457.9-415-541.7c-89.6-79.9-105.2-161.7-44.8-216.3c76-68.2,138.3-42.9,296.2,118.8c290.3,296.2,391.7,479.4,761.9,1352.3c181.2,428.7,337.1,793.1,346.8,808.6c11.7,21.4,257.2-263.1,896.3-1036.6C5007-590.1,5026.5-615.4,5003.1-668c-11.7-31.2-27.3-97.4-35.1-148.1l-13.6-91.6l-224.1-83.8l-224.1-81.8l-5.8-138.3l-5.8-140.3h116.9h116.9l5.8,111.1l5.8,109.1l128.6,42.9l128.6,44.8l66.2-89.6c173.4-233.8,528.1-247.5,719-29.2c37,42.9,77.9,91.6,87.7,109.1c17.5,29.2,173.4,46.8,1081.4,128.6c584.6,52.6,1075.6,101.3,1095.1,109.1c17.5,7.8,42.9,39,54.6,70.1c21.4,46.8,19.5,64.3-11.7,109.1c-19.5,31.2-385.8,487.1-814.5,1015.2c-430.6,530-783.3,972.3-787.2,984c-2,13.6,66.2,206.5,152,430.6c85.8,224.1,155.9,426.7,155.9,450.1c0,56.5-39,103.3-99.4,116.9c-93.5,23.4-136.4-46.8-292.3-461.8c-79.9-212.4-152-385.8-163.7-385.8c-37,0-2683.1,639.1-2692.9,650.8c-7.8,5.9,37,130.6,97.4,274.7c62.4,144.2,111.1,276.7,111.1,292.3s-17.5,46.8-39,68.2c-37,37-64.3,39-491,39C2890.9,2835.5,2752.6,2827.7,2696.1,2808.2z M4558.9,1648.8c582.6-140.3,1178.9-282.5,1326.9-317.6c245.5-56.5,267-66.3,259.2-101.3c-5.8-21.4-146.1-389.7-309.8-818.4l-300.1-779.4l-118.8-13.6c-64.3-7.8-136.4-23.4-159.8-35.1c-23.4-11.7-44.8-19.5-46.8-15.6c-3.9,3.9-411.1,494.9-908,1095.1l-900.2,1087.3l35.1,76c17.5,42.9,40.9,76,48.7,76S3976.2,1787.2,4558.9,1648.8z M7171.8,99.7c535.8-658.6,551.4-682,502.7-695.6c-27.3-7.8-409.2-44.8-849.6-83.8c-438.4-37-828.1-74-861.3-79.9c-46.8-5.9-64.3-2-64.3,17.5c0,13.6-31.2,76-68.2,138.4l-68.2,113l280.6,734.6c155.9,403.3,292.3,758,304,789.2l19.5,54.6l124.7-152C6560,849.9,6865.9,475.8,7171.8,99.7z"/><path d="M6439.2,432.9c-177.3-241.6-319.6-592.4-354.6-876.8l-15.6-113l124.7,13.6c68.2,7.8,126.7,15.6,128.6,17.5c1.9,1.9,17.5,72.1,35.1,157.8c42.9,204.6,128.6,409.2,247.5,586.5c58.5,87.7,89.6,153.9,81.8,167.6c-29.2,50.7-132.5,171.5-144.2,171.5C6536.6,557.6,6489.8,501.1,6439.2,432.9z"/><path d="M6729.5,115.3c-25.3-25.3-5.8-42.9,159.8-146.1c235.8-148.1,233.8-148.1,179.3-79.9C7014-46.4,6747.1,132.9,6729.5,115.3z"/><path d="M6517.1-430.3c-35.1-33.1-2-44.8,138.3-42.9c120.8,2,136.4,5.9,81.8,17.5C6599-424.4,6528.8-416.6,6517.1-430.3z"/><path d="M6279.4,2703c-136.4-17.5-200.7-52.6-218.2-115c-23.4-91.6,13.6-101.3,422.8-107.2l380-3.9l140.3-66.3c124.7-58.5,152-64.3,243.6-52.6c216.3,29.2,366.3,72.1,387.8,113c31.2,56.5-11.7,142.2-97.4,194.9c-68.2,42.9-85.7,44.8-606,46.8C6637.9,2714.7,6343.7,2710.8,6279.4,2703z"/><path d="M1739.3,1200.6c-257.2-40.9-594.3-173.4-808.6-317.6c-118.9-79.9-337.1-290.3-438.4-424.8C196.1,76.3,55.8-434.2,112.3-913.5c93.5-787.2,629.4-1418.5,1393.2-1638.7c251.4-72.1,627.4-85.8,888.5-31.2c399.4,81.8,732.6,268.9,1013.2,565.1c194.9,204.6,325.4,417,415,668.3c91.6,255.3,116.9,432.6,103.3,742.4c-13.6,374.1-107.2,660.5-317.6,984c-87.7,134.4-413.1,465.7-434.5,442.3c-7.8-9.7-35.1-64.3-58.5-122.8l-42.9-103.3l134.4-140.3c339.1-348.8,489.1-740.5,465.7-1227.6c-13.6-278.6-44.8-407.2-159.8-648.9c-220.2-454-592.4-756-1110.7-898.3c-183.2-50.7-617.7-44.8-814.5,11.7C854.7-2102.1,363.7-1459.1,359.8-708.9C355.9,78.3,903.4,758.3,1680.9,929.8c157.8,35.1,572.9,31.2,711.2-7.8c58.5-15.6,109.1-29.2,111.1-27.3c21.4,25.3,97.4,229.9,85.7,237.7C2491.5,1190.9,1959.5,1233.8,1739.3,1200.6z"/><path d="M7701.8,1198.7c-150-21.4-356.6-83.8-514.4-155.9c-70.1-31.2-130.5-62.3-134.4-66.3c-5.8-3.9,23.4-50.7,64.3-101.3c40.9-52.6,76-95.5,77.9-99.4c1.9-2,64.3,21.4,140.3,52.6c286.4,116.9,570.9,157.8,855.4,118.9c645-85.7,1165.2-512.5,1371.8-1126.3c265-793.1-91.6-1636.8-851.5-2018.7c-676.2-339-1541.3-146.1-2014.8,450.1C6591.2-1615,6460.6-1383.1,6410-1237l-23.4,64.3l-116.9-7.8c-64.3-3.9-120.8-13.7-126.7-19.5c-15.6-13.6,60.4-231.9,122.8-356.6c85.7-173.4,237.7-374.1,401.4-532c276.7-265,598.2-430.6,980.1-502.7c247.5-46.8,615.7-29.2,853.5,39c713.2,208.5,1219.8,763.8,1375.7,1502.3c13.6,64.3,25.4,231.9,23.4,370.2c-1.9,204.6-11.7,290.3-50.7,440.4c-89.6,341-233.8,602.1-469.6,849.6C8941.1,1074,8327.3,1288.3,7701.8,1198.7z"/><path d="M1696.4,756.4c-15.6-9.7,7.8-150,83.8-500.8c58.4-267,111.1-489.1,115-493c5.8-5.8,15.6,5.8,21.4,25.3c9.7,25.3-175.4,952.8-194.9,978.2C1719.8,768.1,1708.1,764.2,1696.4,756.4z"/><path d="M2245.9,729.1c-15.6-76-107.2-594.3-107.2-611.8c0-9.7,15.6,5.8,33.1,31.2C2218.7,214.7,2316.1,772,2281,772C2267.4,772,2251.8,752.5,2245.9,729.1z"/><path d="M7660.9,758.3c-27.3-9.7,113-645,157.8-715.1c39-58.5,48.7-64.3,37-15.6c-3.9,17.5-42.9,191-85.7,381.9c-42.9,192.9-79.9,350.7-83.8,352.7C7684.3,764.2,7672.6,764.2,7660.9,758.3z"/><path d="M8218.2,758.3c0-9.7-39-233.8-87.7-500.8c-68.2-380-81.8-493-64.3-514.4c19.5-21.4,42.9,81.8,116.9,494.9c50.7,288.4,93.5,526.1,93.5,530c0,1.9-13.6,3.9-29.2,3.9S8218.2,766.1,8218.2,758.3z"/><path d="M8467.6,99.7c-202.6-315.7-298.1-481.3-286.4-498.8c7.8-13.6,19.5-21.4,23.4-17.5c37,48.7,598.2,943.1,598.2,956.7C8802.8,606.3,8734.6,514.8,8467.6,99.7z"/><path d="M1156.7,520.6c-13.6-21.4,586.5-888.5,613.8-888.5c9.7,0,17.5,9.7,17.5,19.5c2,21.4-574.8,859.3-604,876.8C1174.2,534.2,1162.5,530.4,1156.7,520.6z"/><path d="M3021.5,31.5c-109.1-76-220.2-165.6-243.6-200.7l-44.8-62.4l60.4,39c356.6,233.8,512.5,360.5,442.3,360.5C3226,167.9,3130.6,105.6,3021.5,31.5z"/><path d="M8724.8-153.6C8315.6-440,8222.1-516,8286.4-514.1c39,1.9,945,646.9,935.3,664.5c-7.8,9.7-17.5,17.5-25.3,17.5C9188.6,166,8976.2,21.8,8724.8-153.6z"/><path d="M749.5,95.8c-9.7-17.5,861.2-576.8,892.4-574.8c9.7,0,21.4,7.8,23.4,17.5c5.8,17.5-853.5,570.9-886.6,570.9C767,109.5,753.4,103.6,749.5,95.8z"/><path d="M2959.1-465.4c-380-87.7-512.5-130.5-483.2-159.8c2-1.9,229.9,46.8,506.6,107.2c327.4,72.1,500.8,118.9,500.8,136.4C3483.3-348.4,3465.7-350.4,2959.1-465.4z"/><path d="M8857.3-480.9c-360.5-79.9-541.7-128.6-541.7-144.2c0-13.6,5.8-25.3,13.7-25.3c7.8,0,263,54.6,565.1,120.8c380,83.8,551.4,128.6,551.4,146.1C9445.8-350.4,9471.1-344.5,8857.3-480.9z"/><path d="M541-440c0-21.4,111.1-46.8,473.5-111.1c259.2-44.8,494.9-87.7,526.1-93.5c37-7.8,52.6-1.9,52.6,17.5c0,21.4-113,48.7-473.5,111.1c-259.2,46.8-494.9,87.7-524.2,93.5C556.6-414.7,541-420.5,541-440z"/><path d="M2345.3-765.4c-13.6-21.4-31.2-17.5,600.1-128.6c276.7-50.7,518.3-83.8,535.8-76c27.3,9.7,25.3,13.7-7.8,29.2c-42.9,17.5-1023,192.9-1081.4,192.9C2372.6-747.9,2351.2-755.7,2345.3-765.4z"/><path d="M8315.6-765.4c0-21.4,42.9-31.2,646.9-138.3c485.2-85.7,508.6-87.7,498.8-54.6c-5.8,13.6-216.3,60.4-524.2,115C8403.3-746,8315.6-736.2,8315.6-765.4z"/><path d="M1069-882.4c-280.6-62.3-498.8-120.8-504.7-134.4c-11.7-35.1,3.9-33.1,531.9,83.8c267,58.5,487.1,107.2,491,107.2s5.8,13.7,5.8,29.2c0,15.6-5.8,27.3-13.6,27.3C1569.8-771.3,1341.8-821.9,1069-882.4z"/><path d="M2247.9-860.9c-13.6-23.4,1007.4-668.3,1028.8-646.9c9.7,9.7,15.6,21.4,9.7,25.3c-37,33.1-995.7,637.2-1011.3,637.2C2265.4-845.3,2253.7-851.2,2247.9-860.9z"/><path d="M8276.7-892.1c0-23.4,929.5-635.2,964.5-635.2c7.8,0,9.7,13.6,5.8,29.2c-3.9,21.4-931.4,633.3-962.6,633.3C8280.6-864.8,8276.7-876.5,8276.7-892.1z"/><path d="M1250.2-1201.9c-214.3-152-409.2-290.3-432.6-305.9c-25.3-17.5-37-39-27.3-52.6c9.7-15.6,153.9,76,452.1,282.5c395.5,276.7,467.6,337.1,415,346.8C1649.7-929.1,1466.5-1051.9,1250.2-1201.9z"/><path d="M2170-938.8c-11.7-19.5,664.5-987.9,689.8-987.9c11.7,0,19.5,9.7,19.5,19.5c0,25.3-666.4,984-685.9,984C2185.5-923.3,2175.8-931.1,2170-938.8z"/><path d="M8183.1-979.8c-15.6-9.7,83.8-167.6,300.1-481.3c179.3-255.3,329.3-469.6,333.2-473.5c3.9-5.8,15.6,0,25.3,9.7C8867.1-1899.5,8214.3-960.3,8183.1-979.8z"/><path d="M2060.8-1010.9c0-29.2,255.3-1147.7,263-1155.5c46.8-46.8,25.3,103.3-85.7,596.3c-87.7,393.6-134.4,569-152,569C2072.5-1001.2,2060.8-1005.1,2060.8-1010.9z"/><path d="M1597.1-1309.1c-99.4-157.8-231.9-366.3-296.2-465.7c-83.8-128.6-107.2-181.2-87.7-189c17.5-5.8,116.9,132.5,309.8,432.6c304,477.4,323.5,510.5,282.5,510.5C1790-1022.6,1696.4-1151.2,1597.1-1309.1z"/><path d="M1924.4-1063.6c0-13.6-44.8-267-97.4-561.2c-72.1-401.4-89.6-537.8-72.1-549.5c13.6-7.8,25.3-7.8,27.3,0c5.8,17.5,200.7,1112.6,200.7,1124.3c0,5.8-13.6,9.7-29.2,9.7C1938.1-1040.2,1924.4-1051.9,1924.4-1063.6z"/><path d="M7914.2-1055.8c-31.2-21.4-220.2-1114.6-191-1114.6c13.6,0,29.2,15.6,35.1,35.1c19.5,68.2,189,1060,183.1,1077.5C7937.6-1049.9,7925.9-1048,7914.2-1055.8z"/><path d="M8042.8-1053.8c0-7.8,54.6-263.1,120.8-565.1c85.7-389.7,128.6-551.4,146.1-551.4c31.2,0,37-31.2-107.2,621.6c-66.3,294.2-120.8,498.8-134.5,504.7C8054.5-1040.2,8042.8-1044.1,8042.8-1053.8z"/><path d="M7676.5-1141.5c-241.6-354.6-510.5-802.8-493-820.3c11.7-11.7,46.8,25.3,105.2,115c46.8,74.1,173.4,270.8,278.6,436.5c107.2,165.6,200.7,313.7,210.5,327.4c7.8,13.6,3.9,23.4-15.6,23.4C7746.6-1059.7,7707.7-1096.7,7676.5-1141.5z"/><path d="M7064.7-1314.9c-282.5-196.8-344.9-251.4-286.4-251.4c17.5,0,491,321.5,639.1,432.6l46.7,35.1h-46.7C7390.1-1098.6,7245.9-1186.3,7064.7-1314.9z"/></g></g>
</svg>