<?xml version="1.0" standalone="no"?>
<!DOCTYPE svg PUBLIC "-//W3C//DTD SVG 20010904//EN"
 "http://www.w3.org/TR/2001/REC-SVG-20010904/DTD/svg10.dtd">
<svg version="1.0" xmlns="http://www.w3.org/2000/svg"
 width="1280.000000pt" height="720.000000pt" viewBox="0 0 1280.000000 720.000000"
 preserveAspectRatio="xMidYMid meet">
<metadata>
Created by potrace 1.16, written by Peter Selinger 2001-2019
</metadata>
<g transform="translate(0.000000,720.000000) scale(0.100000,-0.100000)"
fill="#000000" stroke="none">
<path d="M4310 4893 c-30 -2 -59 -8 -64 -14 -6 -5 -23 -9 -38 -9 -22 0 -29 -6
-34 -27 -3 -16 -8 -34 -10 -41 -7 -23 16 -203 38 -292 11 -47 40 -127 65 -178
24 -51 76 -188 114 -305 121 -369 230 -561 408 -718 40 -35 57 -56 48 -60 -6
-4 -104 -10 -217 -13 -113 -3 -215 -8 -226 -12 -20 -5 -25 3 -53 78 -62 163
-74 190 -111 247 -45 69 -198 248 -266 311 -75 70 -368 260 -400 260 -29 0
-54 -39 -54 -85 0 -51 12 -62 95 -89 28 -9 62 -24 76 -34 105 -69 160 -112
201 -155 32 -34 52 -48 63 -43 12 4 21 -5 34 -37 10 -23 47 -71 81 -107 34
-35 63 -70 64 -76 1 -6 11 -31 23 -55 12 -24 29 -60 37 -81 17 -38 21 -124 8
-145 -6 -9 -164 -14 -623 -19 -338 -4 -627 -4 -641 -1 -20 5 -27 15 -32 46 -3
22 -17 52 -30 68 -25 30 -104 231 -162 412 -43 137 -77 183 -140 185 l-39 1 2
-48 c4 -65 100 -349 162 -478 35 -73 67 -123 101 -158 38 -39 50 -59 50 -82 0
-69 57 -129 124 -129 28 0 66 -13 122 -41 44 -23 102 -43 127 -46 31 -4 53
-13 68 -29 12 -13 30 -24 40 -24 9 0 36 -9 60 -20 24 -11 56 -20 70 -20 14 0
34 -9 44 -20 9 -10 20 -18 24 -18 3 1 21 -6 40 -16 21 -11 44 -16 62 -12 22 4
31 1 39 -14 6 -11 19 -20 30 -20 10 0 22 -4 25 -10 3 -5 13 -10 22 -10 8 0 26
-9 40 -20 14 -11 34 -20 43 -20 10 0 23 -6 29 -14 7 -8 24 -17 39 -21 15 -3
47 -15 72 -26 133 -59 137 -66 96 -148 -67 -131 -161 -258 -280 -376 -174
-172 -234 -221 -254 -209 -21 13 -53 77 -88 174 -27 76 -135 302 -158 330 -21
25 -98 210 -93 223 7 17 199 -181 314 -324 109 -136 124 -149 151 -133 41 26
15 106 -70 215 -24 31 -100 118 -169 193 -70 75 -151 173 -182 219 -76 112
-99 133 -135 121 -15 -5 -31 -19 -37 -32 -6 -13 -19 -22 -32 -22 -22 0 -26 7
-38 67 -7 37 -21 51 -62 59 -64 13 -78 -37 -93 -326 -6 -107 -24 -342 -40
-521 -44 -476 -42 -499 40 -499 55 0 64 21 55 127 -7 80 11 268 35 383 26 117
32 212 25 376 -10 263 4 295 65 146 59 -142 121 -276 155 -332 18 -30 63 -127
100 -215 37 -88 73 -171 80 -185 36 -69 55 -133 44 -146 -6 -8 -17 -14 -25
-14 -7 0 -20 -7 -28 -16 -22 -22 -239 -118 -333 -147 -138 -43 -262 -60 -392
-54 -173 8 -395 60 -442 102 -29 27 -33 65 -10 96 12 16 21 33 21 39 0 7 18
46 39 88 22 42 51 100 64 127 40 85 195 362 295 530 118 198 177 320 192 391
l12 56 -72 76 c-40 42 -103 109 -140 147 -89 91 -216 249 -242 300 -48 96
-115 148 -159 124 -65 -34 60 -229 321 -499 50 -52 100 -112 111 -133 l20 -39
-31 7 c-35 8 -260 -19 -335 -40 -27 -8 -106 -23 -175 -35 -130 -22 -275 -54
-323 -72 -36 -14 -53 -44 -36 -65 14 -16 66 -14 159 6 52 12 106 22 477 97
122 24 283 33 283 15 0 -6 -17 -38 -39 -73 -21 -35 -66 -115 -101 -178 -34
-63 -101 -185 -147 -270 -47 -85 -102 -189 -122 -230 -20 -41 -69 -135 -109
-207 -40 -73 -72 -140 -72 -148 0 -44 -99 56 -176 180 -110 174 -171 337 -196
518 -13 102 -4 419 16 537 24 142 118 348 227 501 38 53 69 101 69 108 0 6 4
11 9 11 6 0 45 43 87 96 42 52 101 114 130 136 30 22 54 45 54 50 0 5 17 16
37 25 21 8 52 27 69 42 30 25 105 75 148 97 93 48 129 64 145 64 11 0 23 5 26
10 3 6 18 10 33 10 15 0 36 6 47 13 41 26 93 39 115 27 14 -8 26 -8 41 1 40
21 205 -7 248 -43 17 -15 41 -30 53 -33 13 -4 33 -16 44 -27 12 -11 28 -20 35
-22 8 -1 26 -10 42 -20 31 -21 94 -45 120 -46 32 0 18 19 -40 56 -32 21 -69
46 -83 56 -77 57 -212 144 -255 163 -27 12 -81 30 -120 38 -61 14 -76 15 -120
3 -27 -8 -72 -19 -100 -25 -27 -6 -91 -32 -142 -56 -50 -25 -98 -45 -106 -45
-7 0 -33 -13 -58 -29 -24 -15 -75 -49 -114 -73 -224 -145 -451 -396 -614 -680
-88 -154 -114 -218 -145 -353 -52 -231 -61 -485 -26 -689 16 -92 78 -284 99
-305 10 -10 21 -30 25 -45 3 -14 22 -47 41 -72 19 -25 35 -52 35 -61 0 -20 26
-52 125 -155 70 -72 86 -94 91 -128 9 -58 49 -75 105 -46 34 18 93 1 108 -30
6 -14 23 -24 45 -28 20 -4 36 -11 36 -16 0 -10 91 -25 240 -41 58 -6 119 -17
137 -26 23 -10 37 -12 51 -4 10 5 68 15 128 21 60 6 123 13 139 16 33 7 87 32
95 45 3 4 28 10 57 12 36 3 69 15 110 41 32 20 70 36 83 36 31 0 166 64 194
92 12 11 44 34 73 51 238 145 589 531 634 699 11 41 17 47 53 58 34 10 42 10
52 -4 6 -9 17 -16 25 -16 8 0 23 -7 33 -15 11 -8 27 -15 35 -15 9 0 27 -9 41
-20 14 -11 33 -20 43 -20 10 0 32 -7 48 -16 17 -8 38 -17 47 -19 78 -17 221
-68 296 -106 33 -16 67 -29 76 -29 9 0 56 -27 106 -60 49 -33 96 -60 104 -60
8 0 53 16 100 36 98 41 141 54 190 59 19 2 55 8 80 14 25 5 107 15 182 20 139
11 295 32 378 52 25 6 86 15 135 19 50 4 171 15 270 24 99 9 246 20 326 25 80
4 152 12 159 16 7 4 58 8 114 9 57 1 111 7 124 14 14 8 28 10 40 3 17 -9 515
3 560 14 13 3 22 1 22 -6 0 -8 18 -10 63 -4 161 18 215 21 250 12 27 -7 42 -6
50 2 6 6 34 11 62 11 27 0 66 5 85 10 19 6 82 13 140 16 90 4 107 7 123 25 24
30 21 71 -9 132 -25 49 -26 57 -21 157 10 163 73 370 162 525 47 82 311 422
365 470 l22 20 26 -32 c49 -58 152 -206 152 -218 0 -7 163 -240 198 -285 16
-19 37 -48 48 -65 10 -16 21 -32 25 -35 3 -3 18 -26 33 -52 15 -25 33 -52 41
-58 8 -7 15 -20 15 -30 0 -9 10 -25 21 -36 12 -10 25 -29 30 -42 14 -36 151
-223 176 -239 13 -9 23 -25 23 -39 0 -28 0 -28 -36 -9 -19 10 -32 11 -40 4 -7
-6 -32 -9 -56 -7 l-43 3 -7 50 c-7 48 -13 55 -143 185 -124 123 -215 241 -215
278 0 6 -6 12 -12 12 -7 0 -24 9 -38 20 -14 11 -33 20 -42 20 -23 0 -23 17 2
74 16 35 20 62 18 118 l-3 73 -52 -2 c-101 -4 -149 -50 -223 -212 -59 -131
-100 -250 -126 -371 -27 -122 -25 -360 5 -489 11 -52 25 -97 30 -100 8 -6 36
-93 48 -153 3 -15 14 -35 24 -44 10 -9 19 -24 19 -32 0 -44 174 -272 207 -272
5 0 14 -14 21 -30 8 -17 22 -35 32 -40 10 -5 43 -34 74 -65 31 -30 71 -62 89
-71 18 -9 53 -37 79 -63 60 -60 86 -81 99 -81 5 0 27 -9 47 -19 64 -34 144
-63 196 -72 62 -10 127 -24 181 -38 158 -42 508 36 578 128 7 9 30 26 52 37
107 57 220 132 233 154 8 14 32 36 54 50 65 40 168 172 168 214 0 15 12 35 33
53 18 15 41 48 52 73 10 25 28 59 40 75 36 49 72 126 106 226 17 52 41 112 53
134 20 38 21 53 20 310 -1 404 -15 488 -126 710 -74 148 -128 234 -161 258
-16 12 -39 40 -52 61 -27 45 -87 91 -225 170 -137 79 -344 156 -421 156 -19 0
-62 7 -94 16 -69 19 -137 19 -284 -2 -58 -8 -125 -14 -151 -14 -58 0 -90 -21
-90 -60 0 -86 132 -121 269 -70 23 9 69 11 150 7 166 -7 228 -22 518 -124 29
-10 53 -23 53 -29 0 -7 20 -22 44 -35 93 -50 192 -165 244 -283 12 -26 38 -70
58 -98 46 -63 70 -171 84 -383 14 -216 20 -274 31 -281 6 -3 4 -11 -4 -17 -11
-9 -16 -41 -20 -107 -3 -69 -12 -115 -32 -170 -47 -129 -155 -351 -213 -440
-68 -103 -199 -241 -302 -318 -41 -31 -80 -63 -87 -72 -10 -13 -17 -9 -50 27
-56 61 -223 354 -289 508 -14 33 -57 124 -96 203 -82 168 -93 201 -72 209 20
7 98 -23 133 -53 16 -13 33 -24 38 -24 6 0 36 -13 69 -29 32 -16 118 -47 189
-70 72 -23 144 -47 160 -53 17 -5 44 -13 60 -15 17 -3 35 -9 41 -14 26 -20
106 -38 131 -28 23 9 24 11 11 32 -29 43 -95 78 -262 137 -196 70 -333 133
-466 214 -108 66 -126 84 -175 180 -45 87 -46 116 -6 116 17 0 42 -11 59 -25
40 -33 106 -61 165 -70 26 -3 47 -10 47 -16 0 -5 9 -9 20 -9 10 0 42 -9 70
-20 28 -11 61 -20 74 -20 13 0 36 -7 52 -15 48 -23 171 -46 283 -50 64 -3 108
-10 112 -16 9 -15 99 -6 128 13 46 28 13 93 -42 83 -18 -3 -72 2 -122 10 -49
9 -118 20 -153 25 -99 15 -287 67 -371 103 l-76 33 1 61 c1 58 5 68 56 145 31
46 65 101 76 124 12 23 36 61 54 85 19 24 61 82 95 129 34 47 87 110 117 140
76 74 74 120 -4 120 -72 0 -205 -111 -305 -253 -77 -111 -208 -323 -237 -384
-32 -68 -43 -80 -51 -59 -3 8 -2 184 3 393 9 374 8 378 -12 396 -24 20 -110
24 -126 5 -5 -8 -12 -127 -15 -283 -3 -148 -10 -283 -14 -300 l-9 -30 -16 25
c-16 25 -60 168 -83 270 -32 141 -97 362 -125 430 -51 119 -51 119 55 158 174
66 280 93 434 114 l154 20 53 -22 c29 -12 61 -20 71 -18 26 5 43 46 43 105 0
42 -4 55 -22 67 -25 18 -94 21 -133 6 -14 -5 -78 -14 -143 -20 -64 -6 -161
-20 -214 -31 -92 -19 -470 -140 -492 -158 -6 -5 -58 -35 -116 -66 -58 -32
-125 -72 -150 -89 -25 -18 -58 -38 -74 -46 -31 -16 -212 -204 -315 -328 -200
-240 -383 -551 -416 -710 -37 -175 -68 -252 -101 -252 -7 0 -52 13 -101 29
-48 16 -115 34 -148 40 -33 7 -77 19 -98 27 -20 8 -72 21 -115 29 -42 8 -135
30 -207 50 -169 46 -671 161 -805 185 -114 21 -215 26 -225 10 -8 -13 -35 -1
-35 16 0 16 26 10 -350 84 -168 32 -327 66 -355 74 -27 9 -61 16 -75 16 -19 0
-28 8 -37 29 -15 41 -62 61 -162 71 -69 7 -103 16 -176 50 -49 23 -121 56
-160 73 -64 30 -116 61 -240 143 -97 64 -130 109 -285 380 -49 87 -63 122 -85
204 -62 241 -75 295 -89 370 -8 47 -18 111 -21 142 -4 32 -14 66 -23 76 -20
23 -124 63 -155 60 -12 -1 -47 -3 -77 -5z m5200 -892 c0 -16 9 -36 21 -47 12
-10 27 -31 35 -46 15 -29 76 -239 71 -245 -5 -5 -70 78 -90 116 -10 18 -22 66
-26 107 -6 50 -15 81 -30 100 -16 20 -18 30 -10 40 16 19 29 8 29 -25z m-4868
-88 c10 -23 29 -55 42 -70 12 -15 40 -54 60 -87 20 -32 46 -60 56 -63 11 -3
22 -13 25 -23 6 -18 78 -77 141 -116 17 -10 53 -34 80 -52 27 -18 65 -37 84
-42 19 -5 61 -26 93 -45 32 -19 67 -35 78 -35 10 0 19 -4 19 -9 0 -5 17 -16
38 -24 20 -8 48 -26 61 -41 l24 -25 -25 -6 c-14 -4 -44 -1 -67 5 -32 8 -51 8
-77 0 -41 -14 -128 -2 -231 32 -56 19 -75 32 -156 113 -100 99 -212 265 -228
335 -5 22 -22 73 -39 115 -16 42 -30 83 -30 91 0 27 30 -4 52 -53z m4718 42
c0 -8 5 -15 10 -15 6 0 10 -10 10 -22 0 -47 52 -217 95 -308 40 -86 64 -160
52 -160 -7 0 -155 230 -210 325 -65 115 -67 125 -20 164 41 34 63 39 63 16z
m-3801 -710 c36 -19 81 -37 100 -41 20 -3 45 -9 56 -13 11 -5 54 -15 95 -24
41 -8 109 -23 151 -33 46 -10 91 -14 112 -10 27 5 36 3 41 -10 4 -10 16 -15
38 -13 18 1 40 0 48 -3 54 -18 155 -38 194 -38 26 0 72 -6 104 -14 72 -18 180
-36 220 -36 16 0 43 -7 58 -15 16 -8 46 -15 67 -15 21 0 93 -14 159 -31 92
-23 122 -28 128 -19 9 15 30 4 30 -15 0 -9 20 -15 68 -20 37 -3 87 -13 111
-21 25 -8 54 -14 65 -14 23 0 150 -37 180 -52 10 -5 39 -13 65 -18 96 -17 177
-39 222 -58 25 -11 81 -27 125 -37 43 -9 88 -20 99 -24 67 -27 127 -42 145
-36 15 5 20 2 20 -12 0 -10 7 -28 15 -39 14 -21 13 -21 -138 -33 -84 -7 -206
-19 -272 -27 -66 -8 -271 -21 -455 -29 -184 -8 -384 -20 -445 -27 -60 -6 -137
-10 -170 -9 -33 1 -91 -3 -130 -9 -38 -6 -87 -11 -107 -10 -47 1 -279 -23
-573 -60 -126 -16 -293 -34 -370 -40 -77 -6 -182 -20 -233 -31 -135 -28 -150
-26 -168 16 -18 45 -18 190 0 315 12 80 23 112 66 195 58 111 83 148 148 214
59 59 102 120 102 142 0 29 -21 66 -44 77 -13 7 -16 11 -6 11 8 0 44 -15 79
-34z m3684 -147 c49 -76 169 -210 283 -315 54 -51 107 -105 117 -122 17 -29
17 -30 -2 -41 -12 -6 -92 -10 -195 -10 -176 0 -176 0 -176 -22 0 -42 12 -65
36 -77 36 -16 171 -14 312 6 135 18 175 13 180 -23 3 -18 -3 -22 -35 -27 -21
-3 -67 -22 -103 -44 -68 -40 -274 -232 -325 -303 -47 -65 -76 -100 -83 -100
-13 1 -119 239 -139 310 -8 30 -19 109 -24 175 -7 89 -15 127 -30 151 -20 32
-20 32 0 39 23 7 27 16 41 110 12 80 21 110 61 217 16 43 29 89 29 103 0 38
16 30 53 -27z m-4179 18 c93 -1 149 -6 164 -15 22 -12 23 -14 7 -34 -22 -31
-139 -272 -160 -332 -14 -38 -19 -91 -22 -225 -2 -96 -5 -175 -7 -177 -2 -2
-47 13 -100 32 -53 19 -105 35 -116 35 -27 0 -343 125 -432 172 -85 44 -88 50
-62 114 11 26 19 94 25 213 11 196 11 196 83 205 59 8 459 22 470 17 5 -2 72
-5 150 -5z m-1126 -48 c8 -7 26 -7 56 2 54 15 210 10 227 -7 26 -26 -20 -335
-55 -371 -10 -11 -39 -3 -158 42 -80 30 -208 86 -284 123 -77 37 -192 90 -257
117 -65 26 -115 52 -110 56 9 8 301 40 383 41 30 1 69 4 85 8 37 8 96 2 113
-11z m6046 -537 c18 -32 39 -75 46 -97 7 -21 34 -82 61 -134 26 -52 76 -151
110 -220 79 -162 105 -209 124 -230 8 -9 15 -24 15 -33 0 -9 4 -17 9 -17 5 0
12 -11 15 -24 3 -13 26 -46 51 -74 25 -27 45 -53 45 -58 0 -4 9 -18 21 -30 33
-35 18 -55 -77 -102 -158 -79 -293 -77 -544 4 -171 56 -282 132 -430 294 -76
83 -80 89 -61 100 11 6 33 32 48 58 15 26 45 69 67 96 91 111 319 326 332 313
11 -11 34 -144 34 -198 0 -31 9 -99 19 -151 11 -52 28 -161 37 -244 l17 -149
40 -38 c33 -32 45 -38 75 -35 28 2 40 10 52 30 14 26 13 31 -12 75 -40 73 -62
159 -60 237 1 38 -7 119 -18 180 -26 146 -50 335 -50 395 0 26 -6 53 -12 59
-7 7 -13 24 -13 36 -1 37 21 20 59 -43z"/>
<path d="M3085 4050 c-16 -18 -20 -46 -26 -218 -5 -108 -11 -244 -15 -302 -8
-130 7 -180 53 -180 38 0 53 17 53 59 0 20 7 57 15 84 32 106 47 239 43 377
-5 163 -15 194 -69 198 -25 2 -40 -3 -54 -18z"/>
<path d="M3742 3695 c-51 -18 -128 -49 -170 -68 -42 -19 -117 -47 -166 -63
-49 -16 -94 -34 -101 -40 -6 -6 -24 -11 -39 -11 -15 0 -38 -10 -49 -22 -27
-27 -16 -48 38 -75 30 -15 41 -17 54 -7 20 14 22 15 106 35 38 10 81 26 96 37
15 10 30 19 34 19 12 0 126 50 190 83 33 17 70 30 82 29 12 -1 38 8 58 19 29
17 35 27 35 54 0 56 -35 58 -168 10z"/>
</g>
</svg>
