<?xml version="1.0" encoding="UTF-8" standalone="no"?>
<svg
   xmlns:dc="http://purl.org/dc/elements/1.1/"
   xmlns:cc="http://creativecommons.org/ns#"
   xmlns:rdf="http://www.w3.org/1999/02/22-rdf-syntax-ns#"
   xmlns:svg="http://www.w3.org/2000/svg"
   xmlns="http://www.w3.org/2000/svg"
   viewBox="0 0 1450.6667 1049.3333"
   height="1049.3333"
   width="1450.6667"
   id="svg96"
   version="1.1">
  <metadata
     id="metadata102">
    <rdf:RDF>
      <cc:Work
         rdf:about="">
        <dc:format>image/svg+xml</dc:format>
        <dc:type
           rdf:resource="http://purl.org/dc/dcmitype/StillImage" />
        <dc:title></dc:title>
      </cc:Work>
    </rdf:RDF>
  </metadata>
  <defs
     id="defs100" />
  <g
     id="g104">
    <path
       id="path384"
       d="m 1144.2693,847.87101 c -3.6073,-0.27974 -7.6961,-1.30527 -9.0863,-2.27896 -1.3901,-0.9737 -3.6919,-1.46587 -5.115,-1.09371 -1.4232,0.37216 -3.4812,-0.0649 -4.5733,-0.97141 -1.0922,-0.90644 -3.252,-1.31696 -4.7994,-0.9123 -2.4888,0.65083 -7.642,-0.93992 -14.8492,-4.58381 -1.2734,-0.64381 -3.1425,-1.17056 -4.1535,-1.17056 -1.0111,0 -3.2692,-1.1104 -5.0181,-2.46756 -1.7489,-1.35716 -3.9295,-2.20726 -4.8458,-1.88912 -0.9163,0.31814 -2.0094,-0.31652 -2.4291,-1.41036 -0.4198,-1.09385 -2.498,-2.70737 -4.6182,-3.58561 -2.1203,-0.87824 -4.6096,-3.30136 -5.5318,-5.38469 -0.9221,-2.08335 -2.9336,-4.10339 -4.4699,-4.48898 -1.5363,-0.38558 -4.2539,-1.98542 -6.0392,-3.55521 -1.7852,-1.56977 -5.19,-4.35287 -7.5662,-6.18465 -2.3762,-1.83178 -3.9908,-3.86375 -3.588,-4.5155 0.4028,-0.65174 -0.098,-1.18498 -1.1139,-1.18498 -2.5479,0 -7.6444,-5.66555 -7.6444,-8.49796 0,-1.27935 -0.5758,-1.97023 -1.2795,-1.53531 -1.7158,1.06041 -12.4922,-9.69749 -15.4334,-15.40683 -1.2919,-2.50794 -3.7601,-6.41654 -5.4847,-8.68576 -1.7247,-2.26922 -3.1357,-5.35502 -3.1357,-6.85734 0,-1.50232 -0.9,-3.07686 -2,-3.49898 -1.1,-0.4221 -2,-1.91772 -2,-3.32357 0,-1.40585 -0.8964,-4.27468 -1.9918,-6.37517 -1.0955,-2.1005 -1.9955,-5.8045 -2,-8.23111 -0.01,-2.51123 -0.5658,-4.06741 -1.3025,-3.61213 -0.7118,0.43993 -1.6073,-0.57465 -1.9898,-2.25464 -3.7669,-16.54125 -4.169,-19.36836 -5.2483,-36.90163 -1.0741,-17.44886 6.5106,-48.00757 17.2044,-69.31566 2.5637,-5.10832 4.6613,-9.81153 4.6613,-10.4516 0,-0.64007 2.661,-3.77533 5.9134,-6.96727 5.0752,-4.98094 6.8525,-5.87882 12.5398,-6.33474 l 6.6264,-0.53123 0.8854,5.24031 c 0.8332,4.93205 -1.0023,15.25953 -3.2361,18.20729 -0.5557,0.73333 -1.3409,2.68333 -1.7448,4.33333 -0.5998,2.4498 -0.176,3 2.3108,3 1.6749,0 3.7922,0.9 4.7051,2 0.9129,1.1 2.7676,2 4.1214,2 1.4764,0 2.1944,0.69616 1.7941,1.73948 -0.3672,0.95672 0.838,3.80672 2.6781,6.33333 1.8401,2.52663 4.3704,6.54386 5.623,8.92719 1.2525,2.38333 2.6305,4.33333 3.0621,4.33333 1.4546,0 26.3655,24.63846 27.884,27.57902 0.8272,1.60178 1.504,4.91768 1.504,7.36864 0,4.3974 0.079,4.45581 5.9957,4.42098 3.2977,-0.0195 5.9977,-0.4853 6,-1.0353 0.01,-1.8158 3.6586,-1.04064 6.7007,1.42266 2.4828,2.01047 2.7409,2.8917 1.5166,5.17927 -1.2307,2.29951 -1.0968,2.72687 0.807,2.57733 1.8196,-0.14292 2.3175,1.03708 2.4561,5.82074 0.3623,12.49769 3.8263,38.25842 7.3592,54.72819 0.8051,3.75318 0.8383,8.11759 0.087,11.46051 -0.8523,3.79339 -0.7265,6.35244 0.4233,8.60513 0.9,1.76339 2.0571,5.60616 2.5714,8.5395 0.5143,2.93333 2.4492,7.5463 4.2999,10.25105 3.3126,4.84136 3.3267,4.97009 0.9072,8.29143 -3.245,4.45449 -6.8096,4.31517 -12.6442,-0.49416 -4.5677,-3.76514 -4.8446,-4.47328 -5.8645,-15 -0.5888,-6.07658 -1.1547,-11.34832 -1.2577,-11.71499 -0.1029,-0.36667 -0.6531,-4.56667 -1.2224,-9.33333 -0.5694,-4.76667 -1.9545,-11.91688 -3.078,-15.88935 -1.2141,-4.29243 -1.7535,-9.7018 -1.3295,-13.33333 0.4262,-3.65027 -0.038,-8.25807 -1.1539,-11.44399 -1.027,-2.93333 -1.8763,-6.98333 -1.8874,-9 -0.015,-2.70162 -0.6844,-3.66666 -2.5441,-3.66666 -1.3882,0 -2.8693,0.9 -3.2915,2 -0.4221,1.1 -1.3108,2 -1.9749,2 -1.8821,0 -28.2096,25.46435 -28.2096,27.28474 0,0.89107 -2.1,3.53107 -4.6666,5.86668 -2.5667,2.33561 -4.6667,4.82401 -4.6667,5.52977 0,2.59154 -7.3853,11.87672 -9,11.31531 -2.9185,-1.01472 -1.8856,0.41311 8.3046,11.47948 19.8412,21.54728 32.091,29.17395 58.3247,36.31303 14.4217,3.9246 17.8787,4.3941 29.0374,3.94352 11.6927,-0.47215 13.538,-0.94286 24,-6.122 10.0682,-4.98424 11.2932,-5.98263 10.9745,-8.94387 -0.1973,-1.83333 -1.362,-4.08333 -2.5881,-5 -1.2262,-0.91667 -1.7272,-1.66667 -1.1133,-1.66667 0.614,0 -0.3323,-1.35 -2.1028,-3 -5.734,-5.3438 -10.7688,-12.82561 -9.7453,-14.48172 0.6242,-1.01 0.4212,-1.24729 -0.5524,-0.6456 -1.4368,0.888 -2.2663,-1.83461 -1.5861,-5.20601 0.148,-0.73333 -0.1717,-0.89265 -0.7103,-0.35405 -1.1528,1.15281 -4.4725,-2.84028 -4.5338,-5.45347 -0.023,-0.99415 -1.5265,-3.57119 -3.3403,-5.72676 -1.8138,-2.15557 -4.0087,-6.29219 -4.8777,-9.19248 -0.8689,-2.90028 -1.9938,-5.27324 -2.4997,-5.27324 -0.8182,0 -2.7329,-4.0276 -6.9722,-14.66667 -0.7305,-1.83333 -1.8546,-4.23333 -2.4978,-5.33333 -4.5218,-7.73222 -10.5214,-20.28513 -10.5214,-22.01362 0,-1.14411 -0.9966,-3.60119 -2.2147,-5.46018 -1.218,-1.85898 -3.1879,-5.28788 -4.3776,-7.61976 -1.1896,-2.33188 -2.893,-4.08977 -3.7853,-3.90644 -1.0328,0.2122 -1.6224,-1.3911 -1.6224,-4.41202 0,-2.6235 -0.5607,-4.39886 -1.2539,-3.97043 -1.1877,0.73409 -6.7461,-4.17497 -6.7461,-5.95812 0,-0.46075 -3.6008,-5.59761 -8.0016,-11.41525 -4.6744,-6.17907 -7.6945,-11.39227 -7.2629,-12.53687 0.4063,-1.07764 0.3274,-1.548 -0.1754,-1.04521 -1.2154,1.21541 -6.2778,-5.29478 -5.3211,-6.84284 0.4101,-0.66358 -0.1363,-1.54495 -1.2143,-1.95863 -1.078,-0.41367 -3.2407,-3.47653 -4.8059,-6.80637 -1.5652,-3.32984 -3.3797,-6.05426 -4.0323,-6.05426 -0.6526,0 -1.1893,-0.75 -1.1927,-1.66666 0,-0.91667 -1.8516,-3.63571 -4.1071,-6.04232 -2.2555,-2.4066 -6.3028,-7.87348 -8.9938,-12.14861 -2.6911,-4.27512 -7.4429,-11.13047 -10.5596,-15.23408 -3.1166,-4.10362 -5.6666,-8.04071 -5.6666,-8.7491 0,-0.70837 -1.6279,-3.22249 -3.6174,-5.58693 -1.9895,-2.36444 -3.7583,-5.25969 -3.9307,-6.43389 -0.1723,-1.17422 -1.5445,-3.13188 -3.0493,-4.35039 -1.5048,-1.21851 -2.736,-2.72123 -2.736,-3.3394 0,-0.61817 -1.7901,-2.81355 -3.9781,-4.87861 l -3.978,-3.75468 -3.5363,3.75901 c -3.8963,4.14181 -14.0282,16.56175 -20.8129,25.51301 -2.3988,3.16471 -6.8343,8.56471 -9.8569,12 -3.0225,3.4353 -5.9435,7.74599 -6.491,9.57932 -0.54754,1.83334 -1.76366,4.23334 -2.7025,5.33334 -2.42897,2.84592 -7.31093,11.82533 -7.31093,13.44703 0,0.75127 -1.21591,4.03503 -2.70203,7.29726 -1.48612,3.26221 -3.27365,8.94545 -3.97229,12.62938 -0.69864,3.68395 -1.81428,7.73194 -2.47919,8.99554 -1.29629,2.46349 -3.54329,23.21006 -2.9926,27.63078 0.18269,1.46667 1.79032,5.50563 3.57248,8.97546 3.89543,7.58433 3.984,9.14402 0.74628,13.14244 -2.25908,2.78984 -3.44591,3.0496 -12.59877,2.75738 -6.34638,-0.2026 -12.91218,0.49356 -17.65282,1.8717 -4.15144,1.20686 -9.19451,1.865 -11.2068,1.46254 -2.01229,-0.40245 -4.32993,-0.0605 -5.15032,0.75987 -1.08823,1.08823 -2.35872,1.09653 -4.69792,0.0307 -2.37539,-1.0823 -7.13584,-0.97239 -18.36949,0.4241 -18.09418,2.24935 -18.38104,2.2576 -15.82987,0.45562 1.46841,-1.0372 0.58244,-1.15896 -3.33333,-0.45811 -5.73754,1.02693 -42.61499,2.39025 -50.33334,1.86077 -0.91666,-0.0629 -3.9587,0.23375 -6.76008,0.65919 -3.95649,0.60087 -6.03984,0.11013 -9.33333,-2.19865 -2.8926,-2.02771 -3.65843,-2.24727 -2.41,-0.69094 1.55101,1.93354 1.55101,2.3122 0,2.48432 -2.84911,0.3162 -4.17757,0.56539 -8.77899,1.64674 -2.36999,0.55694 -5.30829,0.43225 -6.57961,-0.27922 -1.53211,-0.85741 -3.1169,-0.77796 -4.75828,0.23858 -1.93426,1.19789 -2.72243,1.10404 -3.682,-0.43847 -1.05899,-1.70233 -1.32911,-1.68069 -2.03666,0.16313 -0.80242,2.0911 -10.4774,3.21082 -23.32772,2.69978 -2.56666,-0.102 -7.66666,0.39265 -11.33333,1.09937 -3.66667,0.70672 -14.43548,1.60273 -23.93068,1.99115 -9.49521,0.3884 -17.59521,1.24009 -18,1.89264 -0.4048,0.65253 -5.3862,1.09572 -11.06979,0.98482 -5.80949,-0.11333 -10.52588,0.37524 -10.7725,1.11594 -0.2413,0.72463 -2.49108,1.43295 -4.99954,1.57402 -5.33236,0.29989 -9.88348,0.9878 -19.688,2.97583 -3.91993,0.79484 -12.31993,1.74086 -18.66667,2.10229 -20.17341,1.1488 -27.22132,1.99303 -29.00638,3.47451 -0.95616,0.79353 -2.99606,1.04365 -4.53311,0.55581 -1.53705,-0.48784 -3.64567,-0.18069 -4.68583,0.68256 -1.04014,0.86325 -2.66136,1.29837 -3.60268,0.96695 -0.94132,-0.33144 -3.21149,0.42301 -5.04482,1.67654 -1.83334,1.25354 -6.93334,3.46232 -11.33334,4.90842 l -8,2.62926 -4.66666,-3.02778 c -2.56667,-1.66528 -7.06667,-4.70688 -10,-6.75911 -2.93334,-2.05223 -6.23334,-3.76304 -7.33334,-3.80181 -2.94473,-0.10374 -13.33333,-4.72806 -13.33333,-5.93508 0,-0.57044 -2.56955,-1.4225 -5.71009,-1.89344 -3.14056,-0.47096 -7.65507,-2.03909 -10.03223,-3.48473 -2.37717,-1.44559 -5.89148,-2.62839 -7.80959,-2.62839 -1.91809,0 -4.34808,-1.05 -5.39997,-2.33333 -1.05189,-1.28334 -1.53264,-1.58334 -1.06831,-0.66667 1.12387,2.21871 -0.70389,2.04267 -3.90132,-0.37573 -1.42349,-1.07668 -3.97349,-1.9576 -5.66667,-1.9576 -1.69317,0 -4.14041,-1.06192 -5.4383,-2.35982 -1.2979,-1.29789 -3.83902,-2.47124 -5.64692,-2.60742 -1.80791,-0.13619 -3.49599,-0.87427 -3.7513,-1.64019 -0.2553,-0.76592 -1.55,-1.39257 -2.87709,-1.39257 -1.32711,0 -2.74725,-0.8713 -3.15591,-1.93622 -0.78354,-2.04189 -4.28534,-1.85377 -8.6138,0.46275 -1.41784,0.7588 -3.05297,0.95076 -3.63362,0.42656 -0.58067,-0.5242 -0.63164,-0.21523 -0.11334,0.68661 1.73622,3.0207 -3.14206,13.78444 -10.86354,23.97003 -4.20826,5.55121 -9.9569,13.15996 -12.77475,16.90834 -2.81785,3.74839 -5.9614,6.733 -6.98565,6.63246 -1.02426,-0.10054 -1.52279,0.3665 -1.10787,1.03786 0.41492,0.67136 -2.44153,4.05296 -6.34768,7.51466 -3.90615,3.46169 -8.73159,7.878 -10.7232,9.81401 -5.42237,5.27104 -14.37885,12.17381 -14.37885,11.08183 0,-0.52719 -1.19526,0.561 -2.65612,2.41818 -1.46087,1.8572 -5.35862,4.48811 -8.66167,5.84648 -3.30305,1.35838 -6.0078,3.0775 -6.01055,3.82027 -0.003,0.74277 -1.11609,1.94277 -2.47409,2.66667 -12.32964,6.57242 -17.25236,8.69729 -19.53091,8.43038 -2.52504,-0.29577 -8.55723,2.23162 -10,4.18984 -1.60231,2.17475 -9.98488,5.40796 -10.44468,4.02859 -0.33759,-1.01277 -1.03473,-0.98464 -2.33467,0.0943 -1.01934,0.84598 -2.79216,1.17789 -3.93958,0.73758 -1.14743,-0.4403 -1.78078,-0.3063 -1.40743,0.29779 0.37335,0.60408 -1.54548,2.1648 -4.26408,3.46825 -4.88809,2.34364 -10.07664,3.18563 -26.94289,4.37223 -4.76667,0.33536 -9.41667,1.22791 -10.33334,1.98344 -1.11128,0.91595 -2.22205,0.93081 -3.33333,0.0447 -2.30103,-1.83496 -9.88959,-3.24478 -16.66667,-3.09636 -3.11666,0.0683 -5.66666,-0.42448 -5.66666,-1.09496 0,-0.67047 -2.4,-0.89714 -5.33334,-0.50368 -3.63661,0.48776 -5.33333,0.21028 -5.33333,-0.87224 0,-0.87318 -0.5898,-1.22307 -1.31065,-0.77755 -1.89524,1.17132 -10.8019,-0.72519 -9.94176,-2.11691 0.39833,-0.64453 -0.20692,-0.81454 -1.345,-0.37782 -1.1381,0.43673 -2.06926,0.14869 -2.06926,-0.6401 0,-0.78877 -0.89166,-1.09197 -1.98146,-0.67377 -1.30652,0.50136 -2.44475,-0.45815 -3.34154,-2.81689 -0.74804,-1.96748 -2.10638,-3.30678 -3.01853,-2.97619 -0.91216,0.33059 -2.70847,-0.31364 -3.9918,-1.43161 -2.09853,-1.82812 -2.58912,-1.80118 -4.87528,0.26777 -1.62143,1.46736 -4.15636,2.14576 -7,1.87331 -4.14151,-0.39678 -4.51136,-0.82651 -5.20882,-6.05206 -0.65905,-4.93788 -2.08965,-6.88257 -11.71182,-15.92072 -6.56072,-6.16249 -10.68144,-11.02448 -10.26452,-12.11096 0.3831,-0.99836 0.1663,-1.48749 -0.48179,-1.08694 -1.28079,0.79157 -3.15691,-2.9192 -2.23229,-4.41526 0.3121,-0.50498 -1.48595,-3.29429 -3.99568,-6.19842 -4.55756,-5.27382 -4.9693,-6.37382 -4.7323,-12.64275 0.112,-2.96152 0.003,-3.0392 -0.97634,-0.6964 -1.09608,2.62185 -1.11052,2.62171 -2.52718,-0.0253 -2.9905,-5.58782 -9.2433,-26.20208 -10.42281,-34.36201 -2.24941,-15.56162 -3.25109,-27.5669 -2.63516,-31.58292 0.39364,-2.56667 1.02885,-10.06667 1.41157,-16.66667 0.67406,-11.62413 1.58816,-17.40829 4.74104,-30 0.8263,-3.3 1.65367,-7.2 1.83859,-8.66667 0.95516,-7.57558 20.05436,-42.25119 29.66259,-53.85398 2.05894,-2.48636 3.95464,-5.06967 4.21265,-5.74068 0.25801,-0.67101 2.54149,-3.43672 5.0744,-6.14601 2.53291,-2.7093 5.48565,-6.57299 6.56168,-8.58599 1.07602,-2.013 5.09254,-6.12332 8.9256,-9.13403 3.83306,-3.0107 9.07443,-7.36369 11.64748,-9.67332 9.01763,-8.09441 16.70543,-13.84208 22.37704,-16.72986 3.1471,-1.60239 6.8971,-4.08853 8.33334,-5.52477 1.43624,-1.43624 4.08126,-2.61135 5.87784,-2.61135 1.79657,0 5.84657,-1.71852 9,-3.81895 5.98309,-3.98518 22.2731,-9.9582 25.31081,-9.28064 0.96581,0.21542 3.77743,-0.45141 6.24804,-1.48185 3.96,-1.65164 5.63343,-1.58929 14.12965,0.52641 5.3007,1.31996 12.3088,3.97234 15.57356,5.89415 11.95628,7.03803 23.80478,15.15601 23.80478,16.30972 0,0.65141 0.60616,1.1844 1.34701,1.1844 1.08404,0 13.31939,7.89276 15.98632,10.31244 0.36667,0.33266 -1.207,0.31284 -3.49704,-0.0441 -5.27781,-0.8225 -13.83629,-4.84246 -13.83629,-6.49892 0,-0.69305 -0.57812,-0.9028 -1.28471,-0.4661 -0.70657,0.43669 -2.50657,-0.4279 -4,-1.92132 -1.49341,-1.49342 -3.24671,-2.7153 -3.89621,-2.7153 -2.20278,0 -8.293,-3.68257 -10.03887,-6.07019 -1.16589,-1.59444 -3.31709,-2.31664 -6.53976,-2.19548 -2.64129,0.0993 -5.16135,-0.40031 -5.60009,-1.11023 -1.04471,-1.69037 -14.91088,-1.67711 -15.95682,0.0152 -0.50822,0.82232 -1.77192,0.70353 -3.41202,-0.32073 -2.05422,-1.28287 -3.16474,-1.2771 -5.25343,0.0273 -1.45672,0.90973 -3.80672,1.65407 -5.22223,1.65407 -1.4155,0 -2.8052,0.69468 -3.08821,1.54372 -0.28303,0.84905 -2.43303,1.48918 -4.77779,1.42252 -2.34476,-0.0667 -4.2632,0.43865 -4.2632,1.12293 0,0.68429 -1.41908,1.24416 -3.15352,1.24416 -1.73444,0 -4.67908,1.2 -6.54364,2.66666 -1.86456,1.46667 -4.64548,2.66667 -6.17981,2.66667 -1.53433,0 -4.09116,1.30147 -5.68184,2.89215 -1.59068,1.59068 -5.62084,4.343 -8.95591,6.11628 -3.33506,1.77326 -6.81208,4.2925 -7.72669,5.59828 -0.9146,1.30578 -3.48444,2.73846 -5.71075,3.18372 -2.22632,0.44526 -4.04784,1.59521 -4.04784,2.55542 0,0.96023 -1.65,2.7436 -3.66666,3.96307 -5.82976,3.5252 -13.86392,11.88617 -20.03696,20.85203 -3.44374,5.00174 -6.29891,7.91617 -7.20602,7.35554 -0.82631,-0.51068 -1.14216,-0.34568 -0.70191,0.3667 0.44027,0.71236 -1.71809,4.55506 -4.79636,8.53933 -3.07825,3.98428 -7.20264,9.64415 -9.16528,12.57748 -6.2548,9.34828 -20.44009,42.4878 -19.10884,44.64181 0.38562,0.62392 0.0849,2.75513 -0.66822,4.73603 -1.23487,3.24794 -3.28695,30.24434 -3.18916,41.95549 0.0576,6.90439 1.55494,24.36393 2.28689,26.66667 0.34964,1.1 1.68136,6.2 2.95939,11.33333 1.27801,5.13333 3.45592,11.8814 4.83977,14.9957 1.38385,3.11431 3.10055,7.01431 3.81488,8.66667 1.445,3.34253 2.41533,4.95297 9.6338,15.98921 2.75257,4.20838 5.00468,8.14786 5.00468,8.75439 0,0.60653 2.81052,3.91332 6.24561,7.34841 5.92339,5.92343 9.75439,7.85271 9.75439,4.91232 0,-2.54798 0.3056,-3.35189 2.53431,-6.66666 1.23264,-1.83334 4.86559,-8.58334 8.07319,-15 3.20761,-6.41667 6.33313,-11.66667 6.9456,-11.66667 0.61246,0 1.11357,-1.17877 1.11357,-2.61949 0,-1.44072 3.19037,-8.19072 7.08973,-15 3.89935,-6.80928 9.34752,-16.88051 12.10706,-22.38051 2.75953,-5.5 5.80354,-10.9 6.76446,-12 0.96091,-1.1 4.52534,-7.4 7.92094,-14 5.99224,-11.64709 9.21152,-17.34237 13.51762,-23.91433 1.14314,-1.74464 1.53015,-3.51092 0.86003,-3.92508 -2.98697,-1.84605 -20.24388,-0.96072 -29.59317,1.51821 -5.5,1.45831 -13.54911,3.08271 -17.88691,3.60979 -4.33779,0.52708 -12.24583,2.10004 -17.57343,3.49547 -5.32758,1.39542 -10.65083,2.1671 -11.82943,1.71484 -1.19626,-0.45906 -3.30257,0.22718 -4.76808,1.55344 -1.44384,1.30666 -3.02149,1.97944 -3.50589,1.49505 -0.48439,-0.4844 -0.0807,-0.88072 0.89707,-0.88072 0.97777,0 1.49201,-0.28576 1.14274,-0.63503 -0.34926,-0.34926 -3.69336,0.52706 -7.43133,1.94736 -8.43068,3.20342 -14.31213,2.4867 -14.41624,-1.75677 -0.0467,-1.89959 3.58215,-4.70045 6.91541,-5.33772 3.8184,-0.73001 10.24776,-2.36487 12.45608,-3.16733 1.1,-0.39972 3.2,-0.88388 4.66667,-1.07591 1.46667,-0.19203 6.26667,-1.04472 10.66667,-1.89485 4.4,-0.85015 11.79744,-2.12015 16.43875,-2.82223 4.64132,-0.70209 9.54628,-1.86925 10.89992,-2.59371 1.35364,-0.72444 3.8562,-1.29776 5.56125,-1.27402 1.70504,0.0237 8.80008,-0.9023 15.76675,-2.05784 8.80237,-1.46004 13.55498,-1.6996 15.57848,-0.78524 4.60802,2.08222 4.565,-1.1083 -0.10627,-7.88004 -2.27639,-3.3 -4.7048,-6.23864 -5.39647,-6.53031 -0.69166,-0.29167 -2.49166,-1.87793 -4,-3.52504 -1.50833,-1.64711 -6.64242,-7.20783 -11.40909,-12.35714 -11.45437,-12.3739 -20,-22.72976 -20,-24.23667 0,-0.66943 -1.71216,-3.79724 -3.80481,-6.95067 -4.81818,-7.26057 -5.81679,-11.25476 -3.41447,-13.65708 3.75224,-3.75224 13.90081,4.22063 17.922,14.07976 1.01181,2.48076 2.50104,5.11048 3.30939,5.84382 0.80834,0.73333 5.00057,5.83333 9.31606,11.33333 10.37432,13.22188 16.85138,20.04641 18.22184,19.19942 0.61416,-0.37957 1.11666,0.1232 1.11666,1.11734 0,0.9941 4.23234,6.15894 9.40522,11.47741 l 9.40523,9.66995 -0.91645,6.26793 c -0.50406,3.44737 -2.7864,9.78539 -5.0719,14.08447 -2.28549,4.29909 -5.65544,10.63084 -7.48877,14.07054 -1.83333,3.43971 -4.68333,8.1149 -6.33333,10.38931 -1.65,2.2744 -3,4.48209 -3,4.90597 0,0.42388 -2.49111,4.83126 -5.5358,9.79418 -3.0447,4.9629 -7.149,12.02348 -9.12068,15.69014 -1.97168,3.66667 -6.49071,12.06667 -10.04228,18.66667 -3.55158,6.6 -7.09727,12.44081 -7.87932,12.97958 -0.78206,0.53878 -0.9379,0.98878 -0.34632,1 0.59158,0.0107 0.14158,1.35392 -1,2.98376 -1.14158,1.62983 -2.0756,3.67219 -2.0756,4.53858 0,0.86638 -2.1,5.29052 -4.66667,9.83141 -2.56667,4.54089 -4.66667,9.06872 -4.66667,10.06184 0,0.99311 -0.75,2.28547 -1.66666,2.87191 -3.65723,2.33972 -2.52522,10.85125 1.79868,13.52425 8.40992,5.19892 36.31284,10.97976 55.63026,11.52531 11.31128,0.31944 37.75868,-5.31135 49.57106,-10.55394 4.03333,-1.79008 11.68333,-5.18281 17,-7.53941 5.31687,-2.35673 9.66687,-4.731 9.66687,-5.27626 0,-0.54527 1.52569,-1.37434 3.39042,-1.84235 4.74738,-1.19152 5.23488,-3.65201 1.98552,-10.02127 -1.54557,-3.02958 -2.45202,-6.08776 -2.01434,-6.79594 0.43768,-0.70818 0.25149,-1.2876 -0.41375,-1.2876 -0.66524,0 -2.13903,-2.25 -3.27511,-5 -12.27339,-29.70932 -15.07912,-36.12642 -17.05195,-39 -3.5309,-5.14308 -12.50644,-23.62832 -16.50873,-34 -9.02613,-23.39057 -11.50533,-23.64084 -11.56673,-1.1676 -0.0187,6.81247 0.52538,13.46209 1.2089,14.77695 1.43031,2.75148 -1.55004,34.93873 -3.58765,38.74605 -0.70273,1.31306 -1.2974,5.07026 -1.32149,8.34933 -0.0241,3.27907 -0.67683,8.96193 -1.45054,12.6286 -1.7347,8.22081 -2.10745,19.78748 -0.83833,26.01388 0.52623,2.58175 0.33351,6.3126 -0.42979,8.32023 -1.16504,3.06429 -2.07118,3.58394 -5.73189,3.28708 -8.92961,-0.72416 -9.04861,-3.12286 -3.12292,-62.95452 1.74309,-17.6 3.52739,-41.6 3.96509,-53.33333 1.31562,-35.26744 3.61627,-40.21182 15.3436,-32.97524 0.31918,0.19696 0.91918,2.8846 1.33334,5.97254 0.66514,4.95936 1.18084,5.64723 4.41968,5.89536 2.73161,0.20927 3.66666,-0.32418 3.66666,-2.09186 0,-1.30502 1.56386,-3.0853 3.47522,-3.95618 3.17002,-1.44436 3.85648,-1.17917 7.81649,3.01967 2.38769,2.53169 6.16536,7.79792 8.39481,11.70273 2.22946,3.9048 9.06205,12.32432 15.18353,18.71004 18.15197,18.93554 25.28056,27.27938 30.00089,35.11536 4.99636,8.29417 5.65233,13.21025 2.02197,15.15316 -3.05534,1.63517 -5.4717,-0.64211 -16.2488,-15.31357 -8.53922,-11.62496 -33.53628,-37.89868 -36.05713,-37.89868 -2.10142,0 -0.65756,5.36176 4.18037,15.52396 2.14464,4.50484 3.89933,8.85484 3.89933,9.66667 0,0.81182 0.45103,1.47604 1.0023,1.47604 0.55125,0 2.41125,2.85 4.13332,6.33333 1.72208,3.48333 3.67355,7.23333 4.33661,8.33333 2.20256,3.65399 7.52978,15.26651 9.17495,20 0.89207,2.56667 2.11472,5.86667 2.71699,7.33333 0.60228,1.46667 1.44154,4.27043 1.86505,6.23058 0.42351,1.96014 2.3192,5.40501 4.21267,7.65526 4.12722,4.90494 4.84142,4.63707 15.44153,-5.79137 4.15256,-4.08529 8.10745,-7.4278 8.78867,-7.4278 1.43348,0 24.32792,-24.61884 24.32792,-26.16029 0,-0.36266 2.57994,-4.37494 5.73321,-8.9162 7.94956,-11.44875 12.93345,-20.73723 12.93345,-24.10405 0,-2.96823 -4.12502,-6.3758 -8.62178,-7.12224 -1.44199,-0.23935 -3.85079,-1.24046 -5.3529,-2.22468 -1.5021,-0.98422 -4.63084,-2.20674 -6.95274,-2.71672 -2.32191,-0.50998 -4.93658,-1.78866 -5.81038,-2.84152 -0.8738,-1.05287 -2.64178,-1.9143 -3.92886,-1.9143 -1.28708,0 -3.08708,-0.9 -4,-2 -0.91292,-1.1 -2.75098,-2 -4.08458,-2 -1.33358,0 -2.79553,-0.6 -3.24876,-1.33333 -0.45322,-0.73333 -2.08864,-1.33333 -3.63424,-1.33333 -1.54561,0 -2.43877,-0.37143 -1.98481,-0.8254 0.45397,-0.45396 -0.10053,-1.75127 -1.23211,-2.88291 -1.59316,-1.59316 -2.28936,-1.68237 -3.08481,-0.39529 -0.8138,1.31677 -2.17803,1.27322 -6.56437,-0.20951 -3.04539,-1.02944 -5.07864,-2.37632 -4.51836,-2.99307 0.56029,-0.61674 0.22076,-0.66012 -0.75452,-0.0964 -1.1266,0.65122 -2.52056,-0.042 -3.82263,-1.90094 -1.36355,-1.94674 -2.94312,-2.69223 -4.71988,-2.2276 -1.46877,0.38409 -4.83969,-0.46428 -7.49096,-1.88527 -2.65127,-1.42099 -6.03504,-2.58361 -7.51949,-2.58361 -1.48447,0 -3.47979,-1.25022 -4.43407,-2.77824 -0.95427,-1.52804 -2.4956,-2.48639 -3.42519,-2.12968 -2.47567,0.95001 -15.88759,-3.87672 -21.66343,-7.79631 -2.7449,-1.86275 -5.85737,-3.05424 -6.91658,-2.64779 -1.05923,0.40647 -3.90471,0.36779 -6.32331,-0.086 -4.90315,-0.91982 -11.71731,-9.18192 -11.09201,-13.44896 0.60022,-4.09609 -1.36096,-7.96145 -4.84486,-9.54881 -1.81924,-0.82885 -3.3077,-2.4199 -3.3077,-3.53562 0,-1.11572 -0.63152,-2.02859 -1.40339,-2.02859 -0.77187,0 -3.2152,-4.05 -5.42964,-9 -2.21444,-4.95 -4.58727,-9.9 -5.27296,-11 -4.04087,-6.48248 -17.51916,-49.57485 -15.98555,-51.10847 2.47772,-2.47772 8.00295,-1.18524 11.9938,2.80562 2.84244,2.84242 4.98943,7.31302 7.28374,15.16666 3.54026,12.11866 4.49205,15.08443 6.1412,19.13619 5.55668,13.65209 9.9026,25.51289 9.6488,26.33333 -0.17014,0.55 0.27846,1 0.9969,1 1.82852,0 6.87246,10.26419 6.40915,13.04238 -0.27983,1.67795 0.68824,2.39414 3.61795,2.67658 4.63881,0.44721 18.38334,0.49353 28,0.0944 3.66666,-0.1522 12.36666,-0.18613 19.33333,-0.0755 6.96667,0.11067 21.66667,-0.0541 32.66667,-0.36634 11,-0.31222 29.74419,-0.64231 41.65375,-0.73352 l 21.65373,-0.16586 1.09095,-4.21011 c 1.17806,-4.54628 -0.73608,-15.59539 -2.70175,-15.59539 -0.65307,0 -0.83165,-0.5756 -0.39687,-1.27909 0.80826,-1.30778 -1.15912,-5.55158 -4.50646,-9.72091 -1.03032,-1.28333 -1.45922,-2.33333 -0.95308,-2.33333 0.50612,0 0.278,-1.2 -0.50694,-2.66667 -0.78493,-1.46667 -2.1644,-2.66667 -3.06549,-2.66667 -0.90108,0 -3.11364,-2.38709 -4.91679,-5.30466 -1.80316,-2.91756 -3.9844,-5.57556 -4.84721,-5.90666 -0.86281,-0.33109 -2.28335,-2.76722 -3.15673,-5.41362 -1.15796,-3.50863 -2.18726,-4.63246 -3.80088,-4.14996 -2.48712,0.74365 -7.215,-2.68787 -8.5663,-6.21747 -0.4897,-1.27913 -2.86053,-3.5124 -5.26849,-4.96281 -5.02697,-3.02796 -9.40108,-6.15531 -14.3138,-10.23394 -1.89189,-1.57068 -7.33032,-4.04642 -12.08539,-5.50165 -8.37744,-2.5638 -8.65832,-2.79397 -9.05604,-7.42109 -0.53297,-6.20067 1.67931,-10.22147 5.62396,-10.22147 2.93198,0 37.70614,22.17857 44.61922,28.45765 4.43285,4.02631 25.52744,28.54308 29.14293,33.87082 4.72659,6.96501 7.05643,11.98546 11.56848,24.92837 5.32905,15.28649 5.51376,15.57246 9.16973,14.19707 1.62404,-0.61098 6.76723,-1.19246 11.4293,-1.29218 4.66208,-0.0997 8.99968,-0.50465 9.63912,-0.89985 0.63943,-0.39519 2.29612,-0.11187 3.68152,0.62955 1.3854,0.74145 2.9492,0.9192 3.47509,0.395 0.52591,-0.5242 5.84515,-0.9531 11.82056,-0.9531 9.07324,0 10.93535,-0.36589 11.29495,-2.21941 0.25064,-1.29189 -0.67881,-2.57153 -2.22401,-3.06196 -3.20388,-1.01687 -15.65959,-13.70275 -23.1354,-23.56293 -7.96839,-10.50987 -20.63561,-37.5915 -24.96813,-53.38014 -4.5118,-16.44194 -12.82674,-39.12954 -16.04362,-43.77555 -6.76355,-9.76828 -13.37886,-46.15734 -10.14203,-55.78856 0.73597,-2.18991 1.79228,-2.92758 3.53831,-2.47099 1.369,0.35801 3.18844,-0.19173 4.04317,-1.22163 1.04912,-1.26412 3.44881,-1.69556 7.38533,-1.32781 3.20718,0.29961 6.11559,0.0847 6.46312,-0.47765 0.71058,-1.14974 7.31498,-0.2245 9.36219,1.3116 0.73333,0.55025 3.22497,1.40458 5.53699,1.89853 5.2929,1.1308 7.01286,5.02676 7.68714,17.4124 0.41966,7.70868 8.78279,44.10589 10.93426,47.58705 0.3416,0.55271 0.90789,3.24507 1.25843,5.98303 0.35054,2.73796 1.5501,6.37115 2.66569,8.07373 1.11557,1.70259 1.69964,3.62743 1.29793,4.27741 -0.40172,0.64998 -0.20984,1.38303 0.42638,1.629 1.09348,0.42275 6.4332,9.52431 14.34273,24.44722 1.94343,3.66666 3.97111,6.96666 4.50593,7.33333 0.53484,0.36667 1.97446,2.62225 3.19914,5.01241 2.36748,4.62048 14.63864,14.97603 21.75541,18.35922 2.35219,1.11818 4.61411,2.57901 5.02651,3.24629 0.4124,0.66727 2.38788,2.04083 4.38997,3.05236 2.00209,1.01153 4.84016,2.45491 6.30683,3.20749 8.37513,4.29755 16.09076,7.7952 17.29117,7.83846 0.75652,0.0272 4.37549,1.82725 8.04216,4 4.05311,2.40173 8.75751,4.02608 12,4.1434 13.33828,0.48256 19.34027,2.097 22.71751,6.11062 1.81518,2.15722 2.96514,4.46454 2.55549,5.12738 -0.40965,0.66284 0.16501,0.85602 1.27704,0.42929 1.11204,-0.42672 5.82212,0.48877 10.46686,2.03444 4.64473,1.54567 10.81605,3.06201 13.71404,3.36967 2.89798,0.30764 9.76906,1.57465 15.26906,2.81558 5.5,1.24092 11.5,2.47659 13.33334,2.74592 1.83333,0.26932 7.83333,1.44765 13.33333,2.61851 5.5,1.17084 11.2,2.25001 12.66667,2.39816 1.46666,0.14814 4.93228,0.76388 7.70137,1.3683 4.36405,0.95258 4.80807,1.37883 3.33333,3.2 -1.12765,1.39255 -1.17042,1.7826 -0.1268,1.1567 0.866,-0.5194 1.97556,-0.2955 2.46571,0.49757 0.59964,0.97023 1.66004,0.74612 3.24151,-0.68508 2.15189,-1.94744 3.63232,-1.94275 17.53429,0.0556 8.35117,1.20048 18.48396,3.09923 22.51729,4.21944 4.03334,1.12021 15.13334,3.69048 24.66667,5.71171 26.4485,5.60749 37.20235,8.18245 38.66667,9.2585 0.73333,0.53891 6.88333,2.08319 13.66667,3.43175 6.78333,1.34855 12.33333,2.80883 12.33333,3.24504 0,0.43623 1.05,0.88189 2.33333,0.99039 7.33755,0.6203 18.89206,3.32602 21.7523,5.09376 0.95341,0.58924 3.27418,1.19309 5.15726,1.3419 4.5553,0.35996 22.12939,5.24163 28.54028,7.92782 7.46811,3.12917 9.48298,0.94805 13.53878,-14.65598 0.95304,-3.66666 2.15584,-9.26176 2.67289,-12.43354 1.8262,-11.2027 14.80827,-37.65152 25.16427,-51.26808 2.35571,-3.0974 6.32712,-8.63167 8.82532,-12.29833 8.205,-12.04259 19.3815,-25.35272 33.3489,-39.71511 13.819,-14.20991 15.3472,-15.61823 16.9479,-15.61823 0.8328,0 3.2102,-1.39192 5.2831,-3.09314 3.9354,-3.22975 12.0926,-8.0907 24.3127,-14.48811 3.9657,-2.07612 7.8657,-4.31057 8.6666,-4.96544 0.801,-0.65488 9.2563,-3.72508 18.7897,-6.82268 9.5333,-3.0976 18.5333,-6.1303 20,-6.73934 2.7682,-1.14952 17.0265,-4.56643 24,-5.75143 2.2,-0.37385 9.6317,-1.07303 16.5149,-1.55372 6.8833,-0.48071 14.5383,-1.71939 17.0113,-2.75265 4.8964,-2.04587 10.4367,-1.33106 14.0616,1.81422 1.7993,1.56131 2.0916,3.34204 1.4478,8.82092 -1.0702,9.10618 -3.3676,10.76311 -10.1359,7.31016 -6.0759,-3.09969 -8.7156,-3.2436 -22.8997,-1.24846 -5.8667,0.8252 -13.0667,1.75285 -16,2.06145 -7.23,0.76061 -43.532,12.80668 -46.8215,15.53673 -1.4674,1.21781 -1.3964,2.20068 0.4099,5.67228 3.4513,6.63312 9.9055,24.95033 11.1108,31.53255 0.6043,3.3 2.3364,9.9 3.8492,14.66666 1.5128,4.76667 2.7582,9.76088 2.7677,11.09824 0.01,1.33738 1.5172,6.9 3.3505,12.36142 1.8334,5.4614 3.3373,10.96718 3.3421,12.23508 0.01,1.26789 1.1121,3.9785 2.4606,6.02358 4.265,6.46831 5.2852,2.17072 6.1108,-25.74154 0.9178,-31.03115 0.9204,-27.60916 -0.025,-33.33714 -1.0975,-6.64637 2.1636,-9.40329 9.896,-8.36616 4.5729,0.61336 6.0236,1.4675 7.0421,4.14611 0.7054,1.85548 0.8885,4.32015 0.4068,5.47701 -0.8892,2.13574 -2.2575,25.2231 -1.7841,30.1034 0.4817,4.96651 0.3908,22.5983 -0.1911,37.05235 -0.4684,11.63469 -0.2064,14.61606 1.3702,15.59042 1.5253,0.94274 2.5776,-0.33948 4.8379,-5.89524 1.5887,-3.905 4.1087,-8.82069 5.5998,-10.92377 1.4912,-2.10306 6.6804,-10.32041 11.5316,-18.26074 4.8512,-7.94035 10.3013,-16.03423 12.1115,-17.98639 1.8101,-1.95216 3.2912,-3.98728 3.2912,-4.52249 0,-2.77351 14.9174,-16.48078 21.6169,-19.86327 6.5165,-3.29015 8.1056,-3.62301 11,-2.30427 4.7153,2.14848 4.222,5.63516 -1.5207,10.74774 -7.4857,6.66429 -8.5914,7.94748 -15.7629,18.29434 -3.6667,5.29014 -8.2374,11.52034 -10.1573,13.84488 -1.9198,2.32454 -5.141,7.49712 -7.1583,11.49463 -3.8162,7.56231 -8.2623,14.40058 -10.8687,16.7166 -2.1042,1.86973 -4.8904,14.62904 -3.8858,17.79441 0.454,1.43037 2.7555,3.31819 5.1144,4.19515 2.359,0.87694 6.989,2.68064 10.289,4.0082 9.3178,3.74845 32.5825,9.36054 38.7778,9.35426 1.8944,-0.001 3.8232,0.3753 4.2862,0.83826 0.4629,0.46294 3.1129,1.08357 5.8889,1.37917 8.7077,0.92724 10.3005,1.19505 13.3301,2.24141 1.6404,0.56659 4.1145,0.39535 5.5741,-0.38581 2.0037,-1.07233 3.1193,-0.9096 4.717,0.68804 4.3542,4.35419 1.9541,7.68773 -6.9804,9.69517 -5.0337,1.13099 -5.8497,0.9607 -7.6517,-1.59685 -1.5478,-2.1968 -2.2705,-2.45711 -3.106,-1.11888 -0.6474,1.03677 -2.3894,1.44789 -4.2958,1.01383 -1.7638,-0.4016 -7.7068,-1.01396 -13.2068,-1.36082 -9.1725,-0.57846 -26.1474,-4.78593 -24.8159,-6.15096 0.3109,-0.31865 -1.6284,-0.67214 -4.3095,-0.78553 -2.681,-0.11333 -6.6746,-1.15969 -8.8746,-2.32512 -2.2,-1.16543 -5.35,-2.12265 -7,-2.12717 -1.65,-0.004 -3,-0.56504 -3,-1.2456 0,-0.68058 -3.45,-1.66688 -7.6667,-2.19182 -6.7209,-0.83666 -14.6044,-4.74714 -17.6667,-8.76328 -0.8014,-1.05097 -3.5652,-1.51282 -7.7726,-1.29882 -2.7752,0.14114 -3.0073,0.60721 -2.1792,4.37724 2.0188,9.19156 11.918,24.29965 16.9509,25.8703 1.6505,0.51508 3.3009,1.3816 3.6676,1.92559 1.8972,2.81476 38.0731,21.01129 44.0393,22.15184 2.545,0.48653 6.7274,1.89047 9.294,3.11985 2.5667,1.22939 7.3667,3.00526 10.6667,3.94638 11.6497,3.32238 22.6667,10.29249 22.6667,14.34056 0,2.03809 -7.4133,2.45421 -8.6307,0.48444 -0.4335,-0.70131 -1.5727,-0.974 -2.5318,-0.60599 -0.959,0.36801 -2.5132,-0.25819 -3.4539,-1.39156 -0.9406,-1.13337 -3.3167,-2.06068 -5.2803,-2.06068 -1.9635,0 -4.1566,-0.5866 -4.8736,-1.30355 -0.7169,-0.71694 -3.5389,-1.58974 -6.2711,-1.93956 -2.7322,-0.3498 -6.9156,-1.52482 -9.2964,-2.61116 -2.3809,-1.08633 -6.4289,-2.5637 -8.9956,-3.28304 -8.3679,-2.34517 -18.7782,-6.44089 -20.3394,-8.00208 -0.84,-0.84 -2.5338,-1.52728 -3.764,-1.52728 -1.2302,0 -2.9511,-0.86072 -3.8242,-1.91272 -2.5823,-3.11156 -11.8577,-7.42061 -15.973,-7.42061 -3.6504,0 -3.7738,0.19859 -2.8014,4.51023 0.9447,4.18836 2.6777,8.22162 6.3693,14.8231 3.4355,6.14355 14.9994,31.02395 14.9994,32.27217 0,0.74564 1.5101,3.58096 3.3557,6.30074 1.8457,2.71976 3.5237,6.04518 3.7289,7.38984 0.2052,1.34466 1.9115,4.75313 3.7918,7.57437 1.8802,2.82125 5.5506,9.10636 8.1565,13.96692 7.0426,13.13645 14.1539,22.49596 17.0921,22.49596 1.3979,0 2.5416,-0.59247 2.5416,-1.31661 0,-0.72414 2.2541,-2.73951 5.009,-4.4786 17.8112,-11.24375 37.5183,-33.4742 46.279,-52.20479 3.8815,-8.2988 5.2098,-11.04733 7.2493,-15 0.6622,-1.28333 3.7321,-8.2877 6.822,-15.56526 5.3518,-12.60468 7.0038,-21.25055 6.7209,-35.1746 -0.035,-1.70744 0.5262,-2.70943 1.262,-2.25466 0.7285,0.45022 1.3245,-0.0668 1.3245,-1.14901 0,-1.08217 -0.5375,-2.16757 -1.1945,-2.41203 -0.657,-0.24444 -1.6328,-8.84444 -2.1684,-19.1111 -1.3618,-26.09932 -1.6955,-30.13064 -2.8117,-33.96321 -1.2382,-4.25119 -1.6297,-6.28452 -2.2649,-11.76312 -0.2801,-2.41616 -1.9675,-6.01616 -3.7497,-8 -3.5539,-3.95586 -9.8023,-14.94034 -8.4987,-14.94034 0.4488,0 -1.1556,-2.85 -3.5652,-6.33333 -2.4097,-3.48333 -4.3885,-6.93333 -4.3974,-7.66667 -0.01,-0.73333 -1.327,-1.90874 -2.9291,-2.61202 -1.6022,-0.70328 -3.4968,-2.5601 -4.2104,-4.12626 -1.435,-3.14933 -12.899,-11.26172 -15.9146,-11.26172 -1.1985,0 -1.6111,-0.78936 -1.1038,-2.11141 0.5173,-1.34808 0.2073,-1.89804 -0.8574,-1.5212 -0.9171,0.32461 -5.1004,-1.12525 -9.2962,-3.22192 -4.1957,-2.09668 -8.5254,-3.81213 -9.6214,-3.81213 -1.096,0 -3.9632,-0.8306 -6.3714,-1.84578 -17.0168,-7.17337 -53.7848,-10.29322 -60.048,-5.09521 -2.9288,2.43071 -15.525,2.22263 -20.569,-0.3398 -2.8701,-1.45805 -4.5289,-3.47588 -5.1383,-6.25027 -1.2357,-5.62604 1.5949,-8.18709 8.9395,-8.08829 3.1738,0.0427 9.3706,-0.50571 13.7706,-1.21864 15.558,-2.5209 30,-3.72428 30,-2.49973 0,1.21077 15.617,4.39849 17.0896,3.48832 0.7143,-0.44142 5.1924,0.66304 9.9514,2.45432 4.759,1.79129 8.9175,2.99212 9.2411,2.6685 0.3236,-0.3236 3.0635,0.6075 6.0887,2.0691 3.0252,1.46161 6.0228,2.65748 6.6613,2.65748 1.0582,0 8.0007,3.70809 20.3012,10.84313 2.5667,1.48883 6.8815,4.45819 9.5885,6.59859 2.707,2.14038 5.4605,3.89161 6.1188,3.89161 0.6584,0 2.322,2.31272 3.6969,5.13939 1.3749,2.82666 4.0949,6.05485 6.0445,7.17374 3.7568,2.15611 7.7361,8.50006 18.2032,29.0202 9.1765,17.99007 12.6471,28.40415 13.3303,40 0.324,5.5 0.9257,13.9 1.3371,18.66667 0.4114,4.76666 0.6678,18.21792 0.5698,29.89168 -0.1664,19.82112 -0.3969,21.64326 -3.4847,27.5485 -1.8186,3.47794 -4.0359,9.22668 -4.9275,12.77499 -2.3373,9.30226 -8.8416,23.1928 -12.8543,27.45149 -1.9001,2.01667 -3.0085,3.66667 -2.4631,3.66667 0.5455,0 0.058,1.3335 -1.0839,2.96334 -1.1415,1.62983 -2.0756,3.90047 -2.0756,5.04586 0,1.14538 -1.8,3.1458 -4,4.44537 -3.0033,1.77411 -4,3.34076 -4,6.28748 0,2.15853 -0.5089,3.92461 -1.1308,3.92461 -0.622,0 -2.1748,2.31511 -3.4508,5.14467 -2.1413,4.74863 -15.4547,17.522 -18.2627,17.522 -0.6719,0 -1.7961,1.51076 -2.4981,3.35724 -0.702,1.84649 -2.8535,3.95687 -4.7812,4.68975 -1.9276,0.73288 -6.2883,3.22693 -9.6905,5.54234 -3.4022,2.31542 -7.877,5.35343 -9.944,6.75114 -2.067,1.39772 -4.5864,2.22345 -5.5988,1.83498 -1.1534,-0.44261 -1.5833,-0.0357 -1.1514,1.08966 0.4233,1.10326 -1.4028,2.97169 -4.7346,4.84428 -2.9831,1.67658 -5.4237,3.46284 -5.4237,3.96946 0,0.77442 -4.7766,2.33799 -10,3.27344 -0.7334,0.13133 -2.2334,0.54508 -3.3334,0.91945 -1.1,0.37438 -6.2,1.67142 -11.3333,2.88232 -9.0147,2.1265 -12.4798,2.28176 -26.5587,1.19002 z M 297.31016,826.86026 c -0.42212,-1.1 -1.28446,-2 -1.91631,-2 -0.63187,0 -0.80348,0.9 -0.38137,2 0.42212,1.1 1.28445,2 1.9163,2 0.63187,0 0.80348,-0.9 0.38138,-2 z m 909.51784,-3.33333 c -0.4532,-0.73333 -1.424,-1.33333 -2.1574,-1.33333 -0.7333,0 -0.9625,0.6 -0.5093,1.33333 0.4533,0.73333 1.4241,1.33333 2.1574,1.33333 0.7333,0 0.9625,-0.6 0.5093,-1.33333 z m -154.6449,-59.66667 c 1.775,-2.01666 3.2683,-4.26666 3.3183,-5 0.1766,-2.58568 33.0618,-35.33333 35.4818,-35.33333 0.4353,0 3.536,-1.8523 6.8905,-4.11624 4.2707,-2.88225 7.2266,-3.95077 9.86,-3.56425 3.1001,0.45499 3.7574,0.0655 3.7405,-2.21709 -0.04,-5.42263 -1.5783,-6.11254 -12.3391,-5.53355 -5.6177,0.30225 -10.9208,0.98636 -11.7846,1.52024 -0.8638,0.53387 -7.8095,1.23503 -15.4348,1.55813 -14.2747,0.60487 -19.8852,-0.8507 -20.04,-5.19904 -0.035,-0.97984 -0.4973,-2.82696 -1.0276,-4.1047 -0.8965,-2.15976 0.5413,-2.30046 20.4415,-2.00036 24.4083,0.36809 25.9612,-0.1413 22.0181,-7.22288 -1.3638,-2.44948 -3.2441,-4.94146 -4.1784,-5.53775 -0.9342,-0.59628 -4.0044,-3.29628 -6.8225,-6 -2.8181,-2.70371 -7.4537,-7.02229 -10.3013,-9.59685 -7.766,-7.02132 -25.8442,-28.79304 -25.8442,-31.12442 0,-0.85421 -1.05,-2.20661 -2.3333,-3.00533 -2.0333,-1.26549 -2.3451,-0.90557 -2.4245,2.79936 -0.05,2.33836 -1.9086,8.09753 -4.1299,12.79815 -2.2213,4.70062 -4.7639,13.04658 -5.6503,18.54658 -2.868,17.79618 -2.8193,17.63992 -4.9458,15.87514 -1.5685,-1.30179 -1.7443,-1.15242 -0.9819,0.83442 0.7303,1.9032 0.4412,2.23302 -1.3536,1.54427 -1.7127,-0.65723 -1.4286,0.24348 1.1385,3.60913 3.0541,4.00411 3.4777,5.96726 3.9511,18.31099 0.3182,8.29572 1.349,15.75828 2.5772,18.65669 1.1257,2.65687 1.7725,5.10495 1.4372,5.44022 -0.3352,0.33525 1.8183,5.30122 4.7857,11.0355 2.9673,5.73427 5.0723,11.26735 4.6777,12.29571 -0.3947,1.02837 -0.1873,1.54205 0.4608,1.1415 1.2035,-0.74377 2.7811,1.88302 3.9578,6.58976 0.3498,1.3991 1.7385,0.54099 4.8551,-3 z m -857.04956,1.52778 c -0.44307,-0.44306 -1.59307,-0.49042 -2.55556,-0.1052 -1.06364,0.42562 -0.74771,0.74157 0.80556,0.80554 1.40555,0.0579 2.19305,-0.25724 1.75,-0.70029 z m 415.69445,-31.83297 c 3.66667,-0.95682 7.56667,-1.7547 8.66667,-1.77307 9.971,-0.16653 51.24177,-4.61189 76.88367,-8.28129 4.51934,-0.64672 12.31934,-1.54444 17.33333,-1.99492 5.01399,-0.45048 13.91633,-1.3073 19.783,-1.90402 7.42236,-0.75496 11.25144,-0.62717 12.58928,0.42011 1.44047,1.12763 1.69012,1.1172 0.99551,-0.0416 -1.08234,-1.80559 19.55181,-3.96051 24.94998,-2.60564 1.8041,0.4528 4.80019,0.24536 6.65799,-0.46099 3.29576,-1.25304 16.45308,-2.22738 44.80724,-3.31813 45.30166,-1.74271 54.64347,-2.26296 60.66667,-3.37857 3.66667,-0.67915 15.36667,-1.89256 26,-2.69647 10.63333,-0.80391 20.83333,-1.6826 22.66667,-1.95264 1.83333,-0.27004 4.42688,-0.53973 5.76344,-0.59931 2.27716,-0.10146 2.25732,-0.32797 -0.31516,-3.59837 -1.50991,-1.91952 -2.36016,-4.11319 -1.88946,-4.8748 0.55387,-0.89617 -0.51101,-1.11244 -3.01817,-0.61296 -2.36985,0.47212 -4.87888,0.0352 -6.46216,-1.12521 -1.42349,-1.04328 -3.93808,-1.89692 -5.58797,-1.89692 -1.6499,0 -3.36496,-0.59082 -3.81124,-1.31294 -0.4463,-0.7221 -2.13171,-1.24588 -3.74536,-1.16393 -3.32511,0.16885 -16.64664,-3.27577 -20.4312,-5.28301 -3.86534,-2.0501 -16.83163,-5.68899 -17.58539,-4.93523 -0.36959,0.36959 -1.46096,0.0172 -2.42527,-0.78313 -0.9643,-0.8003 -3.88665,-1.4551 -6.4941,-1.4551 -2.60746,0 -5.61928,-0.87845 -6.69295,-1.95213 -1.07368,-1.07367 -3.00653,-1.79073 -4.29524,-1.59348 -1.28871,0.19727 -3.83141,-0.4594 -5.65047,-1.45927 -1.81904,-0.99985 -5.71904,-2.01802 -8.66666,-2.2626 -2.94762,-0.24458 -7.94095,-1.41116 -11.09627,-2.5924 -3.15533,-1.18124 -6.90475,-1.84232 -8.33201,-1.46908 -1.42727,0.37324 -2.9054,0.17644 -3.28472,-0.43732 -0.37934,-0.61376 -2.31642,-0.82094 -4.30463,-0.46041 -1.98821,0.36053 -3.18367,0.22423 -2.65655,-0.30288 1.11455,-1.11456 -1.39318,-4.53709 -3.32437,-4.53709 -0.722,0 -1.00559,0.80041 -0.63018,1.7787 0.48502,1.26392 -3.00233,0.68319 -12.04938,-2.00654 -7.00258,-2.0819 -14.29552,-3.75695 -16.20658,-3.72236 -5.38244,0.0975 -10.75797,-1.01514 -12.70262,-2.62906 -0.97204,-0.80672 -2.64286,-1.13078 -3.71292,-0.72017 -1.07006,0.41063 -4.59611,0.0563 -7.83566,-0.78747 -3.23954,-0.84373 -8.8465,-1.7561 -12.4599,-2.02752 -3.6134,-0.2714 -6.9134,-0.98764 -7.33334,-1.59164 -0.41993,-0.604 -3.76352,-1.15829 -7.43018,-1.23176 -8.18178,-0.16393 -14.61952,-1.25301 -17.95326,-3.03717 -1.38613,-0.74183 -3.46369,-0.98675 -4.61682,-0.54425 -1.19952,0.4603 -2.09659,0.10953 -2.09659,-0.81983 0,-1.14104 -1.41951,-1.35808 -4.7706,-0.72941 -4.08223,0.76584 -4.87303,0.50326 -5.48051,-1.81975 -0.56461,-2.15909 -1.20765,-2.44835 -3.14174,-1.41325 -3.26956,1.74981 -8.81034,1.64334 -12.32342,-0.23679 -1.58085,-0.84605 -4.8496,-1.46401 -7.26386,-1.37325 -2.41427,0.0908 -6.0314,-0.51324 -8.03806,-1.34223 -2.00667,-0.82897 -4.39848,-1.38472 -5.31515,-1.23496 -0.91666,0.14975 -1.66666,-0.29785 -1.66666,-0.99468 0,-0.69683 -1.2032,-0.95232 -2.67378,-0.56776 -1.47057,0.38457 -3.55434,-0.0316 -4.6306,-0.92483 -1.07626,-0.89321 -4.07474,-1.62402 -6.66328,-1.62402 -2.58854,0 -5.04724,-0.55141 -5.46376,-1.22536 -0.91224,-1.47604 -13.24362,-7.84131 -15.19093,-7.84131 -2.41748,0 -1.47667,2.89043 1.16575,3.58143 2.42037,0.63295 4.08757,4.06777 4.08624,8.41857 -3.4e-4,1.1 -2.39215,4.65181 -5.31514,7.89292 -2.92297,3.24109 -5.3145,6.39109 -5.3145,7 0,0.60889 -0.9,1.10708 -2,1.10708 -1.1,0 -2,0.49101 -2,1.09113 0,0.60012 -2.09954,3.45012 -4.66563,6.33334 -2.56609,2.88321 -4.66609,5.85108 -4.66667,6.59528 -0.001,1.51828 -4.43393,10.23449 -7.78794,15.31358 -5.18196,7.8472 -7.82566,47.65619 -3.59375,54.11491 1.86304,2.84334 2.80785,3.14144 7.75116,2.44548 3.09621,-0.43592 8.62949,-1.57543 12.29616,-2.53225 z m -37.317,-8.49984 c -0.11707,-2.76222 -0.52072,-5.58607 -0.89701,-6.27526 -0.3763,-0.68917 -0.21079,-7.85304 0.3678,-15.9197 0.80505,-11.22414 1.8364,-16.38794 4.39396,-22 1.83809,-4.03334 5.48376,-12.10454 8.10146,-17.936 2.61772,-5.83147 5.94254,-11.70484 7.38847,-13.05195 2.97447,-2.77113 3.45389,-6.20236 0.96232,-6.88715 -6.45881,-1.77514 -15.795,-2.79657 -16.75813,-1.83344 -0.64536,0.64536 -3.50844,0.62094 -6.51956,-0.0556 -3.2059,-0.7203 -6.2387,-0.71952 -7.52792,10e-4 -1.33503,0.74712 -3.15011,0.67786 -4.75574,-0.18144 -3.05404,-1.63447 -4.51017,-1.79016 -3.64473,-0.3897 0.33989,0.55 -10.87471,0.95618 -24.92131,0.9026 -25.70661,-0.098 -33.50333,1.05142 -34.8618,5.13954 -0.29691,0.89349 -0.7918,10.04001 -1.09977,20.3256 -0.45307,15.13146 -1.06527,19.74697 -3.20734,24.18053 -1.81225,3.75092 -2.26277,6.16677 -1.42813,7.65819 1.52207,2.71977 19.58461,11.38766 33.72443,16.18376 5.86667,1.98992 12.89276,4.74117 15.61355,6.1139 2.72078,1.37274 6.74644,2.49588 8.94589,2.49588 2.19945,0 8.66427,2.05743 14.36624,4.57206 6.04295,2.665 10.70153,4.03113 11.16869,3.27524 0.44082,-0.71324 0.7057,-3.55679 0.58863,-6.319 z m 601.98371,-13.5283 c 0,-0.73333 -0.2646,-1.33333 -0.588,-1.33333 -0.3234,0 -0.9588,0.6 -1.412,1.33333 -0.4533,0.73334 -0.1887,1.33334 0.5879,1.33334 0.7766,0 1.4121,-0.6 1.4121,-1.33334 z M 474.74372,686.85628 c 3.35737,-8.03531 6.53411,-37.99063 4.26908,-40.25565 -1.28556,-1.28556 -28.77241,-1.35796 -27.97876,-0.0737 0.33989,0.55 -0.61741,1 -2.12736,1 -1.50995,4e-5 -2.74536,-0.64038 -2.74536,-1.42314 0,-0.80728 -1.13224,-1.06383 -2.61631,-0.5928 -1.43896,0.4567 -3.79056,0.20193 -5.22577,-0.56616 -1.63439,-0.87471 -2.77421,-0.91576 -3.05036,-0.10987 -0.24249,0.70768 -8.09644,1.57091 -17.45323,1.91828 -9.35678,0.34739 -17.75678,1.10961 -18.66666,1.69384 -0.90988,0.58423 -5.85434,1.06621 -10.98767,1.07107 -11.52307,0.0107 -12.59147,2.5613 -2.66667,6.36562 11.2063,4.29554 29.21787,11.81242 31.33334,13.07654 1.1,0.65732 4.1,2.29005 6.66666,3.62828 2.56667,1.33822 5.86667,3.07682 7.33334,3.86354 3.37345,1.80952 7.29009,3.40468 17.33333,7.05946 4.4,1.60118 11.3,4.26841 15.33333,5.92718 4.03334,1.65878 7.79243,2.76618 8.35354,2.46091 0.5611,-0.30528 1.8641,-2.57477 2.89553,-5.04335 z m -29.29041,0.73755 c 0.43049,-0.69654 -0.43411,-1.91764 -1.92131,-2.71358 -2.92008,-1.56278 -3.13203,-1.35349 -1.89469,1.87096 0.90848,2.36747 2.63762,2.74928 3.816,0.84262 z m 844.84639,-23.1285 c -1.7113,-1.71132 -3.4467,-0.38866 -2.1798,1.66131 0.4908,0.79408 1.5032,1.06628 2.2497,0.60488 0.9107,-0.56283 0.8877,-1.30861 -0.07,-2.26619 z m -987.41689,-0.84969 c -0.48339,-0.78212 -1.51693,-1.42204 -2.29677,-1.42204 -0.88414,0 -0.78298,0.76504 0.26869,2.03223 1.82872,2.20346 3.46311,1.71173 2.02808,-0.61019 z M 1108.828,641.52693 c 0,-2.56666 0.6354,-4.66666 1.412,-4.66666 0.7766,0 1.0159,-0.64091 0.5318,-1.42423 -0.4841,-0.78333 -1.7195,-1.10216 -2.7453,-0.70852 -1.0259,0.39365 -1.8652,0.13455 -1.8652,-0.57576 0,-0.71032 -0.75,-1.29519 -1.6666,-1.29971 -0.9167,-0.004 -3.2475,-0.83302 -5.1795,-1.84111 l -3.5129,-1.8329 4.1421,6.66317 c 2.2781,3.66475 4.9055,6.95612 5.8385,7.31416 0.933,0.35804 1.3645,1.18812 0.9587,1.8446 -0.4057,0.6565 -0.1022,1.19363 0.6744,1.19363 0.7766,0 1.412,-2.1 1.412,-4.66667 z m 16,-15.47598 c 0,-1.91683 -2.3135,-1.36756 -3.1228,0.74141 -0.4955,1.29136 -0.1006,1.68623 1.1907,1.19068 1.0627,-0.40777 1.9321,-1.27721 1.9321,-1.93209 z m -508.00001,-3.48499 c 0,-1.77517 -5.87335,-7.04054 -7.89908,-7.08142 -2.59416,-0.0524 -7.01123,-3.26952 -5.94831,-4.33243 0.4278,-0.42781 -0.54294,-0.43244 -2.1572,-0.0107 -1.61426,0.42215 -3.32361,0.17235 -3.79856,-0.55509 -1.22754,-1.87984 -13.25629,-8.39275 -15.50128,-8.39275 -2.16997,0 -11.80926,-5.3932 -12.4827,-6.98408 -0.24959,-0.58961 -2.34959,-2.05189 -4.66667,-3.24949 -8.48911,-4.38769 -18.42853,-12.61456 -17.66004,-14.61723 0.43791,-1.14116 0.17721,-1.60038 -0.62651,-1.10366 -1.97589,1.22117 -5.04214,-1.72543 -8.16468,-7.84608 -1.49056,-2.92176 -4.44393,-7.1619 -6.56304,-9.42254 -2.1191,-2.26064 -3.8557,-4.76806 -3.85909,-5.57206 -0.012,-2.99011 -4.26759,-9.87152 -6.10383,-9.87152 -2.93762,0 -2.27812,4.33542 2.09766,13.78929 2.2,4.75312 4,10.16833 4,12.03383 0,3.19248 3.26001,9.24338 9.0747,16.84354 1.40263,1.83334 3.82458,5.83971 5.38208,8.90306 1.55751,3.06334 4.0112,5.94404 5.45266,6.40153 1.44145,0.45751 2.97504,1.94785 3.40797,3.31191 0.43293,1.36405 3.01361,4.1585 5.73487,6.2099 2.72124,2.0514 5.15269,4.21959 5.40321,4.81819 1.17039,2.79655 22.13148,8.81799 30.78596,8.84381 2.51613,0.008 5.60655,-0.53853 6.86759,-1.21342 1.49468,-0.79992 4.07938,-0.59758 7.42521,0.58132 4.78076,1.68448 9.79908,0.92452 9.79908,-1.48394 z m 463.27051,-22.70569 c -0.4911,-3.48333 -1.8554,-7.83333 -3.0318,-9.66667 -5.0373,-7.85018 -7.327,-13.38582 -10.356,-25.03701 -1.7688,-6.80369 -3.216,-13.55369 -3.216,-15 0,-1.44631 -0.6355,-2.62965 -1.4121,-2.62965 -0.7766,0 -1.0668,-0.55855 -0.6449,-1.2412 0.4219,-0.68267 0.1797,-1.60428 -0.5384,-2.04804 -1.8715,-1.1567 -11.5886,5.29918 -12.3482,8.20401 -0.621,2.3746 6.3663,15.57291 16.4566,31.08523 2.6236,4.03333 6.9885,10.78333 9.6998,15 2.7113,4.21666 5.2344,7.66666 5.6068,7.66666 0.3724,0 0.2753,-2.85 -0.2158,-6.33333 z m 12.7295,-20.35784 c 0,-2.37569 -5.246,-21.03669 -7.4917,-26.64907 -1.1893,-2.97232 -3.2902,-6.00782 -4.6686,-6.74557 -1.5877,-0.84971 -2.5064,-2.79025 -2.5064,-5.29443 0,-2.66097 -0.6674,-3.95309 -2.0418,-3.95309 -3.3949,0 -4.0263,4.18045 -1.0014,6.62984 2.1717,1.75857 2.8351,4.11777 3.2223,11.459 0.3375,6.39869 1.2059,10.04017 2.8209,11.82924 1.2834,1.42161 2.3334,3.37161 2.3334,4.33333 0,0.96172 0.5845,1.74859 1.2991,1.74859 0.7145,0 2.2299,1.8 3.3675,4 2.0092,3.88528 4.6667,5.38991 4.6667,2.64216 z M 510.16132,522.93897 c 0,-0.32339 -0.6,-0.9588 -1.33333,-1.41203 -0.73334,-0.45323 -1.33334,-0.18864 -1.33334,0.58797 0,0.77662 0.6,1.41203 1.33334,1.41203 0.73333,0 1.33333,-0.26459 1.33333,-0.58797 z m -6.43119,-30.49912 c -1.27694,-1.57606 -3.78121,-12.27534 -4.84173,-20.68598 -0.30791,-2.44186 -1.64745,-6.04186 -2.97679,-8 l -2.41696,-3.56026 -0.4356,3.80861 c -0.23957,2.09475 0.65182,8.39475 1.98087,14 1.32905,5.60527 2.51129,11.09139 2.6272,12.19139 0.11587,1.1 0.27452,2.66908 0.35247,3.48685 0.078,0.81777 1.49173,3.21145 3.14173,5.31931 l 3,3.83244 0.42431,-4.4064 c 0.23337,-2.42352 -0.1516,-5.1172 -0.8555,-5.98596 z m -156.86791,119.1533 c -2.34914,-4.54276 -2.60534,-14.60321 -0.66378,-26.06621 0.74526,-4.4 1.36874,-15.85679 1.38552,-25.45952 0.0397,-22.70002 0.67472,-25.08679 6.81404,-25.60995 4.24041,-0.36135 4.95174,0.0711 6.91177,4.20151 2.55851,5.39165 3.04263,32.64969 0.73768,41.53462 -0.76097,2.93334 -1.37717,6.23334 -1.36935,7.33334 0.0136,1.91212 -2.0457,10.44678 -3.53892,14.66666 -0.38922,1.1 -0.57984,3.31724 -0.42357,4.92719 0.77856,8.02105 -6.34603,11.25484 -9.85339,4.47236 z m 20.2991,-5.07719 c -2.01667,-1.25033 -3.66667,-2.94137 -3.66667,-3.75786 0,-2.68662 5.14495,-6.25811 7.95616,-5.52296 1.49078,0.38985 2.71051,0.21152 2.71051,-0.3963 0,-0.6078 2.25,-1.80337 5,-2.65682 2.75,-0.85346 6.89068,-2.39999 9.20151,-3.43674 2.31082,-1.03676 5.21825,-1.88501 6.46094,-1.88501 1.2427,0 3.85202,-0.86735 5.7985,-1.92744 9.91374,-5.3992 32.98369,-14.07256 37.4311,-14.07256 2.31379,0 4.15403,0.86357 4.6622,2.18784 1.1323,2.95071 -0.32409,7.14549 -2.48084,7.14549 -0.9608,0 -2.48336,0.88739 -3.38349,1.97199 -1.12712,1.35809 -2.33848,1.59635 -3.89127,0.76532 -1.63992,-0.87767 -4.05558,-0.0799 -8.85998,2.92632 -3.63294,2.27315 -7.54196,4.20908 -8.68672,4.30207 -1.14476,0.0929 -4.61324,1.48876 -7.70772,3.10169 -3.0945,1.61293 -6.31063,2.93261 -7.14696,2.93261 -0.83635,0 -2.60495,0.98131 -3.93024,2.18067 -1.3253,1.19937 -3.47254,2.29027 -4.77166,2.42421 -1.29912,0.13395 -4.00682,0.93582 -6.01713,1.78192 -2.01029,0.84612 -4.46416,1.22792 -5.45304,0.84846 -0.98888,-0.37947 -2.56756,0.23736 -3.50817,1.37073 -2.19682,2.647 -5.12826,2.56143 -9.71703,-0.28363 z"
       style="fill:#000000;stroke-width:1.33333" />
  </g>
</svg>
