<?xml version="1.0" encoding="UTF-8" standalone="no"?>
<svg
   xmlns:dc="http://purl.org/dc/elements/1.1/"
   xmlns:cc="http://creativecommons.org/ns#"
   xmlns:rdf="http://www.w3.org/1999/02/22-rdf-syntax-ns#"
   xmlns:svg="http://www.w3.org/2000/svg"
   xmlns="http://www.w3.org/2000/svg"
   viewBox="0 0 1553.3333 613.33331"
   height="613.33331"
   width="1553.3333"
   id="svg78"
   version="1.1">
  <metadata
     id="metadata84">
    <rdf:RDF>
      <cc:Work
         rdf:about="">
        <dc:format>image/svg+xml</dc:format>
        <dc:type
           rdf:resource="http://purl.org/dc/dcmitype/StillImage" />
        <dc:title></dc:title>
      </cc:Work>
    </rdf:RDF>
  </metadata>
  <defs
     id="defs82" />
  <g
     id="g86">
    <path
       id="path90"
       d="m 179.38582,570.03051 c -8.97553,-1.4526 -15.15373,-4.52416 -22.25024,-11.06201 -6.04083,-5.56525 -15.12439,-20.02045 -15.12439,-24.06829 0,-3.08947 -6.34817,-6.59996 -10.54486,-5.83126 -1.97013,0.36086 -8.07434,0.1449 -13.56491,-0.47992 -5.4906,-0.62481 -14.05312,-1.51672 -19.02786,-1.98202 -4.974744,-0.46531 -11.156586,-1.67962 -13.737415,-2.69847 -2.580838,-1.01884 -6.2209,-1.85244 -8.089012,-1.85244 -3.386958,0 -20.72989,-7.35341 -22.004856,-9.33007 -0.369372,-0.57265 -2.276484,-1.42714 -4.238018,-1.89886 -14.928212,-3.59003 -28.625739,-25.38377 -34.843027,-55.43773 -5.2278,-25.27087 -6.4500739,-33.29632 -5.417191,-35.5693 0.607509,-1.33689 0.990206,-2.92368 0.850419,-3.52619 -0.139776,-0.60254 -0.20277,-10.80254 -0.139995,-22.66667 0.134266,-25.37789 0.134923,-25.30151 -0.421156,-50.23784 -0.237118,-10.63333 0.03058,-21.43333 0.594799,-24 1.217525,-5.53817 2.832639,-31.73998 2.712233,-44 -0.04676,-4.76666 -0.896894,-19.35125 -1.889063,-32.4102 -2.3350991,-30.73475 -0.31177,-59.37722 4.634588,-65.60753 0.589957,-0.74308 1.822186,-4.20328 2.738304,-7.68933 0.916107,-3.48604 2.237361,-6.67681 2.936107,-7.0906 1.564164,-0.92628 24.093955,-3.42419 34.73491,-3.85111 4.301637,-0.17258 8.53589,-0.73704 9.409442,-1.25434 0.873562,-0.51731 13.008811,-0.56611 26.96724,-0.1084 13.958441,0.45765 29.762301,0.78926 35.119721,0.73692 69.92008,-0.68323 94.92454,-1.73523 99.75126,-4.19677 3.21279,-1.63847 3.43317,-1.58259 6.59919,1.67359 2.58675,2.66042 4.33455,2.89442 24.0582,3.22088 16.28592,0.26956 22.73587,-0.1292 27.53074,-1.70218 3.59497,-1.17934 12.74183,-2.25911 21.47665,-2.53528 10.74678,-0.33978 17.67854,-1.29803 23.60467,-3.26311 4.61445,-1.53014 11.54402,-3.10904 15.39905,-3.50869 3.85501,-0.39964 9.00505,-1.81384 11.44452,-3.14266 2.43945,-1.32882 7.44898,-2.83947 11.13228,-3.35701 3.6833,-0.51753 11.70644,-2.71648 17.8292,-4.88654 19.03617,-6.74691 27.92697,-8.74595 49.39954,-11.10712 4.2094,-0.46287 12.66298,-2.26249 18.78574,-3.99916 16.73181,-4.74583 34.42007,-8.53494 46.76827,-10.01851 6.07785,-0.73022 12.63244,-1.90392 14.56575,-2.60822 1.9333,-0.7043 6.14431,-1.57097 9.35778,-1.92595 5.61449,-0.62021 12.00755,-1.60582 31.58612,-4.86962 4.97475,-0.8293 12.71398,-1.69179 17.19827,-1.916633 4.48431,-0.22484 9.09135,-0.75371 10.23789,-1.17528 1.14653,-0.42156 6.24424,-1.07911 11.32823,-1.46122 5.08399,-0.3821 13.11523,-1.336573 17.84721,-2.121033 4.73197,-0.78447 9.11532,-1.14354 9.74076,-0.79793 0.62543,0.3456 5.20741,0.0717 10.18214,-0.60866 4.97474,-0.68036 11.23666,-1.44104 13.91537,-1.6904 2.67871,-0.24936 8.94062,-0.93041 13.91536,-1.51344 4.97473,-0.58303 19.06405,-1.17843 31.30954,-1.32311 12.24558,-0.14469 29.46585,-1.01474 38.26729,-1.93345 8.80143,-0.91872 23.20383,-1.61751 32.00536,-1.55288 8.80143,0.0646 36.98005,0.22708 62.61914,0.36099 25.63899,0.1339 50.68666,0.76625 55.66143,1.40521 14.67052,1.88429 63.82711,5.59596 66.18578,4.99751 2.63788,-0.66923 36.1973,3.84559 51.39892,6.914803 13.88756,2.803873 26.63666,4.224773 35.95466,4.007183 5.2335,-0.12222 10.243,0.33629 11.1323,1.0189 0.8893,0.6826 3.8086,1.54233 6.4873,1.91051 2.6786,0.36818 9.1832,2.18882 14.4543,4.04586 10.6121,3.73859 14.1203,3.48497 12.6773,-0.91647 -1.4741,-4.49563 -0.7401,-11.985503 1.3741,-14.023336 1.6699,-1.60948 2.9866,-1.57428 9.3316,0.24948 4.0633,1.167853 11.7709,2.752923 17.1283,3.522373 26.3458,3.783873 40.4245,6.482043 45.9207,8.800673 2.296,0.9686 6.6794,2.14587 9.7409,2.61615 5.878,0.90297 17.6198,3.3182 36.4264,7.49275 6.2584,1.38913 13.205,2.52573 15.4369,2.52573 2.2319,0 7.6983,1.2 12.1473,2.66667 4.4491,1.46667 9.7131,2.67036 11.6979,2.67488 1.985,0.005 5.4026,0.90452 7.5949,2 2.192,1.09548 5.3229,1.98882 6.9575,1.98519 1.6346,-0.004 5.7897,0.85494 9.2338,1.90793 6.9665,2.12992 9.5686,2.7645 35.4865,8.65406 9.9508,2.2612 19.5251,4.11127 21.2764,4.11127 1.7513,0 5.5072,1.12678 8.3469,2.50395 2.8395,1.37717 7.1207,2.9086 9.5138,3.40317 2.393,0.49457 6.4283,2.36779 8.9674,4.16272 2.5391,1.79492 5.7473,3.26349 7.1292,3.26349 1.382,0 2.5128,0.63542 2.5128,1.41203 0,0.77661 0.4986,1.11676 1.1078,0.75589 0.6094,-0.36086 4.4667,1.10372 8.5717,3.25464 4.1049,2.15094 8.3723,3.91078 9.4831,3.91078 1.1108,0 7.7423,2.61313 14.7367,5.80694 6.9945,3.19383 14.2826,6.26727 16.1959,6.82986 1.9135,0.5626 4.1625,1.54409 4.9981,2.18109 0.8354,0.63701 5.3248,2.32315 9.9763,3.74699 4.6516,1.42384 10.371,3.53693 12.7097,4.69577 3.9094,1.93709 17.1198,5.1674 36.3267,8.88285 4.2093,0.8143 8.5926,1.80734 9.7407,2.20676 1.148,0.39943 3.2204,0.59024 4.6054,0.42404 1.385,-0.16621 3.2636,0.26335 4.1746,0.95456 0.9111,0.69122 4.1397,1.68643 7.1746,2.21159 6.7009,1.15951 11.3328,3.42653 16.3986,8.02624 3.5442,3.21812 3.8268,4.25027 3.8268,13.98496 0,9.09223 -0.4432,11.01896 -3.2849,14.27937 -1.8067,2.07293 -3.6753,5.86897 -4.1528,8.43564 -0.4772,2.56667 -1.1472,6.21151 -1.4884,8.09963 -0.3414,1.88813 -2.0551,5.76218 -3.808,8.60901 -1.7529,2.84684 -3.3465,7.002 -3.5414,9.23371 -0.9334,10.70014 -3.4849,21.50862 -5.9965,25.40236 -1.5266,2.36686 -2.7756,5.1528 -2.7756,6.19097 0,3.12192 -8.6509,14.91043 -14.8805,20.27764 -3.2096,2.76518 -5.54,5.7654 -5.1789,6.66712 0.3611,0.90173 -4.689,6.63898 -11.2226,12.74946 -6.5335,6.11048 -14.076,13.97772 -16.7613,17.48278 -5.2076,6.79724 -21.2898,19.22185 -30.7407,23.74917 -3.1505,1.50921 -7.6242,4.27269 -9.9416,6.14108 -2.3174,1.86839 -5.1345,3.39707 -6.2601,3.39707 -1.1255,0 -3.6386,1.2 -5.5848,2.66666 -1.9459,1.46667 -4.1346,2.66667 -4.8639,2.66667 -0.7291,0 -3.7479,1.57503 -6.7084,3.50004 -2.9604,1.92503 -7.8579,4.3368 -10.883,5.35949 -3.0252,1.0227 -7.4292,3.2691 -9.7866,4.99199 -6.4606,4.72164 -28.9461,14.63112 -47.3917,20.88573 -6.1227,2.07615 -15.3876,5.30959 -20.5884,7.18544 -5.2009,1.87585 -11.643,3.41064 -14.3157,3.41064 -2.6728,0 -10.6282,2.14071 -17.6788,4.75713 -12.3418,4.57999 -20.6551,6.8397 -29.5178,8.02352 -10.4998,1.40252 -17.1727,3.00794 -22.9603,5.52392 -8.9263,3.88052 -15.5204,5.69543 -20.693,5.69543 -2.4711,0 -6.1837,0.82209 -8.2504,1.82687 -2.0667,1.00477 -6.8886,2.24614 -10.7154,2.75861 -3.8267,0.51247 -10.9373,2.09037 -15.8013,3.50647 -4.8641,1.41609 -10.8344,2.57472 -13.2674,2.57472 -5.5247,0 -8.9262,4.88472 -9.3473,13.4233 -0.294,5.96116 -4.105,11.91003 -7.6298,11.91003 -0.9502,0 -4.1285,2.45069 -7.063,5.44598 -5.4596,5.57252 -13.9055,10.55402 -17.894,10.55402 -1.228,0 -5.1665,1.14122 -8.7525,2.53605 -3.5859,1.39483 -10.277,3.43236 -14.8691,4.52787 -7.7093,1.83916 -15.8116,4.3537 -39.6588,12.30806 -18.6848,6.23242 -24.1135,7.40172 -35.9022,7.73315 -8.44803,0.23751 -14.83873,-0.39785 -21.15073,-2.1028 -4.97467,-1.34372 -12.17585,-3.02724 -16.00263,-3.74115 -15.42894,-2.87841 -26.41235,-11.49981 -33.75042,-26.49233 -2.71939,-5.5562 -5.17317,-10.36349 -5.45268,-10.68288 -0.49673,-0.56763 -3.63686,-0.7082 -42.20181,-1.88927 -10.33217,-0.31642 -19.72504,-0.68366 -20.87305,-0.81609 -12.57382,-1.45045 -30.40473,-2.76956 -38.26729,-2.83098 -5.35738,-0.0419 -12.1383,-0.66851 -15.06877,-1.39258 -2.93037,-0.72406 -14.20182,-1.61612 -25.04766,-1.98234 -28.01799,-0.94606 -32.59942,-1.29211 -41.98414,-3.17111 -4.59208,-0.91943 -10.2278,-1.78153 -12.52383,-1.9158 -2.29604,-0.13427 -5.1139,-0.60939 -6.26191,-1.05584 -1.14803,-0.44645 -8.72766,-1.47808 -16.84351,-2.29251 -8.11586,-0.81442 -16.88257,-2.14822 -19.48151,-2.964 -2.59895,-0.81577 -10.04798,-1.95926 -16.55341,-2.54109 -15.69007,-1.40325 -37.29436,-5.57477 -43.00241,-8.30321 -2.52448,-1.2067 -6.87514,-2.5668 -9.66815,-3.02246 -2.79302,-0.45565 -8.20916,-1.62505 -12.03588,-2.59866 -14.23453,-3.62163 -21.25025,-4.66396 -35.99385,-5.34764 -8.31645,-0.38564 -16.16001,-1.23407 -17.43014,-1.88539 -2.77791,-1.42451 -7.10784,0.57096 -7.10784,3.27568 0,3.16977 -5.49474,5.01916 -12.26911,4.12947 -4.84802,-0.63671 -6.88712,-0.30419 -8.9143,1.45364 -2.14627,1.8611 -3.12115,1.98432 -5.31474,0.67169 -1.47748,-0.88411 -4.32021,-1.60748 -6.31715,-1.60748 -1.99693,0 -5.29294,-1.12371 -7.32444,-2.49712 -3.37733,-2.28327 -4.28951,-2.34124 -10.65133,-0.67705 -3.82672,1.00104 -9.77555,2.4017 -13.2196,3.11261 -21.83412,4.50691 -41.84344,15.31132 -66.49734,35.9065 -7.10773,5.93762 -14.42018,11.15568 -16.24986,11.5957 -1.82967,0.44001 -3.65784,1.6269 -4.06258,2.63756 -0.40476,1.01064 -3.04901,2.76358 -5.87613,3.89541 -4.23694,1.69627 -10.29968,1.96772 -34.50106,1.54477 -16.14848,-0.28221 -31.00387,-0.94477 -33.01198,-1.47236 -2.92774,-0.76918 -4.35041,-0.23664 -7.18063,2.68798 -2.91512,3.01232 -4.29509,3.5005 -7.9274,2.80442 -5.03022,-0.96396 -10.94245,1.46319 -14.86274,6.1016 -3.32198,3.93048 -10.84302,9.26482 -17.95805,12.73682 -3.11259,1.51888 -6.50783,3.74132 -7.54502,4.93877 -1.03717,1.19745 -4.12623,3.26883 -6.86459,4.60307 -2.73834,1.33424 -7.54471,3.66818 -10.68082,5.18656 -9.93132,4.80834 -45.18693,7.14617 -63.37589,4.2025 z m 32.0281,-16.68 c 19.44138,-2.78533 35.3932,-8.21838 47.92882,-16.32412 3.20068,-2.06961 6.91525,-4.16576 8.2546,-4.65809 5.24243,-1.92711 1.95099,-3.4546 -8.34922,-3.87471 -5.93142,-0.2419 -13.91535,0.0869 -17.74208,0.73088 -3.82672,0.6439 -15.09817,1.04071 -25.04766,0.88182 -59.17443,-0.94506 -57.00607,-1.03404 -57.50818,2.36009 -0.53038,3.5852 9.88891,14.19165 17.84939,18.17005 9.85725,4.92632 15.87798,5.3984 34.61433,2.71408 z M 1015.896,529.9259 c 7.2707,-1.41652 19.7945,-4.70051 27.8306,-7.29776 8.0362,-2.59725 20.4462,-6.19716 27.5778,-7.99979 20.5215,-5.18712 28.6475,-9.9186 33.9032,-19.74058 l 2.7655,-5.16833 -6.0319,0.77776 c -3.3175,0.42777 -11.0414,1.14858 -17.1642,1.60181 -6.1228,0.45321 -13.9502,1.67685 -17.3942,2.71919 -3.444,1.04232 -8.7667,1.812 -11.828,1.7104 -3.0615,-0.1016 -8.6972,0.44841 -12.5239,1.22228 -16.2746,3.29116 -24.9718,4.35077 -40.5473,4.94005 -25.291,0.95685 -59.16304,4.46064 -61.10432,6.32074 -0.44311,0.42456 -0.40714,2.80752 0.0808,5.29544 1.41538,7.22939 14.75608,14.16743 34.08216,17.72508 10.79591,1.98738 22.46982,1.37807 40.35456,-2.10629 z M 181.66997,507.34247 c 3.82673,0.55498 31.69225,0.77678 61.92337,0.49287 30.23113,-0.28389 60.60141,-0.44149 67.48951,-0.35021 46.58022,0.61729 52.60116,0.36564 54.87102,-2.29343 1.75841,-2.05993 2.89952,-2.31209 5.8784,-1.29904 6.74064,2.29235 14.36575,-2.83584 30.39621,-20.44262 3.44406,-3.78272 8.76668,-7.95672 11.82805,-9.27556 3.0614,-1.31884 6.75904,-3.685 8.21701,-5.25814 1.45798,-1.57313 3.46871,-2.86024 4.46829,-2.86024 0.99958,0 2.93767,-1.09593 4.30682,-2.4354 5.6073,-5.48566 47.7837,-16.10957 67.73596,-17.06214 10.45718,-0.49927 15.25294,-1.33494 18.67304,-3.2538 5.65883,-3.17491 16.05119,-3.36216 26.70754,-0.48124 4.2094,1.13801 10.47131,2.32 13.91536,2.62666 3.44405,0.30667 8.14049,0.82011 10.43653,1.14099 2.29603,0.32089 8.12979,0.92093 12.96392,1.33344 4.83414,0.41249 9.47072,1.15352 10.30355,1.64671 1.59767,0.9461 2.25032,1.07389 16.06723,3.14598 4.79648,0.71932 11.12251,2.48184 14.05785,3.9167 2.93533,1.43486 9.65619,3.31684 14.93523,4.18218 5.27904,0.86534 10.53755,2.0277 11.68556,2.58303 1.14801,0.55532 8.91298,1.40747 17.25547,1.89363 8.34249,0.48617 16.2086,1.41749 17.48025,2.06958 1.27164,0.6521 5.53898,1.53915 9.48299,1.97123 3.94396,0.43208 10.16716,1.40208 13.82934,2.15556 18.17092,3.73864 61.33961,8.84241 82.49716,9.75351 8.03612,0.34605 15.55042,0.94901 16.69844,1.33989 1.14801,0.39089 4.27897,0.51779 6.9576,0.28197 2.67875,-0.2358 6.0032,-0.51417 7.3877,-0.61861 3.84868,-0.29029 1.5777,-2.42204 -2.81556,-2.64285 -7.04152,-0.35394 -22.95461,-4.07955 -28.92398,-6.77178 -9.45706,-4.2652 -20.50621,-8.12797 -27.13497,-9.48637 -4.20935,-0.8626 -9.70982,-2.40549 -12.22315,-3.42863 -2.51332,-1.02313 -5.15679,-1.86024 -5.87429,-1.86024 -0.71762,0 -4.92312,-1.59074 -9.3457,-3.535 -4.42259,-1.94425 -9.16212,-3.40244 -10.53233,-3.24042 -1.37021,0.16202 -5.12736,-0.87367 -8.34922,-2.30154 -3.22186,-1.42786 -9.92817,-3.63585 -14.90294,-4.90664 -38.8722,-9.92977 -82.3332,-26.92321 -104.90267,-41.01741 -4.50503,-2.81329 -11.9565,-7.03896 -16.55881,-9.39036 -4.60233,-2.35141 -11.24856,-6.74045 -14.76941,-9.75344 -3.52085,-3.01297 -8.90633,-6.76985 -11.9677,-8.34861 -3.06137,-1.57875 -10.26257,-6.48187 -16.00266,-10.8958 -5.74009,-4.41395 -13.56749,-10.34172 -17.39422,-13.17283 -9.09207,-6.72657 -29.20854,-25.67637 -31.37531,-29.55565 -0.93303,-1.67045 -6.30725,-7.20756 -11.94273,-12.30466 -5.63547,-5.09712 -13.84913,-13.79656 -18.25256,-19.33208 -4.40341,-5.53552 -9.77731,-11.90531 -11.94201,-14.15507 -2.16468,-2.24976 -6.6705,-8.59048 -10.01292,-14.09048 -3.34241,-5.5 -8.61594,-13.25836 -11.71898,-17.24081 -3.10302,-3.98244 -5.64186,-8.01156 -5.64186,-8.9536 0,-0.94204 -1.87857,-3.76288 -4.17461,-6.26855 -2.29604,-2.50565 -4.17461,-4.99076 -4.17461,-5.52244 0,-2.03865 -8.82538,-18.81088 -11.24266,-21.36613 -1.39693,-1.47667 -3.5243,-4.77667 -4.7275,-7.33333 -1.20318,-2.55666 -4.99022,-8.83334 -8.41564,-13.94818 -6.53924,-9.76444 -7.6089,-13.60958 -4.1407,-14.88478 2.10684,-0.77467 2.97786,-4.49899 1.04365,-4.46247 -2.39827,0.0453 -18.90606,4.10405 -20.34874,5.00315 -0.86237,0.53742 -2.50724,1.00796 -3.65527,1.04562 -5.00022,0.16407 -16.49922,2.36246 -22.26457,4.25658 -3.44405,1.13149 -11.58454,2.20642 -18.08997,2.38874 -12.96166,0.36326 -32.68065,2.7047 -35.16419,4.17539 -2.39616,1.41897 -56.8726,0.82617 -60.9429,-0.66316 -3.60199,-1.31799 -33.1909,-0.86385 -37.94654,0.5824 -7.71298,2.34561 -60.43869,2.61237 -78.02486,0.39476 -18.022982,-2.27269 -64.570983,0.98104 -67.388389,4.71049 -0.589864,0.78082 -2.605389,5.61966 -4.478931,10.75299 -3.198024,8.76225 -3.395532,10.9314 -3.228015,35.45095 0.104363,15.27442 0.782544,27.19918 1.633537,28.72277 2.216305,3.968 2.365116,32.53841 0.262999,50.49294 -1.030316,8.8 -1.827299,20.8 -1.771082,26.66667 0.05628,5.86666 0.101859,16.96666 0.101553,24.66666 -6.6e-4,13.72303 0.05913,17.18184 0.553192,32 0.134481,4.03334 0.08693,9.43334 -0.105742,12 -0.19263,2.56667 0.03075,8.56667 0.496492,13.33333 0.465692,4.76667 1.084838,11.66667 1.375888,15.33334 0.291029,3.66666 1.428655,9.36666 2.528051,12.66666 4.414022,13.24947 5.390763,16.74699 5.030034,18.01163 -0.207345,0.72693 0.131032,3.38464 0.751942,5.90599 4.509406,18.31125 26.626833,31.92505 57.845751,35.60541 13.80977,1.62801 40.37552,2.3803 57.053,1.61564 10.33215,-0.47375 21.91669,-0.40727 25.74342,0.1477 z M 967.94852,482.1968 c 2.3294,-0.60887 12.16019,-1.15344 21.84625,-1.21016 9.68601,-0.0567 21.24333,-0.714 25.68283,-1.46066 7.7988,-1.31164 32.1746,-4.74826 42.1644,-5.9446 18.7926,-2.25048 47.1169,-6.64602 57.053,-8.85386 6.5055,-1.44552 14.646,-2.96391 18.09,-3.37419 16.9068,-2.01407 50.1817,-9.95017 64.0107,-15.2666 3.444,-1.32403 10.0191,-3.1226 14.6111,-3.99683 4.5921,-0.87421 11.4802,-2.41945 15.307,-3.43384 3.8266,-1.0144 12.5933,-3.13858 19.4814,-4.72041 6.8881,-1.58181 16.1367,-4.66873 20.5524,-6.85981 4.4157,-2.19108 9.1734,-3.69691 10.5727,-3.3463 1.3992,0.35062 4.0483,-0.16121 5.8868,-1.1374 1.8384,-0.97618 5.1536,-1.79614 7.367,-1.82212 2.2134,-0.026 12.8846,-4.16709 23.7137,-9.20246 10.8292,-5.03536 21.1246,-9.59167 22.8788,-10.12512 1.754,-0.53347 8.9294,-4.10481 15.9452,-7.93633 7.0155,-3.83152 19.3306,-10.50947 27.3667,-14.83988 18.1676,-9.78994 37.9931,-24.14435 50.9384,-36.88123 5.4384,-5.35089 13.2658,-12.77433 17.3942,-16.49653 11.6725,-10.52416 22.1173,-24.34557 22.1173,-29.26773 0,-1.21588 1.2524,-3.73624 2.783,-5.6008 3.3883,-4.12724 3.8993,-13.69716 0.7316,-13.69716 -2.192,0 -5.3354,-5.0463 -6.8048,-10.92419 -0.7542,-3.01645 -0.2845,-3.87117 2.9355,-5.34319 5.0874,-2.3255 5.6019,-7.4303 1.558,-15.45161 -6.2433,-12.38349 -11.046,-17.55428 -22.4243,-24.14334 -2.8701,-1.662 -5.2183,-3.4229 -5.2183,-3.91308 0,-0.49019 -1.722,-0.97356 -3.8266,-1.07416 -2.1048,-0.10054 -9.7756,-1.77606 -17.0465,-3.72326 -7.2706,-1.9472 -16.3504,-4.36506 -20.1772,-5.37305 -17.3015,-4.55731 -19.611,-5.29855 -21.6783,-6.95771 -1.2082,-0.96969 -4.4511,-1.76308 -7.2062,-1.76308 -2.7551,0 -5.9485,-0.9 -7.0965,-2 -1.148,-1.1 -3.6757,-2 -5.617,-2 -1.9414,0 -6.2129,-0.83946 -9.4923,-1.86549 -3.2794,-1.02601 -9.0936,-2.19416 -12.9203,-2.59588 -3.8268,-0.40172 -12.5934,-2.28543 -19.4815,-4.18603 -18.8457,-5.19996 -38.6529,-9.97901 -41.4473,-10.00032 -1.3662,-0.0107 -3.871,-0.86129 -5.5661,-1.89081 -1.6951,-1.02953 -5.8158,-2.29401 -9.1571,-2.80996 -3.3414,-0.51595 -8.8797,-2.12675 -12.3074,-3.57955 -3.4277,-1.45281 -9.6504,-2.84134 -13.8282,-3.08564 -4.1778,-0.24428 -8.3454,-1.00329 -9.2615,-1.68669 -0.9159,-0.68339 -4.1701,-1.87633 -7.2316,-2.651 -3.0613,-0.77465 -9.0013,-2.66249 -13.1998,-4.19521 -4.1987,-1.53271 -10.5711,-2.78675 -14.1611,-2.78675 -7.2201,0 -37.1185,-5.12169 -58.9143,-10.09226 -4.592,-1.04723 -9.6016,-1.89753 -11.1323,-1.88956 -16.1715,0.0843 -30.4205,-2.71274 -61.2276,-12.01872 -6.8881,-2.08071 -16.6852,-4.05767 -21.7714,-4.39324 -5.0862,-0.33557 -10.0957,-1.11263 -11.1323,-1.7268 -1.9353,-1.14668 -3.6524,-1.32899 -22.7577,-2.41637 -6.1228,-0.34848 -13.5536,-1.60754 -16.51298,-2.79791 -2.95938,-1.19038 -6.22986,-1.8521 -7.26767,-1.4705 -1.0378,0.3816 -7.38321,0.0727 -14.10077,-0.68644 -20.04033,-2.2647 -21.22883,-2.3586 -40.04458,-3.1639 -9.94955,-0.42583 -21.53405,-1.33161 -25.74341,-2.01286 -4.20936,-0.68125 -14.85461,-1.59933 -23.65616,-2.04019 -8.80144,-0.44086 -19.13359,-1.43329 -22.96035,-2.20541 -3.82666,-0.77212 -14.15882,-1.61983 -22.96036,-1.88379 -8.80143,-0.26396 -19.13359,-0.75897 -22.96035,-1.10002 -26.78492,-2.38714 -28.15085,-2.39933 -31.52445,-0.28133 -1.83589,1.15264 -6.13918,2.08259 -9.56288,2.06657 -21.13104,-0.0989 -64.57494,1.51088 -71.62711,2.65407 -6.66705,1.08078 -54.55008,3.14607 -66.79372,2.88095 -1.53069,-0.0331 -6.99651,0.83755 -12.14626,1.93487 -5.14976,1.09733 -9.8462,1.88475 -10.43653,1.74983 -0.59032,-0.13492 -6.70905,0.27591 -13.59715,0.91295 -6.88811,0.63704 -13.08733,1.01319 -13.77601,0.83589 -1.67052,-0.43006 -20.80642,3.51831 -28.66585,5.91472 -3.44405,1.05012 -9.07978,1.92066 -12.52383,1.93452 -3.44405,0.0139 -8.76668,0.6491 -11.82806,1.41163 -3.06138,0.76253 -9.63638,1.71452 -14.61114,2.11553 -4.97473,0.40101 -9.98426,1.19718 -11.13228,1.76926 -1.14801,0.57208 -8.03613,1.81529 -15.30691,2.76269 -9.47172,1.23419 -15.78392,2.93867 -22.26457,6.01209 -4.97474,2.35925 -11.23666,4.71768 -13.91536,5.24096 -2.67871,0.52327 -7.49733,2.08346 -10.70807,3.46709 -3.21073,1.38362 -6.65478,2.51072 -7.65345,2.50465 -0.99867,-0.006 -6.96924,2.47473 -13.26791,5.51288 -11.17993,5.3926 -11.55876,5.47443 -15.93751,3.44243 -3.04258,-1.41193 -5.26023,-1.68412 -6.89424,-0.8462 -1.32486,0.67939 -3.7024,1.23525 -5.2834,1.23525 -3.86315,0 -3.67068,3.57931 0.2564,4.7681 4.25445,1.2879 7.90278,6.39772 15.62566,21.88512 2.00756,4.02593 4.81169,8.52593 6.23138,10 2.59399,2.6933 13.98254,20.92216 20.83356,33.34678 3.62619,6.5763 12.62674,19.50452 18.10103,26 1.54509,1.83333 2.82319,3.90804 2.8402,4.61045 0.017,0.70242 2.1437,3.40242 4.72595,6 2.58224,2.59759 8.06141,8.96988 12.17594,14.16067 11.18395,14.1094 19.22505,23.03289 26.86243,29.81017 3.77171,3.34696 9.09433,8.26322 11.82807,10.92502 6.20531,6.04206 22.14525,18.85994 28.98172,23.30523 2.83264,1.84188 7.66867,5.42622 10.74674,7.96519 12.04322,9.93395 39.33007,27.22327 42.96509,27.22327 1.05318,0 3.40824,1.0846 5.23348,2.41022 7.27043,5.28032 50.85488,26.92311 54.218,26.92311 0.85712,0 3.5316,0.84036 5.94331,1.86745 2.41169,1.0271 5.63728,2.17971 7.16798,2.56135 1.53069,0.38164 12.80214,3.97165 25.04765,7.97781 12.24553,4.00616 24.3497,7.64813 26.8982,8.09328 2.54849,0.44515 6.61874,1.64324 9.04502,2.66243 5.8002,2.43648 19.3609,6.74586 28.06746,8.91945 3.82676,0.95533 10.08867,3.12189 13.91533,4.81457 3.82676,1.69268 8.11544,3.08347 9.53053,3.09063 1.41498,0.007 4.54594,0.8844 6.95761,1.9494 6.89854,3.04639 32.66173,8.9794 57.95913,13.3474 5.74008,0.99112 12.002,2.08521 13.91533,2.43131 1.91332,0.3461 6.29666,1.04866 9.74071,1.56124 3.44406,0.51257 14.08933,2.42133 23.65616,4.24169 9.99809,1.90243 19.296,2.97015 21.86684,2.51107 5.16972,-0.92314 14.71163,3.07081 19.18347,8.02968 1.53069,1.69736 4.03552,3.28997 5.56621,3.53914 3.64416,0.59319 25.24809,-1.37218 30.67425,-2.79054 z M 731.3268,417.12394 c -2.29604,-0.23078 -6.52283,-1.03954 -9.39287,-1.79723 -4.66878,-1.23258 -5.21826,-1.83534 -5.21826,-5.72412 0,-2.39056 0.75143,-5.06648 1.66984,-5.94648 2.31347,-2.21668 7.38154,-2.00244 9.46248,0.4 1.07434,1.24032 4.13182,2 8.04938,2 6.61863,0 21.17289,-3.76922 21.17289,-5.4833 0,-0.54796 -2.86889,-2.36914 -6.37525,-4.04708 -6.98789,-3.34393 -8.23411,-4.88456 -9.60171,-11.86938 -1.24455,-6.35639 1.60169,-8.58128 15.25923,-11.9282 13.90678,-3.40799 15.43197,-3.36116 19.56671,0.60069 3.9424,3.77749 4.76772,9.50973 1.17923,8.19031 -1.90478,-0.70036 -9.07487,0.48838 -15.55418,2.57877 -2.14408,0.69171 1.01036,5.90529 7.00615,11.57992 12.93283,12.24005 -8.12275,24.37112 -37.22364,21.4461 z m 478.8768,-7.99851 c -0.5342,-0.51188 -7.5638,-0.7849 -15.6212,-0.60671 -12.8008,0.28309 -15.2451,-0.0285 -19.366,-2.46884 -5.0048,-2.96375 -6.8571,-6.26337 -5.466,-9.73691 0.4667,-1.16533 -0.071,-3.79986 -1.1956,-5.85449 -4.1696,-7.61977 -8.4159,-22.43417 -9.3509,-32.62308 -0.5298,-5.7748 -1.3645,-10.88397 -1.8547,-11.35372 -0.779,-0.7464 -6.9986,1.61271 -13.432,5.09468 -1.148,0.62137 -6.7837,3.55065 -12.5237,6.50951 -11.3172,5.83364 -22.4895,13.78094 -25.865,18.3986 -1.7293,2.36552 -3.4656,2.8949 -9.3502,2.85078 -5.8713,-0.044 -8.0886,-0.76093 -11.8222,-3.82222 -3.6925,-3.02756 -4.4232,-4.42631 -3.7182,-7.11771 0.8799,-3.35939 3.4422,-4.71453 29.8731,-15.79991 4.2042,-1.76328 12.4708,-6.30188 18.3701,-10.08576 5.8992,-3.78388 12.7916,-7.27866 15.3163,-7.7662 10.489,-2.02552 9.298,0.21699 12.1417,-22.86218 1.259,-10.21736 1.1653,-12.78984 -0.5819,-16 -1.1451,-2.10384 -2.0859,-4.87516 -2.0906,-6.15849 0,-1.28334 -2.5133,-4.73334 -5.5747,-7.66667 -6.0404,-5.78771 -6.7394,-8.46827 -3.3999,-13.03665 2.6933,-3.68435 4.6089,-3.70664 11.7568,-0.13682 6.1528,3.07287 7.7242,5.39324 12.5333,18.5068 2.807,7.65403 3.2244,11.62708 3.5714,34.00315 0.3935,25.37265 1.7392,33.7593 5.106,31.82114 1.3724,-0.79006 1.3862,-0.58122 0.065,0.98424 -3.3389,3.9564 -1.9009,21.07034 2.2288,26.5248 2.0456,2.70196 4.1746,3.51072 11.2397,4.26986 4.8399,0.52004 9.8238,1.89725 11.2073,3.09693 2.2972,1.99196 2.8348,1.99032 6.8942,-0.0211 4.3763,-2.16845 12.5488,-1.74233 12.5488,0.65428 0,3.04806 8.4382,2.5635 19.5658,-1.12354 18.2368,-6.0426 19.2219,-6.53594 22.0964,-11.06483 2.5865,-4.07525 3.1653,-6.35213 5.0364,-19.81163 0.4588,-3.3 1.7639,-7.88688 2.9003,-10.19305 3.087,-6.26508 11.4988,-15.14028 14.3498,-15.14028 1.3772,0 3.1927,-0.79479 4.034,-1.7662 1.2113,-1.39841 -0.011,-2.23137 -5.866,-4 -4.0675,-1.22858 -9.0947,-2.2338 -11.1712,-2.2338 -7.9282,0 -10.2077,-17.06864 -2.7163,-20.3392 2.8462,-1.24257 3.6676,-1.02654 5.4695,1.43852 1.1664,1.59538 2.75,2.90068 3.5192,2.90068 0.7695,0 4.8036,1.5433 8.9648,3.42954 9.9725,4.52044 20.0046,5.42938 30.7667,2.78758 4.6897,-1.15118 10.625,-1.76702 13.1895,-1.36852 6.8386,1.06267 11.2496,-2.55633 29.637,-24.31588 4.6943,-5.55509 1.6181,-6.27713 -16.0774,-3.7737 -14.4741,2.04768 -16.7631,2.06398 -26.291,0.18717 -16.793,-3.30789 -22.7111,-5.177 -26.8938,-8.49375 -2.1635,-1.7155 -4.5493,-3.1191 -5.3018,-3.1191 -0.7526,0 -4.2386,-2.1 -7.7468,-4.66667 -3.5081,-2.56667 -7.1629,-4.66667 -8.1216,-4.66667 -0.9586,0 -3.5689,-1.99258 -5.8005,-4.42796 -4.6006,-5.02066 -7.5216,-6.45964 -10.0604,-4.95618 -1.78,1.05405 -1.9502,2.7194 -1.372,13.41897 0.4112,7.60973 -1.8305,11.98059 -5.6533,11.02273 -1.5407,-0.38605 -2.8013,-1.23193 -2.8013,-1.87973 0,-0.6478 -1.0958,-1.1806 -2.4352,-1.184 -1.3393,-0.004 -4.3822,-1.75488 -6.7618,-3.8922 -8.9535,-8.04171 -6.5215,-20.82824 6.2044,-32.62198 6.1424,-5.69238 6.7005,-5.78102 23.8657,-3.79027 12.8795,1.49371 16.9107,3.0414 19.3646,7.43453 1.6552,2.9636 1.6115,3.86013 -0.3267,6.69449 -2.1685,3.17111 -2.0913,3.3798 2.4888,6.72712 2.5998,1.89996 5.0941,3.45448 5.5431,3.45448 0.4489,0 3.4651,1.64312 6.7026,3.65138 5.6806,3.52373 6.5431,3.65074 24.6722,3.63334 18.5467,-0.0179 31.5178,-1.53113 39.6587,-4.62698 5.1354,-1.95292 21.3538,-1.82184 23.8876,0.19305 1.0208,0.81165 1.8558,2.61041 1.8558,3.99723 0,1.38682 0.6986,3.59321 1.5523,4.90306 1.2454,1.91094 0.6835,3.94939 -2.8433,10.31524 -8.7866,15.85894 -10.7203,18.46212 -24.6924,33.24034 -13.665,14.4535 -14.6686,15.21262 -26.2569,19.86062 -14.2653,5.72181 -17.4213,5.9234 -23.4747,1.49939 -6.3451,-4.63722 -10.0627,-4.33991 -12.5042,1 -1.0897,2.38333 -4.34,6.73284 -7.223,9.66557 -7.357,7.48392 -9.8865,14.97084 -9.5009,28.12015 l 0.3164,10.7857 -5.5165,6.18382 c -3.9643,4.44393 -7.1575,6.59732 -11.3494,7.65345 -3.2081,0.80831 -9.0425,2.95588 -12.9653,4.77241 -5.6578,2.61992 -9.1101,3.2663 -16.6984,3.12635 -5.2614,-0.0971 -11.7537,0.46909 -14.4273,1.25805 -5.5215,1.62934 -12.9854,1.8899 -14.432,0.50382 z M 696.12816,390.96165 c -1.75635,-0.95153 -4.48603,-3.76672 -6.06595,-6.25598 -2.4516,-3.86271 -2.73962,-5.81844 -1.96549,-13.34603 1.0649,-10.35507 3.49762,-19.47148 7.57892,-28.40227 3.31411,-7.25178 5.82587,-7.75138 10.26964,-2.04269 2.73426,3.51244 2.73374,3.55845 -0.12712,12.66667 -1.57925,5.02778 -3.06082,11.47817 -3.29251,14.33421 -0.60928,7.51257 2.87119,7.32608 11.96934,-0.64136 4.1147,-3.60328 8.07912,-6.55143 8.80988,-6.55143 0.73077,0 2.46208,-1.2 3.84733,-2.66666 3.41274,-3.61327 5.48887,-3.35283 7.53255,0.94486 1.56391,3.28891 1.38932,3.84048 -1.95455,6.17444 -2.01957,1.40962 -6.10745,5.72194 -9.08427,9.58295 -6.32108,8.19867 -15.90744,16.09439 -20.85196,17.17467 -1.90988,0.41726 -4.90955,-0.0199 -6.6659,-0.97138 z m -48.43962,-29.48672 c -3.39886,-2.28108 -7.07596,-18.6904 -6.33628,-28.27617 0.25764,-3.33897 3.68523,-4.98913 6.84442,-3.29512 6.92709,3.71447 18.02396,-8.73132 20.33753,-22.80972 1.89332,-11.52117 5.20387,-12.02664 8.94608,-1.36593 1.95676,5.57441 -0.4143,19.3482 -4.30086,24.98421 -1.52112,2.20581 -6.11903,6.11057 -10.21759,8.67724 -4.09856,2.56667 -7.45683,5.08713 -7.46283,5.60104 -0.005,0.51391 0.67226,3.98664 1.50724,7.7172 2.17107,9.69987 -2.03342,13.65596 -9.31771,8.76725 z m 583.27126,-3.34325 c -1.346,-1.42511 -4.2662,-2.97387 -6.4893,-3.44171 -2.223,-0.46784 -4.7478,-2.15185 -5.6106,-3.74224 -0.8626,-1.5904 -2.8038,-4.02546 -4.3134,-5.41126 -2.2131,-2.03151 -2.5459,-3.4522 -1.717,-7.33334 0.5653,-2.64753 1.4159,-8.70862 1.8899,-13.46909 0.7795,-7.82793 1.2391,-8.8279 4.8062,-10.46002 3.5543,-1.62627 4.2509,-1.52856 7.0474,0.98873 1.7067,1.53635 3.7277,2.79336 4.4913,2.79336 0.7634,0 2.7692,1.79009 4.4573,3.97799 1.6883,2.18789 4.8926,4.8813 7.1209,5.98537 2.2281,1.10406 4.4209,3.12292 4.8724,4.48634 0.4516,1.36342 2.3883,3.16312 4.3037,3.99935 3.7516,1.63783 3.7569,2.04059 0.1954,14.75273 -1.3071,4.66555 -2.562,6.23704 -6.122,7.66667 -6.3199,2.53801 -12.0748,2.23244 -14.9322,-0.79288 z M 608.17326,350.7162 c -2.22489,-5.60711 -1.67809,-8.17743 3.32593,-15.6342 9.11286,-13.5796 27.86322,-31.69256 32.80784,-31.69256 1.85182,0 2.97366,6.8672 1.79195,10.96916 -0.57606,1.99971 -5.18754,8.0155 -10.24771,13.3684 -5.06016,5.35291 -9.6002,10.93985 -10.08896,12.41541 -0.77785,2.34831 -9.48591,10.22334 -14.45809,13.07506 -1.13501,0.65096 -2.22602,-0.22062 -3.13096,-2.50127 z M 567.8213,312.75539 c -3.86931,-0.9032 -7.00193,-5.9894 -7.17629,-11.65168 -0.32586,-10.58068 14.61352,-31.30684 25.47152,-35.33797 3.0598,-1.13596 3.16724,-0.1962 0.49051,4.29037 -1.09377,1.83333 -2.01087,4.80051 -2.03797,6.59371 -0.0271,1.79321 -1.54881,4.79321 -3.38148,6.66666 -1.8327,1.87347 -3.76115,5.35679 -4.28544,7.74074 -1.49525,6.79878 2.14625,6.94614 10.75502,0.43522 13.86574,-10.48684 29.04628,-20.103 31.73553,-20.103 3.76592,0 3.48978,4.65108 -0.43243,7.2834 -1.72203,1.15571 -3.13118,2.53974 -3.13144,3.07562 -6.4e-4,1.26357 -11.42701,11.11008 -16.26179,14.01334 -2.05614,1.23472 -4.56441,3.8962 -5.57395,5.9144 -3.18931,6.37595 -18.5192,12.86548 -26.17179,11.07919 z m -39.32055,-32.81965 c -1.72004,-1.6481 -1.16127,-7.5331 0.92807,-9.77464 3.96258,-4.2512 10.01366,-16.8589 9.49984,-19.79331 -0.33296,-1.90147 -2.54176,-4.00551 -5.9581,-5.67549 -3.95072,-1.9312 -5.74745,-3.83135 -6.59851,-6.97833 -1.22891,-4.54414 -3.75985,-5.56004 -7.25451,-2.91192 -1.14802,0.86992 -5.39517,3.00796 -9.43812,4.7512 -5.79381,2.49817 -7.58104,4.01679 -8.43768,7.16953 -1.49897,5.51672 -8.13978,5.72872 -11.28457,0.36024 -1.92946,-3.29379 -1.91456,-3.99084 0.1567,-7.33333 1.25885,-2.03147 4.953,-5.06878 8.20924,-6.74956 3.25623,-1.6808 7.74965,-4.5308 9.98537,-6.33334 2.23569,-1.80254 4.96799,-3.27734 6.07173,-3.27734 1.10376,0 5.54858,-1.81094 9.87738,-4.02428 9.26804,-4.73886 30.83333,-13.30906 33.48971,-13.30906 1.01821,0 3.38831,1.47274 5.26687,3.27274 4.4228,4.23778 4.71401,14.39484 0.63252,22.0606 -1.53068,2.8749 -2.78306,6.90496 -2.78306,8.95568 0,6.36707 -2.56325,12.69978 -6.86392,16.95786 -2.27003,2.24755 -5.15756,6.48645 -6.41671,9.41979 -3.75069,8.73758 -15.36207,16.77754 -19.08225,13.21296 z m 21.521,-48.87963 c 1.27318,-2.38333 2.70708,-6.23696 3.18646,-8.56362 0.80215,-3.89314 0.61516,-4.1759 -2.34628,-3.54772 -2.79456,0.59277 -7.68345,2.46662 -14.96313,5.73518 -3.71874,1.6697 -3.05329,3.82468 2.24659,7.27542 6.90693,4.49708 9.08164,4.33241 11.87636,-0.89926 z m -91.36331,-10.9039 c -0.92779,-7.11519 1.57361,-15.42943 4.64204,-15.42943 3.47877,0 25.15923,-21.23764 25.19088,-24.67637 0.0125,-1.36459 -11.63092,-8.65696 -13.82225,-8.65696 -1.51382,0 -7.03841,-8.87442 -7.03841,-11.30615 0,-1.00121 2.22661,-2.52449 4.948,-3.38507 4.53772,-1.43494 5.41873,-1.25004 10.62452,2.22992 3.12208,2.08706 9.81871,6.33739 14.88139,9.44519 5.06268,3.10781 11.39653,7.6856 14.07524,10.17284 2.67871,2.48725 6.27931,4.93493 8.00134,5.43929 2.54335,0.74491 3.13096,1.88632 3.13096,6.0818 0,2.84064 -0.63453,5.54055 -1.41002,5.99979 -0.77552,0.45924 -4.92144,-0.70535 -9.21315,-2.58797 -4.29171,-1.88264 -8.44126,-3.42298 -9.2212,-3.42298 -0.77993,0 -10.11897,8.4 -20.7534,18.66667 -10.63444,10.26667 -20.18062,18.66667 -21.21378,18.66667 -1.23028,0 -2.20408,-2.49723 -2.82216,-7.23724 z m 853.63476,-63.47634 c 0,-2.01017 -5.1796,-1.50812 -6.0172,0.58322 -0.4118,1.0283 -0.3964,2.2072 0.034,2.61976 1.0694,1.02465 5.983,-1.60584 5.983,-3.20298 z m -85.5794,-10.61975 c 0.4729,-0.73334 0.1968,-1.33334 -0.6138,-1.33334 -0.8104,0 -1.4736,0.6 -1.4736,1.33334 0,0.73333 0.2762,1.33333 0.6136,1.33333 0.3375,0 1.0007,-0.6 1.4738,-1.33333 z m -106.4526,-28.66667 c 0,-1.1 -0.4696,-2.00819 -1.0436,-2.01821 -0.5741,-0.01 -2.4619,-0.38232 -4.1953,-0.82735 -2.4685,-0.63377 -2.9708,-0.35728 -2.3168,1.27563 0.7273,1.81594 2.6994,2.85024 6.5121,3.41526 0.574,0.0851 1.0436,-0.74533 1.0436,-1.84533 z"
       style="fill:#000000;stroke-width:1.36212" />
  </g>
</svg>
